ISO-10303-21;
HEADER;
/* Generated by software containing ST-Developer
 * from STEP Tools, Inc. (www.steptools.com) 
 */

FILE_DESCRIPTION(
/* description */ (''),
/* implementation_level */ '2;1');

FILE_NAME(
/* name */ 'BodyFoldedSide2SG.stp',
/* time_stamp */ '2026-06-17T18:22:44+01:00',
/* author */ ('Jakub Schmidt'),
/* organization */ (''),
/* preprocessor_version */ 'ST-DEVELOPER v20.1',
/* originating_system */ 'Autodesk Inventor 2026',
/* authorisation */ '');

FILE_SCHEMA (('AUTOMOTIVE_DESIGN { 1 0 10303 214 3 1 1 }'));
ENDSEC;

DATA;
#10=MECHANICAL_DESIGN_GEOMETRIC_PRESENTATION_REPRESENTATION('',(#13),#328);
#11=SHAPE_REPRESENTATION_RELATIONSHIP('SRR','None',#335,#12);
#12=ADVANCED_BREP_SHAPE_REPRESENTATION('',(#14),#327);
#13=STYLED_ITEM('',(#344),#14);
#14=MANIFOLD_SOLID_BREP('Solid3',#187);
#15=CYLINDRICAL_SURFACE('',#214,5.);
#16=CYLINDRICAL_SURFACE('',#217,5.);
#17=CIRCLE('',#212,5.);
#18=CIRCLE('',#213,5.);
#19=CIRCLE('',#215,5.);
#20=CIRCLE('',#218,5.);
#21=FACE_OUTER_BOUND('',#31,.T.);
#22=FACE_OUTER_BOUND('',#32,.T.);
#23=FACE_OUTER_BOUND('',#33,.T.);
#24=FACE_OUTER_BOUND('',#34,.T.);
#25=FACE_OUTER_BOUND('',#35,.T.);
#26=FACE_OUTER_BOUND('',#36,.T.);
#27=FACE_OUTER_BOUND('',#37,.T.);
#28=FACE_OUTER_BOUND('',#38,.T.);
#29=FACE_OUTER_BOUND('',#39,.T.);
#30=FACE_OUTER_BOUND('',#40,.T.);
#31=EDGE_LOOP('',(#121,#122,#123,#124,#125,#126,#127,#128));
#32=EDGE_LOOP('',(#129,#130,#131,#132));
#33=EDGE_LOOP('',(#133,#134,#135,#136));
#34=EDGE_LOOP('',(#137,#138,#139,#140));
#35=EDGE_LOOP('',(#141,#142,#143,#144));
#36=EDGE_LOOP('',(#145,#146,#147,#148));
#37=EDGE_LOOP('',(#149,#150,#151,#152,#153,#154,#155,#156));
#38=EDGE_LOOP('',(#157,#158,#159,#160));
#39=EDGE_LOOP('',(#161,#162,#163,#164));
#40=EDGE_LOOP('',(#165,#166,#167,#168));
#41=LINE('',#278,#61);
#42=LINE('',#280,#62);
#43=LINE('',#282,#63);
#44=LINE('',#284,#64);
#45=LINE('',#286,#65);
#46=LINE('',#288,#66);
#47=LINE('',#290,#67);
#48=LINE('',#291,#68);
#49=LINE('',#296,#69);
#50=LINE('',#300,#70);
#51=LINE('',#304,#71);
#52=LINE('',#305,#72);
#53=LINE('',#311,#73);
#54=LINE('',#312,#74);
#55=LINE('',#313,#75);
#56=LINE('',#316,#76);
#57=LINE('',#317,#77);
#58=LINE('',#320,#78);
#59=LINE('',#321,#79);
#60=LINE('',#323,#80);
#61=VECTOR('',#228,10.);
#62=VECTOR('',#229,10.);
#63=VECTOR('',#230,10.);
#64=VECTOR('',#231,10.);
#65=VECTOR('',#232,10.);
#66=VECTOR('',#233,10.);
#67=VECTOR('',#234,10.);
#68=VECTOR('',#235,10.);
#69=VECTOR('',#240,10.);
#70=VECTOR('',#245,10.);
#71=VECTOR('',#250,10.);
#72=VECTOR('',#251,10.);
#73=VECTOR('',#258,10.);
#74=VECTOR('',#259,10.);
#75=VECTOR('',#260,10.);
#76=VECTOR('',#263,10.);
#77=VECTOR('',#264,10.);
#78=VECTOR('',#267,10.);
#79=VECTOR('',#268,10.);
#80=VECTOR('',#271,10.);
#81=VERTEX_POINT('',#276);
#82=VERTEX_POINT('',#277);
#83=VERTEX_POINT('',#279);
#84=VERTEX_POINT('',#281);
#85=VERTEX_POINT('',#283);
#86=VERTEX_POINT('',#285);
#87=VERTEX_POINT('',#287);
#88=VERTEX_POINT('',#289);
#89=VERTEX_POINT('',#293);
#90=VERTEX_POINT('',#295);
#91=VERTEX_POINT('',#299);
#92=VERTEX_POINT('',#303);
#93=VERTEX_POINT('',#309);
#94=VERTEX_POINT('',#310);
#95=VERTEX_POINT('',#315);
#96=VERTEX_POINT('',#319);
#97=EDGE_CURVE('',#81,#82,#41,.T.);
#98=EDGE_CURVE('',#83,#82,#42,.T.);
#99=EDGE_CURVE('',#84,#83,#43,.T.);
#100=EDGE_CURVE('',#85,#84,#44,.T.);
#101=EDGE_CURVE('',#86,#85,#45,.T.);
#102=EDGE_CURVE('',#87,#86,#46,.T.);
#103=EDGE_CURVE('',#88,#87,#47,.T.);
#104=EDGE_CURVE('',#81,#88,#48,.T.);
#105=EDGE_CURVE('',#84,#89,#17,.T.);
#106=EDGE_CURVE('',#89,#90,#49,.T.);
#107=EDGE_CURVE('',#90,#85,#18,.T.);
#108=EDGE_CURVE('',#91,#89,#50,.T.);
#109=EDGE_CURVE('',#83,#91,#19,.T.);
#110=EDGE_CURVE('',#91,#92,#51,.T.);
#111=EDGE_CURVE('',#92,#90,#52,.T.);
#112=EDGE_CURVE('',#92,#86,#20,.T.);
#113=EDGE_CURVE('',#93,#94,#53,.T.);
#114=EDGE_CURVE('',#88,#93,#54,.T.);
#115=EDGE_CURVE('',#94,#87,#55,.T.);
#116=EDGE_CURVE('',#82,#95,#56,.T.);
#117=EDGE_CURVE('',#95,#94,#57,.T.);
#118=EDGE_CURVE('',#95,#96,#58,.F.);
#119=EDGE_CURVE('',#96,#81,#59,.T.);
#120=EDGE_CURVE('',#93,#96,#60,.T.);
#121=ORIENTED_EDGE('',*,*,#97,.T.);
#122=ORIENTED_EDGE('',*,*,#98,.F.);
#123=ORIENTED_EDGE('',*,*,#99,.F.);
#124=ORIENTED_EDGE('',*,*,#100,.F.);
#125=ORIENTED_EDGE('',*,*,#101,.F.);
#126=ORIENTED_EDGE('',*,*,#102,.F.);
#127=ORIENTED_EDGE('',*,*,#103,.F.);
#128=ORIENTED_EDGE('',*,*,#104,.F.);
#129=ORIENTED_EDGE('',*,*,#100,.T.);
#130=ORIENTED_EDGE('',*,*,#105,.T.);
#131=ORIENTED_EDGE('',*,*,#106,.T.);
#132=ORIENTED_EDGE('',*,*,#107,.T.);
#133=ORIENTED_EDGE('',*,*,#108,.T.);
#134=ORIENTED_EDGE('',*,*,#105,.F.);
#135=ORIENTED_EDGE('',*,*,#99,.T.);
#136=ORIENTED_EDGE('',*,*,#109,.T.);
#137=ORIENTED_EDGE('',*,*,#110,.T.);
#138=ORIENTED_EDGE('',*,*,#111,.T.);
#139=ORIENTED_EDGE('',*,*,#106,.F.);
#140=ORIENTED_EDGE('',*,*,#108,.F.);
#141=ORIENTED_EDGE('',*,*,#112,.T.);
#142=ORIENTED_EDGE('',*,*,#101,.T.);
#143=ORIENTED_EDGE('',*,*,#107,.F.);
#144=ORIENTED_EDGE('',*,*,#111,.F.);
#145=ORIENTED_EDGE('',*,*,#113,.F.);
#146=ORIENTED_EDGE('',*,*,#114,.F.);
#147=ORIENTED_EDGE('',*,*,#103,.T.);
#148=ORIENTED_EDGE('',*,*,#115,.F.);
#149=ORIENTED_EDGE('',*,*,#102,.T.);
#150=ORIENTED_EDGE('',*,*,#112,.F.);
#151=ORIENTED_EDGE('',*,*,#110,.F.);
#152=ORIENTED_EDGE('',*,*,#109,.F.);
#153=ORIENTED_EDGE('',*,*,#98,.T.);
#154=ORIENTED_EDGE('',*,*,#116,.T.);
#155=ORIENTED_EDGE('',*,*,#117,.T.);
#156=ORIENTED_EDGE('',*,*,#115,.T.);
#157=ORIENTED_EDGE('',*,*,#118,.F.);
#158=ORIENTED_EDGE('',*,*,#116,.F.);
#159=ORIENTED_EDGE('',*,*,#97,.F.);
#160=ORIENTED_EDGE('',*,*,#119,.F.);
#161=ORIENTED_EDGE('',*,*,#104,.T.);
#162=ORIENTED_EDGE('',*,*,#114,.T.);
#163=ORIENTED_EDGE('',*,*,#120,.T.);
#164=ORIENTED_EDGE('',*,*,#119,.T.);
#165=ORIENTED_EDGE('',*,*,#118,.T.);
#166=ORIENTED_EDGE('',*,*,#120,.F.);
#167=ORIENTED_EDGE('',*,*,#113,.T.);
#168=ORIENTED_EDGE('',*,*,#117,.F.);
#169=PLANE('',#210);
#170=PLANE('',#211);
#171=PLANE('',#216);
#172=PLANE('',#219);
#173=PLANE('',#220);
#174=PLANE('',#221);
#175=PLANE('',#222);
#176=PLANE('',#223);
#177=ADVANCED_FACE('',(#21),#169,.F.);
#178=ADVANCED_FACE('',(#22),#170,.T.);
#179=ADVANCED_FACE('',(#23),#15,.T.);
#180=ADVANCED_FACE('',(#24),#171,.T.);
#181=ADVANCED_FACE('',(#25),#16,.T.);
#182=ADVANCED_FACE('',(#26),#172,.T.);
#183=ADVANCED_FACE('',(#27),#173,.T.);
#184=ADVANCED_FACE('',(#28),#174,.T.);
#185=ADVANCED_FACE('',(#29),#175,.T.);
#186=ADVANCED_FACE('',(#30),#176,.F.);
#187=CLOSED_SHELL('',(#177,#178,#179,#180,#181,#182,#183,#184,#185,#186));
#188=DERIVED_UNIT_ELEMENT(#191,1.);
#189=DERIVED_UNIT_ELEMENT(#330,-3.);
#190=DIMENSIONAL_EXPONENTS(0.,1.,0.,0.,0.,0.,0.);
#191=(
CONVERSION_BASED_UNIT('gram',#193)
MASS_UNIT()
NAMED_UNIT(#190)
);
#192=(
MASS_UNIT()
NAMED_UNIT(*)
SI_UNIT(.KILO.,.GRAM.)
);
#193=MASS_MEASURE_WITH_UNIT(MASS_MEASURE(0.001),#192);
#194=DERIVED_UNIT((#188,#189));
#195=MEASURE_REPRESENTATION_ITEM('density measure',
POSITIVE_RATIO_MEASURE(1.),#194);
#196=PROPERTY_DEFINITION_REPRESENTATION(#201,#198);
#197=PROPERTY_DEFINITION_REPRESENTATION(#202,#199);
#198=REPRESENTATION('material name',(#200),#327);
#199=REPRESENTATION('density',(#195),#327);
#200=DESCRIPTIVE_REPRESENTATION_ITEM('Generic','Generic');
#201=PROPERTY_DEFINITION('material property','material name',#337);
#202=PROPERTY_DEFINITION('material property','density of part',#337);
#203=DATE_TIME_ROLE('creation_date');
#204=APPLIED_DATE_AND_TIME_ASSIGNMENT(#205,#203,(#337));
#205=DATE_AND_TIME(#206,#207);
#206=CALENDAR_DATE(2025,2,11);
#207=LOCAL_TIME(0,0,0.,#208);
#208=COORDINATED_UNIVERSAL_TIME_OFFSET(0,0,.BEHIND.);
#209=AXIS2_PLACEMENT_3D('',#274,#224,#225);
#210=AXIS2_PLACEMENT_3D('',#275,#226,#227);
#211=AXIS2_PLACEMENT_3D('',#292,#236,#237);
#212=AXIS2_PLACEMENT_3D('',#294,#238,#239);
#213=AXIS2_PLACEMENT_3D('',#297,#241,#242);
#214=AXIS2_PLACEMENT_3D('',#298,#243,#244);
#215=AXIS2_PLACEMENT_3D('',#301,#246,#247);
#216=AXIS2_PLACEMENT_3D('',#302,#248,#249);
#217=AXIS2_PLACEMENT_3D('',#306,#252,#253);
#218=AXIS2_PLACEMENT_3D('',#307,#254,#255);
#219=AXIS2_PLACEMENT_3D('',#308,#256,#257);
#220=AXIS2_PLACEMENT_3D('',#314,#261,#262);
#221=AXIS2_PLACEMENT_3D('',#318,#265,#266);
#222=AXIS2_PLACEMENT_3D('',#322,#269,#270);
#223=AXIS2_PLACEMENT_3D('',#324,#272,#273);
#224=DIRECTION('axis',(0.,0.,1.));
#225=DIRECTION('refdir',(1.,0.,0.));
#226=DIRECTION('center_axis',(0.,1.,0.));
#227=DIRECTION('ref_axis',(0.,0.,1.));
#228=DIRECTION('',(0.,0.,-1.));
#229=DIRECTION('',(-1.,0.,0.));
#230=DIRECTION('',(0.,0.,-1.));
#231=DIRECTION('',(1.,0.,0.));
#232=DIRECTION('',(0.,0.,1.));
#233=DIRECTION('',(-1.,0.,0.));
#234=DIRECTION('',(0.,0.,-1.));
#235=DIRECTION('',(-1.,0.,0.));
#236=DIRECTION('center_axis',(0.,0.,1.));
#237=DIRECTION('ref_axis',(1.,0.,0.));
#238=DIRECTION('center_axis',(0.,0.,1.));
#239=DIRECTION('ref_axis',(1.,0.,0.));
#240=DIRECTION('',(-1.,-4.44089209850063E-16,0.));
#241=DIRECTION('center_axis',(0.,0.,1.));
#242=DIRECTION('ref_axis',(-0.499999999999998,0.86602540378444,0.));
#243=DIRECTION('center_axis',(0.,0.,-1.));
#244=DIRECTION('ref_axis',(1.,0.,0.));
#245=DIRECTION('',(0.,0.,1.));
#246=DIRECTION('center_axis',(0.,0.,1.));
#247=DIRECTION('ref_axis',(1.,0.,0.));
#248=DIRECTION('center_axis',(-4.44089209850063E-16,1.,0.));
#249=DIRECTION('ref_axis',(-1.,-4.44089209850063E-16,0.));
#250=DIRECTION('',(-1.,-4.44089209850063E-16,0.));
#251=DIRECTION('',(0.,0.,1.));
#252=DIRECTION('center_axis',(0.,0.,-1.));
#253=DIRECTION('ref_axis',(-0.499999999999998,0.86602540378444,0.));
#254=DIRECTION('center_axis',(0.,0.,1.));
#255=DIRECTION('ref_axis',(-0.499999999999998,0.86602540378444,0.));
#256=DIRECTION('center_axis',(0.866025403784438,-0.500000000000001,0.));
#257=DIRECTION('ref_axis',(-0.500000000000001,-0.866025403784438,0.));
#258=DIRECTION('',(0.,0.,-1.));
#259=DIRECTION('',(0.500000000000001,0.866025403784438,0.));
#260=DIRECTION('',(-0.500000000000001,-0.866025403784438,0.));
#261=DIRECTION('center_axis',(0.,0.,-1.));
#262=DIRECTION('ref_axis',(-1.,0.,0.));
#263=DIRECTION('',(-0.500000000000002,0.866025403784437,0.));
#264=DIRECTION('',(-1.,-1.11022302462516E-16,0.));
#265=DIRECTION('center_axis',(-0.866025403784437,-0.500000000000002,0.));
#266=DIRECTION('ref_axis',(-0.500000000000002,0.866025403784437,0.));
#267=DIRECTION('',(0.,0.,-1.));
#268=DIRECTION('',(0.500000000000002,-0.866025403784437,0.));
#269=DIRECTION('center_axis',(0.,0.,-1.));
#270=DIRECTION('ref_axis',(-1.,0.,0.));
#271=DIRECTION('',(1.,1.11022302462516E-16,0.));
#272=DIRECTION('center_axis',(-1.11022302462516E-16,1.,0.));
#273=DIRECTION('ref_axis',(1.,1.11022302462516E-16,0.));
#274=CARTESIAN_POINT('',(0.,0.,0.));
#275=CARTESIAN_POINT('Origin',(3.26794919243112,1.,-5.));
#276=CARTESIAN_POINT('',(3.26794919243112,1.,-0.5));
#277=CARTESIAN_POINT('',(3.26794919243112,1.,-5.));
#278=CARTESIAN_POINT('',(3.26794919243112,1.,-0.5));
#279=CARTESIAN_POINT('',(4.89897948556636,1.,-5.));
#280=CARTESIAN_POINT('',(3.50897459621556,1.,-5.));
#281=CARTESIAN_POINT('',(4.89897948556636,1.,0.5));
#282=CARTESIAN_POINT('',(4.89897948556636,1.,0.));
#283=CARTESIAN_POINT('',(-4.89897948556636,1.,0.5));
#284=CARTESIAN_POINT('',(1.63397459621556,1.,0.5));
#285=CARTESIAN_POINT('',(-4.89897948556636,1.,-5.));
#286=CARTESIAN_POINT('',(-4.89897948556636,1.,0.));
#287=CARTESIAN_POINT('',(-3.26794919243113,1.,-5.));
#288=CARTESIAN_POINT('',(-0.241025403784438,1.,-5.));
#289=CARTESIAN_POINT('',(-3.26794919243112,0.999999999999999,-0.5));
#290=CARTESIAN_POINT('',(-3.26794919243113,1.,-0.5));
#291=CARTESIAN_POINT('',(1.63397459621556,1.,-0.5));
#292=CARTESIAN_POINT('Origin',(5.55111512312578E-16,5.55111512312578E-16,
0.5));
#293=CARTESIAN_POINT('',(2.5,4.3301270189222,0.5));
#294=CARTESIAN_POINT('Origin',(0.,0.,0.5));
#295=CARTESIAN_POINT('',(-2.5,4.33012701892219,0.5));
#296=CARTESIAN_POINT('',(2.5,4.3301270189222,0.5));
#297=CARTESIAN_POINT('Origin',(0.,0.,0.5));
#298=CARTESIAN_POINT('Origin',(0.,0.,0.));
#299=CARTESIAN_POINT('',(2.5,4.3301270189222,-5.));
#300=CARTESIAN_POINT('',(2.5,4.3301270189222,0.));
#301=CARTESIAN_POINT('Origin',(0.,0.,-5.));
#302=CARTESIAN_POINT('Origin',(2.5,4.3301270189222,0.));
#303=CARTESIAN_POINT('',(-2.5,4.33012701892219,-5.));
#304=CARTESIAN_POINT('',(2.5,4.3301270189222,-5.));
#305=CARTESIAN_POINT('',(-2.5,4.33012701892219,0.));
#306=CARTESIAN_POINT('Origin',(0.,0.,0.));
#307=CARTESIAN_POINT('Origin',(0.,0.,-5.));
#308=CARTESIAN_POINT('Origin',(-2.5,2.33012701892219,-0.5));
#309=CARTESIAN_POINT('',(-2.5,2.33012701892219,-0.5));
#310=CARTESIAN_POINT('',(-2.5,2.33012701892219,-5.));
#311=CARTESIAN_POINT('',(-2.5,2.33012701892219,-0.5));
#312=CARTESIAN_POINT('',(-2.69198729810778,1.99759526419165,-0.5));
#313=CARTESIAN_POINT('',(-2.5,2.33012701892219,-5.));
#314=CARTESIAN_POINT('Origin',(-3.75,2.1650635094611,-5.));
#315=CARTESIAN_POINT('',(2.5,2.33012701892219,-5.));
#316=CARTESIAN_POINT('',(3.26794919243112,1.,-5.));
#317=CARTESIAN_POINT('',(2.5,2.33012701892219,-5.));
#318=CARTESIAN_POINT('Origin',(3.26794919243112,1.,-0.5));
#319=CARTESIAN_POINT('',(2.5,2.33012701892219,-0.5));
#320=CARTESIAN_POINT('',(2.5,2.33012701892219,0.));
#321=CARTESIAN_POINT('',(3.07596189432334,1.33253175473055,-0.5));
#322=CARTESIAN_POINT('Origin',(5.55111512312578E-16,5.55111512312578E-16,
-0.5));
#323=CARTESIAN_POINT('',(2.5,2.33012701892219,-0.5));
#324=CARTESIAN_POINT('Origin',(-2.5,2.33012701892219,0.));
#325=UNCERTAINTY_MEASURE_WITH_UNIT(LENGTH_MEASURE(0.01),#329,
'DISTANCE_ACCURACY_VALUE',
'Maximum model space distance between geometric entities at asserted c
onnectivities');
#326=UNCERTAINTY_MEASURE_WITH_UNIT(LENGTH_MEASURE(0.01),#329,
'DISTANCE_ACCURACY_VALUE',
'Maximum model space distance between geometric entities at asserted c
onnectivities');
#327=(
GEOMETRIC_REPRESENTATION_CONTEXT(3)
GLOBAL_UNCERTAINTY_ASSIGNED_CONTEXT((#325))
GLOBAL_UNIT_ASSIGNED_CONTEXT((#329,#331,#332))
REPRESENTATION_CONTEXT('','3D')
);
#328=(
GEOMETRIC_REPRESENTATION_CONTEXT(3)
GLOBAL_UNCERTAINTY_ASSIGNED_CONTEXT((#326))
GLOBAL_UNIT_ASSIGNED_CONTEXT((#329,#331,#332))
REPRESENTATION_CONTEXT('','3D')
);
#329=(
LENGTH_UNIT()
NAMED_UNIT(*)
SI_UNIT(.MILLI.,.METRE.)
);
#330=(
LENGTH_UNIT()
NAMED_UNIT(*)
SI_UNIT(.CENTI.,.METRE.)
);
#331=(
NAMED_UNIT(*)
PLANE_ANGLE_UNIT()
SI_UNIT($,.RADIAN.)
);
#332=(
NAMED_UNIT(*)
SI_UNIT($,.STERADIAN.)
SOLID_ANGLE_UNIT()
);
#333=SHAPE_DEFINITION_REPRESENTATION(#334,#335);
#334=PRODUCT_DEFINITION_SHAPE('',$,#337);
#335=SHAPE_REPRESENTATION('',(#209),#327);
#336=PRODUCT_DEFINITION_CONTEXT('part definition',#341,'design');
#337=PRODUCT_DEFINITION('BodyFoldedSide2','BodyFoldedSide2',#338,#336);
#338=PRODUCT_DEFINITION_FORMATION('',$,#343);
#339=PRODUCT_RELATED_PRODUCT_CATEGORY('BodyFoldedSide2',
'BodyFoldedSide2',(#343));
#340=APPLICATION_PROTOCOL_DEFINITION('international standard',
'automotive_design',2009,#341);
#341=APPLICATION_CONTEXT(
'Core Data for Automotive Mechanical Design Process');
#342=PRODUCT_CONTEXT('part definition',#341,'mechanical');
#343=PRODUCT('BodyFoldedSide2','BodyFoldedSide2',$,(#342));
#344=PRESENTATION_STYLE_ASSIGNMENT((#345));
#345=SURFACE_STYLE_USAGE(.BOTH.,#348);
#346=SURFACE_STYLE_RENDERING_WITH_PROPERTIES($,#352,(#347));
#347=SURFACE_STYLE_TRANSPARENT(0.);
#348=SURFACE_SIDE_STYLE('',(#349,#346));
#349=SURFACE_STYLE_FILL_AREA(#350);
#350=FILL_AREA_STYLE('',(#351));
#351=FILL_AREA_STYLE_COLOUR('',#352);
#352=COLOUR_RGB('',0.749019607843137,0.749019607843137,0.749019607843137);
ENDSEC;
END-ISO-10303-21;
