ISO-10303-21;
HEADER;
/* Generated by software containing ST-Developer
 * from STEP Tools, Inc. (www.steptools.com) 
 */

FILE_DESCRIPTION(
/* description */ (''),
/* implementation_level */ '2;1');

FILE_NAME(
/* name */ 'BodyFoldedSide2.stp',
/* time_stamp */ '2026-06-17T18:17:11+01:00',
/* author */ ('Jakub Schmidt'),
/* organization */ (''),
/* preprocessor_version */ 'ST-DEVELOPER v20.1',
/* originating_system */ 'Autodesk Inventor 2026',
/* authorisation */ '');

FILE_SCHEMA (('AUTOMOTIVE_DESIGN { 1 0 10303 214 3 1 1 }'));
ENDSEC;

DATA;
#10=MECHANICAL_DESIGN_GEOMETRIC_PRESENTATION_REPRESENTATION('',(#13),#424);
#11=SHAPE_REPRESENTATION_RELATIONSHIP('SRR','None',#431,#12);
#12=ADVANCED_BREP_SHAPE_REPRESENTATION('',(#14),#423);
#13=STYLED_ITEM('',(#440),#14);
#14=MANIFOLD_SOLID_BREP('Solid3',#247);
#15=CYLINDRICAL_SURFACE('',#274,5.);
#16=CYLINDRICAL_SURFACE('',#279,5.);
#17=CIRCLE('',#272,5.);
#18=CIRCLE('',#273,5.);
#19=CIRCLE('',#275,5.);
#20=CIRCLE('',#280,5.);
#21=FACE_OUTER_BOUND('',#35,.T.);
#22=FACE_OUTER_BOUND('',#36,.T.);
#23=FACE_OUTER_BOUND('',#37,.T.);
#24=FACE_OUTER_BOUND('',#38,.T.);
#25=FACE_OUTER_BOUND('',#39,.T.);
#26=FACE_OUTER_BOUND('',#40,.T.);
#27=FACE_OUTER_BOUND('',#41,.T.);
#28=FACE_OUTER_BOUND('',#42,.T.);
#29=FACE_OUTER_BOUND('',#43,.T.);
#30=FACE_OUTER_BOUND('',#44,.T.);
#31=FACE_OUTER_BOUND('',#45,.T.);
#32=FACE_OUTER_BOUND('',#46,.T.);
#33=FACE_OUTER_BOUND('',#47,.T.);
#34=FACE_OUTER_BOUND('',#48,.T.);
#35=EDGE_LOOP('',(#157,#158,#159,#160,#161,#162,#163,#164));
#36=EDGE_LOOP('',(#165,#166,#167,#168));
#37=EDGE_LOOP('',(#169,#170,#171,#172,#173));
#38=EDGE_LOOP('',(#174,#175,#176,#177));
#39=EDGE_LOOP('',(#178,#179,#180,#181));
#40=EDGE_LOOP('',(#182,#183,#184,#185));
#41=EDGE_LOOP('',(#186,#187,#188,#189,#190));
#42=EDGE_LOOP('',(#191,#192,#193,#194));
#43=EDGE_LOOP('',(#195,#196,#197,#198));
#44=EDGE_LOOP('',(#199,#200,#201,#202));
#45=EDGE_LOOP('',(#203,#204,#205,#206));
#46=EDGE_LOOP('',(#207,#208,#209,#210,#211));
#47=EDGE_LOOP('',(#212,#213,#214,#215));
#48=EDGE_LOOP('',(#216,#217,#218,#219,#220));
#49=LINE('',#358,#77);
#50=LINE('',#360,#78);
#51=LINE('',#362,#79);
#52=LINE('',#364,#80);
#53=LINE('',#366,#81);
#54=LINE('',#368,#82);
#55=LINE('',#370,#83);
#56=LINE('',#371,#84);
#57=LINE('',#376,#85);
#58=LINE('',#382,#86);
#59=LINE('',#383,#87);
#60=LINE('',#386,#88);
#61=LINE('',#387,#89);
#62=LINE('',#391,#90);
#63=LINE('',#392,#91);
#64=LINE('',#394,#92);
#65=LINE('',#395,#93);
#66=LINE('',#397,#94);
#67=LINE('',#400,#95);
#68=LINE('',#404,#96);
#69=LINE('',#406,#97);
#70=LINE('',#407,#98);
#71=LINE('',#409,#99);
#72=LINE('',#412,#100);
#73=LINE('',#413,#101);
#74=LINE('',#415,#102);
#75=LINE('',#417,#103);
#76=LINE('',#419,#104);
#77=VECTOR('',#292,10.);
#78=VECTOR('',#293,10.);
#79=VECTOR('',#294,10.);
#80=VECTOR('',#295,10.);
#81=VECTOR('',#296,10.);
#82=VECTOR('',#297,10.);
#83=VECTOR('',#298,10.);
#84=VECTOR('',#299,10.);
#85=VECTOR('',#304,10.);
#86=VECTOR('',#311,10.);
#87=VECTOR('',#312,10.);
#88=VECTOR('',#315,10.);
#89=VECTOR('',#316,10.);
#90=VECTOR('',#319,10.);
#91=VECTOR('',#320,10.);
#92=VECTOR('',#321,10.);
#93=VECTOR('',#322,10.);
#94=VECTOR('',#325,10.);
#95=VECTOR('',#328,10.);
#96=VECTOR('',#333,10.);
#97=VECTOR('',#334,10.);
#98=VECTOR('',#335,10.);
#99=VECTOR('',#338,10.);
#100=VECTOR('',#341,10.);
#101=VECTOR('',#342,10.);
#102=VECTOR('',#345,10.);
#103=VECTOR('',#348,10.);
#104=VECTOR('',#351,10.);
#105=VERTEX_POINT('',#356);
#106=VERTEX_POINT('',#357);
#107=VERTEX_POINT('',#359);
#108=VERTEX_POINT('',#361);
#109=VERTEX_POINT('',#363);
#110=VERTEX_POINT('',#365);
#111=VERTEX_POINT('',#367);
#112=VERTEX_POINT('',#369);
#113=VERTEX_POINT('',#373);
#114=VERTEX_POINT('',#375);
#115=VERTEX_POINT('',#379);
#116=VERTEX_POINT('',#381);
#117=VERTEX_POINT('',#385);
#118=VERTEX_POINT('',#389);
#119=VERTEX_POINT('',#390);
#120=VERTEX_POINT('',#393);
#121=VERTEX_POINT('',#399);
#122=VERTEX_POINT('',#403);
#123=VERTEX_POINT('',#405);
#124=VERTEX_POINT('',#411);
#125=EDGE_CURVE('',#105,#106,#49,.T.);
#126=EDGE_CURVE('',#107,#106,#50,.T.);
#127=EDGE_CURVE('',#108,#107,#51,.T.);
#128=EDGE_CURVE('',#109,#108,#52,.T.);
#129=EDGE_CURVE('',#110,#109,#53,.T.);
#130=EDGE_CURVE('',#111,#110,#54,.T.);
#131=EDGE_CURVE('',#112,#111,#55,.T.);
#132=EDGE_CURVE('',#105,#112,#56,.T.);
#133=EDGE_CURVE('',#108,#113,#17,.T.);
#134=EDGE_CURVE('',#113,#114,#57,.T.);
#135=EDGE_CURVE('',#114,#109,#18,.T.);
#136=EDGE_CURVE('',#107,#115,#19,.T.);
#137=EDGE_CURVE('',#116,#115,#58,.T.);
#138=EDGE_CURVE('',#116,#113,#59,.T.);
#139=EDGE_CURVE('',#106,#117,#60,.T.);
#140=EDGE_CURVE('',#117,#115,#61,.T.);
#141=EDGE_CURVE('',#118,#119,#62,.T.);
#142=EDGE_CURVE('',#116,#119,#63,.T.);
#143=EDGE_CURVE('',#116,#120,#64,.T.);
#144=EDGE_CURVE('',#120,#118,#65,.T.);
#145=EDGE_CURVE('',#119,#114,#66,.T.);
#146=EDGE_CURVE('',#119,#121,#67,.T.);
#147=EDGE_CURVE('',#121,#110,#20,.T.);
#148=EDGE_CURVE('',#112,#122,#68,.T.);
#149=EDGE_CURVE('',#123,#111,#69,.T.);
#150=EDGE_CURVE('',#122,#123,#70,.T.);
#151=EDGE_CURVE('',#121,#123,#71,.T.);
#152=EDGE_CURVE('',#124,#105,#72,.T.);
#153=EDGE_CURVE('',#124,#117,#73,.T.);
#154=EDGE_CURVE('',#122,#124,#74,.T.);
#155=EDGE_CURVE('',#120,#124,#75,.T.);
#156=EDGE_CURVE('',#118,#122,#76,.T.);
#157=ORIENTED_EDGE('',*,*,#125,.T.);
#158=ORIENTED_EDGE('',*,*,#126,.F.);
#159=ORIENTED_EDGE('',*,*,#127,.F.);
#160=ORIENTED_EDGE('',*,*,#128,.F.);
#161=ORIENTED_EDGE('',*,*,#129,.F.);
#162=ORIENTED_EDGE('',*,*,#130,.F.);
#163=ORIENTED_EDGE('',*,*,#131,.F.);
#164=ORIENTED_EDGE('',*,*,#132,.F.);
#165=ORIENTED_EDGE('',*,*,#128,.T.);
#166=ORIENTED_EDGE('',*,*,#133,.T.);
#167=ORIENTED_EDGE('',*,*,#134,.T.);
#168=ORIENTED_EDGE('',*,*,#135,.T.);
#169=ORIENTED_EDGE('',*,*,#127,.T.);
#170=ORIENTED_EDGE('',*,*,#136,.T.);
#171=ORIENTED_EDGE('',*,*,#137,.F.);
#172=ORIENTED_EDGE('',*,*,#138,.T.);
#173=ORIENTED_EDGE('',*,*,#133,.F.);
#174=ORIENTED_EDGE('',*,*,#126,.T.);
#175=ORIENTED_EDGE('',*,*,#139,.T.);
#176=ORIENTED_EDGE('',*,*,#140,.T.);
#177=ORIENTED_EDGE('',*,*,#136,.F.);
#178=ORIENTED_EDGE('',*,*,#141,.T.);
#179=ORIENTED_EDGE('',*,*,#142,.F.);
#180=ORIENTED_EDGE('',*,*,#143,.T.);
#181=ORIENTED_EDGE('',*,*,#144,.T.);
#182=ORIENTED_EDGE('',*,*,#142,.T.);
#183=ORIENTED_EDGE('',*,*,#145,.T.);
#184=ORIENTED_EDGE('',*,*,#134,.F.);
#185=ORIENTED_EDGE('',*,*,#138,.F.);
#186=ORIENTED_EDGE('',*,*,#129,.T.);
#187=ORIENTED_EDGE('',*,*,#135,.F.);
#188=ORIENTED_EDGE('',*,*,#145,.F.);
#189=ORIENTED_EDGE('',*,*,#146,.T.);
#190=ORIENTED_EDGE('',*,*,#147,.T.);
#191=ORIENTED_EDGE('',*,*,#148,.F.);
#192=ORIENTED_EDGE('',*,*,#131,.T.);
#193=ORIENTED_EDGE('',*,*,#149,.F.);
#194=ORIENTED_EDGE('',*,*,#150,.F.);
#195=ORIENTED_EDGE('',*,*,#130,.T.);
#196=ORIENTED_EDGE('',*,*,#147,.F.);
#197=ORIENTED_EDGE('',*,*,#151,.T.);
#198=ORIENTED_EDGE('',*,*,#149,.T.);
#199=ORIENTED_EDGE('',*,*,#152,.F.);
#200=ORIENTED_EDGE('',*,*,#153,.T.);
#201=ORIENTED_EDGE('',*,*,#139,.F.);
#202=ORIENTED_EDGE('',*,*,#125,.F.);
#203=ORIENTED_EDGE('',*,*,#132,.T.);
#204=ORIENTED_EDGE('',*,*,#148,.T.);
#205=ORIENTED_EDGE('',*,*,#154,.T.);
#206=ORIENTED_EDGE('',*,*,#152,.T.);
#207=ORIENTED_EDGE('',*,*,#143,.F.);
#208=ORIENTED_EDGE('',*,*,#137,.T.);
#209=ORIENTED_EDGE('',*,*,#140,.F.);
#210=ORIENTED_EDGE('',*,*,#153,.F.);
#211=ORIENTED_EDGE('',*,*,#155,.F.);
#212=ORIENTED_EDGE('',*,*,#144,.F.);
#213=ORIENTED_EDGE('',*,*,#155,.T.);
#214=ORIENTED_EDGE('',*,*,#154,.F.);
#215=ORIENTED_EDGE('',*,*,#156,.F.);
#216=ORIENTED_EDGE('',*,*,#141,.F.);
#217=ORIENTED_EDGE('',*,*,#156,.T.);
#218=ORIENTED_EDGE('',*,*,#150,.T.);
#219=ORIENTED_EDGE('',*,*,#151,.F.);
#220=ORIENTED_EDGE('',*,*,#146,.F.);
#221=PLANE('',#270);
#222=PLANE('',#271);
#223=PLANE('',#276);
#224=PLANE('',#277);
#225=PLANE('',#278);
#226=PLANE('',#281);
#227=PLANE('',#282);
#228=PLANE('',#283);
#229=PLANE('',#284);
#230=PLANE('',#285);
#231=PLANE('',#286);
#232=PLANE('',#287);
#233=ADVANCED_FACE('',(#21),#221,.F.);
#234=ADVANCED_FACE('',(#22),#222,.T.);
#235=ADVANCED_FACE('',(#23),#15,.T.);
#236=ADVANCED_FACE('',(#24),#223,.T.);
#237=ADVANCED_FACE('',(#25),#224,.F.);
#238=ADVANCED_FACE('',(#26),#225,.T.);
#239=ADVANCED_FACE('',(#27),#16,.T.);
#240=ADVANCED_FACE('',(#28),#226,.T.);
#241=ADVANCED_FACE('',(#29),#227,.T.);
#242=ADVANCED_FACE('',(#30),#228,.T.);
#243=ADVANCED_FACE('',(#31),#229,.T.);
#244=ADVANCED_FACE('',(#32),#230,.T.);
#245=ADVANCED_FACE('',(#33),#231,.T.);
#246=ADVANCED_FACE('',(#34),#232,.T.);
#247=CLOSED_SHELL('',(#233,#234,#235,#236,#237,#238,#239,#240,#241,#242,
#243,#244,#245,#246));
#248=DERIVED_UNIT_ELEMENT(#251,1.);
#249=DERIVED_UNIT_ELEMENT(#426,-3.);
#250=DIMENSIONAL_EXPONENTS(0.,1.,0.,0.,0.,0.,0.);
#251=(
CONVERSION_BASED_UNIT('gram',#253)
MASS_UNIT()
NAMED_UNIT(#250)
);
#252=(
MASS_UNIT()
NAMED_UNIT(*)
SI_UNIT(.KILO.,.GRAM.)
);
#253=MASS_MEASURE_WITH_UNIT(MASS_MEASURE(0.001),#252);
#254=DERIVED_UNIT((#248,#249));
#255=MEASURE_REPRESENTATION_ITEM('density measure',
POSITIVE_RATIO_MEASURE(1.),#254);
#256=PROPERTY_DEFINITION_REPRESENTATION(#261,#258);
#257=PROPERTY_DEFINITION_REPRESENTATION(#262,#259);
#258=REPRESENTATION('material name',(#260),#423);
#259=REPRESENTATION('density',(#255),#423);
#260=DESCRIPTIVE_REPRESENTATION_ITEM('Generic','Generic');
#261=PROPERTY_DEFINITION('material property','material name',#433);
#262=PROPERTY_DEFINITION('material property','density of part',#433);
#263=DATE_TIME_ROLE('creation_date');
#264=APPLIED_DATE_AND_TIME_ASSIGNMENT(#265,#263,(#433));
#265=DATE_AND_TIME(#266,#267);
#266=CALENDAR_DATE(2025,2,11);
#267=LOCAL_TIME(0,0,0.,#268);
#268=COORDINATED_UNIVERSAL_TIME_OFFSET(0,0,.BEHIND.);
#269=AXIS2_PLACEMENT_3D('',#354,#288,#289);
#270=AXIS2_PLACEMENT_3D('',#355,#290,#291);
#271=AXIS2_PLACEMENT_3D('',#372,#300,#301);
#272=AXIS2_PLACEMENT_3D('',#374,#302,#303);
#273=AXIS2_PLACEMENT_3D('',#377,#305,#306);
#274=AXIS2_PLACEMENT_3D('',#378,#307,#308);
#275=AXIS2_PLACEMENT_3D('',#380,#309,#310);
#276=AXIS2_PLACEMENT_3D('',#384,#313,#314);
#277=AXIS2_PLACEMENT_3D('',#388,#317,#318);
#278=AXIS2_PLACEMENT_3D('',#396,#323,#324);
#279=AXIS2_PLACEMENT_3D('',#398,#326,#327);
#280=AXIS2_PLACEMENT_3D('',#401,#329,#330);
#281=AXIS2_PLACEMENT_3D('',#402,#331,#332);
#282=AXIS2_PLACEMENT_3D('',#408,#336,#337);
#283=AXIS2_PLACEMENT_3D('',#410,#339,#340);
#284=AXIS2_PLACEMENT_3D('',#414,#343,#344);
#285=AXIS2_PLACEMENT_3D('',#416,#346,#347);
#286=AXIS2_PLACEMENT_3D('',#418,#349,#350);
#287=AXIS2_PLACEMENT_3D('',#420,#352,#353);
#288=DIRECTION('axis',(0.,0.,1.));
#289=DIRECTION('refdir',(1.,0.,0.));
#290=DIRECTION('center_axis',(0.,1.,0.));
#291=DIRECTION('ref_axis',(0.,0.,1.));
#292=DIRECTION('',(0.,0.,-1.));
#293=DIRECTION('',(-1.,0.,0.));
#294=DIRECTION('',(0.,0.,-1.));
#295=DIRECTION('',(1.,0.,0.));
#296=DIRECTION('',(0.,0.,1.));
#297=DIRECTION('',(-1.,0.,0.));
#298=DIRECTION('',(0.,0.,-1.));
#299=DIRECTION('',(-1.,0.,0.));
#300=DIRECTION('center_axis',(0.,0.,1.));
#301=DIRECTION('ref_axis',(1.,0.,0.));
#302=DIRECTION('center_axis',(0.,0.,1.));
#303=DIRECTION('ref_axis',(1.,0.,0.));
#304=DIRECTION('',(-1.,-4.44089209850063E-16,0.));
#305=DIRECTION('center_axis',(0.,0.,1.));
#306=DIRECTION('ref_axis',(-0.499999999999998,0.86602540378444,0.));
#307=DIRECTION('center_axis',(0.,0.,-1.));
#308=DIRECTION('ref_axis',(1.,0.,0.));
#309=DIRECTION('center_axis',(0.,0.,1.));
#310=DIRECTION('ref_axis',(1.,0.,0.));
#311=DIRECTION('',(0.,0.,-1.));
#312=DIRECTION('',(0.,0.,1.));
#313=DIRECTION('center_axis',(0.,0.,-1.));
#314=DIRECTION('ref_axis',(-1.,0.,0.));
#315=DIRECTION('',(-0.500000000000002,0.866025403784437,0.));
#316=DIRECTION('',(0.,1.,0.));
#317=DIRECTION('center_axis',(0.,0.,1.));
#318=DIRECTION('ref_axis',(1.,0.,0.));
#319=DIRECTION('',(2.77555756156289E-16,1.,0.));
#320=DIRECTION('',(-1.,-4.44089209850063E-16,0.));
#321=DIRECTION('',(0.,-1.,0.));
#322=DIRECTION('',(-1.,-1.11022302462516E-16,0.));
#323=DIRECTION('center_axis',(-4.44089209850063E-16,1.,0.));
#324=DIRECTION('ref_axis',(-1.,-4.44089209850063E-16,0.));
#325=DIRECTION('',(0.,0.,1.));
#326=DIRECTION('center_axis',(0.,0.,-1.));
#327=DIRECTION('ref_axis',(-0.499999999999998,0.86602540378444,0.));
#328=DIRECTION('',(0.,0.,-1.));
#329=DIRECTION('center_axis',(0.,0.,1.));
#330=DIRECTION('ref_axis',(-0.499999999999998,0.86602540378444,0.));
#331=DIRECTION('center_axis',(0.866025403784438,-0.500000000000001,0.));
#332=DIRECTION('ref_axis',(-0.500000000000001,-0.866025403784438,0.));
#333=DIRECTION('',(0.500000000000001,0.866025403784438,0.));
#334=DIRECTION('',(-0.500000000000001,-0.866025403784438,0.));
#335=DIRECTION('',(0.,0.,-1.));
#336=DIRECTION('center_axis',(0.,0.,-1.));
#337=DIRECTION('ref_axis',(-1.,0.,0.));
#338=DIRECTION('',(-2.77555756156289E-16,-1.,0.));
#339=DIRECTION('center_axis',(-0.866025403784437,-0.500000000000002,0.));
#340=DIRECTION('ref_axis',(-0.500000000000002,0.866025403784437,0.));
#341=DIRECTION('',(0.500000000000002,-0.866025403784437,0.));
#342=DIRECTION('',(0.,0.,-1.));
#343=DIRECTION('center_axis',(0.,0.,-1.));
#344=DIRECTION('ref_axis',(-1.,0.,0.));
#345=DIRECTION('',(1.,1.11022302462516E-16,0.));
#346=DIRECTION('center_axis',(-1.,0.,0.));
#347=DIRECTION('ref_axis',(0.,1.,0.));
#348=DIRECTION('',(0.,0.,-1.));
#349=DIRECTION('center_axis',(-1.11022302462516E-16,1.,0.));
#350=DIRECTION('ref_axis',(1.,1.11022302462516E-16,0.));
#351=DIRECTION('',(0.,0.,-1.));
#352=DIRECTION('center_axis',(1.,-2.77555756156289E-16,0.));
#353=DIRECTION('ref_axis',(-2.77555756156289E-16,-1.,0.));
#354=CARTESIAN_POINT('',(0.,0.,0.));
#355=CARTESIAN_POINT('Origin',(3.26794919243112,1.,-5.));
#356=CARTESIAN_POINT('',(3.26794919243112,1.,-0.5));
#357=CARTESIAN_POINT('',(3.26794919243112,1.,-5.));
#358=CARTESIAN_POINT('',(3.26794919243112,1.,-0.5));
#359=CARTESIAN_POINT('',(4.89897948556636,1.,-5.));
#360=CARTESIAN_POINT('',(3.50897459621556,1.,-5.));
#361=CARTESIAN_POINT('',(4.89897948556636,1.,0.5));
#362=CARTESIAN_POINT('',(4.89897948556636,1.,0.));
#363=CARTESIAN_POINT('',(-4.89897948556636,1.,0.5));
#364=CARTESIAN_POINT('',(1.63397459621556,1.,0.5));
#365=CARTESIAN_POINT('',(-4.89897948556636,1.,-5.));
#366=CARTESIAN_POINT('',(-4.89897948556636,1.,0.));
#367=CARTESIAN_POINT('',(-3.26794919243113,1.,-5.));
#368=CARTESIAN_POINT('',(-0.241025403784438,1.,-5.));
#369=CARTESIAN_POINT('',(-3.26794919243112,0.999999999999999,-0.5));
#370=CARTESIAN_POINT('',(-3.26794919243113,1.,-0.5));
#371=CARTESIAN_POINT('',(1.63397459621556,1.,-0.5));
#372=CARTESIAN_POINT('Origin',(5.55111512312578E-16,5.55111512312578E-16,
0.5));
#373=CARTESIAN_POINT('',(2.5,4.3301270189222,0.5));
#374=CARTESIAN_POINT('Origin',(0.,0.,0.5));
#375=CARTESIAN_POINT('',(-2.5,4.33012701892219,0.5));
#376=CARTESIAN_POINT('',(2.5,4.3301270189222,0.5));
#377=CARTESIAN_POINT('Origin',(0.,0.,0.5));
#378=CARTESIAN_POINT('Origin',(0.,0.,0.));
#379=CARTESIAN_POINT('',(2.5,4.3301270189222,-5.));
#380=CARTESIAN_POINT('Origin',(0.,0.,-5.));
#381=CARTESIAN_POINT('',(2.5,4.3301270189222,0.));
#382=CARTESIAN_POINT('',(2.5,4.3301270189222,0.));
#383=CARTESIAN_POINT('',(2.5,4.3301270189222,0.));
#384=CARTESIAN_POINT('Origin',(3.75,2.1650635094611,-5.));
#385=CARTESIAN_POINT('',(2.5,2.33012701892219,-5.));
#386=CARTESIAN_POINT('',(3.26794919243112,1.,-5.));
#387=CARTESIAN_POINT('',(2.5,2.33012701892219,-5.));
#388=CARTESIAN_POINT('Origin',(5.55111512312578E-16,5.55111512312578E-16,
0.));
#389=CARTESIAN_POINT('',(-2.5,2.33012701892219,0.));
#390=CARTESIAN_POINT('',(-2.5,4.33012701892219,0.));
#391=CARTESIAN_POINT('',(-2.5,2.33012701892219,0.));
#392=CARTESIAN_POINT('',(2.5,4.3301270189222,0.));
#393=CARTESIAN_POINT('',(2.5,2.33012701892219,0.));
#394=CARTESIAN_POINT('',(2.5,4.33012701892219,0.));
#395=CARTESIAN_POINT('',(2.5,2.33012701892219,0.));
#396=CARTESIAN_POINT('Origin',(2.5,4.3301270189222,0.));
#397=CARTESIAN_POINT('',(-2.5,4.33012701892219,0.));
#398=CARTESIAN_POINT('Origin',(0.,0.,0.));
#399=CARTESIAN_POINT('',(-2.5,4.33012701892219,-5.));
#400=CARTESIAN_POINT('',(-2.5,4.33012701892219,0.));
#401=CARTESIAN_POINT('Origin',(0.,0.,-5.));
#402=CARTESIAN_POINT('Origin',(-2.5,2.33012701892219,-0.5));
#403=CARTESIAN_POINT('',(-2.5,2.33012701892219,-0.5));
#404=CARTESIAN_POINT('',(-2.69198729810778,1.99759526419165,-0.5));
#405=CARTESIAN_POINT('',(-2.5,2.33012701892219,-5.));
#406=CARTESIAN_POINT('',(-2.5,2.33012701892219,-5.));
#407=CARTESIAN_POINT('',(-2.5,2.33012701892219,-0.5));
#408=CARTESIAN_POINT('Origin',(-3.75,2.1650635094611,-5.));
#409=CARTESIAN_POINT('',(-2.5,4.33012701892219,-5.));
#410=CARTESIAN_POINT('Origin',(3.26794919243112,1.,-0.5));
#411=CARTESIAN_POINT('',(2.5,2.33012701892219,-0.5));
#412=CARTESIAN_POINT('',(3.07596189432334,1.33253175473055,-0.5));
#413=CARTESIAN_POINT('',(2.5,2.33012701892219,-0.5));
#414=CARTESIAN_POINT('Origin',(5.55111512312578E-16,5.55111512312578E-16,
-0.5));
#415=CARTESIAN_POINT('',(2.5,2.33012701892219,-0.5));
#416=CARTESIAN_POINT('Origin',(2.5,2.33012701892219,0.));
#417=CARTESIAN_POINT('',(2.5,2.33012701892219,0.));
#418=CARTESIAN_POINT('Origin',(-2.5,2.33012701892219,0.));
#419=CARTESIAN_POINT('',(-2.5,2.33012701892219,0.));
#420=CARTESIAN_POINT('Origin',(-2.5,4.33012701892219,0.));
#421=UNCERTAINTY_MEASURE_WITH_UNIT(LENGTH_MEASURE(0.01),#425,
'DISTANCE_ACCURACY_VALUE',
'Maximum model space distance between geometric entities at asserted c
onnectivities');
#422=UNCERTAINTY_MEASURE_WITH_UNIT(LENGTH_MEASURE(0.01),#425,
'DISTANCE_ACCURACY_VALUE',
'Maximum model space distance between geometric entities at asserted c
onnectivities');
#423=(
GEOMETRIC_REPRESENTATION_CONTEXT(3)
GLOBAL_UNCERTAINTY_ASSIGNED_CONTEXT((#421))
GLOBAL_UNIT_ASSIGNED_CONTEXT((#425,#427,#428))
REPRESENTATION_CONTEXT('','3D')
);
#424=(
GEOMETRIC_REPRESENTATION_CONTEXT(3)
GLOBAL_UNCERTAINTY_ASSIGNED_CONTEXT((#422))
GLOBAL_UNIT_ASSIGNED_CONTEXT((#425,#427,#428))
REPRESENTATION_CONTEXT('','3D')
);
#425=(
LENGTH_UNIT()
NAMED_UNIT(*)
SI_UNIT(.MILLI.,.METRE.)
);
#426=(
LENGTH_UNIT()
NAMED_UNIT(*)
SI_UNIT(.CENTI.,.METRE.)
);
#427=(
NAMED_UNIT(*)
PLANE_ANGLE_UNIT()
SI_UNIT($,.RADIAN.)
);
#428=(
NAMED_UNIT(*)
SI_UNIT($,.STERADIAN.)
SOLID_ANGLE_UNIT()
);
#429=SHAPE_DEFINITION_REPRESENTATION(#430,#431);
#430=PRODUCT_DEFINITION_SHAPE('',$,#433);
#431=SHAPE_REPRESENTATION('',(#269),#423);
#432=PRODUCT_DEFINITION_CONTEXT('part definition',#437,'design');
#433=PRODUCT_DEFINITION('BodyFoldedSide2','BodyFoldedSide2',#434,#432);
#434=PRODUCT_DEFINITION_FORMATION('',$,#439);
#435=PRODUCT_RELATED_PRODUCT_CATEGORY('BodyFoldedSide2',
'BodyFoldedSide2',(#439));
#436=APPLICATION_PROTOCOL_DEFINITION('international standard',
'automotive_design',2009,#437);
#437=APPLICATION_CONTEXT(
'Core Data for Automotive Mechanical Design Process');
#438=PRODUCT_CONTEXT('part definition',#437,'mechanical');
#439=PRODUCT('BodyFoldedSide2','BodyFoldedSide2',$,(#438));
#440=PRESENTATION_STYLE_ASSIGNMENT((#441));
#441=SURFACE_STYLE_USAGE(.BOTH.,#444);
#442=SURFACE_STYLE_RENDERING_WITH_PROPERTIES($,#448,(#443));
#443=SURFACE_STYLE_TRANSPARENT(0.);
#444=SURFACE_SIDE_STYLE('',(#445,#442));
#445=SURFACE_STYLE_FILL_AREA(#446);
#446=FILL_AREA_STYLE('',(#447));
#447=FILL_AREA_STYLE_COLOUR('',#448);
#448=COLOUR_RGB('',0.749019607843137,0.749019607843137,0.749019607843137);
ENDSEC;
END-ISO-10303-21;
