ISO-10303-21;
HEADER;
/* Generated by software containing ST-Developer
 * from STEP Tools, Inc. (www.steptools.com) 
 */

FILE_DESCRIPTION(
/* description */ (''),
/* implementation_level */ '2;1');

FILE_NAME(
/* name */ 'BodyFoldedSide1V2.stp',
/* time_stamp */ '2026-06-17T18:17:03+01:00',
/* author */ ('Jakub Schmidt'),
/* organization */ (''),
/* preprocessor_version */ 'ST-DEVELOPER v20.1',
/* originating_system */ 'Autodesk Inventor 2026',
/* authorisation */ '');

FILE_SCHEMA (('AUTOMOTIVE_DESIGN { 1 0 10303 214 3 1 1 }'));
ENDSEC;

DATA;
#10=MECHANICAL_DESIGN_GEOMETRIC_PRESENTATION_REPRESENTATION('',(#13),#753);
#11=SHAPE_REPRESENTATION_RELATIONSHIP('SRR','None',#760,#12);
#12=ADVANCED_BREP_SHAPE_REPRESENTATION('',(#14),#752);
#13=STYLED_ITEM('',(#769),#14);
#14=MANIFOLD_SOLID_BREP('Solid3',#440);
#15=PLANE('',#466);
#16=PLANE('',#470);
#17=PLANE('',#474);
#18=PLANE('',#475);
#19=PLANE('',#476);
#20=PLANE('',#480);
#21=PLANE('',#481);
#22=PLANE('',#482);
#23=PLANE('',#483);
#24=PLANE('',#484);
#25=PLANE('',#485);
#26=PLANE('',#488);
#27=PLANE('',#493);
#28=PLANE('',#494);
#29=PLANE('',#495);
#30=PLANE('',#496);
#31=PLANE('',#497);
#32=PLANE('',#498);
#33=PLANE('',#499);
#34=PLANE('',#500);
#35=PLANE('',#501);
#36=FACE_OUTER_BOUND('',#63,.T.);
#37=FACE_OUTER_BOUND('',#64,.T.);
#38=FACE_OUTER_BOUND('',#65,.T.);
#39=FACE_OUTER_BOUND('',#66,.T.);
#40=FACE_OUTER_BOUND('',#67,.T.);
#41=FACE_OUTER_BOUND('',#68,.T.);
#42=FACE_OUTER_BOUND('',#69,.T.);
#43=FACE_OUTER_BOUND('',#70,.T.);
#44=FACE_OUTER_BOUND('',#71,.T.);
#45=FACE_OUTER_BOUND('',#72,.T.);
#46=FACE_OUTER_BOUND('',#73,.T.);
#47=FACE_OUTER_BOUND('',#74,.T.);
#48=FACE_OUTER_BOUND('',#75,.T.);
#49=FACE_OUTER_BOUND('',#76,.T.);
#50=FACE_OUTER_BOUND('',#77,.T.);
#51=FACE_OUTER_BOUND('',#78,.T.);
#52=FACE_OUTER_BOUND('',#79,.T.);
#53=FACE_OUTER_BOUND('',#80,.T.);
#54=FACE_OUTER_BOUND('',#81,.T.);
#55=FACE_OUTER_BOUND('',#82,.T.);
#56=FACE_OUTER_BOUND('',#83,.T.);
#57=FACE_OUTER_BOUND('',#84,.T.);
#58=FACE_OUTER_BOUND('',#85,.T.);
#59=FACE_OUTER_BOUND('',#86,.T.);
#60=FACE_OUTER_BOUND('',#87,.T.);
#61=FACE_OUTER_BOUND('',#88,.T.);
#62=FACE_OUTER_BOUND('',#89,.T.);
#63=EDGE_LOOP('',(#289,#290,#291,#292));
#64=EDGE_LOOP('',(#293,#294,#295,#296));
#65=EDGE_LOOP('',(#297,#298,#299,#300));
#66=EDGE_LOOP('',(#301,#302,#303,#304));
#67=EDGE_LOOP('',(#305,#306,#307,#308));
#68=EDGE_LOOP('',(#309,#310,#311));
#69=EDGE_LOOP('',(#312,#313,#314));
#70=EDGE_LOOP('',(#315,#316,#317,#318,#319,#320,#321,#322));
#71=EDGE_LOOP('',(#323,#324,#325,#326,#327));
#72=EDGE_LOOP('',(#328,#329,#330));
#73=EDGE_LOOP('',(#331,#332,#333,#334));
#74=EDGE_LOOP('',(#335,#336,#337,#338));
#75=EDGE_LOOP('',(#339,#340,#341,#342));
#76=EDGE_LOOP('',(#343,#344,#345,#346));
#77=EDGE_LOOP('',(#347,#348,#349,#350,#351,#352));
#78=EDGE_LOOP('',(#353,#354,#355,#356));
#79=EDGE_LOOP('',(#357,#358,#359,#360,#361,#362));
#80=EDGE_LOOP('',(#363,#364,#365,#366,#367));
#81=EDGE_LOOP('',(#368,#369,#370,#371));
#82=EDGE_LOOP('',(#372,#373,#374,#375));
#83=EDGE_LOOP('',(#376,#377,#378));
#84=EDGE_LOOP('',(#379,#380,#381,#382,#383));
#85=EDGE_LOOP('',(#384,#385,#386,#387,#388));
#86=EDGE_LOOP('',(#389,#390,#391,#392));
#87=EDGE_LOOP('',(#393,#394,#395,#396,#397));
#88=EDGE_LOOP('',(#398,#399,#400,#401,#402));
#89=EDGE_LOOP('',(#403,#404,#405,#406));
#90=CIRCLE('',#464,5.5);
#91=CIRCLE('',#465,5.5);
#92=CIRCLE('',#467,1.);
#93=CIRCLE('',#469,1.);
#94=CIRCLE('',#471,5.5);
#95=CIRCLE('',#473,5.5);
#96=CIRCLE('',#478,5.);
#97=CIRCLE('',#479,5.);
#98=CIRCLE('',#486,5.);
#99=CIRCLE('',#487,5.);
#100=CIRCLE('',#490,5.);
#101=CIRCLE('',#492,5.);
#102=LINE('',#633,#149);
#103=LINE('',#637,#150);
#104=LINE('',#641,#151);
#105=LINE('',#643,#152);
#106=LINE('',#647,#153);
#107=LINE('',#649,#154);
#108=LINE('',#653,#155);
#109=LINE('',#655,#156);
#110=LINE('',#659,#157);
#111=LINE('',#661,#158);
#112=LINE('',#665,#159);
#113=LINE('',#666,#160);
#114=LINE('',#669,#161);
#115=LINE('',#670,#162);
#116=LINE('',#672,#163);
#117=LINE('',#677,#164);
#118=LINE('',#679,#165);
#119=LINE('',#682,#166);
#120=LINE('',#685,#167);
#121=LINE('',#687,#168);
#122=LINE('',#688,#169);
#123=LINE('',#692,#170);
#124=LINE('',#694,#171);
#125=LINE('',#696,#172);
#126=LINE('',#697,#173);
#127=LINE('',#700,#174);
#128=LINE('',#702,#175);
#129=LINE('',#703,#176);
#130=LINE('',#706,#177);
#131=LINE('',#708,#178);
#132=LINE('',#709,#179);
#133=LINE('',#715,#180);
#134=LINE('',#717,#181);
#135=LINE('',#718,#182);
#136=LINE('',#721,#183);
#137=LINE('',#724,#184);
#138=LINE('',#727,#185);
#139=LINE('',#731,#186);
#140=LINE('',#733,#187);
#141=LINE('',#734,#188);
#142=LINE('',#736,#189);
#143=LINE('',#737,#190);
#144=LINE('',#739,#191);
#145=LINE('',#741,#192);
#146=LINE('',#743,#193);
#147=LINE('',#745,#194);
#148=LINE('',#748,#195);
#149=VECTOR('',#506,10.);
#150=VECTOR('',#509,10.);
#151=VECTOR('',#514,10.);
#152=VECTOR('',#515,10.);
#153=VECTOR('',#520,10.);
#154=VECTOR('',#521,10.);
#155=VECTOR('',#526,10.);
#156=VECTOR('',#527,10.);
#157=VECTOR('',#532,10.);
#158=VECTOR('',#533,10.);
#159=VECTOR('',#538,10.);
#160=VECTOR('',#539,10.);
#161=VECTOR('',#542,10.);
#162=VECTOR('',#543,10.);
#163=VECTOR('',#546,10.);
#164=VECTOR('',#551,10.);
#165=VECTOR('',#552,10.);
#166=VECTOR('',#557,10.);
#167=VECTOR('',#560,10.);
#168=VECTOR('',#561,10.);
#169=VECTOR('',#562,10.);
#170=VECTOR('',#565,10.);
#171=VECTOR('',#566,10.);
#172=VECTOR('',#567,10.);
#173=VECTOR('',#568,10.);
#174=VECTOR('',#571,10.);
#175=VECTOR('',#572,10.);
#176=VECTOR('',#573,10.);
#177=VECTOR('',#576,10.);
#178=VECTOR('',#577,10.);
#179=VECTOR('',#578,10.);
#180=VECTOR('',#587,10.);
#181=VECTOR('',#588,10.);
#182=VECTOR('',#589,10.);
#183=VECTOR('',#592,10.);
#184=VECTOR('',#595,10.);
#185=VECTOR('',#598,10.);
#186=VECTOR('',#603,10.);
#187=VECTOR('',#604,10.);
#188=VECTOR('',#605,10.);
#189=VECTOR('',#608,10.);
#190=VECTOR('',#609,10.);
#191=VECTOR('',#612,10.);
#192=VECTOR('',#615,10.);
#193=VECTOR('',#618,10.);
#194=VECTOR('',#621,10.);
#195=VECTOR('',#626,10.);
#196=VERTEX_POINT('',#631);
#197=VERTEX_POINT('',#632);
#198=VERTEX_POINT('',#634);
#199=VERTEX_POINT('',#636);
#200=VERTEX_POINT('',#640);
#201=VERTEX_POINT('',#642);
#202=VERTEX_POINT('',#646);
#203=VERTEX_POINT('',#648);
#204=VERTEX_POINT('',#652);
#205=VERTEX_POINT('',#654);
#206=VERTEX_POINT('',#658);
#207=VERTEX_POINT('',#660);
#208=VERTEX_POINT('',#664);
#209=VERTEX_POINT('',#668);
#210=VERTEX_POINT('',#674);
#211=VERTEX_POINT('',#676);
#212=VERTEX_POINT('',#678);
#213=VERTEX_POINT('',#684);
#214=VERTEX_POINT('',#686);
#215=VERTEX_POINT('',#690);
#216=VERTEX_POINT('',#691);
#217=VERTEX_POINT('',#693);
#218=VERTEX_POINT('',#695);
#219=VERTEX_POINT('',#699);
#220=VERTEX_POINT('',#701);
#221=VERTEX_POINT('',#705);
#222=VERTEX_POINT('',#707);
#223=VERTEX_POINT('',#714);
#224=VERTEX_POINT('',#716);
#225=VERTEX_POINT('',#720);
#226=VERTEX_POINT('',#722);
#227=VERTEX_POINT('',#726);
#228=VERTEX_POINT('',#730);
#229=VERTEX_POINT('',#732);
#230=EDGE_CURVE('',#196,#197,#102,.T.);
#231=EDGE_CURVE('',#196,#198,#90,.T.);
#232=EDGE_CURVE('',#199,#198,#103,.T.);
#233=EDGE_CURVE('',#197,#199,#91,.T.);
#234=EDGE_CURVE('',#200,#197,#104,.T.);
#235=EDGE_CURVE('',#201,#199,#105,.T.);
#236=EDGE_CURVE('',#200,#201,#92,.T.);
#237=EDGE_CURVE('',#200,#202,#106,.T.);
#238=EDGE_CURVE('',#203,#201,#107,.T.);
#239=EDGE_CURVE('',#202,#203,#93,.T.);
#240=EDGE_CURVE('',#202,#204,#108,.T.);
#241=EDGE_CURVE('',#205,#203,#109,.T.);
#242=EDGE_CURVE('',#204,#205,#94,.T.);
#243=EDGE_CURVE('',#204,#206,#110,.T.);
#244=EDGE_CURVE('',#207,#205,#111,.T.);
#245=EDGE_CURVE('',#206,#207,#95,.T.);
#246=EDGE_CURVE('',#206,#208,#112,.T.);
#247=EDGE_CURVE('',#208,#207,#113,.T.);
#248=EDGE_CURVE('',#209,#196,#114,.T.);
#249=EDGE_CURVE('',#198,#209,#115,.T.);
#250=EDGE_CURVE('',#208,#209,#116,.T.);
#251=EDGE_CURVE('',#210,#196,#96,.T.);
#252=EDGE_CURVE('',#211,#210,#117,.T.);
#253=EDGE_CURVE('',#211,#212,#118,.T.);
#254=EDGE_CURVE('',#209,#212,#97,.T.);
#255=EDGE_CURVE('',#197,#210,#119,.T.);
#256=EDGE_CURVE('',#202,#213,#120,.T.);
#257=EDGE_CURVE('',#213,#214,#121,.T.);
#258=EDGE_CURVE('',#214,#200,#122,.T.);
#259=EDGE_CURVE('',#215,#216,#123,.T.);
#260=EDGE_CURVE('',#216,#217,#124,.T.);
#261=EDGE_CURVE('',#217,#218,#125,.T.);
#262=EDGE_CURVE('',#215,#218,#126,.T.);
#263=EDGE_CURVE('',#211,#219,#127,.T.);
#264=EDGE_CURVE('',#219,#220,#128,.T.);
#265=EDGE_CURVE('',#212,#220,#129,.T.);
#266=EDGE_CURVE('',#218,#221,#130,.T.);
#267=EDGE_CURVE('',#222,#221,#131,.T.);
#268=EDGE_CURVE('',#215,#222,#132,.T.);
#269=EDGE_CURVE('',#220,#222,#98,.T.);
#270=EDGE_CURVE('',#221,#208,#99,.T.);
#271=EDGE_CURVE('',#223,#219,#133,.T.);
#272=EDGE_CURVE('',#211,#224,#134,.T.);
#273=EDGE_CURVE('',#224,#223,#135,.T.);
#274=EDGE_CURVE('',#219,#225,#136,.T.);
#275=EDGE_CURVE('',#226,#225,#100,.T.);
#276=EDGE_CURVE('',#215,#226,#137,.T.);
#277=EDGE_CURVE('',#218,#227,#138,.T.);
#278=EDGE_CURVE('',#206,#227,#101,.T.);
#279=EDGE_CURVE('',#213,#228,#139,.T.);
#280=EDGE_CURVE('',#229,#228,#140,.T.);
#281=EDGE_CURVE('',#214,#229,#141,.T.);
#282=EDGE_CURVE('',#228,#226,#142,.T.);
#283=EDGE_CURVE('',#225,#229,#143,.T.);
#284=EDGE_CURVE('',#227,#204,#144,.T.);
#285=EDGE_CURVE('',#217,#202,#145,.T.);
#286=EDGE_CURVE('',#224,#200,#146,.T.);
#287=EDGE_CURVE('',#223,#214,#147,.T.);
#288=EDGE_CURVE('',#216,#213,#148,.T.);
#289=ORIENTED_EDGE('',*,*,#230,.F.);
#290=ORIENTED_EDGE('',*,*,#231,.T.);
#291=ORIENTED_EDGE('',*,*,#232,.F.);
#292=ORIENTED_EDGE('',*,*,#233,.F.);
#293=ORIENTED_EDGE('',*,*,#234,.T.);
#294=ORIENTED_EDGE('',*,*,#233,.T.);
#295=ORIENTED_EDGE('',*,*,#235,.F.);
#296=ORIENTED_EDGE('',*,*,#236,.F.);
#297=ORIENTED_EDGE('',*,*,#237,.F.);
#298=ORIENTED_EDGE('',*,*,#236,.T.);
#299=ORIENTED_EDGE('',*,*,#238,.F.);
#300=ORIENTED_EDGE('',*,*,#239,.F.);
#301=ORIENTED_EDGE('',*,*,#240,.F.);
#302=ORIENTED_EDGE('',*,*,#239,.T.);
#303=ORIENTED_EDGE('',*,*,#241,.F.);
#304=ORIENTED_EDGE('',*,*,#242,.F.);
#305=ORIENTED_EDGE('',*,*,#243,.F.);
#306=ORIENTED_EDGE('',*,*,#242,.T.);
#307=ORIENTED_EDGE('',*,*,#244,.F.);
#308=ORIENTED_EDGE('',*,*,#245,.F.);
#309=ORIENTED_EDGE('',*,*,#246,.F.);
#310=ORIENTED_EDGE('',*,*,#245,.T.);
#311=ORIENTED_EDGE('',*,*,#247,.F.);
#312=ORIENTED_EDGE('',*,*,#248,.F.);
#313=ORIENTED_EDGE('',*,*,#249,.F.);
#314=ORIENTED_EDGE('',*,*,#231,.F.);
#315=ORIENTED_EDGE('',*,*,#249,.T.);
#316=ORIENTED_EDGE('',*,*,#250,.F.);
#317=ORIENTED_EDGE('',*,*,#247,.T.);
#318=ORIENTED_EDGE('',*,*,#244,.T.);
#319=ORIENTED_EDGE('',*,*,#241,.T.);
#320=ORIENTED_EDGE('',*,*,#238,.T.);
#321=ORIENTED_EDGE('',*,*,#235,.T.);
#322=ORIENTED_EDGE('',*,*,#232,.T.);
#323=ORIENTED_EDGE('',*,*,#248,.T.);
#324=ORIENTED_EDGE('',*,*,#251,.F.);
#325=ORIENTED_EDGE('',*,*,#252,.F.);
#326=ORIENTED_EDGE('',*,*,#253,.T.);
#327=ORIENTED_EDGE('',*,*,#254,.F.);
#328=ORIENTED_EDGE('',*,*,#230,.T.);
#329=ORIENTED_EDGE('',*,*,#255,.T.);
#330=ORIENTED_EDGE('',*,*,#251,.T.);
#331=ORIENTED_EDGE('',*,*,#237,.T.);
#332=ORIENTED_EDGE('',*,*,#256,.T.);
#333=ORIENTED_EDGE('',*,*,#257,.T.);
#334=ORIENTED_EDGE('',*,*,#258,.T.);
#335=ORIENTED_EDGE('',*,*,#259,.T.);
#336=ORIENTED_EDGE('',*,*,#260,.T.);
#337=ORIENTED_EDGE('',*,*,#261,.T.);
#338=ORIENTED_EDGE('',*,*,#262,.F.);
#339=ORIENTED_EDGE('',*,*,#263,.T.);
#340=ORIENTED_EDGE('',*,*,#264,.T.);
#341=ORIENTED_EDGE('',*,*,#265,.F.);
#342=ORIENTED_EDGE('',*,*,#253,.F.);
#343=ORIENTED_EDGE('',*,*,#262,.T.);
#344=ORIENTED_EDGE('',*,*,#266,.T.);
#345=ORIENTED_EDGE('',*,*,#267,.F.);
#346=ORIENTED_EDGE('',*,*,#268,.F.);
#347=ORIENTED_EDGE('',*,*,#250,.T.);
#348=ORIENTED_EDGE('',*,*,#254,.T.);
#349=ORIENTED_EDGE('',*,*,#265,.T.);
#350=ORIENTED_EDGE('',*,*,#269,.T.);
#351=ORIENTED_EDGE('',*,*,#267,.T.);
#352=ORIENTED_EDGE('',*,*,#270,.T.);
#353=ORIENTED_EDGE('',*,*,#271,.T.);
#354=ORIENTED_EDGE('',*,*,#263,.F.);
#355=ORIENTED_EDGE('',*,*,#272,.T.);
#356=ORIENTED_EDGE('',*,*,#273,.T.);
#357=ORIENTED_EDGE('',*,*,#274,.T.);
#358=ORIENTED_EDGE('',*,*,#275,.F.);
#359=ORIENTED_EDGE('',*,*,#276,.F.);
#360=ORIENTED_EDGE('',*,*,#268,.T.);
#361=ORIENTED_EDGE('',*,*,#269,.F.);
#362=ORIENTED_EDGE('',*,*,#264,.F.);
#363=ORIENTED_EDGE('',*,*,#246,.T.);
#364=ORIENTED_EDGE('',*,*,#270,.F.);
#365=ORIENTED_EDGE('',*,*,#266,.F.);
#366=ORIENTED_EDGE('',*,*,#277,.T.);
#367=ORIENTED_EDGE('',*,*,#278,.F.);
#368=ORIENTED_EDGE('',*,*,#257,.F.);
#369=ORIENTED_EDGE('',*,*,#279,.T.);
#370=ORIENTED_EDGE('',*,*,#280,.F.);
#371=ORIENTED_EDGE('',*,*,#281,.F.);
#372=ORIENTED_EDGE('',*,*,#282,.T.);
#373=ORIENTED_EDGE('',*,*,#275,.T.);
#374=ORIENTED_EDGE('',*,*,#283,.T.);
#375=ORIENTED_EDGE('',*,*,#280,.T.);
#376=ORIENTED_EDGE('',*,*,#243,.T.);
#377=ORIENTED_EDGE('',*,*,#278,.T.);
#378=ORIENTED_EDGE('',*,*,#284,.T.);
#379=ORIENTED_EDGE('',*,*,#261,.F.);
#380=ORIENTED_EDGE('',*,*,#285,.T.);
#381=ORIENTED_EDGE('',*,*,#240,.T.);
#382=ORIENTED_EDGE('',*,*,#284,.F.);
#383=ORIENTED_EDGE('',*,*,#277,.F.);
#384=ORIENTED_EDGE('',*,*,#272,.F.);
#385=ORIENTED_EDGE('',*,*,#252,.T.);
#386=ORIENTED_EDGE('',*,*,#255,.F.);
#387=ORIENTED_EDGE('',*,*,#234,.F.);
#388=ORIENTED_EDGE('',*,*,#286,.F.);
#389=ORIENTED_EDGE('',*,*,#273,.F.);
#390=ORIENTED_EDGE('',*,*,#286,.T.);
#391=ORIENTED_EDGE('',*,*,#258,.F.);
#392=ORIENTED_EDGE('',*,*,#287,.F.);
#393=ORIENTED_EDGE('',*,*,#271,.F.);
#394=ORIENTED_EDGE('',*,*,#287,.T.);
#395=ORIENTED_EDGE('',*,*,#281,.T.);
#396=ORIENTED_EDGE('',*,*,#283,.F.);
#397=ORIENTED_EDGE('',*,*,#274,.F.);
#398=ORIENTED_EDGE('',*,*,#259,.F.);
#399=ORIENTED_EDGE('',*,*,#276,.T.);
#400=ORIENTED_EDGE('',*,*,#282,.F.);
#401=ORIENTED_EDGE('',*,*,#279,.F.);
#402=ORIENTED_EDGE('',*,*,#288,.F.);
#403=ORIENTED_EDGE('',*,*,#260,.F.);
#404=ORIENTED_EDGE('',*,*,#288,.T.);
#405=ORIENTED_EDGE('',*,*,#256,.F.);
#406=ORIENTED_EDGE('',*,*,#285,.F.);
#407=CYLINDRICAL_SURFACE('',#463,5.5);
#408=CYLINDRICAL_SURFACE('',#468,1.);
#409=CYLINDRICAL_SURFACE('',#472,5.5);
#410=CYLINDRICAL_SURFACE('',#477,5.);
#411=CYLINDRICAL_SURFACE('',#489,5.);
#412=CYLINDRICAL_SURFACE('',#491,5.);
#413=ADVANCED_FACE('',(#36),#407,.T.);
#414=ADVANCED_FACE('',(#37),#15,.T.);
#415=ADVANCED_FACE('',(#38),#408,.T.);
#416=ADVANCED_FACE('',(#39),#16,.T.);
#417=ADVANCED_FACE('',(#40),#409,.T.);
#418=ADVANCED_FACE('',(#41),#17,.T.);
#419=ADVANCED_FACE('',(#42),#18,.T.);
#420=ADVANCED_FACE('',(#43),#19,.T.);
#421=ADVANCED_FACE('',(#44),#410,.T.);
#422=ADVANCED_FACE('',(#45),#20,.T.);
#423=ADVANCED_FACE('',(#46),#21,.T.);
#424=ADVANCED_FACE('',(#47),#22,.F.);
#425=ADVANCED_FACE('',(#48),#23,.T.);
#426=ADVANCED_FACE('',(#49),#24,.T.);
#427=ADVANCED_FACE('',(#50),#25,.T.);
#428=ADVANCED_FACE('',(#51),#26,.F.);
#429=ADVANCED_FACE('',(#52),#411,.T.);
#430=ADVANCED_FACE('',(#53),#412,.T.);
#431=ADVANCED_FACE('',(#54),#27,.T.);
#432=ADVANCED_FACE('',(#55),#28,.T.);
#433=ADVANCED_FACE('',(#56),#29,.T.);
#434=ADVANCED_FACE('',(#57),#30,.T.);
#435=ADVANCED_FACE('',(#58),#31,.T.);
#436=ADVANCED_FACE('',(#59),#32,.T.);
#437=ADVANCED_FACE('',(#60),#33,.T.);
#438=ADVANCED_FACE('',(#61),#34,.T.);
#439=ADVANCED_FACE('',(#62),#35,.T.);
#440=CLOSED_SHELL('',(#413,#414,#415,#416,#417,#418,#419,#420,#421,#422,
#423,#424,#425,#426,#427,#428,#429,#430,#431,#432,#433,#434,#435,#436,#437,
#438,#439));
#441=DERIVED_UNIT_ELEMENT(#444,1.);
#442=DERIVED_UNIT_ELEMENT(#755,-3.);
#443=DIMENSIONAL_EXPONENTS(0.,1.,0.,0.,0.,0.,0.);
#444=(
CONVERSION_BASED_UNIT('gram',#446)
MASS_UNIT()
NAMED_UNIT(#443)
);
#445=(
MASS_UNIT()
NAMED_UNIT(*)
SI_UNIT(.KILO.,.GRAM.)
);
#446=MASS_MEASURE_WITH_UNIT(MASS_MEASURE(0.001),#445);
#447=DERIVED_UNIT((#441,#442));
#448=MEASURE_REPRESENTATION_ITEM('density measure',
POSITIVE_RATIO_MEASURE(1.),#447);
#449=PROPERTY_DEFINITION_REPRESENTATION(#454,#451);
#450=PROPERTY_DEFINITION_REPRESENTATION(#455,#452);
#451=REPRESENTATION('material name',(#453),#752);
#452=REPRESENTATION('density',(#448),#752);
#453=DESCRIPTIVE_REPRESENTATION_ITEM('Generic','Generic');
#454=PROPERTY_DEFINITION('material property','material name',#762);
#455=PROPERTY_DEFINITION('material property','density of part',#762);
#456=DATE_TIME_ROLE('creation_date');
#457=APPLIED_DATE_AND_TIME_ASSIGNMENT(#458,#456,(#762));
#458=DATE_AND_TIME(#459,#460);
#459=CALENDAR_DATE(2025,2,11);
#460=LOCAL_TIME(0,0,0.,#461);
#461=COORDINATED_UNIVERSAL_TIME_OFFSET(0,0,.BEHIND.);
#462=AXIS2_PLACEMENT_3D('',#629,#502,#503);
#463=AXIS2_PLACEMENT_3D('',#630,#504,#505);
#464=AXIS2_PLACEMENT_3D('',#635,#507,#508);
#465=AXIS2_PLACEMENT_3D('',#638,#510,#511);
#466=AXIS2_PLACEMENT_3D('',#639,#512,#513);
#467=AXIS2_PLACEMENT_3D('',#644,#516,#517);
#468=AXIS2_PLACEMENT_3D('',#645,#518,#519);
#469=AXIS2_PLACEMENT_3D('',#650,#522,#523);
#470=AXIS2_PLACEMENT_3D('',#651,#524,#525);
#471=AXIS2_PLACEMENT_3D('',#656,#528,#529);
#472=AXIS2_PLACEMENT_3D('',#657,#530,#531);
#473=AXIS2_PLACEMENT_3D('',#662,#534,#535);
#474=AXIS2_PLACEMENT_3D('',#663,#536,#537);
#475=AXIS2_PLACEMENT_3D('',#667,#540,#541);
#476=AXIS2_PLACEMENT_3D('',#671,#544,#545);
#477=AXIS2_PLACEMENT_3D('',#673,#547,#548);
#478=AXIS2_PLACEMENT_3D('',#675,#549,#550);
#479=AXIS2_PLACEMENT_3D('',#680,#553,#554);
#480=AXIS2_PLACEMENT_3D('',#681,#555,#556);
#481=AXIS2_PLACEMENT_3D('',#683,#558,#559);
#482=AXIS2_PLACEMENT_3D('',#689,#563,#564);
#483=AXIS2_PLACEMENT_3D('',#698,#569,#570);
#484=AXIS2_PLACEMENT_3D('',#704,#574,#575);
#485=AXIS2_PLACEMENT_3D('',#710,#579,#580);
#486=AXIS2_PLACEMENT_3D('',#711,#581,#582);
#487=AXIS2_PLACEMENT_3D('',#712,#583,#584);
#488=AXIS2_PLACEMENT_3D('',#713,#585,#586);
#489=AXIS2_PLACEMENT_3D('',#719,#590,#591);
#490=AXIS2_PLACEMENT_3D('',#723,#593,#594);
#491=AXIS2_PLACEMENT_3D('',#725,#596,#597);
#492=AXIS2_PLACEMENT_3D('',#728,#599,#600);
#493=AXIS2_PLACEMENT_3D('',#729,#601,#602);
#494=AXIS2_PLACEMENT_3D('',#735,#606,#607);
#495=AXIS2_PLACEMENT_3D('',#738,#610,#611);
#496=AXIS2_PLACEMENT_3D('',#740,#613,#614);
#497=AXIS2_PLACEMENT_3D('',#742,#616,#617);
#498=AXIS2_PLACEMENT_3D('',#744,#619,#620);
#499=AXIS2_PLACEMENT_3D('',#746,#622,#623);
#500=AXIS2_PLACEMENT_3D('',#747,#624,#625);
#501=AXIS2_PLACEMENT_3D('',#749,#627,#628);
#502=DIRECTION('axis',(0.,0.,1.));
#503=DIRECTION('refdir',(1.,0.,0.));
#504=DIRECTION('center_axis',(1.,0.,0.));
#505=DIRECTION('ref_axis',(0.,0.,-1.));
#506=DIRECTION('',(1.,0.,0.));
#507=DIRECTION('center_axis',(1.,0.,0.));
#508=DIRECTION('ref_axis',(0.,-8.57899609937621E-16,-1.));
#509=DIRECTION('',(-1.,0.,0.));
#510=DIRECTION('center_axis',(1.,0.,0.));
#511=DIRECTION('ref_axis',(0.,-8.57899609937621E-16,-1.));
#512=DIRECTION('center_axis',(1.,0.,0.));
#513=DIRECTION('ref_axis',(0.,0.,-1.));
#514=DIRECTION('',(0.,0.,-1.));
#515=DIRECTION('',(-1.2335811384724E-15,0.707106781186548,-0.707106781186547));
#516=DIRECTION('center_axis',(1.,0.,0.));
#517=DIRECTION('ref_axis',(0.,0.,-1.));
#518=DIRECTION('center_axis',(1.,0.,0.));
#519=DIRECTION('ref_axis',(0.,0.,-1.));
#520=DIRECTION('',(1.,0.,0.));
#521=DIRECTION('',(-1.,0.,0.));
#522=DIRECTION('center_axis',(1.,0.,0.));
#523=DIRECTION('ref_axis',(0.,0.,-1.));
#524=DIRECTION('center_axis',(-1.,0.,0.));
#525=DIRECTION('ref_axis',(0.,0.,1.));
#526=DIRECTION('',(0.,0.,-1.));
#527=DIRECTION('',(0.,-0.707106781186548,0.707106781186547));
#528=DIRECTION('center_axis',(1.,0.,0.));
#529=DIRECTION('ref_axis',(0.,-8.57899609937621E-16,-1.));
#530=DIRECTION('center_axis',(1.,0.,0.));
#531=DIRECTION('ref_axis',(0.,0.,-1.));
#532=DIRECTION('',(1.,0.,0.));
#533=DIRECTION('',(-1.,0.,0.));
#534=DIRECTION('center_axis',(1.,0.,0.));
#535=DIRECTION('ref_axis',(0.,-8.57899609937621E-16,-1.));
#536=DIRECTION('center_axis',(1.,0.,0.));
#537=DIRECTION('ref_axis',(0.,0.,-1.));
#538=DIRECTION('',(0.,0.,1.));
#539=DIRECTION('',(0.,0.707106781186548,-0.707106781186547));
#540=DIRECTION('center_axis',(-1.,0.,0.));
#541=DIRECTION('ref_axis',(0.,0.,1.));
#542=DIRECTION('',(0.,0.,-1.));
#543=DIRECTION('',(0.,-0.707106781186548,0.707106781186547));
#544=DIRECTION('center_axis',(0.,0.707106781186547,0.707106781186548));
#545=DIRECTION('ref_axis',(0.,-0.707106781186548,0.707106781186547));
#546=DIRECTION('',(-1.,0.,0.));
#547=DIRECTION('center_axis',(0.,0.,-1.));
#548=DIRECTION('ref_axis',(-0.499999999999998,0.86602540378444,0.));
#549=DIRECTION('center_axis',(0.,0.,-1.));
#550=DIRECTION('ref_axis',(-0.499999999999998,0.86602540378444,0.));
#551=DIRECTION('',(0.,0.,-1.));
#552=DIRECTION('',(0.,0.,1.));
#553=DIRECTION('center_axis',(0.,0.,1.));
#554=DIRECTION('ref_axis',(-0.499999999999998,0.86602540378444,0.));
#555=DIRECTION('center_axis',(0.,0.,-1.));
#556=DIRECTION('ref_axis',(-1.,0.,0.));
#557=DIRECTION('',(-0.866025403784437,-0.500000000000002,0.));
#558=DIRECTION('center_axis',(0.,0.,-1.));
#559=DIRECTION('ref_axis',(-1.,0.,0.));
#560=DIRECTION('',(-0.5,-0.866025403784438,0.));
#561=DIRECTION('',(-1.,-6.86706805469099E-15,0.));
#562=DIRECTION('',(-0.5,0.866025403784439,0.));
#563=DIRECTION('center_axis',(0.,0.,1.));
#564=DIRECTION('ref_axis',(1.,0.,0.));
#565=DIRECTION('',(-0.866025403784438,0.500000000000001,0.));
#566=DIRECTION('',(0.5,0.866025403784438,0.));
#567=DIRECTION('',(0.866025403784438,-0.500000000000001,0.));
#568=DIRECTION('',(0.5,0.866025403784438,0.));
#569=DIRECTION('center_axis',(-0.866025403784439,-0.5,0.));
#570=DIRECTION('ref_axis',(0.5,-0.866025403784439,0.));
#571=DIRECTION('',(0.5,-0.866025403784439,0.));
#572=DIRECTION('',(0.,0.,1.));
#573=DIRECTION('',(0.5,-0.866025403784439,0.));
#574=DIRECTION('center_axis',(0.866025403784439,-0.5,0.));
#575=DIRECTION('ref_axis',(0.5,0.866025403784438,0.));
#576=DIRECTION('',(0.,0.,1.));
#577=DIRECTION('',(0.5,0.866025403784438,0.));
#578=DIRECTION('',(0.,0.,1.));
#579=DIRECTION('center_axis',(0.,0.,1.));
#580=DIRECTION('ref_axis',(1.,0.,0.));
#581=DIRECTION('center_axis',(0.,0.,1.));
#582=DIRECTION('ref_axis',(-0.499999999999998,-0.86602540378444,0.));
#583=DIRECTION('center_axis',(0.,0.,1.));
#584=DIRECTION('ref_axis',(1.,0.,0.));
#585=DIRECTION('center_axis',(0.,0.,1.));
#586=DIRECTION('ref_axis',(1.,0.,0.));
#587=DIRECTION('',(-0.866025403784439,-0.499999999999999,0.));
#588=DIRECTION('',(0.866025403784439,0.5,0.));
#589=DIRECTION('',(0.5,-0.866025403784439,0.));
#590=DIRECTION('center_axis',(0.,0.,-1.));
#591=DIRECTION('ref_axis',(-0.499999999999998,-0.86602540378444,0.));
#592=DIRECTION('',(0.,0.,-1.));
#593=DIRECTION('center_axis',(0.,0.,-1.));
#594=DIRECTION('ref_axis',(-0.499999999999998,-0.86602540378444,0.));
#595=DIRECTION('',(0.,0.,-1.));
#596=DIRECTION('center_axis',(0.,0.,-1.));
#597=DIRECTION('ref_axis',(1.,0.,0.));
#598=DIRECTION('',(0.,0.,-1.));
#599=DIRECTION('center_axis',(0.,0.,-1.));
#600=DIRECTION('ref_axis',(1.,0.,0.));
#601=DIRECTION('center_axis',(-6.86706805469099E-15,1.,0.));
#602=DIRECTION('ref_axis',(1.,6.86706805469099E-15,0.));
#603=DIRECTION('',(0.,0.,-1.));
#604=DIRECTION('',(1.,6.86706805469099E-15,0.));
#605=DIRECTION('',(0.,0.,-1.));
#606=DIRECTION('center_axis',(0.,0.,-1.));
#607=DIRECTION('ref_axis',(-1.,0.,0.));
#608=DIRECTION('',(0.866025403784439,-0.499999999999999,0.));
#609=DIRECTION('',(0.866025403784439,0.499999999999999,0.));
#610=DIRECTION('center_axis',(0.,0.,-1.));
#611=DIRECTION('ref_axis',(-1.,0.,0.));
#612=DIRECTION('',(-0.866025403784438,0.500000000000001,0.));
#613=DIRECTION('center_axis',(-0.500000000000001,-0.866025403784438,0.));
#614=DIRECTION('ref_axis',(-0.866025403784438,0.500000000000001,0.));
#615=DIRECTION('',(0.,0.,-1.));
#616=DIRECTION('center_axis',(0.5,-0.866025403784439,0.));
#617=DIRECTION('ref_axis',(-0.866025403784439,-0.5,0.));
#618=DIRECTION('',(0.,0.,-1.));
#619=DIRECTION('center_axis',(-0.866025403784439,-0.5,0.));
#620=DIRECTION('ref_axis',(-0.5,0.866025403784439,0.));
#621=DIRECTION('',(0.,0.,-1.));
#622=DIRECTION('center_axis',(-0.5,0.866025403784439,0.));
#623=DIRECTION('ref_axis',(0.866025403784439,0.499999999999999,0.));
#624=DIRECTION('center_axis',(0.500000000000001,0.866025403784438,0.));
#625=DIRECTION('ref_axis',(0.866025403784438,-0.500000000000001,0.));
#626=DIRECTION('',(0.,0.,-1.));
#627=DIRECTION('center_axis',(0.866025403784438,-0.5,0.));
#628=DIRECTION('ref_axis',(-0.5,-0.866025403784438,0.));
#629=CARTESIAN_POINT('',(0.,0.,0.));
#630=CARTESIAN_POINT('Origin',(-4.08346433899874,1.,0.5));
#631=CARTESIAN_POINT('',(-4.89897948556636,1.,-5.));
#632=CARTESIAN_POINT('',(-3.26794919243113,1.,-5.));
#633=CARTESIAN_POINT('',(-0.241025403784438,1.,-5.));
#634=CARTESIAN_POINT('',(-4.89897948556636,4.88908729652601,-3.38908729652601));
#635=CARTESIAN_POINT('Origin',(-4.89897948556636,1.00000000000001,0.499999999999997));
#636=CARTESIAN_POINT('',(-3.26794919243113,4.88908729652601,-3.38908729652601));
#637=CARTESIAN_POINT('',(-3.26794919243113,4.88908729652601,-3.38908729652601));
#638=CARTESIAN_POINT('Origin',(-3.26794919243113,1.00000000000001,0.499999999999997));
#639=CARTESIAN_POINT('Origin',(-3.26794919243112,1.,-0.5));
#640=CARTESIAN_POINT('',(-3.26794919243112,0.999999999999999,-0.5));
#641=CARTESIAN_POINT('',(-3.26794919243113,1.,-0.5));
#642=CARTESIAN_POINT('',(-3.26794919243112,1.70710678118655,-0.207106781186548));
#643=CARTESIAN_POINT('',(-3.26794919243112,1.70710678118655,-0.207106781186548));
#644=CARTESIAN_POINT('Origin',(-3.26794919243112,1.,0.500000000000002));
#645=CARTESIAN_POINT('Origin',(1.66533453693773E-15,1.,0.5));
#646=CARTESIAN_POINT('',(3.26794919243112,1.,-0.5));
#647=CARTESIAN_POINT('',(1.63397459621556,1.,-0.5));
#648=CARTESIAN_POINT('',(3.26794919243112,1.70710678118655,-0.207106781186548));
#649=CARTESIAN_POINT('',(3.26794919243112,1.70710678118655,-0.207106781186548));
#650=CARTESIAN_POINT('Origin',(3.26794919243112,1.,0.500000000000002));
#651=CARTESIAN_POINT('Origin',(3.26794919243112,1.,-5.));
#652=CARTESIAN_POINT('',(3.26794919243112,1.,-5.));
#653=CARTESIAN_POINT('',(3.26794919243112,1.,-0.5));
#654=CARTESIAN_POINT('',(3.26794919243112,4.88908729652601,-3.38908729652601));
#655=CARTESIAN_POINT('',(3.26794919243112,4.88908729652601,-3.38908729652601));
#656=CARTESIAN_POINT('Origin',(3.26794919243112,1.00000000000001,0.499999999999997));
#657=CARTESIAN_POINT('Origin',(4.08346433899874,1.,0.5));
#658=CARTESIAN_POINT('',(4.89897948556636,1.,-5.));
#659=CARTESIAN_POINT('',(3.50897459621556,1.,-5.));
#660=CARTESIAN_POINT('',(4.89897948556636,4.88908729652601,-3.38908729652601));
#661=CARTESIAN_POINT('',(4.89897948556636,4.88908729652601,-3.38908729652601));
#662=CARTESIAN_POINT('Origin',(4.89897948556636,1.00000000000001,0.499999999999997));
#663=CARTESIAN_POINT('Origin',(4.89897948556636,1.,0.5));
#664=CARTESIAN_POINT('',(4.89897948556636,1.,0.5));
#665=CARTESIAN_POINT('',(4.89897948556636,1.,0.));
#666=CARTESIAN_POINT('',(4.89897948556636,1.,0.5));
#667=CARTESIAN_POINT('Origin',(-4.89897948556636,1.,-5.));
#668=CARTESIAN_POINT('',(-4.89897948556636,1.,0.5));
#669=CARTESIAN_POINT('',(-4.89897948556636,1.,0.));
#670=CARTESIAN_POINT('',(-4.89897948556636,4.88908729652601,-3.38908729652601));
#671=CARTESIAN_POINT('Origin',(0.,2.94454364826301,-1.44454364826301));
#672=CARTESIAN_POINT('',(1.63397459621556,1.,0.5));
#673=CARTESIAN_POINT('Origin',(0.,0.,0.));
#674=CARTESIAN_POINT('',(-5.,-1.66533453693773E-15,-5.));
#675=CARTESIAN_POINT('Origin',(0.,0.,-5.));
#676=CARTESIAN_POINT('',(-5.,-5.55111512312578E-16,0.));
#677=CARTESIAN_POINT('',(-5.,-5.55111512312578E-16,0.));
#678=CARTESIAN_POINT('',(-5.,-5.55111512312578E-16,0.5));
#679=CARTESIAN_POINT('',(-5.,-8.12739661758407E-16,0.));
#680=CARTESIAN_POINT('Origin',(0.,0.,0.5));
#681=CARTESIAN_POINT('Origin',(-3.75,2.1650635094611,-5.));
#682=CARTESIAN_POINT('',(-3.26794919243113,1.,-5.));
#683=CARTESIAN_POINT('Origin',(5.55111512312578E-16,5.55111512312578E-16,
-0.5));
#684=CARTESIAN_POINT('',(0.767949192431122,-3.33012701892219,-0.5));
#685=CARTESIAN_POINT('',(0.767949192431122,-3.33012701892219,-0.5));
#686=CARTESIAN_POINT('',(-0.767949192431122,-3.3301270189222,-0.5));
#687=CARTESIAN_POINT('',(-0.383974596215549,-3.33012701892219,-0.5));
#688=CARTESIAN_POINT('',(-3.26794919243112,0.999999999999999,-0.5));
#689=CARTESIAN_POINT('Origin',(5.55111512312578E-16,5.55111512312578E-16,
0.));
#690=CARTESIAN_POINT('',(2.5,-4.33012701892219,0.));
#691=CARTESIAN_POINT('',(0.767949192431122,-3.33012701892219,0.));
#692=CARTESIAN_POINT('',(2.5,-4.33012701892219,0.));
#693=CARTESIAN_POINT('',(3.26794919243112,1.,0.));
#694=CARTESIAN_POINT('',(0.767949192431122,-3.33012701892219,0.));
#695=CARTESIAN_POINT('',(5.,-1.83400382508157E-15,0.));
#696=CARTESIAN_POINT('',(3.26794919243112,1.,0.));
#697=CARTESIAN_POINT('',(2.5,-4.33012701892219,0.));
#698=CARTESIAN_POINT('Origin',(-5.,-7.4833262439695E-16,0.));
#699=CARTESIAN_POINT('',(-2.5,-4.33012701892219,0.));
#700=CARTESIAN_POINT('',(-5.,-5.55111512312578E-16,0.));
#701=CARTESIAN_POINT('',(-2.5,-4.33012701892219,0.5));
#702=CARTESIAN_POINT('',(-2.5,-4.33012701892219,0.));
#703=CARTESIAN_POINT('',(-5.,-5.55111512312578E-16,0.5));
#704=CARTESIAN_POINT('Origin',(2.5,-4.33012701892219,0.));
#705=CARTESIAN_POINT('',(5.,-1.66533453693773E-15,0.5));
#706=CARTESIAN_POINT('',(5.,-1.83400382508157E-15,0.));
#707=CARTESIAN_POINT('',(2.5,-4.33012701892219,0.5));
#708=CARTESIAN_POINT('',(2.5,-4.33012701892219,0.5));
#709=CARTESIAN_POINT('',(2.5,-4.33012701892219,0.));
#710=CARTESIAN_POINT('Origin',(5.55111512312578E-16,5.55111512312578E-16,
0.5));
#711=CARTESIAN_POINT('Origin',(0.,0.,0.5));
#712=CARTESIAN_POINT('Origin',(0.,0.,0.5));
#713=CARTESIAN_POINT('Origin',(5.55111512312578E-16,5.55111512312578E-16,
0.));
#714=CARTESIAN_POINT('',(-0.767949192431122,-3.3301270189222,0.));
#715=CARTESIAN_POINT('',(-0.767949192431122,-3.3301270189222,0.));
#716=CARTESIAN_POINT('',(-3.26794919243112,0.999999999999999,0.));
#717=CARTESIAN_POINT('',(-5.,-1.11022302462516E-15,0.));
#718=CARTESIAN_POINT('',(-3.26794919243112,0.999999999999999,0.));
#719=CARTESIAN_POINT('Origin',(0.,0.,0.));
#720=CARTESIAN_POINT('',(-2.5,-4.33012701892219,-5.));
#721=CARTESIAN_POINT('',(-2.5,-4.33012701892219,0.));
#722=CARTESIAN_POINT('',(2.5,-4.33012701892218,-5.));
#723=CARTESIAN_POINT('Origin',(0.,0.,-5.));
#724=CARTESIAN_POINT('',(2.5,-4.33012701892219,0.));
#725=CARTESIAN_POINT('Origin',(0.,0.,0.));
#726=CARTESIAN_POINT('',(5.,-1.94289029309402E-15,-5.));
#727=CARTESIAN_POINT('',(5.,-1.83400382508157E-15,0.));
#728=CARTESIAN_POINT('Origin',(0.,0.,-5.));
#729=CARTESIAN_POINT('Origin',(-0.767949192431122,-3.3301270189222,-0.5));
#730=CARTESIAN_POINT('',(0.767949192431119,-3.33012701892218,-5.));
#731=CARTESIAN_POINT('',(0.767949192431119,-3.33012701892218,-0.5));
#732=CARTESIAN_POINT('',(-0.767949192431122,-3.3301270189222,-5.));
#733=CARTESIAN_POINT('',(-0.767949192431122,-3.3301270189222,-5.));
#734=CARTESIAN_POINT('',(-0.767949192431122,-3.3301270189222,-0.5));
#735=CARTESIAN_POINT('Origin',(-1.11022302462516E-15,-3.83012701892219,
-5.));
#736=CARTESIAN_POINT('',(0.767949192431119,-3.33012701892218,-5.));
#737=CARTESIAN_POINT('',(-2.5,-4.33012701892219,-5.));
#738=CARTESIAN_POINT('Origin',(3.75,2.1650635094611,-5.));
#739=CARTESIAN_POINT('',(5.,-1.83400382508157E-15,-5.));
#740=CARTESIAN_POINT('Origin',(5.,-8.32667268468867E-16,0.));
#741=CARTESIAN_POINT('',(3.26794919243112,1.,0.));
#742=CARTESIAN_POINT('Origin',(-3.26794919243112,1.,0.));
#743=CARTESIAN_POINT('',(-3.26794919243112,0.999999999999999,0.));
#744=CARTESIAN_POINT('Origin',(-0.767949192431121,-3.3301270189222,0.));
#745=CARTESIAN_POINT('',(-0.767949192431122,-3.3301270189222,0.));
#746=CARTESIAN_POINT('Origin',(-2.5,-4.3301270189222,0.));
#747=CARTESIAN_POINT('Origin',(0.767949192431122,-3.33012701892219,0.));
#748=CARTESIAN_POINT('',(0.767949192431122,-3.33012701892219,0.));
#749=CARTESIAN_POINT('Origin',(3.26794919243113,1.,0.));
#750=UNCERTAINTY_MEASURE_WITH_UNIT(LENGTH_MEASURE(0.01),#754,
'DISTANCE_ACCURACY_VALUE',
'Maximum model space distance between geometric entities at asserted c
onnectivities');
#751=UNCERTAINTY_MEASURE_WITH_UNIT(LENGTH_MEASURE(0.01),#754,
'DISTANCE_ACCURACY_VALUE',
'Maximum model space distance between geometric entities at asserted c
onnectivities');
#752=(
GEOMETRIC_REPRESENTATION_CONTEXT(3)
GLOBAL_UNCERTAINTY_ASSIGNED_CONTEXT((#750))
GLOBAL_UNIT_ASSIGNED_CONTEXT((#754,#756,#757))
REPRESENTATION_CONTEXT('','3D')
);
#753=(
GEOMETRIC_REPRESENTATION_CONTEXT(3)
GLOBAL_UNCERTAINTY_ASSIGNED_CONTEXT((#751))
GLOBAL_UNIT_ASSIGNED_CONTEXT((#754,#756,#757))
REPRESENTATION_CONTEXT('','3D')
);
#754=(
LENGTH_UNIT()
NAMED_UNIT(*)
SI_UNIT(.MILLI.,.METRE.)
);
#755=(
LENGTH_UNIT()
NAMED_UNIT(*)
SI_UNIT(.CENTI.,.METRE.)
);
#756=(
NAMED_UNIT(*)
PLANE_ANGLE_UNIT()
SI_UNIT($,.RADIAN.)
);
#757=(
NAMED_UNIT(*)
SI_UNIT($,.STERADIAN.)
SOLID_ANGLE_UNIT()
);
#758=SHAPE_DEFINITION_REPRESENTATION(#759,#760);
#759=PRODUCT_DEFINITION_SHAPE('',$,#762);
#760=SHAPE_REPRESENTATION('',(#462),#752);
#761=PRODUCT_DEFINITION_CONTEXT('part definition',#766,'design');
#762=PRODUCT_DEFINITION('BodyFoldedSide1','BodyFoldedSide1',#763,#761);
#763=PRODUCT_DEFINITION_FORMATION('',$,#768);
#764=PRODUCT_RELATED_PRODUCT_CATEGORY('BodyFoldedSide1',
'BodyFoldedSide1',(#768));
#765=APPLICATION_PROTOCOL_DEFINITION('international standard',
'automotive_design',2009,#766);
#766=APPLICATION_CONTEXT(
'Core Data for Automotive Mechanical Design Process');
#767=PRODUCT_CONTEXT('part definition',#766,'mechanical');
#768=PRODUCT('BodyFoldedSide1','BodyFoldedSide1',$,(#767));
#769=PRESENTATION_STYLE_ASSIGNMENT((#770));
#770=SURFACE_STYLE_USAGE(.BOTH.,#773);
#771=SURFACE_STYLE_RENDERING_WITH_PROPERTIES($,#777,(#772));
#772=SURFACE_STYLE_TRANSPARENT(0.);
#773=SURFACE_SIDE_STYLE('',(#774,#771));
#774=SURFACE_STYLE_FILL_AREA(#775);
#775=FILL_AREA_STYLE('',(#776));
#776=FILL_AREA_STYLE_COLOUR('',#777);
#777=COLOUR_RGB('',0.749019607843137,0.749019607843137,0.749019607843137);
ENDSEC;
END-ISO-10303-21;
