ISO-10303-21;
HEADER;
/* Generated by software containing ST-Developer
 * from STEP Tools, Inc. (www.steptools.com) 
 */

FILE_DESCRIPTION(
/* description */ (''),
/* implementation_level */ '2;1');

FILE_NAME(
/* name */ 'BodyFoldedSide1.stp',
/* time_stamp */ '2026-06-17T18:16:54+01:00',
/* author */ ('Jakub Schmidt'),
/* organization */ (''),
/* preprocessor_version */ 'ST-DEVELOPER v20.1',
/* originating_system */ 'Autodesk Inventor 2026',
/* authorisation */ '');

FILE_SCHEMA (('AUTOMOTIVE_DESIGN { 1 0 10303 214 3 1 1 }'));
ENDSEC;

DATA;
#10=MECHANICAL_DESIGN_GEOMETRIC_PRESENTATION_REPRESENTATION('',(#13),#602);
#11=SHAPE_REPRESENTATION_RELATIONSHIP('SRR','None',#609,#12);
#12=ADVANCED_BREP_SHAPE_REPRESENTATION('',(#14),#601);
#13=STYLED_ITEM('',(#618),#14);
#14=MANIFOLD_SOLID_BREP('Solid3',#357);
#15=CIRCLE('',#382,5.);
#16=CIRCLE('',#383,5.);
#17=CIRCLE('',#390,5.);
#18=CIRCLE('',#391,5.);
#19=CIRCLE('',#394,5.);
#20=CIRCLE('',#396,5.);
#21=CYLINDRICAL_SURFACE('',#381,5.);
#22=CYLINDRICAL_SURFACE('',#393,5.);
#23=CYLINDRICAL_SURFACE('',#395,5.);
#24=FACE_OUTER_BOUND('',#44,.T.);
#25=FACE_OUTER_BOUND('',#45,.T.);
#26=FACE_OUTER_BOUND('',#46,.T.);
#27=FACE_OUTER_BOUND('',#47,.T.);
#28=FACE_OUTER_BOUND('',#48,.T.);
#29=FACE_OUTER_BOUND('',#49,.T.);
#30=FACE_OUTER_BOUND('',#50,.T.);
#31=FACE_OUTER_BOUND('',#51,.T.);
#32=FACE_OUTER_BOUND('',#52,.T.);
#33=FACE_OUTER_BOUND('',#53,.T.);
#34=FACE_OUTER_BOUND('',#54,.T.);
#35=FACE_OUTER_BOUND('',#55,.T.);
#36=FACE_OUTER_BOUND('',#56,.T.);
#37=FACE_OUTER_BOUND('',#57,.T.);
#38=FACE_OUTER_BOUND('',#58,.T.);
#39=FACE_OUTER_BOUND('',#59,.T.);
#40=FACE_OUTER_BOUND('',#60,.T.);
#41=FACE_OUTER_BOUND('',#61,.T.);
#42=FACE_OUTER_BOUND('',#62,.T.);
#43=FACE_OUTER_BOUND('',#63,.T.);
#44=EDGE_LOOP('',(#224,#225,#226,#227,#228,#229,#230,#231,#232,#233,#234,
#235));
#45=EDGE_LOOP('',(#236,#237,#238,#239,#240));
#46=EDGE_LOOP('',(#241,#242,#243));
#47=EDGE_LOOP('',(#244,#245,#246,#247));
#48=EDGE_LOOP('',(#248,#249,#250,#251));
#49=EDGE_LOOP('',(#252,#253,#254,#255));
#50=EDGE_LOOP('',(#256,#257,#258,#259));
#51=EDGE_LOOP('',(#260,#261,#262,#263,#264,#265));
#52=EDGE_LOOP('',(#266,#267,#268,#269));
#53=EDGE_LOOP('',(#270,#271,#272,#273,#274,#275));
#54=EDGE_LOOP('',(#276,#277,#278,#279,#280));
#55=EDGE_LOOP('',(#281,#282,#283,#284));
#56=EDGE_LOOP('',(#285,#286,#287,#288));
#57=EDGE_LOOP('',(#289,#290,#291));
#58=EDGE_LOOP('',(#292,#293,#294,#295,#296));
#59=EDGE_LOOP('',(#297,#298,#299,#300,#301));
#60=EDGE_LOOP('',(#302,#303,#304,#305));
#61=EDGE_LOOP('',(#306,#307,#308,#309,#310));
#62=EDGE_LOOP('',(#311,#312,#313,#314,#315));
#63=EDGE_LOOP('',(#316,#317,#318,#319));
#64=LINE('',#506,#106);
#65=LINE('',#508,#107);
#66=LINE('',#509,#108);
#67=LINE('',#511,#109);
#68=LINE('',#513,#110);
#69=LINE('',#514,#111);
#70=LINE('',#516,#112);
#71=LINE('',#518,#113);
#72=LINE('',#520,#114);
#73=LINE('',#522,#115);
#74=LINE('',#524,#116);
#75=LINE('',#525,#117);
#76=LINE('',#530,#118);
#77=LINE('',#532,#119);
#78=LINE('',#535,#120);
#79=LINE('',#538,#121);
#80=LINE('',#540,#122);
#81=LINE('',#541,#123);
#82=LINE('',#545,#124);
#83=LINE('',#546,#125);
#84=LINE('',#548,#126);
#85=LINE('',#549,#127);
#86=LINE('',#552,#128);
#87=LINE('',#554,#129);
#88=LINE('',#555,#130);
#89=LINE('',#558,#131);
#90=LINE('',#560,#132);
#91=LINE('',#561,#133);
#92=LINE('',#567,#134);
#93=LINE('',#568,#135);
#94=LINE('',#569,#136);
#95=LINE('',#572,#137);
#96=LINE('',#575,#138);
#97=LINE('',#578,#139);
#98=LINE('',#582,#140);
#99=LINE('',#584,#141);
#100=LINE('',#585,#142);
#101=LINE('',#587,#143);
#102=LINE('',#588,#144);
#103=LINE('',#590,#145);
#104=LINE('',#594,#146);
#105=LINE('',#597,#147);
#106=VECTOR('',#410,10.);
#107=VECTOR('',#411,10.);
#108=VECTOR('',#412,10.);
#109=VECTOR('',#413,10.);
#110=VECTOR('',#414,10.);
#111=VECTOR('',#415,10.);
#112=VECTOR('',#416,10.);
#113=VECTOR('',#417,10.);
#114=VECTOR('',#418,10.);
#115=VECTOR('',#419,10.);
#116=VECTOR('',#420,10.);
#117=VECTOR('',#421,10.);
#118=VECTOR('',#426,10.);
#119=VECTOR('',#427,10.);
#120=VECTOR('',#432,10.);
#121=VECTOR('',#435,10.);
#122=VECTOR('',#436,10.);
#123=VECTOR('',#437,10.);
#124=VECTOR('',#440,10.);
#125=VECTOR('',#441,10.);
#126=VECTOR('',#442,10.);
#127=VECTOR('',#443,10.);
#128=VECTOR('',#446,10.);
#129=VECTOR('',#447,10.);
#130=VECTOR('',#448,10.);
#131=VECTOR('',#451,10.);
#132=VECTOR('',#452,10.);
#133=VECTOR('',#453,10.);
#134=VECTOR('',#462,10.);
#135=VECTOR('',#463,10.);
#136=VECTOR('',#464,10.);
#137=VECTOR('',#467,10.);
#138=VECTOR('',#470,10.);
#139=VECTOR('',#473,10.);
#140=VECTOR('',#478,10.);
#141=VECTOR('',#479,10.);
#142=VECTOR('',#480,10.);
#143=VECTOR('',#483,10.);
#144=VECTOR('',#484,10.);
#145=VECTOR('',#487,10.);
#146=VECTOR('',#494,10.);
#147=VECTOR('',#499,10.);
#148=VERTEX_POINT('',#504);
#149=VERTEX_POINT('',#505);
#150=VERTEX_POINT('',#507);
#151=VERTEX_POINT('',#510);
#152=VERTEX_POINT('',#512);
#153=VERTEX_POINT('',#515);
#154=VERTEX_POINT('',#517);
#155=VERTEX_POINT('',#519);
#156=VERTEX_POINT('',#521);
#157=VERTEX_POINT('',#523);
#158=VERTEX_POINT('',#527);
#159=VERTEX_POINT('',#529);
#160=VERTEX_POINT('',#531);
#161=VERTEX_POINT('',#537);
#162=VERTEX_POINT('',#539);
#163=VERTEX_POINT('',#543);
#164=VERTEX_POINT('',#544);
#165=VERTEX_POINT('',#547);
#166=VERTEX_POINT('',#551);
#167=VERTEX_POINT('',#553);
#168=VERTEX_POINT('',#557);
#169=VERTEX_POINT('',#559);
#170=VERTEX_POINT('',#566);
#171=VERTEX_POINT('',#571);
#172=VERTEX_POINT('',#573);
#173=VERTEX_POINT('',#577);
#174=VERTEX_POINT('',#581);
#175=VERTEX_POINT('',#583);
#176=EDGE_CURVE('',#148,#149,#64,.T.);
#177=EDGE_CURVE('',#150,#148,#65,.T.);
#178=EDGE_CURVE('',#150,#148,#66,.T.);
#179=EDGE_CURVE('',#151,#148,#67,.T.);
#180=EDGE_CURVE('',#152,#151,#68,.T.);
#181=EDGE_CURVE('',#152,#151,#69,.T.);
#182=EDGE_CURVE('',#151,#153,#70,.T.);
#183=EDGE_CURVE('',#154,#153,#71,.T.);
#184=EDGE_CURVE('',#155,#154,#72,.T.);
#185=EDGE_CURVE('',#156,#155,#73,.T.);
#186=EDGE_CURVE('',#157,#156,#74,.T.);
#187=EDGE_CURVE('',#149,#157,#75,.T.);
#188=EDGE_CURVE('',#158,#154,#15,.T.);
#189=EDGE_CURVE('',#159,#158,#76,.T.);
#190=EDGE_CURVE('',#159,#160,#77,.T.);
#191=EDGE_CURVE('',#155,#160,#16,.T.);
#192=EDGE_CURVE('',#153,#158,#78,.T.);
#193=EDGE_CURVE('',#148,#161,#79,.T.);
#194=EDGE_CURVE('',#161,#162,#80,.T.);
#195=EDGE_CURVE('',#162,#151,#81,.T.);
#196=EDGE_CURVE('',#163,#164,#82,.T.);
#197=EDGE_CURVE('',#164,#150,#83,.T.);
#198=EDGE_CURVE('',#150,#165,#84,.T.);
#199=EDGE_CURVE('',#163,#165,#85,.T.);
#200=EDGE_CURVE('',#159,#166,#86,.T.);
#201=EDGE_CURVE('',#166,#167,#87,.T.);
#202=EDGE_CURVE('',#160,#167,#88,.T.);
#203=EDGE_CURVE('',#165,#168,#89,.T.);
#204=EDGE_CURVE('',#169,#168,#90,.T.);
#205=EDGE_CURVE('',#163,#169,#91,.T.);
#206=EDGE_CURVE('',#167,#169,#17,.T.);
#207=EDGE_CURVE('',#168,#156,#18,.T.);
#208=EDGE_CURVE('',#170,#166,#92,.T.);
#209=EDGE_CURVE('',#159,#152,#93,.T.);
#210=EDGE_CURVE('',#152,#170,#94,.T.);
#211=EDGE_CURVE('',#166,#171,#95,.T.);
#212=EDGE_CURVE('',#172,#171,#19,.T.);
#213=EDGE_CURVE('',#163,#172,#96,.T.);
#214=EDGE_CURVE('',#165,#173,#97,.T.);
#215=EDGE_CURVE('',#157,#173,#20,.T.);
#216=EDGE_CURVE('',#161,#174,#98,.T.);
#217=EDGE_CURVE('',#175,#174,#99,.T.);
#218=EDGE_CURVE('',#162,#175,#100,.T.);
#219=EDGE_CURVE('',#174,#172,#101,.T.);
#220=EDGE_CURVE('',#171,#175,#102,.T.);
#221=EDGE_CURVE('',#173,#149,#103,.T.);
#222=EDGE_CURVE('',#170,#162,#104,.T.);
#223=EDGE_CURVE('',#164,#161,#105,.T.);
#224=ORIENTED_EDGE('',*,*,#176,.F.);
#225=ORIENTED_EDGE('',*,*,#177,.F.);
#226=ORIENTED_EDGE('',*,*,#178,.T.);
#227=ORIENTED_EDGE('',*,*,#179,.F.);
#228=ORIENTED_EDGE('',*,*,#180,.F.);
#229=ORIENTED_EDGE('',*,*,#181,.T.);
#230=ORIENTED_EDGE('',*,*,#182,.T.);
#231=ORIENTED_EDGE('',*,*,#183,.F.);
#232=ORIENTED_EDGE('',*,*,#184,.F.);
#233=ORIENTED_EDGE('',*,*,#185,.F.);
#234=ORIENTED_EDGE('',*,*,#186,.F.);
#235=ORIENTED_EDGE('',*,*,#187,.F.);
#236=ORIENTED_EDGE('',*,*,#184,.T.);
#237=ORIENTED_EDGE('',*,*,#188,.F.);
#238=ORIENTED_EDGE('',*,*,#189,.F.);
#239=ORIENTED_EDGE('',*,*,#190,.T.);
#240=ORIENTED_EDGE('',*,*,#191,.F.);
#241=ORIENTED_EDGE('',*,*,#183,.T.);
#242=ORIENTED_EDGE('',*,*,#192,.T.);
#243=ORIENTED_EDGE('',*,*,#188,.T.);
#244=ORIENTED_EDGE('',*,*,#179,.T.);
#245=ORIENTED_EDGE('',*,*,#193,.T.);
#246=ORIENTED_EDGE('',*,*,#194,.T.);
#247=ORIENTED_EDGE('',*,*,#195,.T.);
#248=ORIENTED_EDGE('',*,*,#196,.T.);
#249=ORIENTED_EDGE('',*,*,#197,.T.);
#250=ORIENTED_EDGE('',*,*,#198,.T.);
#251=ORIENTED_EDGE('',*,*,#199,.F.);
#252=ORIENTED_EDGE('',*,*,#200,.T.);
#253=ORIENTED_EDGE('',*,*,#201,.T.);
#254=ORIENTED_EDGE('',*,*,#202,.F.);
#255=ORIENTED_EDGE('',*,*,#190,.F.);
#256=ORIENTED_EDGE('',*,*,#199,.T.);
#257=ORIENTED_EDGE('',*,*,#203,.T.);
#258=ORIENTED_EDGE('',*,*,#204,.F.);
#259=ORIENTED_EDGE('',*,*,#205,.F.);
#260=ORIENTED_EDGE('',*,*,#185,.T.);
#261=ORIENTED_EDGE('',*,*,#191,.T.);
#262=ORIENTED_EDGE('',*,*,#202,.T.);
#263=ORIENTED_EDGE('',*,*,#206,.T.);
#264=ORIENTED_EDGE('',*,*,#204,.T.);
#265=ORIENTED_EDGE('',*,*,#207,.T.);
#266=ORIENTED_EDGE('',*,*,#208,.T.);
#267=ORIENTED_EDGE('',*,*,#200,.F.);
#268=ORIENTED_EDGE('',*,*,#209,.T.);
#269=ORIENTED_EDGE('',*,*,#210,.T.);
#270=ORIENTED_EDGE('',*,*,#211,.T.);
#271=ORIENTED_EDGE('',*,*,#212,.F.);
#272=ORIENTED_EDGE('',*,*,#213,.F.);
#273=ORIENTED_EDGE('',*,*,#205,.T.);
#274=ORIENTED_EDGE('',*,*,#206,.F.);
#275=ORIENTED_EDGE('',*,*,#201,.F.);
#276=ORIENTED_EDGE('',*,*,#186,.T.);
#277=ORIENTED_EDGE('',*,*,#207,.F.);
#278=ORIENTED_EDGE('',*,*,#203,.F.);
#279=ORIENTED_EDGE('',*,*,#214,.T.);
#280=ORIENTED_EDGE('',*,*,#215,.F.);
#281=ORIENTED_EDGE('',*,*,#194,.F.);
#282=ORIENTED_EDGE('',*,*,#216,.T.);
#283=ORIENTED_EDGE('',*,*,#217,.F.);
#284=ORIENTED_EDGE('',*,*,#218,.F.);
#285=ORIENTED_EDGE('',*,*,#219,.T.);
#286=ORIENTED_EDGE('',*,*,#212,.T.);
#287=ORIENTED_EDGE('',*,*,#220,.T.);
#288=ORIENTED_EDGE('',*,*,#217,.T.);
#289=ORIENTED_EDGE('',*,*,#187,.T.);
#290=ORIENTED_EDGE('',*,*,#215,.T.);
#291=ORIENTED_EDGE('',*,*,#221,.T.);
#292=ORIENTED_EDGE('',*,*,#198,.F.);
#293=ORIENTED_EDGE('',*,*,#177,.T.);
#294=ORIENTED_EDGE('',*,*,#176,.T.);
#295=ORIENTED_EDGE('',*,*,#221,.F.);
#296=ORIENTED_EDGE('',*,*,#214,.F.);
#297=ORIENTED_EDGE('',*,*,#209,.F.);
#298=ORIENTED_EDGE('',*,*,#189,.T.);
#299=ORIENTED_EDGE('',*,*,#192,.F.);
#300=ORIENTED_EDGE('',*,*,#182,.F.);
#301=ORIENTED_EDGE('',*,*,#181,.F.);
#302=ORIENTED_EDGE('',*,*,#210,.F.);
#303=ORIENTED_EDGE('',*,*,#180,.T.);
#304=ORIENTED_EDGE('',*,*,#195,.F.);
#305=ORIENTED_EDGE('',*,*,#222,.F.);
#306=ORIENTED_EDGE('',*,*,#208,.F.);
#307=ORIENTED_EDGE('',*,*,#222,.T.);
#308=ORIENTED_EDGE('',*,*,#218,.T.);
#309=ORIENTED_EDGE('',*,*,#220,.F.);
#310=ORIENTED_EDGE('',*,*,#211,.F.);
#311=ORIENTED_EDGE('',*,*,#196,.F.);
#312=ORIENTED_EDGE('',*,*,#213,.T.);
#313=ORIENTED_EDGE('',*,*,#219,.F.);
#314=ORIENTED_EDGE('',*,*,#216,.F.);
#315=ORIENTED_EDGE('',*,*,#223,.F.);
#316=ORIENTED_EDGE('',*,*,#197,.F.);
#317=ORIENTED_EDGE('',*,*,#223,.T.);
#318=ORIENTED_EDGE('',*,*,#193,.F.);
#319=ORIENTED_EDGE('',*,*,#178,.F.);
#320=PLANE('',#380);
#321=PLANE('',#384);
#322=PLANE('',#385);
#323=PLANE('',#386);
#324=PLANE('',#387);
#325=PLANE('',#388);
#326=PLANE('',#389);
#327=PLANE('',#392);
#328=PLANE('',#397);
#329=PLANE('',#398);
#330=PLANE('',#399);
#331=PLANE('',#400);
#332=PLANE('',#401);
#333=PLANE('',#402);
#334=PLANE('',#403);
#335=PLANE('',#404);
#336=PLANE('',#405);
#337=ADVANCED_FACE('',(#24),#320,.T.);
#338=ADVANCED_FACE('',(#25),#21,.T.);
#339=ADVANCED_FACE('',(#26),#321,.T.);
#340=ADVANCED_FACE('',(#27),#322,.T.);
#341=ADVANCED_FACE('',(#28),#323,.F.);
#342=ADVANCED_FACE('',(#29),#324,.T.);
#343=ADVANCED_FACE('',(#30),#325,.T.);
#344=ADVANCED_FACE('',(#31),#326,.T.);
#345=ADVANCED_FACE('',(#32),#327,.F.);
#346=ADVANCED_FACE('',(#33),#22,.T.);
#347=ADVANCED_FACE('',(#34),#23,.T.);
#348=ADVANCED_FACE('',(#35),#328,.T.);
#349=ADVANCED_FACE('',(#36),#329,.T.);
#350=ADVANCED_FACE('',(#37),#330,.T.);
#351=ADVANCED_FACE('',(#38),#331,.T.);
#352=ADVANCED_FACE('',(#39),#332,.T.);
#353=ADVANCED_FACE('',(#40),#333,.T.);
#354=ADVANCED_FACE('',(#41),#334,.T.);
#355=ADVANCED_FACE('',(#42),#335,.T.);
#356=ADVANCED_FACE('',(#43),#336,.T.);
#357=CLOSED_SHELL('',(#337,#338,#339,#340,#341,#342,#343,#344,#345,#346,
#347,#348,#349,#350,#351,#352,#353,#354,#355,#356));
#358=DERIVED_UNIT_ELEMENT(#361,1.);
#359=DERIVED_UNIT_ELEMENT(#604,-3.);
#360=DIMENSIONAL_EXPONENTS(0.,1.,0.,0.,0.,0.,0.);
#361=(
CONVERSION_BASED_UNIT('gram',#363)
MASS_UNIT()
NAMED_UNIT(#360)
);
#362=(
MASS_UNIT()
NAMED_UNIT(*)
SI_UNIT(.KILO.,.GRAM.)
);
#363=MASS_MEASURE_WITH_UNIT(MASS_MEASURE(0.001),#362);
#364=DERIVED_UNIT((#358,#359));
#365=MEASURE_REPRESENTATION_ITEM('density measure',
POSITIVE_RATIO_MEASURE(1.),#364);
#366=PROPERTY_DEFINITION_REPRESENTATION(#371,#368);
#367=PROPERTY_DEFINITION_REPRESENTATION(#372,#369);
#368=REPRESENTATION('material name',(#370),#601);
#369=REPRESENTATION('density',(#365),#601);
#370=DESCRIPTIVE_REPRESENTATION_ITEM('Generic','Generic');
#371=PROPERTY_DEFINITION('material property','material name',#611);
#372=PROPERTY_DEFINITION('material property','density of part',#611);
#373=DATE_TIME_ROLE('creation_date');
#374=APPLIED_DATE_AND_TIME_ASSIGNMENT(#375,#373,(#611));
#375=DATE_AND_TIME(#376,#377);
#376=CALENDAR_DATE(2025,2,11);
#377=LOCAL_TIME(0,0,0.,#378);
#378=COORDINATED_UNIVERSAL_TIME_OFFSET(0,0,.BEHIND.);
#379=AXIS2_PLACEMENT_3D('',#502,#406,#407);
#380=AXIS2_PLACEMENT_3D('',#503,#408,#409);
#381=AXIS2_PLACEMENT_3D('',#526,#422,#423);
#382=AXIS2_PLACEMENT_3D('',#528,#424,#425);
#383=AXIS2_PLACEMENT_3D('',#533,#428,#429);
#384=AXIS2_PLACEMENT_3D('',#534,#430,#431);
#385=AXIS2_PLACEMENT_3D('',#536,#433,#434);
#386=AXIS2_PLACEMENT_3D('',#542,#438,#439);
#387=AXIS2_PLACEMENT_3D('',#550,#444,#445);
#388=AXIS2_PLACEMENT_3D('',#556,#449,#450);
#389=AXIS2_PLACEMENT_3D('',#562,#454,#455);
#390=AXIS2_PLACEMENT_3D('',#563,#456,#457);
#391=AXIS2_PLACEMENT_3D('',#564,#458,#459);
#392=AXIS2_PLACEMENT_3D('',#565,#460,#461);
#393=AXIS2_PLACEMENT_3D('',#570,#465,#466);
#394=AXIS2_PLACEMENT_3D('',#574,#468,#469);
#395=AXIS2_PLACEMENT_3D('',#576,#471,#472);
#396=AXIS2_PLACEMENT_3D('',#579,#474,#475);
#397=AXIS2_PLACEMENT_3D('',#580,#476,#477);
#398=AXIS2_PLACEMENT_3D('',#586,#481,#482);
#399=AXIS2_PLACEMENT_3D('',#589,#485,#486);
#400=AXIS2_PLACEMENT_3D('',#591,#488,#489);
#401=AXIS2_PLACEMENT_3D('',#592,#490,#491);
#402=AXIS2_PLACEMENT_3D('',#593,#492,#493);
#403=AXIS2_PLACEMENT_3D('',#595,#495,#496);
#404=AXIS2_PLACEMENT_3D('',#596,#497,#498);
#405=AXIS2_PLACEMENT_3D('',#598,#500,#501);
#406=DIRECTION('axis',(0.,0.,1.));
#407=DIRECTION('refdir',(1.,0.,0.));
#408=DIRECTION('center_axis',(0.,1.,0.));
#409=DIRECTION('ref_axis',(0.,0.,1.));
#410=DIRECTION('',(0.,0.,-1.));
#411=DIRECTION('',(0.,0.,-1.));
#412=DIRECTION('',(0.,0.,-1.));
#413=DIRECTION('',(1.,0.,0.));
#414=DIRECTION('',(0.,0.,-1.));
#415=DIRECTION('',(0.,0.,-1.));
#416=DIRECTION('',(0.,0.,-1.));
#417=DIRECTION('',(1.,0.,0.));
#418=DIRECTION('',(0.,0.,-1.));
#419=DIRECTION('',(-1.,0.,0.));
#420=DIRECTION('',(0.,0.,1.));
#421=DIRECTION('',(1.,0.,0.));
#422=DIRECTION('center_axis',(0.,0.,-1.));
#423=DIRECTION('ref_axis',(-0.499999999999998,0.86602540378444,0.));
#424=DIRECTION('center_axis',(0.,0.,-1.));
#425=DIRECTION('ref_axis',(-0.499999999999998,0.86602540378444,0.));
#426=DIRECTION('',(0.,0.,-1.));
#427=DIRECTION('',(0.,0.,1.));
#428=DIRECTION('center_axis',(0.,0.,1.));
#429=DIRECTION('ref_axis',(-0.499999999999998,0.86602540378444,0.));
#430=DIRECTION('center_axis',(0.,0.,-1.));
#431=DIRECTION('ref_axis',(-1.,0.,0.));
#432=DIRECTION('',(-0.866025403784437,-0.500000000000002,0.));
#433=DIRECTION('center_axis',(0.,0.,-1.));
#434=DIRECTION('ref_axis',(-1.,0.,0.));
#435=DIRECTION('',(-0.5,-0.866025403784438,0.));
#436=DIRECTION('',(-1.,-6.86706805469099E-15,0.));
#437=DIRECTION('',(-0.5,0.866025403784439,0.));
#438=DIRECTION('center_axis',(0.,0.,1.));
#439=DIRECTION('ref_axis',(1.,0.,0.));
#440=DIRECTION('',(-0.866025403784438,0.500000000000001,0.));
#441=DIRECTION('',(0.5,0.866025403784438,0.));
#442=DIRECTION('',(0.866025403784438,-0.500000000000001,0.));
#443=DIRECTION('',(0.5,0.866025403784438,0.));
#444=DIRECTION('center_axis',(-0.866025403784439,-0.5,0.));
#445=DIRECTION('ref_axis',(0.5,-0.866025403784439,0.));
#446=DIRECTION('',(0.5,-0.866025403784439,0.));
#447=DIRECTION('',(0.,0.,1.));
#448=DIRECTION('',(0.5,-0.866025403784439,0.));
#449=DIRECTION('center_axis',(0.866025403784439,-0.5,0.));
#450=DIRECTION('ref_axis',(0.5,0.866025403784438,0.));
#451=DIRECTION('',(0.,0.,1.));
#452=DIRECTION('',(0.5,0.866025403784438,0.));
#453=DIRECTION('',(0.,0.,1.));
#454=DIRECTION('center_axis',(0.,0.,1.));
#455=DIRECTION('ref_axis',(1.,0.,0.));
#456=DIRECTION('center_axis',(0.,0.,1.));
#457=DIRECTION('ref_axis',(-0.499999999999998,-0.86602540378444,0.));
#458=DIRECTION('center_axis',(0.,0.,1.));
#459=DIRECTION('ref_axis',(1.,0.,0.));
#460=DIRECTION('center_axis',(0.,0.,1.));
#461=DIRECTION('ref_axis',(1.,0.,0.));
#462=DIRECTION('',(-0.866025403784439,-0.499999999999999,0.));
#463=DIRECTION('',(0.866025403784439,0.5,0.));
#464=DIRECTION('',(0.5,-0.866025403784439,0.));
#465=DIRECTION('center_axis',(0.,0.,-1.));
#466=DIRECTION('ref_axis',(-0.499999999999998,-0.86602540378444,0.));
#467=DIRECTION('',(0.,0.,-1.));
#468=DIRECTION('center_axis',(0.,0.,-1.));
#469=DIRECTION('ref_axis',(-0.499999999999998,-0.86602540378444,0.));
#470=DIRECTION('',(0.,0.,-1.));
#471=DIRECTION('center_axis',(0.,0.,-1.));
#472=DIRECTION('ref_axis',(1.,0.,0.));
#473=DIRECTION('',(0.,0.,-1.));
#474=DIRECTION('center_axis',(0.,0.,-1.));
#475=DIRECTION('ref_axis',(1.,0.,0.));
#476=DIRECTION('center_axis',(-6.86706805469099E-15,1.,0.));
#477=DIRECTION('ref_axis',(1.,6.86706805469099E-15,0.));
#478=DIRECTION('',(0.,0.,-1.));
#479=DIRECTION('',(1.,6.86706805469099E-15,0.));
#480=DIRECTION('',(0.,0.,-1.));
#481=DIRECTION('center_axis',(0.,0.,-1.));
#482=DIRECTION('ref_axis',(-1.,0.,0.));
#483=DIRECTION('',(0.866025403784439,-0.499999999999999,0.));
#484=DIRECTION('',(0.866025403784439,0.499999999999999,0.));
#485=DIRECTION('center_axis',(0.,0.,-1.));
#486=DIRECTION('ref_axis',(-1.,0.,0.));
#487=DIRECTION('',(-0.866025403784438,0.500000000000001,0.));
#488=DIRECTION('center_axis',(-0.500000000000001,-0.866025403784438,0.));
#489=DIRECTION('ref_axis',(-0.866025403784438,0.500000000000001,0.));
#490=DIRECTION('center_axis',(0.5,-0.866025403784439,0.));
#491=DIRECTION('ref_axis',(-0.866025403784439,-0.5,0.));
#492=DIRECTION('center_axis',(-0.866025403784439,-0.5,0.));
#493=DIRECTION('ref_axis',(-0.5,0.866025403784439,0.));
#494=DIRECTION('',(0.,0.,-1.));
#495=DIRECTION('center_axis',(-0.5,0.866025403784439,0.));
#496=DIRECTION('ref_axis',(0.866025403784439,0.499999999999999,0.));
#497=DIRECTION('center_axis',(0.500000000000001,0.866025403784438,0.));
#498=DIRECTION('ref_axis',(0.866025403784438,-0.500000000000001,0.));
#499=DIRECTION('',(0.,0.,-1.));
#500=DIRECTION('center_axis',(0.866025403784438,-0.5,0.));
#501=DIRECTION('ref_axis',(-0.5,-0.866025403784438,0.));
#502=CARTESIAN_POINT('',(0.,0.,0.));
#503=CARTESIAN_POINT('Origin',(3.26794919243112,1.,-5.));
#504=CARTESIAN_POINT('',(3.26794919243112,1.,-0.5));
#505=CARTESIAN_POINT('',(3.26794919243112,1.,-5.));
#506=CARTESIAN_POINT('',(3.26794919243112,1.,-0.5));
#507=CARTESIAN_POINT('',(3.26794919243112,1.,0.));
#508=CARTESIAN_POINT('',(3.26794919243112,1.,0.));
#509=CARTESIAN_POINT('',(3.26794919243112,1.,0.));
#510=CARTESIAN_POINT('',(-3.26794919243112,0.999999999999999,-0.5));
#511=CARTESIAN_POINT('',(1.63397459621556,1.,-0.5));
#512=CARTESIAN_POINT('',(-3.26794919243112,0.999999999999999,0.));
#513=CARTESIAN_POINT('',(-3.26794919243112,0.999999999999999,0.));
#514=CARTESIAN_POINT('',(-3.26794919243112,0.999999999999999,0.));
#515=CARTESIAN_POINT('',(-3.26794919243113,1.,-5.));
#516=CARTESIAN_POINT('',(-3.26794919243113,1.,-0.5));
#517=CARTESIAN_POINT('',(-4.89897948556636,1.,-5.));
#518=CARTESIAN_POINT('',(-0.241025403784438,1.,-5.));
#519=CARTESIAN_POINT('',(-4.89897948556636,1.,0.5));
#520=CARTESIAN_POINT('',(-4.89897948556636,1.,0.));
#521=CARTESIAN_POINT('',(4.89897948556636,1.,0.5));
#522=CARTESIAN_POINT('',(1.63397459621556,1.,0.5));
#523=CARTESIAN_POINT('',(4.89897948556636,1.,-5.));
#524=CARTESIAN_POINT('',(4.89897948556636,1.,0.));
#525=CARTESIAN_POINT('',(3.50897459621556,1.,-5.));
#526=CARTESIAN_POINT('Origin',(0.,0.,0.));
#527=CARTESIAN_POINT('',(-5.,-1.66533453693773E-15,-5.));
#528=CARTESIAN_POINT('Origin',(0.,0.,-5.));
#529=CARTESIAN_POINT('',(-5.,-5.55111512312578E-16,0.));
#530=CARTESIAN_POINT('',(-5.,-5.55111512312578E-16,0.));
#531=CARTESIAN_POINT('',(-5.,-5.55111512312578E-16,0.5));
#532=CARTESIAN_POINT('',(-5.,-8.12739661758407E-16,0.));
#533=CARTESIAN_POINT('Origin',(0.,0.,0.5));
#534=CARTESIAN_POINT('Origin',(-3.75,2.1650635094611,-5.));
#535=CARTESIAN_POINT('',(-3.26794919243113,1.,-5.));
#536=CARTESIAN_POINT('Origin',(5.55111512312578E-16,5.55111512312578E-16,
-0.5));
#537=CARTESIAN_POINT('',(0.767949192431122,-3.33012701892219,-0.5));
#538=CARTESIAN_POINT('',(0.767949192431122,-3.33012701892219,-0.5));
#539=CARTESIAN_POINT('',(-0.767949192431122,-3.3301270189222,-0.5));
#540=CARTESIAN_POINT('',(-0.383974596215549,-3.33012701892219,-0.5));
#541=CARTESIAN_POINT('',(-3.26794919243112,0.999999999999999,-0.5));
#542=CARTESIAN_POINT('Origin',(5.55111512312578E-16,5.55111512312578E-16,
0.));
#543=CARTESIAN_POINT('',(2.5,-4.33012701892219,0.));
#544=CARTESIAN_POINT('',(0.767949192431122,-3.33012701892219,0.));
#545=CARTESIAN_POINT('',(2.5,-4.33012701892219,0.));
#546=CARTESIAN_POINT('',(0.767949192431122,-3.33012701892219,0.));
#547=CARTESIAN_POINT('',(5.,-1.83400382508157E-15,0.));
#548=CARTESIAN_POINT('',(3.26794919243112,1.,0.));
#549=CARTESIAN_POINT('',(2.5,-4.33012701892219,0.));
#550=CARTESIAN_POINT('Origin',(-5.,-7.4833262439695E-16,0.));
#551=CARTESIAN_POINT('',(-2.5,-4.33012701892219,0.));
#552=CARTESIAN_POINT('',(-5.,-5.55111512312578E-16,0.));
#553=CARTESIAN_POINT('',(-2.5,-4.33012701892219,0.5));
#554=CARTESIAN_POINT('',(-2.5,-4.33012701892219,0.));
#555=CARTESIAN_POINT('',(-5.,-5.55111512312578E-16,0.5));
#556=CARTESIAN_POINT('Origin',(2.5,-4.33012701892219,0.));
#557=CARTESIAN_POINT('',(5.,-1.66533453693773E-15,0.5));
#558=CARTESIAN_POINT('',(5.,-1.83400382508157E-15,0.));
#559=CARTESIAN_POINT('',(2.5,-4.33012701892219,0.5));
#560=CARTESIAN_POINT('',(2.5,-4.33012701892219,0.5));
#561=CARTESIAN_POINT('',(2.5,-4.33012701892219,0.));
#562=CARTESIAN_POINT('Origin',(5.55111512312578E-16,5.55111512312578E-16,
0.5));
#563=CARTESIAN_POINT('Origin',(0.,0.,0.5));
#564=CARTESIAN_POINT('Origin',(0.,0.,0.5));
#565=CARTESIAN_POINT('Origin',(5.55111512312578E-16,5.55111512312578E-16,
0.));
#566=CARTESIAN_POINT('',(-0.767949192431122,-3.3301270189222,0.));
#567=CARTESIAN_POINT('',(-0.767949192431122,-3.3301270189222,0.));
#568=CARTESIAN_POINT('',(-5.,-1.11022302462516E-15,0.));
#569=CARTESIAN_POINT('',(-3.26794919243112,0.999999999999999,0.));
#570=CARTESIAN_POINT('Origin',(0.,0.,0.));
#571=CARTESIAN_POINT('',(-2.5,-4.33012701892219,-5.));
#572=CARTESIAN_POINT('',(-2.5,-4.33012701892219,0.));
#573=CARTESIAN_POINT('',(2.5,-4.33012701892218,-5.));
#574=CARTESIAN_POINT('Origin',(0.,0.,-5.));
#575=CARTESIAN_POINT('',(2.5,-4.33012701892219,0.));
#576=CARTESIAN_POINT('Origin',(0.,0.,0.));
#577=CARTESIAN_POINT('',(5.,-1.94289029309402E-15,-5.));
#578=CARTESIAN_POINT('',(5.,-1.83400382508157E-15,0.));
#579=CARTESIAN_POINT('Origin',(0.,0.,-5.));
#580=CARTESIAN_POINT('Origin',(-0.767949192431122,-3.3301270189222,-0.5));
#581=CARTESIAN_POINT('',(0.767949192431119,-3.33012701892218,-5.));
#582=CARTESIAN_POINT('',(0.767949192431119,-3.33012701892218,-0.5));
#583=CARTESIAN_POINT('',(-0.767949192431122,-3.3301270189222,-5.));
#584=CARTESIAN_POINT('',(-0.767949192431122,-3.3301270189222,-5.));
#585=CARTESIAN_POINT('',(-0.767949192431122,-3.3301270189222,-0.5));
#586=CARTESIAN_POINT('Origin',(-1.11022302462516E-15,-3.83012701892219,
-5.));
#587=CARTESIAN_POINT('',(0.767949192431119,-3.33012701892218,-5.));
#588=CARTESIAN_POINT('',(-2.5,-4.33012701892219,-5.));
#589=CARTESIAN_POINT('Origin',(3.75,2.1650635094611,-5.));
#590=CARTESIAN_POINT('',(5.,-1.83400382508157E-15,-5.));
#591=CARTESIAN_POINT('Origin',(5.,-8.32667268468867E-16,0.));
#592=CARTESIAN_POINT('Origin',(-3.26794919243112,1.,0.));
#593=CARTESIAN_POINT('Origin',(-0.767949192431121,-3.3301270189222,0.));
#594=CARTESIAN_POINT('',(-0.767949192431122,-3.3301270189222,0.));
#595=CARTESIAN_POINT('Origin',(-2.5,-4.3301270189222,0.));
#596=CARTESIAN_POINT('Origin',(0.767949192431122,-3.33012701892219,0.));
#597=CARTESIAN_POINT('',(0.767949192431122,-3.33012701892219,0.));
#598=CARTESIAN_POINT('Origin',(3.26794919243113,1.,0.));
#599=UNCERTAINTY_MEASURE_WITH_UNIT(LENGTH_MEASURE(0.01),#603,
'DISTANCE_ACCURACY_VALUE',
'Maximum model space distance between geometric entities at asserted c
onnectivities');
#600=UNCERTAINTY_MEASURE_WITH_UNIT(LENGTH_MEASURE(0.01),#603,
'DISTANCE_ACCURACY_VALUE',
'Maximum model space distance between geometric entities at asserted c
onnectivities');
#601=(
GEOMETRIC_REPRESENTATION_CONTEXT(3)
GLOBAL_UNCERTAINTY_ASSIGNED_CONTEXT((#599))
GLOBAL_UNIT_ASSIGNED_CONTEXT((#603,#605,#606))
REPRESENTATION_CONTEXT('','3D')
);
#602=(
GEOMETRIC_REPRESENTATION_CONTEXT(3)
GLOBAL_UNCERTAINTY_ASSIGNED_CONTEXT((#600))
GLOBAL_UNIT_ASSIGNED_CONTEXT((#603,#605,#606))
REPRESENTATION_CONTEXT('','3D')
);
#603=(
LENGTH_UNIT()
NAMED_UNIT(*)
SI_UNIT(.MILLI.,.METRE.)
);
#604=(
LENGTH_UNIT()
NAMED_UNIT(*)
SI_UNIT(.CENTI.,.METRE.)
);
#605=(
NAMED_UNIT(*)
PLANE_ANGLE_UNIT()
SI_UNIT($,.RADIAN.)
);
#606=(
NAMED_UNIT(*)
SI_UNIT($,.STERADIAN.)
SOLID_ANGLE_UNIT()
);
#607=SHAPE_DEFINITION_REPRESENTATION(#608,#609);
#608=PRODUCT_DEFINITION_SHAPE('',$,#611);
#609=SHAPE_REPRESENTATION('',(#379),#601);
#610=PRODUCT_DEFINITION_CONTEXT('part definition',#615,'design');
#611=PRODUCT_DEFINITION('BodyFoldedSide1','BodyFoldedSide1',#612,#610);
#612=PRODUCT_DEFINITION_FORMATION('',$,#617);
#613=PRODUCT_RELATED_PRODUCT_CATEGORY('BodyFoldedSide1',
'BodyFoldedSide1',(#617));
#614=APPLICATION_PROTOCOL_DEFINITION('international standard',
'automotive_design',2009,#615);
#615=APPLICATION_CONTEXT(
'Core Data for Automotive Mechanical Design Process');
#616=PRODUCT_CONTEXT('part definition',#615,'mechanical');
#617=PRODUCT('BodyFoldedSide1','BodyFoldedSide1',$,(#616));
#618=PRESENTATION_STYLE_ASSIGNMENT((#619));
#619=SURFACE_STYLE_USAGE(.BOTH.,#622);
#620=SURFACE_STYLE_RENDERING_WITH_PROPERTIES($,#626,(#621));
#621=SURFACE_STYLE_TRANSPARENT(0.);
#622=SURFACE_SIDE_STYLE('',(#623,#620));
#623=SURFACE_STYLE_FILL_AREA(#624);
#624=FILL_AREA_STYLE('',(#625));
#625=FILL_AREA_STYLE_COLOUR('',#626);
#626=COLOUR_RGB('',0.749019607843137,0.749019607843137,0.749019607843137);
ENDSEC;
END-ISO-10303-21;
