ISO-10303-21;
HEADER;
/* Generated by software containing ST-Developer
 * from STEP Tools, Inc. (www.steptools.com) 
 */

FILE_DESCRIPTION(
/* description */ (''),
/* implementation_level */ '2;1');

FILE_NAME(
/* name */ 'BodyFoldedSide1SG.stp',
/* time_stamp */ '2026-06-17T18:22:53+01:00',
/* author */ ('Jakub Schmidt'),
/* organization */ (''),
/* preprocessor_version */ 'ST-DEVELOPER v20.1',
/* originating_system */ 'Autodesk Inventor 2026',
/* authorisation */ '');

FILE_SCHEMA (('AUTOMOTIVE_DESIGN { 1 0 10303 214 3 1 1 }'));
ENDSEC;

DATA;
#10=MECHANICAL_DESIGN_GEOMETRIC_PRESENTATION_REPRESENTATION('',(#13),#588);
#11=SHAPE_REPRESENTATION_RELATIONSHIP('SRR','None',#595,#12);
#12=ADVANCED_BREP_SHAPE_REPRESENTATION('',(#14),#587);
#13=STYLED_ITEM('',(#604),#14);
#14=MANIFOLD_SOLID_BREP('Solid3',#347);
#15=CIRCLE('',#372,5.);
#16=CIRCLE('',#373,5.);
#17=CIRCLE('',#380,5.);
#18=CIRCLE('',#381,5.);
#19=CIRCLE('',#384,5.);
#20=CIRCLE('',#386,5.);
#21=CYLINDRICAL_SURFACE('',#371,5.);
#22=CYLINDRICAL_SURFACE('',#383,5.);
#23=CYLINDRICAL_SURFACE('',#385,5.);
#24=FACE_OUTER_BOUND('',#44,.T.);
#25=FACE_OUTER_BOUND('',#45,.T.);
#26=FACE_OUTER_BOUND('',#46,.T.);
#27=FACE_OUTER_BOUND('',#47,.T.);
#28=FACE_OUTER_BOUND('',#48,.T.);
#29=FACE_OUTER_BOUND('',#49,.T.);
#30=FACE_OUTER_BOUND('',#50,.T.);
#31=FACE_OUTER_BOUND('',#51,.T.);
#32=FACE_OUTER_BOUND('',#52,.T.);
#33=FACE_OUTER_BOUND('',#53,.T.);
#34=FACE_OUTER_BOUND('',#54,.T.);
#35=FACE_OUTER_BOUND('',#55,.T.);
#36=FACE_OUTER_BOUND('',#56,.T.);
#37=FACE_OUTER_BOUND('',#57,.T.);
#38=FACE_OUTER_BOUND('',#58,.T.);
#39=FACE_OUTER_BOUND('',#59,.T.);
#40=FACE_OUTER_BOUND('',#60,.T.);
#41=FACE_OUTER_BOUND('',#61,.T.);
#42=FACE_OUTER_BOUND('',#62,.T.);
#43=FACE_OUTER_BOUND('',#63,.T.);
#44=EDGE_LOOP('',(#218,#219,#220,#221,#222,#223,#224,#225,#226,#227));
#45=EDGE_LOOP('',(#228,#229,#230,#231,#232));
#46=EDGE_LOOP('',(#233,#234,#235));
#47=EDGE_LOOP('',(#236,#237,#238,#239));
#48=EDGE_LOOP('',(#240,#241,#242,#243));
#49=EDGE_LOOP('',(#244,#245,#246,#247));
#50=EDGE_LOOP('',(#248,#249,#250,#251));
#51=EDGE_LOOP('',(#252,#253,#254,#255,#256,#257));
#52=EDGE_LOOP('',(#258,#259,#260,#261));
#53=EDGE_LOOP('',(#262,#263,#264,#265,#266,#267));
#54=EDGE_LOOP('',(#268,#269,#270,#271,#272));
#55=EDGE_LOOP('',(#273,#274,#275,#276,#277,#278));
#56=EDGE_LOOP('',(#279,#280,#281,#282));
#57=EDGE_LOOP('',(#283,#284,#285));
#58=EDGE_LOOP('',(#286,#287,#288,#289));
#59=EDGE_LOOP('',(#290,#291,#292,#293));
#60=EDGE_LOOP('',(#294,#295,#296,#297));
#61=EDGE_LOOP('',(#298,#299,#300,#301));
#62=EDGE_LOOP('',(#302,#303,#304,#305));
#63=EDGE_LOOP('',(#306,#307,#308,#309));
#64=LINE('',#494,#104);
#65=LINE('',#496,#105);
#66=LINE('',#498,#106);
#67=LINE('',#500,#107);
#68=LINE('',#502,#108);
#69=LINE('',#504,#109);
#70=LINE('',#506,#110);
#71=LINE('',#508,#111);
#72=LINE('',#510,#112);
#73=LINE('',#511,#113);
#74=LINE('',#516,#114);
#75=LINE('',#518,#115);
#76=LINE('',#521,#116);
#77=LINE('',#524,#117);
#78=LINE('',#526,#118);
#79=LINE('',#527,#119);
#80=LINE('',#531,#120);
#81=LINE('',#532,#121);
#82=LINE('',#534,#122);
#83=LINE('',#535,#123);
#84=LINE('',#538,#124);
#85=LINE('',#540,#125);
#86=LINE('',#541,#126);
#87=LINE('',#544,#127);
#88=LINE('',#546,#128);
#89=LINE('',#547,#129);
#90=LINE('',#553,#130);
#91=LINE('',#554,#131);
#92=LINE('',#555,#132);
#93=LINE('',#558,#133);
#94=LINE('',#561,#134);
#95=LINE('',#564,#135);
#96=LINE('',#567,#136);
#97=LINE('',#569,#137);
#98=LINE('',#571,#138);
#99=LINE('',#572,#139);
#100=LINE('',#573,#140);
#101=LINE('',#575,#141);
#102=LINE('',#576,#142);
#103=LINE('',#578,#143);
#104=VECTOR('',#400,10.);
#105=VECTOR('',#401,10.);
#106=VECTOR('',#402,10.);
#107=VECTOR('',#403,10.);
#108=VECTOR('',#404,10.);
#109=VECTOR('',#405,10.);
#110=VECTOR('',#406,10.);
#111=VECTOR('',#407,10.);
#112=VECTOR('',#408,10.);
#113=VECTOR('',#409,10.);
#114=VECTOR('',#414,10.);
#115=VECTOR('',#415,10.);
#116=VECTOR('',#420,10.);
#117=VECTOR('',#423,10.);
#118=VECTOR('',#424,10.);
#119=VECTOR('',#425,10.);
#120=VECTOR('',#428,10.);
#121=VECTOR('',#429,10.);
#122=VECTOR('',#430,10.);
#123=VECTOR('',#431,10.);
#124=VECTOR('',#434,10.);
#125=VECTOR('',#435,10.);
#126=VECTOR('',#436,10.);
#127=VECTOR('',#439,10.);
#128=VECTOR('',#440,10.);
#129=VECTOR('',#441,10.);
#130=VECTOR('',#450,10.);
#131=VECTOR('',#451,10.);
#132=VECTOR('',#452,10.);
#133=VECTOR('',#455,10.);
#134=VECTOR('',#458,10.);
#135=VECTOR('',#461,10.);
#136=VECTOR('',#466,10.);
#137=VECTOR('',#467,10.);
#138=VECTOR('',#468,10.);
#139=VECTOR('',#469,10.);
#140=VECTOR('',#470,10.);
#141=VECTOR('',#473,10.);
#142=VECTOR('',#474,10.);
#143=VECTOR('',#477,10.);
#144=VERTEX_POINT('',#492);
#145=VERTEX_POINT('',#493);
#146=VERTEX_POINT('',#495);
#147=VERTEX_POINT('',#497);
#148=VERTEX_POINT('',#499);
#149=VERTEX_POINT('',#501);
#150=VERTEX_POINT('',#503);
#151=VERTEX_POINT('',#505);
#152=VERTEX_POINT('',#507);
#153=VERTEX_POINT('',#509);
#154=VERTEX_POINT('',#513);
#155=VERTEX_POINT('',#515);
#156=VERTEX_POINT('',#517);
#157=VERTEX_POINT('',#523);
#158=VERTEX_POINT('',#525);
#159=VERTEX_POINT('',#529);
#160=VERTEX_POINT('',#530);
#161=VERTEX_POINT('',#533);
#162=VERTEX_POINT('',#537);
#163=VERTEX_POINT('',#539);
#164=VERTEX_POINT('',#543);
#165=VERTEX_POINT('',#545);
#166=VERTEX_POINT('',#552);
#167=VERTEX_POINT('',#557);
#168=VERTEX_POINT('',#559);
#169=VERTEX_POINT('',#563);
#170=VERTEX_POINT('',#568);
#171=VERTEX_POINT('',#570);
#172=EDGE_CURVE('',#144,#145,#64,.T.);
#173=EDGE_CURVE('',#146,#144,#65,.F.);
#174=EDGE_CURVE('',#146,#147,#66,.T.);
#175=EDGE_CURVE('',#148,#147,#67,.T.);
#176=EDGE_CURVE('',#149,#148,#68,.T.);
#177=EDGE_CURVE('',#150,#149,#69,.T.);
#178=EDGE_CURVE('',#151,#150,#70,.T.);
#179=EDGE_CURVE('',#152,#151,#71,.T.);
#180=EDGE_CURVE('',#153,#152,#72,.T.);
#181=EDGE_CURVE('',#153,#145,#73,.F.);
#182=EDGE_CURVE('',#154,#148,#15,.T.);
#183=EDGE_CURVE('',#155,#154,#74,.T.);
#184=EDGE_CURVE('',#155,#156,#75,.T.);
#185=EDGE_CURVE('',#149,#156,#16,.T.);
#186=EDGE_CURVE('',#147,#154,#76,.T.);
#187=EDGE_CURVE('',#145,#157,#77,.T.);
#188=EDGE_CURVE('',#157,#158,#78,.T.);
#189=EDGE_CURVE('',#158,#144,#79,.T.);
#190=EDGE_CURVE('',#159,#160,#80,.T.);
#191=EDGE_CURVE('',#160,#153,#81,.T.);
#192=EDGE_CURVE('',#153,#161,#82,.T.);
#193=EDGE_CURVE('',#159,#161,#83,.T.);
#194=EDGE_CURVE('',#155,#162,#84,.T.);
#195=EDGE_CURVE('',#162,#163,#85,.T.);
#196=EDGE_CURVE('',#156,#163,#86,.T.);
#197=EDGE_CURVE('',#161,#164,#87,.T.);
#198=EDGE_CURVE('',#165,#164,#88,.T.);
#199=EDGE_CURVE('',#159,#165,#89,.T.);
#200=EDGE_CURVE('',#163,#165,#17,.T.);
#201=EDGE_CURVE('',#164,#150,#18,.T.);
#202=EDGE_CURVE('',#166,#162,#90,.T.);
#203=EDGE_CURVE('',#155,#146,#91,.T.);
#204=EDGE_CURVE('',#146,#166,#92,.T.);
#205=EDGE_CURVE('',#162,#167,#93,.T.);
#206=EDGE_CURVE('',#168,#167,#19,.T.);
#207=EDGE_CURVE('',#159,#168,#94,.T.);
#208=EDGE_CURVE('',#161,#169,#95,.T.);
#209=EDGE_CURVE('',#151,#169,#20,.T.);
#210=EDGE_CURVE('',#160,#157,#96,.F.);
#211=EDGE_CURVE('',#160,#170,#97,.T.);
#212=EDGE_CURVE('',#171,#170,#98,.T.);
#213=EDGE_CURVE('',#166,#171,#99,.T.);
#214=EDGE_CURVE('',#158,#166,#100,.T.);
#215=EDGE_CURVE('',#170,#168,#101,.T.);
#216=EDGE_CURVE('',#167,#171,#102,.T.);
#217=EDGE_CURVE('',#169,#152,#103,.T.);
#218=ORIENTED_EDGE('',*,*,#172,.F.);
#219=ORIENTED_EDGE('',*,*,#173,.F.);
#220=ORIENTED_EDGE('',*,*,#174,.T.);
#221=ORIENTED_EDGE('',*,*,#175,.F.);
#222=ORIENTED_EDGE('',*,*,#176,.F.);
#223=ORIENTED_EDGE('',*,*,#177,.F.);
#224=ORIENTED_EDGE('',*,*,#178,.F.);
#225=ORIENTED_EDGE('',*,*,#179,.F.);
#226=ORIENTED_EDGE('',*,*,#180,.F.);
#227=ORIENTED_EDGE('',*,*,#181,.T.);
#228=ORIENTED_EDGE('',*,*,#176,.T.);
#229=ORIENTED_EDGE('',*,*,#182,.F.);
#230=ORIENTED_EDGE('',*,*,#183,.F.);
#231=ORIENTED_EDGE('',*,*,#184,.T.);
#232=ORIENTED_EDGE('',*,*,#185,.F.);
#233=ORIENTED_EDGE('',*,*,#175,.T.);
#234=ORIENTED_EDGE('',*,*,#186,.T.);
#235=ORIENTED_EDGE('',*,*,#182,.T.);
#236=ORIENTED_EDGE('',*,*,#172,.T.);
#237=ORIENTED_EDGE('',*,*,#187,.T.);
#238=ORIENTED_EDGE('',*,*,#188,.T.);
#239=ORIENTED_EDGE('',*,*,#189,.T.);
#240=ORIENTED_EDGE('',*,*,#190,.T.);
#241=ORIENTED_EDGE('',*,*,#191,.T.);
#242=ORIENTED_EDGE('',*,*,#192,.T.);
#243=ORIENTED_EDGE('',*,*,#193,.F.);
#244=ORIENTED_EDGE('',*,*,#194,.T.);
#245=ORIENTED_EDGE('',*,*,#195,.T.);
#246=ORIENTED_EDGE('',*,*,#196,.F.);
#247=ORIENTED_EDGE('',*,*,#184,.F.);
#248=ORIENTED_EDGE('',*,*,#193,.T.);
#249=ORIENTED_EDGE('',*,*,#197,.T.);
#250=ORIENTED_EDGE('',*,*,#198,.F.);
#251=ORIENTED_EDGE('',*,*,#199,.F.);
#252=ORIENTED_EDGE('',*,*,#177,.T.);
#253=ORIENTED_EDGE('',*,*,#185,.T.);
#254=ORIENTED_EDGE('',*,*,#196,.T.);
#255=ORIENTED_EDGE('',*,*,#200,.T.);
#256=ORIENTED_EDGE('',*,*,#198,.T.);
#257=ORIENTED_EDGE('',*,*,#201,.T.);
#258=ORIENTED_EDGE('',*,*,#202,.T.);
#259=ORIENTED_EDGE('',*,*,#194,.F.);
#260=ORIENTED_EDGE('',*,*,#203,.T.);
#261=ORIENTED_EDGE('',*,*,#204,.T.);
#262=ORIENTED_EDGE('',*,*,#205,.T.);
#263=ORIENTED_EDGE('',*,*,#206,.F.);
#264=ORIENTED_EDGE('',*,*,#207,.F.);
#265=ORIENTED_EDGE('',*,*,#199,.T.);
#266=ORIENTED_EDGE('',*,*,#200,.F.);
#267=ORIENTED_EDGE('',*,*,#195,.F.);
#268=ORIENTED_EDGE('',*,*,#178,.T.);
#269=ORIENTED_EDGE('',*,*,#201,.F.);
#270=ORIENTED_EDGE('',*,*,#197,.F.);
#271=ORIENTED_EDGE('',*,*,#208,.T.);
#272=ORIENTED_EDGE('',*,*,#209,.F.);
#273=ORIENTED_EDGE('',*,*,#188,.F.);
#274=ORIENTED_EDGE('',*,*,#210,.F.);
#275=ORIENTED_EDGE('',*,*,#211,.T.);
#276=ORIENTED_EDGE('',*,*,#212,.F.);
#277=ORIENTED_EDGE('',*,*,#213,.F.);
#278=ORIENTED_EDGE('',*,*,#214,.F.);
#279=ORIENTED_EDGE('',*,*,#215,.T.);
#280=ORIENTED_EDGE('',*,*,#206,.T.);
#281=ORIENTED_EDGE('',*,*,#216,.T.);
#282=ORIENTED_EDGE('',*,*,#212,.T.);
#283=ORIENTED_EDGE('',*,*,#179,.T.);
#284=ORIENTED_EDGE('',*,*,#209,.T.);
#285=ORIENTED_EDGE('',*,*,#217,.T.);
#286=ORIENTED_EDGE('',*,*,#192,.F.);
#287=ORIENTED_EDGE('',*,*,#180,.T.);
#288=ORIENTED_EDGE('',*,*,#217,.F.);
#289=ORIENTED_EDGE('',*,*,#208,.F.);
#290=ORIENTED_EDGE('',*,*,#174,.F.);
#291=ORIENTED_EDGE('',*,*,#203,.F.);
#292=ORIENTED_EDGE('',*,*,#183,.T.);
#293=ORIENTED_EDGE('',*,*,#186,.F.);
#294=ORIENTED_EDGE('',*,*,#204,.F.);
#295=ORIENTED_EDGE('',*,*,#173,.T.);
#296=ORIENTED_EDGE('',*,*,#189,.F.);
#297=ORIENTED_EDGE('',*,*,#214,.T.);
#298=ORIENTED_EDGE('',*,*,#202,.F.);
#299=ORIENTED_EDGE('',*,*,#213,.T.);
#300=ORIENTED_EDGE('',*,*,#216,.F.);
#301=ORIENTED_EDGE('',*,*,#205,.F.);
#302=ORIENTED_EDGE('',*,*,#211,.F.);
#303=ORIENTED_EDGE('',*,*,#190,.F.);
#304=ORIENTED_EDGE('',*,*,#207,.T.);
#305=ORIENTED_EDGE('',*,*,#215,.F.);
#306=ORIENTED_EDGE('',*,*,#191,.F.);
#307=ORIENTED_EDGE('',*,*,#210,.T.);
#308=ORIENTED_EDGE('',*,*,#187,.F.);
#309=ORIENTED_EDGE('',*,*,#181,.F.);
#310=PLANE('',#370);
#311=PLANE('',#374);
#312=PLANE('',#375);
#313=PLANE('',#376);
#314=PLANE('',#377);
#315=PLANE('',#378);
#316=PLANE('',#379);
#317=PLANE('',#382);
#318=PLANE('',#387);
#319=PLANE('',#388);
#320=PLANE('',#389);
#321=PLANE('',#390);
#322=PLANE('',#391);
#323=PLANE('',#392);
#324=PLANE('',#393);
#325=PLANE('',#394);
#326=PLANE('',#395);
#327=ADVANCED_FACE('',(#24),#310,.T.);
#328=ADVANCED_FACE('',(#25),#21,.T.);
#329=ADVANCED_FACE('',(#26),#311,.T.);
#330=ADVANCED_FACE('',(#27),#312,.T.);
#331=ADVANCED_FACE('',(#28),#313,.F.);
#332=ADVANCED_FACE('',(#29),#314,.T.);
#333=ADVANCED_FACE('',(#30),#315,.T.);
#334=ADVANCED_FACE('',(#31),#316,.T.);
#335=ADVANCED_FACE('',(#32),#317,.F.);
#336=ADVANCED_FACE('',(#33),#22,.T.);
#337=ADVANCED_FACE('',(#34),#23,.T.);
#338=ADVANCED_FACE('',(#35),#318,.T.);
#339=ADVANCED_FACE('',(#36),#319,.T.);
#340=ADVANCED_FACE('',(#37),#320,.T.);
#341=ADVANCED_FACE('',(#38),#321,.T.);
#342=ADVANCED_FACE('',(#39),#322,.T.);
#343=ADVANCED_FACE('',(#40),#323,.F.);
#344=ADVANCED_FACE('',(#41),#324,.T.);
#345=ADVANCED_FACE('',(#42),#325,.T.);
#346=ADVANCED_FACE('',(#43),#326,.F.);
#347=CLOSED_SHELL('',(#327,#328,#329,#330,#331,#332,#333,#334,#335,#336,
#337,#338,#339,#340,#341,#342,#343,#344,#345,#346));
#348=DERIVED_UNIT_ELEMENT(#351,1.);
#349=DERIVED_UNIT_ELEMENT(#590,-3.);
#350=DIMENSIONAL_EXPONENTS(0.,1.,0.,0.,0.,0.,0.);
#351=(
CONVERSION_BASED_UNIT('gram',#353)
MASS_UNIT()
NAMED_UNIT(#350)
);
#352=(
MASS_UNIT()
NAMED_UNIT(*)
SI_UNIT(.KILO.,.GRAM.)
);
#353=MASS_MEASURE_WITH_UNIT(MASS_MEASURE(0.001),#352);
#354=DERIVED_UNIT((#348,#349));
#355=MEASURE_REPRESENTATION_ITEM('density measure',
POSITIVE_RATIO_MEASURE(1.),#354);
#356=PROPERTY_DEFINITION_REPRESENTATION(#361,#358);
#357=PROPERTY_DEFINITION_REPRESENTATION(#362,#359);
#358=REPRESENTATION('material name',(#360),#587);
#359=REPRESENTATION('density',(#355),#587);
#360=DESCRIPTIVE_REPRESENTATION_ITEM('Generic','Generic');
#361=PROPERTY_DEFINITION('material property','material name',#597);
#362=PROPERTY_DEFINITION('material property','density of part',#597);
#363=DATE_TIME_ROLE('creation_date');
#364=APPLIED_DATE_AND_TIME_ASSIGNMENT(#365,#363,(#597));
#365=DATE_AND_TIME(#366,#367);
#366=CALENDAR_DATE(2025,2,11);
#367=LOCAL_TIME(0,0,0.,#368);
#368=COORDINATED_UNIVERSAL_TIME_OFFSET(0,0,.BEHIND.);
#369=AXIS2_PLACEMENT_3D('',#490,#396,#397);
#370=AXIS2_PLACEMENT_3D('',#491,#398,#399);
#371=AXIS2_PLACEMENT_3D('',#512,#410,#411);
#372=AXIS2_PLACEMENT_3D('',#514,#412,#413);
#373=AXIS2_PLACEMENT_3D('',#519,#416,#417);
#374=AXIS2_PLACEMENT_3D('',#520,#418,#419);
#375=AXIS2_PLACEMENT_3D('',#522,#421,#422);
#376=AXIS2_PLACEMENT_3D('',#528,#426,#427);
#377=AXIS2_PLACEMENT_3D('',#536,#432,#433);
#378=AXIS2_PLACEMENT_3D('',#542,#437,#438);
#379=AXIS2_PLACEMENT_3D('',#548,#442,#443);
#380=AXIS2_PLACEMENT_3D('',#549,#444,#445);
#381=AXIS2_PLACEMENT_3D('',#550,#446,#447);
#382=AXIS2_PLACEMENT_3D('',#551,#448,#449);
#383=AXIS2_PLACEMENT_3D('',#556,#453,#454);
#384=AXIS2_PLACEMENT_3D('',#560,#456,#457);
#385=AXIS2_PLACEMENT_3D('',#562,#459,#460);
#386=AXIS2_PLACEMENT_3D('',#565,#462,#463);
#387=AXIS2_PLACEMENT_3D('',#566,#464,#465);
#388=AXIS2_PLACEMENT_3D('',#574,#471,#472);
#389=AXIS2_PLACEMENT_3D('',#577,#475,#476);
#390=AXIS2_PLACEMENT_3D('',#579,#478,#479);
#391=AXIS2_PLACEMENT_3D('',#580,#480,#481);
#392=AXIS2_PLACEMENT_3D('',#581,#482,#483);
#393=AXIS2_PLACEMENT_3D('',#582,#484,#485);
#394=AXIS2_PLACEMENT_3D('',#583,#486,#487);
#395=AXIS2_PLACEMENT_3D('',#584,#488,#489);
#396=DIRECTION('axis',(0.,0.,1.));
#397=DIRECTION('refdir',(1.,0.,0.));
#398=DIRECTION('center_axis',(0.,1.,0.));
#399=DIRECTION('ref_axis',(0.,0.,1.));
#400=DIRECTION('',(1.,0.,0.));
#401=DIRECTION('',(0.,0.,-1.));
#402=DIRECTION('',(0.,0.,-1.));
#403=DIRECTION('',(1.,0.,0.));
#404=DIRECTION('',(0.,0.,-1.));
#405=DIRECTION('',(-1.,0.,0.));
#406=DIRECTION('',(0.,0.,1.));
#407=DIRECTION('',(1.,0.,0.));
#408=DIRECTION('',(0.,0.,-1.));
#409=DIRECTION('',(0.,0.,-1.));
#410=DIRECTION('center_axis',(0.,0.,-1.));
#411=DIRECTION('ref_axis',(-0.499999999999998,0.86602540378444,0.));
#412=DIRECTION('center_axis',(0.,0.,-1.));
#413=DIRECTION('ref_axis',(-0.499999999999998,0.86602540378444,0.));
#414=DIRECTION('',(0.,0.,-1.));
#415=DIRECTION('',(0.,0.,1.));
#416=DIRECTION('center_axis',(0.,0.,1.));
#417=DIRECTION('ref_axis',(-0.499999999999998,0.86602540378444,0.));
#418=DIRECTION('center_axis',(0.,0.,-1.));
#419=DIRECTION('ref_axis',(-1.,0.,0.));
#420=DIRECTION('',(-0.866025403784437,-0.500000000000002,0.));
#421=DIRECTION('center_axis',(0.,0.,-1.));
#422=DIRECTION('ref_axis',(-1.,0.,0.));
#423=DIRECTION('',(-0.5,-0.866025403784438,0.));
#424=DIRECTION('',(-1.,-6.86706805469099E-15,0.));
#425=DIRECTION('',(-0.5,0.866025403784439,0.));
#426=DIRECTION('center_axis',(0.,0.,1.));
#427=DIRECTION('ref_axis',(1.,0.,0.));
#428=DIRECTION('',(-0.866025403784438,0.500000000000001,0.));
#429=DIRECTION('',(0.5,0.866025403784438,0.));
#430=DIRECTION('',(0.866025403784438,-0.500000000000001,0.));
#431=DIRECTION('',(0.5,0.866025403784438,0.));
#432=DIRECTION('center_axis',(-0.866025403784439,-0.5,0.));
#433=DIRECTION('ref_axis',(0.5,-0.866025403784439,0.));
#434=DIRECTION('',(0.5,-0.866025403784439,0.));
#435=DIRECTION('',(0.,0.,1.));
#436=DIRECTION('',(0.5,-0.866025403784439,0.));
#437=DIRECTION('center_axis',(0.866025403784439,-0.5,0.));
#438=DIRECTION('ref_axis',(0.5,0.866025403784438,0.));
#439=DIRECTION('',(0.,0.,1.));
#440=DIRECTION('',(0.5,0.866025403784438,0.));
#441=DIRECTION('',(0.,0.,1.));
#442=DIRECTION('center_axis',(0.,0.,1.));
#443=DIRECTION('ref_axis',(1.,0.,0.));
#444=DIRECTION('center_axis',(0.,0.,1.));
#445=DIRECTION('ref_axis',(-0.499999999999998,-0.86602540378444,0.));
#446=DIRECTION('center_axis',(0.,0.,1.));
#447=DIRECTION('ref_axis',(1.,0.,0.));
#448=DIRECTION('center_axis',(0.,0.,1.));
#449=DIRECTION('ref_axis',(1.,0.,0.));
#450=DIRECTION('',(-0.866025403784439,-0.499999999999999,0.));
#451=DIRECTION('',(0.866025403784439,0.5,0.));
#452=DIRECTION('',(0.5,-0.866025403784439,0.));
#453=DIRECTION('center_axis',(0.,0.,-1.));
#454=DIRECTION('ref_axis',(-0.499999999999998,-0.86602540378444,0.));
#455=DIRECTION('',(0.,0.,-1.));
#456=DIRECTION('center_axis',(0.,0.,-1.));
#457=DIRECTION('ref_axis',(-0.499999999999998,-0.86602540378444,0.));
#458=DIRECTION('',(0.,0.,-1.));
#459=DIRECTION('center_axis',(0.,0.,-1.));
#460=DIRECTION('ref_axis',(1.,0.,0.));
#461=DIRECTION('',(0.,0.,-1.));
#462=DIRECTION('center_axis',(0.,0.,-1.));
#463=DIRECTION('ref_axis',(1.,0.,0.));
#464=DIRECTION('center_axis',(-6.86706805469099E-15,1.,0.));
#465=DIRECTION('ref_axis',(1.,6.86706805469099E-15,0.));
#466=DIRECTION('',(0.,0.,-1.));
#467=DIRECTION('',(0.,0.,-1.));
#468=DIRECTION('',(1.,6.86706805469099E-15,0.));
#469=DIRECTION('',(0.,0.,-1.));
#470=DIRECTION('',(0.,0.,-1.));
#471=DIRECTION('center_axis',(0.,0.,-1.));
#472=DIRECTION('ref_axis',(-1.,0.,0.));
#473=DIRECTION('',(0.866025403784439,-0.499999999999999,0.));
#474=DIRECTION('',(0.866025403784439,0.499999999999999,0.));
#475=DIRECTION('center_axis',(0.,0.,-1.));
#476=DIRECTION('ref_axis',(-1.,0.,0.));
#477=DIRECTION('',(-0.866025403784438,0.500000000000001,0.));
#478=DIRECTION('center_axis',(-0.500000000000001,-0.866025403784438,0.));
#479=DIRECTION('ref_axis',(-0.866025403784438,0.500000000000001,0.));
#480=DIRECTION('center_axis',(0.5,-0.866025403784439,0.));
#481=DIRECTION('ref_axis',(-0.866025403784439,-0.5,0.));
#482=DIRECTION('center_axis',(-0.866025403784439,-0.5,0.));
#483=DIRECTION('ref_axis',(-0.5,0.866025403784439,0.));
#484=DIRECTION('center_axis',(-0.5,0.866025403784439,0.));
#485=DIRECTION('ref_axis',(0.866025403784439,0.499999999999999,0.));
#486=DIRECTION('center_axis',(0.500000000000001,0.866025403784438,0.));
#487=DIRECTION('ref_axis',(0.866025403784438,-0.500000000000001,0.));
#488=DIRECTION('center_axis',(0.866025403784438,-0.5,0.));
#489=DIRECTION('ref_axis',(-0.5,-0.866025403784438,0.));
#490=CARTESIAN_POINT('',(0.,0.,0.));
#491=CARTESIAN_POINT('Origin',(3.26794919243112,1.,-5.));
#492=CARTESIAN_POINT('',(-3.26794919243112,0.999999999999999,-0.5));
#493=CARTESIAN_POINT('',(3.26794919243112,1.,-0.5));
#494=CARTESIAN_POINT('',(1.63397459621556,1.,-0.5));
#495=CARTESIAN_POINT('',(-3.26794919243112,0.999999999999999,-4.999));
#496=CARTESIAN_POINT('',(-3.26794919243112,0.999999999999999,0.));
#497=CARTESIAN_POINT('',(-3.26794919243113,1.,-5.));
#498=CARTESIAN_POINT('',(-3.26794919243113,1.,-0.5));
#499=CARTESIAN_POINT('',(-4.89897948556636,1.,-5.));
#500=CARTESIAN_POINT('',(-0.241025403784438,1.,-5.));
#501=CARTESIAN_POINT('',(-4.89897948556636,1.,0.5));
#502=CARTESIAN_POINT('',(-4.89897948556636,1.,0.));
#503=CARTESIAN_POINT('',(4.89897948556636,1.,0.5));
#504=CARTESIAN_POINT('',(1.63397459621556,1.,0.5));
#505=CARTESIAN_POINT('',(4.89897948556636,1.,-5.));
#506=CARTESIAN_POINT('',(4.89897948556636,1.,0.));
#507=CARTESIAN_POINT('',(3.26794919243112,1.,-5.));
#508=CARTESIAN_POINT('',(3.50897459621556,1.,-5.));
#509=CARTESIAN_POINT('',(3.26794919243112,1.,-4.999));
#510=CARTESIAN_POINT('',(3.26794919243112,1.,-0.5));
#511=CARTESIAN_POINT('',(3.26794919243112,1.,0.));
#512=CARTESIAN_POINT('Origin',(0.,0.,0.));
#513=CARTESIAN_POINT('',(-5.,-1.66533453693773E-15,-5.));
#514=CARTESIAN_POINT('Origin',(0.,0.,-5.));
#515=CARTESIAN_POINT('',(-5.,-1.75696319130231E-15,-4.999));
#516=CARTESIAN_POINT('',(-5.,-5.55111512312578E-16,0.));
#517=CARTESIAN_POINT('',(-5.,-5.55111512312578E-16,0.5));
#518=CARTESIAN_POINT('',(-5.,-8.12739661758407E-16,0.));
#519=CARTESIAN_POINT('Origin',(0.,0.,0.5));
#520=CARTESIAN_POINT('Origin',(-3.75,2.1650635094611,-5.));
#521=CARTESIAN_POINT('',(-3.26794919243113,1.,-5.));
#522=CARTESIAN_POINT('Origin',(5.55111512312578E-16,5.55111512312578E-16,
-0.5));
#523=CARTESIAN_POINT('',(0.767949192431122,-3.33012701892219,-0.5));
#524=CARTESIAN_POINT('',(0.767949192431122,-3.33012701892219,-0.5));
#525=CARTESIAN_POINT('',(-0.767949192431122,-3.3301270189222,-0.5));
#526=CARTESIAN_POINT('',(-0.383974596215549,-3.33012701892219,-0.5));
#527=CARTESIAN_POINT('',(-3.26794919243112,0.999999999999999,-0.5));
#528=CARTESIAN_POINT('Origin',(5.55111512312578E-16,5.55111512312578E-16,
-4.999));
#529=CARTESIAN_POINT('',(2.5,-4.33012701892219,-4.999));
#530=CARTESIAN_POINT('',(0.76794919243112,-3.33012701892219,-4.999));
#531=CARTESIAN_POINT('',(2.5,-4.33012701892219,-4.999));
#532=CARTESIAN_POINT('',(0.767949192431122,-3.33012701892219,-4.999));
#533=CARTESIAN_POINT('',(5.,-1.83400382508157E-15,-4.999));
#534=CARTESIAN_POINT('',(3.26794919243112,1.,-4.999));
#535=CARTESIAN_POINT('',(2.5,-4.33012701892219,-4.999));
#536=CARTESIAN_POINT('Origin',(-5.,-7.4833262439695E-16,0.));
#537=CARTESIAN_POINT('',(-2.5,-4.33012701892219,-4.999));
#538=CARTESIAN_POINT('',(-5.,-5.55111512312578E-16,-4.999));
#539=CARTESIAN_POINT('',(-2.5,-4.33012701892219,0.5));
#540=CARTESIAN_POINT('',(-2.5,-4.33012701892219,0.));
#541=CARTESIAN_POINT('',(-5.,-5.55111512312578E-16,0.5));
#542=CARTESIAN_POINT('Origin',(2.5,-4.33012701892219,0.));
#543=CARTESIAN_POINT('',(5.,-1.66533453693773E-15,0.5));
#544=CARTESIAN_POINT('',(5.,-1.83400382508157E-15,0.));
#545=CARTESIAN_POINT('',(2.5,-4.33012701892219,0.5));
#546=CARTESIAN_POINT('',(2.5,-4.33012701892219,0.5));
#547=CARTESIAN_POINT('',(2.5,-4.33012701892219,0.));
#548=CARTESIAN_POINT('Origin',(5.55111512312578E-16,5.55111512312578E-16,
0.5));
#549=CARTESIAN_POINT('Origin',(0.,0.,0.5));
#550=CARTESIAN_POINT('Origin',(0.,0.,0.5));
#551=CARTESIAN_POINT('Origin',(5.55111512312578E-16,5.55111512312578E-16,
-4.999));
#552=CARTESIAN_POINT('',(-0.767949192431122,-3.3301270189222,-4.999));
#553=CARTESIAN_POINT('',(-0.767949192431122,-3.3301270189222,-4.999));
#554=CARTESIAN_POINT('',(-5.,-1.11022302462516E-15,-4.999));
#555=CARTESIAN_POINT('',(-3.26794919243112,0.999999999999999,-4.999));
#556=CARTESIAN_POINT('Origin',(0.,0.,0.));
#557=CARTESIAN_POINT('',(-2.5,-4.33012701892219,-5.));
#558=CARTESIAN_POINT('',(-2.5,-4.33012701892219,0.));
#559=CARTESIAN_POINT('',(2.5,-4.33012701892218,-5.));
#560=CARTESIAN_POINT('Origin',(0.,0.,-5.));
#561=CARTESIAN_POINT('',(2.5,-4.33012701892219,0.));
#562=CARTESIAN_POINT('Origin',(0.,0.,0.));
#563=CARTESIAN_POINT('',(5.,-1.94289029309402E-15,-5.));
#564=CARTESIAN_POINT('',(5.,-1.83400382508157E-15,0.));
#565=CARTESIAN_POINT('Origin',(0.,0.,-5.));
#566=CARTESIAN_POINT('Origin',(-0.767949192431122,-3.3301270189222,-0.5));
#567=CARTESIAN_POINT('',(0.767949192431122,-3.33012701892219,0.));
#568=CARTESIAN_POINT('',(0.767949192431119,-3.33012701892218,-5.));
#569=CARTESIAN_POINT('',(0.767949192431119,-3.33012701892218,-0.5));
#570=CARTESIAN_POINT('',(-0.767949192431122,-3.3301270189222,-5.));
#571=CARTESIAN_POINT('',(-0.767949192431122,-3.3301270189222,-5.));
#572=CARTESIAN_POINT('',(-0.767949192431122,-3.3301270189222,-0.5));
#573=CARTESIAN_POINT('',(-0.767949192431122,-3.3301270189222,-0.5));
#574=CARTESIAN_POINT('Origin',(-1.11022302462516E-15,-3.83012701892219,
-5.));
#575=CARTESIAN_POINT('',(0.767949192431119,-3.33012701892218,-5.));
#576=CARTESIAN_POINT('',(-2.5,-4.33012701892219,-5.));
#577=CARTESIAN_POINT('Origin',(3.75,2.1650635094611,-5.));
#578=CARTESIAN_POINT('',(5.,-1.83400382508157E-15,-5.));
#579=CARTESIAN_POINT('Origin',(5.,-8.32667268468867E-16,0.));
#580=CARTESIAN_POINT('Origin',(-3.26794919243112,1.,0.));
#581=CARTESIAN_POINT('Origin',(-0.767949192431121,-3.3301270189222,0.));
#582=CARTESIAN_POINT('Origin',(-2.5,-4.3301270189222,0.));
#583=CARTESIAN_POINT('Origin',(0.767949192431122,-3.33012701892219,0.));
#584=CARTESIAN_POINT('Origin',(3.26794919243113,1.,0.));
#585=UNCERTAINTY_MEASURE_WITH_UNIT(LENGTH_MEASURE(0.01),#589,
'DISTANCE_ACCURACY_VALUE',
'Maximum model space distance between geometric entities at asserted c
onnectivities');
#586=UNCERTAINTY_MEASURE_WITH_UNIT(LENGTH_MEASURE(0.01),#589,
'DISTANCE_ACCURACY_VALUE',
'Maximum model space distance between geometric entities at asserted c
onnectivities');
#587=(
GEOMETRIC_REPRESENTATION_CONTEXT(3)
GLOBAL_UNCERTAINTY_ASSIGNED_CONTEXT((#585))
GLOBAL_UNIT_ASSIGNED_CONTEXT((#589,#591,#592))
REPRESENTATION_CONTEXT('','3D')
);
#588=(
GEOMETRIC_REPRESENTATION_CONTEXT(3)
GLOBAL_UNCERTAINTY_ASSIGNED_CONTEXT((#586))
GLOBAL_UNIT_ASSIGNED_CONTEXT((#589,#591,#592))
REPRESENTATION_CONTEXT('','3D')
);
#589=(
LENGTH_UNIT()
NAMED_UNIT(*)
SI_UNIT(.MILLI.,.METRE.)
);
#590=(
LENGTH_UNIT()
NAMED_UNIT(*)
SI_UNIT(.CENTI.,.METRE.)
);
#591=(
NAMED_UNIT(*)
PLANE_ANGLE_UNIT()
SI_UNIT($,.RADIAN.)
);
#592=(
NAMED_UNIT(*)
SI_UNIT($,.STERADIAN.)
SOLID_ANGLE_UNIT()
);
#593=SHAPE_DEFINITION_REPRESENTATION(#594,#595);
#594=PRODUCT_DEFINITION_SHAPE('',$,#597);
#595=SHAPE_REPRESENTATION('',(#369),#587);
#596=PRODUCT_DEFINITION_CONTEXT('part definition',#601,'design');
#597=PRODUCT_DEFINITION('BodyFoldedSide1','BodyFoldedSide1',#598,#596);
#598=PRODUCT_DEFINITION_FORMATION('',$,#603);
#599=PRODUCT_RELATED_PRODUCT_CATEGORY('BodyFoldedSide1',
'BodyFoldedSide1',(#603));
#600=APPLICATION_PROTOCOL_DEFINITION('international standard',
'automotive_design',2009,#601);
#601=APPLICATION_CONTEXT(
'Core Data for Automotive Mechanical Design Process');
#602=PRODUCT_CONTEXT('part definition',#601,'mechanical');
#603=PRODUCT('BodyFoldedSide1','BodyFoldedSide1',$,(#602));
#604=PRESENTATION_STYLE_ASSIGNMENT((#605));
#605=SURFACE_STYLE_USAGE(.BOTH.,#608);
#606=SURFACE_STYLE_RENDERING_WITH_PROPERTIES($,#612,(#607));
#607=SURFACE_STYLE_TRANSPARENT(0.);
#608=SURFACE_SIDE_STYLE('',(#609,#606));
#609=SURFACE_STYLE_FILL_AREA(#610);
#610=FILL_AREA_STYLE('',(#611));
#611=FILL_AREA_STYLE_COLOUR('',#612);
#612=COLOUR_RGB('',0.749019607843137,0.749019607843137,0.749019607843137);
ENDSEC;
END-ISO-10303-21;
