ISO-10303-21;
HEADER;
/* Generated by software containing ST-Developer
 * from STEP Tools, Inc. (www.steptools.com) 
 */

FILE_DESCRIPTION(
/* description */ (''),
/* implementation_level */ '2;1');

FILE_NAME(
/* name */ 'FlatNoSG.stp',
/* time_stamp */ '2026-06-17T18:12:03+01:00',
/* author */ ('Jakub Schmidt'),
/* organization */ (''),
/* preprocessor_version */ 'ST-DEVELOPER v20.1',
/* originating_system */ 'Autodesk Inventor 2026',
/* authorisation */ '');

FILE_SCHEMA (('AUTOMOTIVE_DESIGN { 1 0 10303 214 3 1 1 }'));
ENDSEC;

DATA;
#10=MECHANICAL_DESIGN_GEOMETRIC_PRESENTATION_REPRESENTATION('',(#13),#750);
#11=SHAPE_REPRESENTATION_RELATIONSHIP('SRR','None',#757,#12);
#12=ADVANCED_BREP_SHAPE_REPRESENTATION('',(#14),#749);
#13=STYLED_ITEM('',(#766),#14);
#14=MANIFOLD_SOLID_BREP('Solid3',#449);
#15=CYLINDRICAL_SURFACE('',#482,5.);
#16=CYLINDRICAL_SURFACE('',#484,5.);
#17=CYLINDRICAL_SURFACE('',#486,5.);
#18=CIRCLE('',#478,5.);
#19=CIRCLE('',#479,5.);
#20=CIRCLE('',#480,5.);
#21=CIRCLE('',#483,5.);
#22=CIRCLE('',#485,5.);
#23=CIRCLE('',#487,5.);
#24=FACE_OUTER_BOUND('',#50,.T.);
#25=FACE_OUTER_BOUND('',#51,.T.);
#26=FACE_OUTER_BOUND('',#52,.T.);
#27=FACE_OUTER_BOUND('',#53,.T.);
#28=FACE_OUTER_BOUND('',#54,.T.);
#29=FACE_OUTER_BOUND('',#55,.T.);
#30=FACE_OUTER_BOUND('',#56,.T.);
#31=FACE_OUTER_BOUND('',#57,.T.);
#32=FACE_OUTER_BOUND('',#58,.T.);
#33=FACE_OUTER_BOUND('',#59,.T.);
#34=FACE_OUTER_BOUND('',#60,.T.);
#35=FACE_OUTER_BOUND('',#61,.T.);
#36=FACE_OUTER_BOUND('',#62,.T.);
#37=FACE_OUTER_BOUND('',#63,.T.);
#38=FACE_OUTER_BOUND('',#64,.T.);
#39=FACE_OUTER_BOUND('',#65,.T.);
#40=FACE_OUTER_BOUND('',#66,.T.);
#41=FACE_OUTER_BOUND('',#67,.T.);
#42=FACE_OUTER_BOUND('',#68,.T.);
#43=FACE_OUTER_BOUND('',#69,.T.);
#44=FACE_OUTER_BOUND('',#70,.T.);
#45=FACE_OUTER_BOUND('',#71,.T.);
#46=FACE_OUTER_BOUND('',#72,.T.);
#47=FACE_OUTER_BOUND('',#73,.T.);
#48=FACE_OUTER_BOUND('',#74,.T.);
#49=FACE_OUTER_BOUND('',#75,.T.);
#50=EDGE_LOOP('',(#280,#281,#282,#283));
#51=EDGE_LOOP('',(#284,#285,#286,#287));
#52=EDGE_LOOP('',(#288,#289,#290,#291));
#53=EDGE_LOOP('',(#292,#293,#294,#295));
#54=EDGE_LOOP('',(#296,#297,#298,#299));
#55=EDGE_LOOP('',(#300,#301,#302,#303,#304,#305));
#56=EDGE_LOOP('',(#306,#307,#308,#309));
#57=EDGE_LOOP('',(#310,#311,#312,#313,#314,#315));
#58=EDGE_LOOP('',(#316,#317,#318,#319,#320,#321));
#59=EDGE_LOOP('',(#322,#323,#324,#325,#326,#327));
#60=EDGE_LOOP('',(#328,#329,#330,#331));
#61=EDGE_LOOP('',(#332,#333,#334,#335));
#62=EDGE_LOOP('',(#336,#337,#338,#339));
#63=EDGE_LOOP('',(#340,#341,#342,#343));
#64=EDGE_LOOP('',(#344,#345,#346,#347));
#65=EDGE_LOOP('',(#348,#349,#350,#351));
#66=EDGE_LOOP('',(#352,#353,#354,#355,#356,#357));
#67=EDGE_LOOP('',(#358,#359,#360,#361,#362));
#68=EDGE_LOOP('',(#363,#364,#365,#366,#367));
#69=EDGE_LOOP('',(#368,#369,#370,#371));
#70=EDGE_LOOP('',(#372,#373,#374,#375,#376));
#71=EDGE_LOOP('',(#377,#378,#379,#380,#381));
#72=EDGE_LOOP('',(#382,#383,#384,#385));
#73=EDGE_LOOP('',(#386,#387,#388,#389,#390));
#74=EDGE_LOOP('',(#391,#392,#393,#394,#395));
#75=EDGE_LOOP('',(#396,#397,#398,#399));
#76=LINE('',#628,#130);
#77=LINE('',#630,#131);
#78=LINE('',#632,#132);
#79=LINE('',#633,#133);
#80=LINE('',#637,#134);
#81=LINE('',#639,#135);
#82=LINE('',#641,#136);
#83=LINE('',#642,#137);
#84=LINE('',#646,#138);
#85=LINE('',#648,#139);
#86=LINE('',#650,#140);
#87=LINE('',#651,#141);
#88=LINE('',#654,#142);
#89=LINE('',#656,#143);
#90=LINE('',#657,#144);
#91=LINE('',#660,#145);
#92=LINE('',#662,#146);
#93=LINE('',#663,#147);
#94=LINE('',#670,#148);
#95=LINE('',#672,#149);
#96=LINE('',#673,#150);
#97=LINE('',#678,#151);
#98=LINE('',#679,#152);
#99=LINE('',#684,#153);
#100=LINE('',#685,#154);
#101=LINE('',#690,#155);
#102=LINE('',#691,#156);
#103=LINE('',#695,#157);
#104=LINE('',#697,#158);
#105=LINE('',#699,#159);
#106=LINE('',#700,#160);
#107=LINE('',#702,#161);
#108=LINE('',#703,#162);
#109=LINE('',#707,#163);
#110=LINE('',#709,#164);
#111=LINE('',#711,#165);
#112=LINE('',#712,#166);
#113=LINE('',#714,#167);
#114=LINE('',#715,#168);
#115=LINE('',#719,#169);
#116=LINE('',#721,#170);
#117=LINE('',#723,#171);
#118=LINE('',#724,#172);
#119=LINE('',#726,#173);
#120=LINE('',#727,#174);
#121=LINE('',#729,#175);
#122=LINE('',#730,#176);
#123=LINE('',#731,#177);
#124=LINE('',#733,#178);
#125=LINE('',#735,#179);
#126=LINE('',#737,#180);
#127=LINE('',#740,#181);
#128=LINE('',#742,#182);
#129=LINE('',#745,#183);
#130=VECTOR('',#508,10.);
#131=VECTOR('',#509,10.);
#132=VECTOR('',#510,10.);
#133=VECTOR('',#511,10.);
#134=VECTOR('',#514,10.);
#135=VECTOR('',#515,10.);
#136=VECTOR('',#516,10.);
#137=VECTOR('',#517,10.);
#138=VECTOR('',#520,10.);
#139=VECTOR('',#521,10.);
#140=VECTOR('',#522,10.);
#141=VECTOR('',#523,10.);
#142=VECTOR('',#526,10.);
#143=VECTOR('',#527,10.);
#144=VECTOR('',#528,10.);
#145=VECTOR('',#531,10.);
#146=VECTOR('',#532,10.);
#147=VECTOR('',#533,10.);
#148=VECTOR('',#544,10.);
#149=VECTOR('',#545,10.);
#150=VECTOR('',#546,10.);
#151=VECTOR('',#551,10.);
#152=VECTOR('',#552,10.);
#153=VECTOR('',#557,10.);
#154=VECTOR('',#558,10.);
#155=VECTOR('',#563,10.);
#156=VECTOR('',#564,10.);
#157=VECTOR('',#567,10.);
#158=VECTOR('',#568,10.);
#159=VECTOR('',#569,10.);
#160=VECTOR('',#570,10.);
#161=VECTOR('',#573,10.);
#162=VECTOR('',#574,10.);
#163=VECTOR('',#577,10.);
#164=VECTOR('',#578,10.);
#165=VECTOR('',#579,10.);
#166=VECTOR('',#580,10.);
#167=VECTOR('',#583,10.);
#168=VECTOR('',#584,10.);
#169=VECTOR('',#587,10.);
#170=VECTOR('',#588,10.);
#171=VECTOR('',#589,10.);
#172=VECTOR('',#590,10.);
#173=VECTOR('',#593,10.);
#174=VECTOR('',#594,10.);
#175=VECTOR('',#597,10.);
#176=VECTOR('',#598,10.);
#177=VECTOR('',#599,10.);
#178=VECTOR('',#602,10.);
#179=VECTOR('',#605,10.);
#180=VECTOR('',#608,10.);
#181=VECTOR('',#613,10.);
#182=VECTOR('',#616,10.);
#183=VECTOR('',#621,10.);
#184=VERTEX_POINT('',#626);
#185=VERTEX_POINT('',#627);
#186=VERTEX_POINT('',#629);
#187=VERTEX_POINT('',#631);
#188=VERTEX_POINT('',#635);
#189=VERTEX_POINT('',#636);
#190=VERTEX_POINT('',#638);
#191=VERTEX_POINT('',#640);
#192=VERTEX_POINT('',#644);
#193=VERTEX_POINT('',#645);
#194=VERTEX_POINT('',#647);
#195=VERTEX_POINT('',#649);
#196=VERTEX_POINT('',#653);
#197=VERTEX_POINT('',#655);
#198=VERTEX_POINT('',#659);
#199=VERTEX_POINT('',#661);
#200=VERTEX_POINT('',#669);
#201=VERTEX_POINT('',#671);
#202=VERTEX_POINT('',#675);
#203=VERTEX_POINT('',#676);
#204=VERTEX_POINT('',#681);
#205=VERTEX_POINT('',#682);
#206=VERTEX_POINT('',#687);
#207=VERTEX_POINT('',#688);
#208=VERTEX_POINT('',#693);
#209=VERTEX_POINT('',#694);
#210=VERTEX_POINT('',#696);
#211=VERTEX_POINT('',#698);
#212=VERTEX_POINT('',#705);
#213=VERTEX_POINT('',#706);
#214=VERTEX_POINT('',#708);
#215=VERTEX_POINT('',#710);
#216=VERTEX_POINT('',#717);
#217=VERTEX_POINT('',#718);
#218=VERTEX_POINT('',#720);
#219=VERTEX_POINT('',#722);
#220=EDGE_CURVE('',#184,#185,#76,.T.);
#221=EDGE_CURVE('',#185,#186,#77,.T.);
#222=EDGE_CURVE('',#186,#187,#78,.T.);
#223=EDGE_CURVE('',#184,#187,#79,.T.);
#224=EDGE_CURVE('',#188,#189,#80,.T.);
#225=EDGE_CURVE('',#190,#189,#81,.T.);
#226=EDGE_CURVE('',#190,#191,#82,.T.);
#227=EDGE_CURVE('',#191,#188,#83,.T.);
#228=EDGE_CURVE('',#192,#193,#84,.T.);
#229=EDGE_CURVE('',#193,#194,#85,.T.);
#230=EDGE_CURVE('',#195,#194,#86,.T.);
#231=EDGE_CURVE('',#192,#195,#87,.T.);
#232=EDGE_CURVE('',#189,#196,#88,.T.);
#233=EDGE_CURVE('',#197,#196,#89,.T.);
#234=EDGE_CURVE('',#190,#197,#90,.T.);
#235=EDGE_CURVE('',#187,#198,#91,.T.);
#236=EDGE_CURVE('',#199,#198,#92,.T.);
#237=EDGE_CURVE('',#184,#199,#93,.T.);
#238=EDGE_CURVE('',#198,#197,#18,.T.);
#239=EDGE_CURVE('',#196,#195,#19,.T.);
#240=EDGE_CURVE('',#194,#199,#20,.T.);
#241=EDGE_CURVE('',#200,#193,#94,.T.);
#242=EDGE_CURVE('',#192,#201,#95,.T.);
#243=EDGE_CURVE('',#201,#200,#96,.T.);
#244=EDGE_CURVE('',#202,#203,#21,.T.);
#245=EDGE_CURVE('',#184,#203,#97,.T.);
#246=EDGE_CURVE('',#193,#202,#98,.T.);
#247=EDGE_CURVE('',#204,#205,#22,.T.);
#248=EDGE_CURVE('',#192,#205,#99,.T.);
#249=EDGE_CURVE('',#189,#204,#100,.T.);
#250=EDGE_CURVE('',#206,#207,#23,.T.);
#251=EDGE_CURVE('',#190,#207,#101,.T.);
#252=EDGE_CURVE('',#187,#206,#102,.T.);
#253=EDGE_CURVE('',#208,#209,#103,.T.);
#254=EDGE_CURVE('',#208,#210,#104,.T.);
#255=EDGE_CURVE('',#211,#210,#105,.T.);
#256=EDGE_CURVE('',#209,#211,#106,.T.);
#257=EDGE_CURVE('',#204,#211,#107,.T.);
#258=EDGE_CURVE('',#210,#205,#108,.T.);
#259=EDGE_CURVE('',#212,#213,#109,.T.);
#260=EDGE_CURVE('',#212,#214,#110,.T.);
#261=EDGE_CURVE('',#215,#214,#111,.T.);
#262=EDGE_CURVE('',#213,#215,#112,.T.);
#263=EDGE_CURVE('',#214,#203,#113,.T.);
#264=EDGE_CURVE('',#202,#215,#114,.T.);
#265=EDGE_CURVE('',#216,#217,#115,.T.);
#266=EDGE_CURVE('',#216,#218,#116,.T.);
#267=EDGE_CURVE('',#219,#218,#117,.T.);
#268=EDGE_CURVE('',#217,#219,#118,.T.);
#269=EDGE_CURVE('',#218,#207,#119,.T.);
#270=EDGE_CURVE('',#206,#219,#120,.T.);
#271=EDGE_CURVE('',#209,#216,#121,.T.);
#272=EDGE_CURVE('',#217,#212,#122,.T.);
#273=EDGE_CURVE('',#213,#208,#123,.T.);
#274=EDGE_CURVE('',#186,#217,#124,.T.);
#275=EDGE_CURVE('',#191,#216,#125,.T.);
#276=EDGE_CURVE('',#188,#209,#126,.T.);
#277=EDGE_CURVE('',#201,#208,#127,.T.);
#278=EDGE_CURVE('',#200,#213,#128,.T.);
#279=EDGE_CURVE('',#185,#212,#129,.T.);
#280=ORIENTED_EDGE('',*,*,#220,.T.);
#281=ORIENTED_EDGE('',*,*,#221,.T.);
#282=ORIENTED_EDGE('',*,*,#222,.T.);
#283=ORIENTED_EDGE('',*,*,#223,.F.);
#284=ORIENTED_EDGE('',*,*,#224,.T.);
#285=ORIENTED_EDGE('',*,*,#225,.F.);
#286=ORIENTED_EDGE('',*,*,#226,.T.);
#287=ORIENTED_EDGE('',*,*,#227,.T.);
#288=ORIENTED_EDGE('',*,*,#228,.T.);
#289=ORIENTED_EDGE('',*,*,#229,.T.);
#290=ORIENTED_EDGE('',*,*,#230,.F.);
#291=ORIENTED_EDGE('',*,*,#231,.F.);
#292=ORIENTED_EDGE('',*,*,#225,.T.);
#293=ORIENTED_EDGE('',*,*,#232,.T.);
#294=ORIENTED_EDGE('',*,*,#233,.F.);
#295=ORIENTED_EDGE('',*,*,#234,.F.);
#296=ORIENTED_EDGE('',*,*,#223,.T.);
#297=ORIENTED_EDGE('',*,*,#235,.T.);
#298=ORIENTED_EDGE('',*,*,#236,.F.);
#299=ORIENTED_EDGE('',*,*,#237,.F.);
#300=ORIENTED_EDGE('',*,*,#236,.T.);
#301=ORIENTED_EDGE('',*,*,#238,.T.);
#302=ORIENTED_EDGE('',*,*,#233,.T.);
#303=ORIENTED_EDGE('',*,*,#239,.T.);
#304=ORIENTED_EDGE('',*,*,#230,.T.);
#305=ORIENTED_EDGE('',*,*,#240,.T.);
#306=ORIENTED_EDGE('',*,*,#241,.T.);
#307=ORIENTED_EDGE('',*,*,#228,.F.);
#308=ORIENTED_EDGE('',*,*,#242,.T.);
#309=ORIENTED_EDGE('',*,*,#243,.T.);
#310=ORIENTED_EDGE('',*,*,#244,.T.);
#311=ORIENTED_EDGE('',*,*,#245,.F.);
#312=ORIENTED_EDGE('',*,*,#237,.T.);
#313=ORIENTED_EDGE('',*,*,#240,.F.);
#314=ORIENTED_EDGE('',*,*,#229,.F.);
#315=ORIENTED_EDGE('',*,*,#246,.T.);
#316=ORIENTED_EDGE('',*,*,#247,.T.);
#317=ORIENTED_EDGE('',*,*,#248,.F.);
#318=ORIENTED_EDGE('',*,*,#231,.T.);
#319=ORIENTED_EDGE('',*,*,#239,.F.);
#320=ORIENTED_EDGE('',*,*,#232,.F.);
#321=ORIENTED_EDGE('',*,*,#249,.T.);
#322=ORIENTED_EDGE('',*,*,#250,.T.);
#323=ORIENTED_EDGE('',*,*,#251,.F.);
#324=ORIENTED_EDGE('',*,*,#234,.T.);
#325=ORIENTED_EDGE('',*,*,#238,.F.);
#326=ORIENTED_EDGE('',*,*,#235,.F.);
#327=ORIENTED_EDGE('',*,*,#252,.T.);
#328=ORIENTED_EDGE('',*,*,#253,.F.);
#329=ORIENTED_EDGE('',*,*,#254,.T.);
#330=ORIENTED_EDGE('',*,*,#255,.F.);
#331=ORIENTED_EDGE('',*,*,#256,.F.);
#332=ORIENTED_EDGE('',*,*,#257,.T.);
#333=ORIENTED_EDGE('',*,*,#255,.T.);
#334=ORIENTED_EDGE('',*,*,#258,.T.);
#335=ORIENTED_EDGE('',*,*,#247,.F.);
#336=ORIENTED_EDGE('',*,*,#259,.F.);
#337=ORIENTED_EDGE('',*,*,#260,.T.);
#338=ORIENTED_EDGE('',*,*,#261,.F.);
#339=ORIENTED_EDGE('',*,*,#262,.F.);
#340=ORIENTED_EDGE('',*,*,#263,.T.);
#341=ORIENTED_EDGE('',*,*,#244,.F.);
#342=ORIENTED_EDGE('',*,*,#264,.T.);
#343=ORIENTED_EDGE('',*,*,#261,.T.);
#344=ORIENTED_EDGE('',*,*,#265,.F.);
#345=ORIENTED_EDGE('',*,*,#266,.T.);
#346=ORIENTED_EDGE('',*,*,#267,.F.);
#347=ORIENTED_EDGE('',*,*,#268,.F.);
#348=ORIENTED_EDGE('',*,*,#269,.T.);
#349=ORIENTED_EDGE('',*,*,#250,.F.);
#350=ORIENTED_EDGE('',*,*,#270,.T.);
#351=ORIENTED_EDGE('',*,*,#267,.T.);
#352=ORIENTED_EDGE('',*,*,#253,.T.);
#353=ORIENTED_EDGE('',*,*,#271,.T.);
#354=ORIENTED_EDGE('',*,*,#265,.T.);
#355=ORIENTED_EDGE('',*,*,#272,.T.);
#356=ORIENTED_EDGE('',*,*,#259,.T.);
#357=ORIENTED_EDGE('',*,*,#273,.T.);
#358=ORIENTED_EDGE('',*,*,#222,.F.);
#359=ORIENTED_EDGE('',*,*,#274,.T.);
#360=ORIENTED_EDGE('',*,*,#268,.T.);
#361=ORIENTED_EDGE('',*,*,#270,.F.);
#362=ORIENTED_EDGE('',*,*,#252,.F.);
#363=ORIENTED_EDGE('',*,*,#226,.F.);
#364=ORIENTED_EDGE('',*,*,#251,.T.);
#365=ORIENTED_EDGE('',*,*,#269,.F.);
#366=ORIENTED_EDGE('',*,*,#266,.F.);
#367=ORIENTED_EDGE('',*,*,#275,.F.);
#368=ORIENTED_EDGE('',*,*,#227,.F.);
#369=ORIENTED_EDGE('',*,*,#275,.T.);
#370=ORIENTED_EDGE('',*,*,#271,.F.);
#371=ORIENTED_EDGE('',*,*,#276,.F.);
#372=ORIENTED_EDGE('',*,*,#224,.F.);
#373=ORIENTED_EDGE('',*,*,#276,.T.);
#374=ORIENTED_EDGE('',*,*,#256,.T.);
#375=ORIENTED_EDGE('',*,*,#257,.F.);
#376=ORIENTED_EDGE('',*,*,#249,.F.);
#377=ORIENTED_EDGE('',*,*,#242,.F.);
#378=ORIENTED_EDGE('',*,*,#248,.T.);
#379=ORIENTED_EDGE('',*,*,#258,.F.);
#380=ORIENTED_EDGE('',*,*,#254,.F.);
#381=ORIENTED_EDGE('',*,*,#277,.F.);
#382=ORIENTED_EDGE('',*,*,#243,.F.);
#383=ORIENTED_EDGE('',*,*,#277,.T.);
#384=ORIENTED_EDGE('',*,*,#273,.F.);
#385=ORIENTED_EDGE('',*,*,#278,.F.);
#386=ORIENTED_EDGE('',*,*,#241,.F.);
#387=ORIENTED_EDGE('',*,*,#278,.T.);
#388=ORIENTED_EDGE('',*,*,#262,.T.);
#389=ORIENTED_EDGE('',*,*,#264,.F.);
#390=ORIENTED_EDGE('',*,*,#246,.F.);
#391=ORIENTED_EDGE('',*,*,#220,.F.);
#392=ORIENTED_EDGE('',*,*,#245,.T.);
#393=ORIENTED_EDGE('',*,*,#263,.F.);
#394=ORIENTED_EDGE('',*,*,#260,.F.);
#395=ORIENTED_EDGE('',*,*,#279,.F.);
#396=ORIENTED_EDGE('',*,*,#221,.F.);
#397=ORIENTED_EDGE('',*,*,#279,.T.);
#398=ORIENTED_EDGE('',*,*,#272,.F.);
#399=ORIENTED_EDGE('',*,*,#274,.F.);
#400=PLANE('',#472);
#401=PLANE('',#473);
#402=PLANE('',#474);
#403=PLANE('',#475);
#404=PLANE('',#476);
#405=PLANE('',#477);
#406=PLANE('',#481);
#407=PLANE('',#488);
#408=PLANE('',#489);
#409=PLANE('',#490);
#410=PLANE('',#491);
#411=PLANE('',#492);
#412=PLANE('',#493);
#413=PLANE('',#494);
#414=PLANE('',#495);
#415=PLANE('',#496);
#416=PLANE('',#497);
#417=PLANE('',#498);
#418=PLANE('',#499);
#419=PLANE('',#500);
#420=PLANE('',#501);
#421=PLANE('',#502);
#422=PLANE('',#503);
#423=ADVANCED_FACE('',(#24),#400,.F.);
#424=ADVANCED_FACE('',(#25),#401,.F.);
#425=ADVANCED_FACE('',(#26),#402,.T.);
#426=ADVANCED_FACE('',(#27),#403,.T.);
#427=ADVANCED_FACE('',(#28),#404,.T.);
#428=ADVANCED_FACE('',(#29),#405,.T.);
#429=ADVANCED_FACE('',(#30),#406,.F.);
#430=ADVANCED_FACE('',(#31),#15,.T.);
#431=ADVANCED_FACE('',(#32),#16,.T.);
#432=ADVANCED_FACE('',(#33),#17,.T.);
#433=ADVANCED_FACE('',(#34),#407,.T.);
#434=ADVANCED_FACE('',(#35),#408,.T.);
#435=ADVANCED_FACE('',(#36),#409,.T.);
#436=ADVANCED_FACE('',(#37),#410,.T.);
#437=ADVANCED_FACE('',(#38),#411,.T.);
#438=ADVANCED_FACE('',(#39),#412,.T.);
#439=ADVANCED_FACE('',(#40),#413,.T.);
#440=ADVANCED_FACE('',(#41),#414,.T.);
#441=ADVANCED_FACE('',(#42),#415,.T.);
#442=ADVANCED_FACE('',(#43),#416,.T.);
#443=ADVANCED_FACE('',(#44),#417,.T.);
#444=ADVANCED_FACE('',(#45),#418,.T.);
#445=ADVANCED_FACE('',(#46),#419,.T.);
#446=ADVANCED_FACE('',(#47),#420,.T.);
#447=ADVANCED_FACE('',(#48),#421,.T.);
#448=ADVANCED_FACE('',(#49),#422,.T.);
#449=CLOSED_SHELL('',(#423,#424,#425,#426,#427,#428,#429,#430,#431,#432,
#433,#434,#435,#436,#437,#438,#439,#440,#441,#442,#443,#444,#445,#446,#447,
#448));
#450=DERIVED_UNIT_ELEMENT(#453,1.);
#451=DERIVED_UNIT_ELEMENT(#752,-3.);
#452=DIMENSIONAL_EXPONENTS(0.,1.,0.,0.,0.,0.,0.);
#453=(
CONVERSION_BASED_UNIT('gram',#455)
MASS_UNIT()
NAMED_UNIT(#452)
);
#454=(
MASS_UNIT()
NAMED_UNIT(*)
SI_UNIT(.KILO.,.GRAM.)
);
#455=MASS_MEASURE_WITH_UNIT(MASS_MEASURE(0.001),#454);
#456=DERIVED_UNIT((#450,#451));
#457=MEASURE_REPRESENTATION_ITEM('density measure',
POSITIVE_RATIO_MEASURE(1.),#456);
#458=PROPERTY_DEFINITION_REPRESENTATION(#463,#460);
#459=PROPERTY_DEFINITION_REPRESENTATION(#464,#461);
#460=REPRESENTATION('material name',(#462),#749);
#461=REPRESENTATION('density',(#457),#749);
#462=DESCRIPTIVE_REPRESENTATION_ITEM('Generic','Generic');
#463=PROPERTY_DEFINITION('material property','material name',#759);
#464=PROPERTY_DEFINITION('material property','density of part',#759);
#465=DATE_TIME_ROLE('creation_date');
#466=APPLIED_DATE_AND_TIME_ASSIGNMENT(#467,#465,(#759));
#467=DATE_AND_TIME(#468,#469);
#468=CALENDAR_DATE(2025,2,11);
#469=LOCAL_TIME(0,0,0.,#470);
#470=COORDINATED_UNIVERSAL_TIME_OFFSET(0,0,.BEHIND.);
#471=AXIS2_PLACEMENT_3D('',#624,#504,#505);
#472=AXIS2_PLACEMENT_3D('',#625,#506,#507);
#473=AXIS2_PLACEMENT_3D('',#634,#512,#513);
#474=AXIS2_PLACEMENT_3D('',#643,#518,#519);
#475=AXIS2_PLACEMENT_3D('',#652,#524,#525);
#476=AXIS2_PLACEMENT_3D('',#658,#529,#530);
#477=AXIS2_PLACEMENT_3D('',#664,#534,#535);
#478=AXIS2_PLACEMENT_3D('',#665,#536,#537);
#479=AXIS2_PLACEMENT_3D('',#666,#538,#539);
#480=AXIS2_PLACEMENT_3D('',#667,#540,#541);
#481=AXIS2_PLACEMENT_3D('',#668,#542,#543);
#482=AXIS2_PLACEMENT_3D('',#674,#547,#548);
#483=AXIS2_PLACEMENT_3D('',#677,#549,#550);
#484=AXIS2_PLACEMENT_3D('',#680,#553,#554);
#485=AXIS2_PLACEMENT_3D('',#683,#555,#556);
#486=AXIS2_PLACEMENT_3D('',#686,#559,#560);
#487=AXIS2_PLACEMENT_3D('',#689,#561,#562);
#488=AXIS2_PLACEMENT_3D('',#692,#565,#566);
#489=AXIS2_PLACEMENT_3D('',#701,#571,#572);
#490=AXIS2_PLACEMENT_3D('',#704,#575,#576);
#491=AXIS2_PLACEMENT_3D('',#713,#581,#582);
#492=AXIS2_PLACEMENT_3D('',#716,#585,#586);
#493=AXIS2_PLACEMENT_3D('',#725,#591,#592);
#494=AXIS2_PLACEMENT_3D('',#728,#595,#596);
#495=AXIS2_PLACEMENT_3D('',#732,#600,#601);
#496=AXIS2_PLACEMENT_3D('',#734,#603,#604);
#497=AXIS2_PLACEMENT_3D('',#736,#606,#607);
#498=AXIS2_PLACEMENT_3D('',#738,#609,#610);
#499=AXIS2_PLACEMENT_3D('',#739,#611,#612);
#500=AXIS2_PLACEMENT_3D('',#741,#614,#615);
#501=AXIS2_PLACEMENT_3D('',#743,#617,#618);
#502=AXIS2_PLACEMENT_3D('',#744,#619,#620);
#503=AXIS2_PLACEMENT_3D('',#746,#622,#623);
#504=DIRECTION('axis',(0.,0.,1.));
#505=DIRECTION('refdir',(1.,0.,0.));
#506=DIRECTION('center_axis',(0.,0.,1.));
#507=DIRECTION('ref_axis',(1.,0.,0.));
#508=DIRECTION('',(-0.866025403784438,0.500000000000001,0.));
#509=DIRECTION('',(0.5,0.866025403784438,0.));
#510=DIRECTION('',(0.866025403784438,-0.500000000000001,0.));
#511=DIRECTION('',(0.5,0.866025403784438,0.));
#512=DIRECTION('center_axis',(0.,0.,1.));
#513=DIRECTION('ref_axis',(1.,0.,0.));
#514=DIRECTION('',(2.77555756156289E-16,1.,0.));
#515=DIRECTION('',(-1.,-4.44089209850063E-16,0.));
#516=DIRECTION('',(0.,-1.,0.));
#517=DIRECTION('',(-1.,-1.11022302462516E-16,0.));
#518=DIRECTION('center_axis',(-0.866025403784439,-0.5,0.));
#519=DIRECTION('ref_axis',(0.5,-0.866025403784439,0.));
#520=DIRECTION('',(0.5,-0.866025403784439,0.));
#521=DIRECTION('',(0.,0.,1.));
#522=DIRECTION('',(0.5,-0.866025403784439,0.));
#523=DIRECTION('',(0.,0.,1.));
#524=DIRECTION('center_axis',(-4.44089209850063E-16,1.,0.));
#525=DIRECTION('ref_axis',(-1.,-4.44089209850063E-16,0.));
#526=DIRECTION('',(0.,0.,1.));
#527=DIRECTION('',(-1.,-4.44089209850063E-16,0.));
#528=DIRECTION('',(0.,0.,1.));
#529=DIRECTION('center_axis',(0.866025403784439,-0.5,0.));
#530=DIRECTION('ref_axis',(0.5,0.866025403784438,0.));
#531=DIRECTION('',(0.,0.,1.));
#532=DIRECTION('',(0.5,0.866025403784438,0.));
#533=DIRECTION('',(0.,0.,1.));
#534=DIRECTION('center_axis',(0.,0.,1.));
#535=DIRECTION('ref_axis',(1.,0.,0.));
#536=DIRECTION('center_axis',(0.,0.,1.));
#537=DIRECTION('ref_axis',(1.,0.,0.));
#538=DIRECTION('center_axis',(0.,0.,1.));
#539=DIRECTION('ref_axis',(-0.499999999999998,0.86602540378444,0.));
#540=DIRECTION('center_axis',(0.,0.,1.));
#541=DIRECTION('ref_axis',(-0.499999999999998,-0.86602540378444,0.));
#542=DIRECTION('center_axis',(0.,0.,1.));
#543=DIRECTION('ref_axis',(1.,0.,0.));
#544=DIRECTION('',(-0.866025403784439,-0.499999999999999,0.));
#545=DIRECTION('',(0.866025403784439,0.5,0.));
#546=DIRECTION('',(0.5,-0.866025403784439,0.));
#547=DIRECTION('center_axis',(0.,0.,-1.));
#548=DIRECTION('ref_axis',(-0.499999999999998,-0.86602540378444,0.));
#549=DIRECTION('center_axis',(0.,0.,1.));
#550=DIRECTION('ref_axis',(-0.499999999999998,-0.86602540378444,0.));
#551=DIRECTION('',(0.,0.,-1.));
#552=DIRECTION('',(0.,0.,-1.));
#553=DIRECTION('center_axis',(0.,0.,-1.));
#554=DIRECTION('ref_axis',(-0.499999999999998,0.86602540378444,0.));
#555=DIRECTION('center_axis',(0.,0.,1.));
#556=DIRECTION('ref_axis',(-0.499999999999998,0.86602540378444,0.));
#557=DIRECTION('',(0.,0.,-1.));
#558=DIRECTION('',(0.,0.,-1.));
#559=DIRECTION('center_axis',(0.,0.,-1.));
#560=DIRECTION('ref_axis',(1.,0.,0.));
#561=DIRECTION('center_axis',(0.,0.,1.));
#562=DIRECTION('ref_axis',(1.,0.,0.));
#563=DIRECTION('',(0.,0.,-1.));
#564=DIRECTION('',(0.,0.,-1.));
#565=DIRECTION('center_axis',(0.866025403784438,-0.500000000000001,0.));
#566=DIRECTION('ref_axis',(-0.500000000000001,-0.866025403784438,0.));
#567=DIRECTION('',(0.500000000000001,0.866025403784438,0.));
#568=DIRECTION('',(0.,0.,-1.));
#569=DIRECTION('',(-0.500000000000001,-0.866025403784438,0.));
#570=DIRECTION('',(0.,0.,-1.));
#571=DIRECTION('center_axis',(0.,0.,-1.));
#572=DIRECTION('ref_axis',(-1.,0.,0.));
#573=DIRECTION('',(-2.77555756156289E-16,-1.,0.));
#574=DIRECTION('',(-0.866025403784437,-0.500000000000002,0.));
#575=DIRECTION('center_axis',(-6.86706805469099E-15,1.,0.));
#576=DIRECTION('ref_axis',(1.,6.86706805469099E-15,0.));
#577=DIRECTION('',(-1.,-6.86706805469099E-15,0.));
#578=DIRECTION('',(0.,0.,-1.));
#579=DIRECTION('',(1.,6.86706805469099E-15,0.));
#580=DIRECTION('',(0.,0.,-1.));
#581=DIRECTION('center_axis',(0.,0.,-1.));
#582=DIRECTION('ref_axis',(-1.,0.,0.));
#583=DIRECTION('',(0.866025403784439,-0.499999999999999,0.));
#584=DIRECTION('',(0.866025403784439,0.499999999999999,0.));
#585=DIRECTION('center_axis',(-0.866025403784437,-0.500000000000002,0.));
#586=DIRECTION('ref_axis',(-0.500000000000002,0.866025403784437,0.));
#587=DIRECTION('',(0.500000000000002,-0.866025403784437,0.));
#588=DIRECTION('',(0.,0.,-1.));
#589=DIRECTION('',(-0.500000000000002,0.866025403784437,0.));
#590=DIRECTION('',(0.,0.,-1.));
#591=DIRECTION('center_axis',(0.,0.,-1.));
#592=DIRECTION('ref_axis',(-1.,0.,0.));
#593=DIRECTION('',(0.,1.,0.));
#594=DIRECTION('',(-0.866025403784438,0.500000000000001,0.));
#595=DIRECTION('center_axis',(0.,0.,-1.));
#596=DIRECTION('ref_axis',(-1.,0.,0.));
#597=DIRECTION('',(1.,1.11022302462516E-16,0.));
#598=DIRECTION('',(-0.5,-0.866025403784438,0.));
#599=DIRECTION('',(-0.5,0.866025403784439,0.));
#600=DIRECTION('center_axis',(-0.500000000000001,-0.866025403784438,0.));
#601=DIRECTION('ref_axis',(-0.866025403784438,0.500000000000001,0.));
#602=DIRECTION('',(0.,0.,-1.));
#603=DIRECTION('center_axis',(-1.,0.,0.));
#604=DIRECTION('ref_axis',(0.,1.,0.));
#605=DIRECTION('',(0.,0.,-1.));
#606=DIRECTION('center_axis',(-1.11022302462516E-16,1.,0.));
#607=DIRECTION('ref_axis',(1.,1.11022302462516E-16,0.));
#608=DIRECTION('',(0.,0.,-1.));
#609=DIRECTION('center_axis',(1.,-2.77555756156289E-16,0.));
#610=DIRECTION('ref_axis',(-2.77555756156289E-16,-1.,0.));
#611=DIRECTION('center_axis',(0.5,-0.866025403784439,0.));
#612=DIRECTION('ref_axis',(-0.866025403784439,-0.5,0.));
#613=DIRECTION('',(0.,0.,-1.));
#614=DIRECTION('center_axis',(-0.866025403784439,-0.5,0.));
#615=DIRECTION('ref_axis',(-0.5,0.866025403784439,0.));
#616=DIRECTION('',(0.,0.,-1.));
#617=DIRECTION('center_axis',(-0.5,0.866025403784439,0.));
#618=DIRECTION('ref_axis',(0.866025403784439,0.499999999999999,0.));
#619=DIRECTION('center_axis',(0.500000000000001,0.866025403784438,0.));
#620=DIRECTION('ref_axis',(0.866025403784438,-0.500000000000001,0.));
#621=DIRECTION('',(0.,0.,-1.));
#622=DIRECTION('center_axis',(0.866025403784438,-0.5,0.));
#623=DIRECTION('ref_axis',(-0.5,-0.866025403784438,0.));
#624=CARTESIAN_POINT('',(0.,0.,0.));
#625=CARTESIAN_POINT('Origin',(5.55111512312578E-16,5.55111512312578E-16,
0.));
#626=CARTESIAN_POINT('',(2.5,-4.33012701892219,0.));
#627=CARTESIAN_POINT('',(0.767949192431122,-3.33012701892219,0.));
#628=CARTESIAN_POINT('',(2.5,-4.33012701892219,0.));
#629=CARTESIAN_POINT('',(3.26794919243112,1.,0.));
#630=CARTESIAN_POINT('',(0.767949192431122,-3.33012701892219,0.));
#631=CARTESIAN_POINT('',(5.,-1.83400382508157E-15,0.));
#632=CARTESIAN_POINT('',(3.26794919243112,1.,0.));
#633=CARTESIAN_POINT('',(2.5,-4.33012701892219,0.));
#634=CARTESIAN_POINT('Origin',(5.55111512312578E-16,5.55111512312578E-16,
0.));
#635=CARTESIAN_POINT('',(-2.5,2.33012701892219,0.));
#636=CARTESIAN_POINT('',(-2.5,4.33012701892219,0.));
#637=CARTESIAN_POINT('',(-2.5,2.33012701892219,0.));
#638=CARTESIAN_POINT('',(2.5,4.3301270189222,0.));
#639=CARTESIAN_POINT('',(2.5,4.3301270189222,0.));
#640=CARTESIAN_POINT('',(2.5,2.33012701892219,0.));
#641=CARTESIAN_POINT('',(2.5,4.33012701892219,0.));
#642=CARTESIAN_POINT('',(2.5,2.33012701892219,0.));
#643=CARTESIAN_POINT('Origin',(-5.,-7.4833262439695E-16,0.));
#644=CARTESIAN_POINT('',(-5.,-5.55111512312578E-16,0.));
#645=CARTESIAN_POINT('',(-2.5,-4.33012701892219,0.));
#646=CARTESIAN_POINT('',(-5.,-5.55111512312578E-16,0.));
#647=CARTESIAN_POINT('',(-2.5,-4.33012701892219,0.5));
#648=CARTESIAN_POINT('',(-2.5,-4.33012701892219,0.));
#649=CARTESIAN_POINT('',(-5.,-5.55111512312578E-16,0.5));
#650=CARTESIAN_POINT('',(-5.,-5.55111512312578E-16,0.5));
#651=CARTESIAN_POINT('',(-5.,-8.12739661758407E-16,0.));
#652=CARTESIAN_POINT('Origin',(2.5,4.3301270189222,0.));
#653=CARTESIAN_POINT('',(-2.5,4.33012701892219,0.5));
#654=CARTESIAN_POINT('',(-2.5,4.33012701892219,0.));
#655=CARTESIAN_POINT('',(2.5,4.3301270189222,0.5));
#656=CARTESIAN_POINT('',(2.5,4.3301270189222,0.5));
#657=CARTESIAN_POINT('',(2.5,4.3301270189222,0.));
#658=CARTESIAN_POINT('Origin',(2.5,-4.33012701892219,0.));
#659=CARTESIAN_POINT('',(5.,-1.66533453693773E-15,0.5));
#660=CARTESIAN_POINT('',(5.,-1.83400382508157E-15,0.));
#661=CARTESIAN_POINT('',(2.5,-4.33012701892219,0.5));
#662=CARTESIAN_POINT('',(2.5,-4.33012701892219,0.5));
#663=CARTESIAN_POINT('',(2.5,-4.33012701892219,0.));
#664=CARTESIAN_POINT('Origin',(5.55111512312578E-16,5.55111512312578E-16,
0.5));
#665=CARTESIAN_POINT('Origin',(0.,0.,0.5));
#666=CARTESIAN_POINT('Origin',(0.,0.,0.5));
#667=CARTESIAN_POINT('Origin',(0.,0.,0.5));
#668=CARTESIAN_POINT('Origin',(5.55111512312578E-16,5.55111512312578E-16,
0.));
#669=CARTESIAN_POINT('',(-0.767949192431122,-3.3301270189222,0.));
#670=CARTESIAN_POINT('',(-0.767949192431122,-3.3301270189222,0.));
#671=CARTESIAN_POINT('',(-3.26794919243112,0.999999999999999,0.));
#672=CARTESIAN_POINT('',(-5.,-1.11022302462516E-15,0.));
#673=CARTESIAN_POINT('',(-3.26794919243112,0.999999999999999,0.));
#674=CARTESIAN_POINT('Origin',(0.,0.,0.));
#675=CARTESIAN_POINT('',(-2.5,-4.33012701892219,-5.));
#676=CARTESIAN_POINT('',(2.5,-4.33012701892218,-5.));
#677=CARTESIAN_POINT('Origin',(0.,0.,-5.));
#678=CARTESIAN_POINT('',(2.5,-4.33012701892219,0.));
#679=CARTESIAN_POINT('',(-2.5,-4.33012701892219,0.));
#680=CARTESIAN_POINT('Origin',(0.,0.,0.));
#681=CARTESIAN_POINT('',(-2.5,4.33012701892219,-5.));
#682=CARTESIAN_POINT('',(-5.,-1.66533453693773E-15,-5.));
#683=CARTESIAN_POINT('Origin',(0.,0.,-5.));
#684=CARTESIAN_POINT('',(-5.,-5.55111512312578E-16,0.));
#685=CARTESIAN_POINT('',(-2.5,4.33012701892219,0.));
#686=CARTESIAN_POINT('Origin',(0.,0.,0.));
#687=CARTESIAN_POINT('',(5.,-1.94289029309402E-15,-5.));
#688=CARTESIAN_POINT('',(2.5,4.3301270189222,-5.));
#689=CARTESIAN_POINT('Origin',(0.,0.,-5.));
#690=CARTESIAN_POINT('',(2.5,4.3301270189222,0.));
#691=CARTESIAN_POINT('',(5.,-1.83400382508157E-15,0.));
#692=CARTESIAN_POINT('Origin',(-2.5,2.33012701892219,-0.5));
#693=CARTESIAN_POINT('',(-3.26794919243112,0.999999999999999,-0.5));
#694=CARTESIAN_POINT('',(-2.5,2.33012701892219,-0.5));
#695=CARTESIAN_POINT('',(-2.69198729810778,1.99759526419165,-0.5));
#696=CARTESIAN_POINT('',(-3.26794919243113,1.,-5.));
#697=CARTESIAN_POINT('',(-3.26794919243113,1.,-0.5));
#698=CARTESIAN_POINT('',(-2.5,2.33012701892219,-5.));
#699=CARTESIAN_POINT('',(-2.5,2.33012701892219,-5.));
#700=CARTESIAN_POINT('',(-2.5,2.33012701892219,-0.5));
#701=CARTESIAN_POINT('Origin',(-3.75,2.1650635094611,-5.));
#702=CARTESIAN_POINT('',(-2.5,4.33012701892219,-5.));
#703=CARTESIAN_POINT('',(-3.26794919243113,1.,-5.));
#704=CARTESIAN_POINT('Origin',(-0.767949192431122,-3.3301270189222,-0.5));
#705=CARTESIAN_POINT('',(0.767949192431122,-3.33012701892219,-0.5));
#706=CARTESIAN_POINT('',(-0.767949192431122,-3.3301270189222,-0.5));
#707=CARTESIAN_POINT('',(-0.383974596215549,-3.33012701892219,-0.5));
#708=CARTESIAN_POINT('',(0.767949192431119,-3.33012701892218,-5.));
#709=CARTESIAN_POINT('',(0.767949192431119,-3.33012701892218,-0.5));
#710=CARTESIAN_POINT('',(-0.767949192431122,-3.3301270189222,-5.));
#711=CARTESIAN_POINT('',(-0.767949192431122,-3.3301270189222,-5.));
#712=CARTESIAN_POINT('',(-0.767949192431122,-3.3301270189222,-0.5));
#713=CARTESIAN_POINT('Origin',(-1.11022302462516E-15,-3.83012701892219,
-5.));
#714=CARTESIAN_POINT('',(0.767949192431119,-3.33012701892218,-5.));
#715=CARTESIAN_POINT('',(-2.5,-4.33012701892219,-5.));
#716=CARTESIAN_POINT('Origin',(3.26794919243112,1.,-0.5));
#717=CARTESIAN_POINT('',(2.5,2.33012701892219,-0.5));
#718=CARTESIAN_POINT('',(3.26794919243112,1.,-0.5));
#719=CARTESIAN_POINT('',(3.07596189432334,1.33253175473055,-0.5));
#720=CARTESIAN_POINT('',(2.5,2.33012701892219,-5.));
#721=CARTESIAN_POINT('',(2.5,2.33012701892219,-0.5));
#722=CARTESIAN_POINT('',(3.26794919243112,1.,-5.));
#723=CARTESIAN_POINT('',(3.26794919243112,1.,-5.));
#724=CARTESIAN_POINT('',(3.26794919243112,1.,-0.5));
#725=CARTESIAN_POINT('Origin',(3.75,2.1650635094611,-5.));
#726=CARTESIAN_POINT('',(2.5,2.33012701892219,-5.));
#727=CARTESIAN_POINT('',(5.,-1.83400382508157E-15,-5.));
#728=CARTESIAN_POINT('Origin',(5.55111512312578E-16,5.55111512312578E-16,
-0.5));
#729=CARTESIAN_POINT('',(2.5,2.33012701892219,-0.5));
#730=CARTESIAN_POINT('',(0.767949192431122,-3.33012701892219,-0.5));
#731=CARTESIAN_POINT('',(-3.26794919243112,0.999999999999999,-0.5));
#732=CARTESIAN_POINT('Origin',(5.,-8.32667268468867E-16,0.));
#733=CARTESIAN_POINT('',(3.26794919243112,1.,0.));
#734=CARTESIAN_POINT('Origin',(2.5,2.33012701892219,0.));
#735=CARTESIAN_POINT('',(2.5,2.33012701892219,0.));
#736=CARTESIAN_POINT('Origin',(-2.5,2.33012701892219,0.));
#737=CARTESIAN_POINT('',(-2.5,2.33012701892219,0.));
#738=CARTESIAN_POINT('Origin',(-2.5,4.33012701892219,0.));
#739=CARTESIAN_POINT('Origin',(-3.26794919243112,1.,0.));
#740=CARTESIAN_POINT('',(-3.26794919243112,0.999999999999999,0.));
#741=CARTESIAN_POINT('Origin',(-0.767949192431121,-3.3301270189222,0.));
#742=CARTESIAN_POINT('',(-0.767949192431122,-3.3301270189222,0.));
#743=CARTESIAN_POINT('Origin',(-2.5,-4.3301270189222,0.));
#744=CARTESIAN_POINT('Origin',(0.767949192431122,-3.33012701892219,0.));
#745=CARTESIAN_POINT('',(0.767949192431122,-3.33012701892219,0.));
#746=CARTESIAN_POINT('Origin',(3.26794919243113,1.,0.));
#747=UNCERTAINTY_MEASURE_WITH_UNIT(LENGTH_MEASURE(0.01),#751,
'DISTANCE_ACCURACY_VALUE',
'Maximum model space distance between geometric entities at asserted c
onnectivities');
#748=UNCERTAINTY_MEASURE_WITH_UNIT(LENGTH_MEASURE(0.01),#751,
'DISTANCE_ACCURACY_VALUE',
'Maximum model space distance between geometric entities at asserted c
onnectivities');
#749=(
GEOMETRIC_REPRESENTATION_CONTEXT(3)
GLOBAL_UNCERTAINTY_ASSIGNED_CONTEXT((#747))
GLOBAL_UNIT_ASSIGNED_CONTEXT((#751,#753,#754))
REPRESENTATION_CONTEXT('','3D')
);
#750=(
GEOMETRIC_REPRESENTATION_CONTEXT(3)
GLOBAL_UNCERTAINTY_ASSIGNED_CONTEXT((#748))
GLOBAL_UNIT_ASSIGNED_CONTEXT((#751,#753,#754))
REPRESENTATION_CONTEXT('','3D')
);
#751=(
LENGTH_UNIT()
NAMED_UNIT(*)
SI_UNIT(.MILLI.,.METRE.)
);
#752=(
LENGTH_UNIT()
NAMED_UNIT(*)
SI_UNIT(.CENTI.,.METRE.)
);
#753=(
NAMED_UNIT(*)
PLANE_ANGLE_UNIT()
SI_UNIT($,.RADIAN.)
);
#754=(
NAMED_UNIT(*)
SI_UNIT($,.STERADIAN.)
SOLID_ANGLE_UNIT()
);
#755=SHAPE_DEFINITION_REPRESENTATION(#756,#757);
#756=PRODUCT_DEFINITION_SHAPE('',$,#759);
#757=SHAPE_REPRESENTATION('',(#471),#749);
#758=PRODUCT_DEFINITION_CONTEXT('part definition',#763,'design');
#759=PRODUCT_DEFINITION('BodyNew','Body',#760,#758);
#760=PRODUCT_DEFINITION_FORMATION('',$,#765);
#761=PRODUCT_RELATED_PRODUCT_CATEGORY('Body','Body',(#765));
#762=APPLICATION_PROTOCOL_DEFINITION('international standard',
'automotive_design',2009,#763);
#763=APPLICATION_CONTEXT(
'Core Data for Automotive Mechanical Design Process');
#764=PRODUCT_CONTEXT('part definition',#763,'mechanical');
#765=PRODUCT('BodyNew','Body',$,(#764));
#766=PRESENTATION_STYLE_ASSIGNMENT((#767));
#767=SURFACE_STYLE_USAGE(.BOTH.,#770);
#768=SURFACE_STYLE_RENDERING_WITH_PROPERTIES($,#774,(#769));
#769=SURFACE_STYLE_TRANSPARENT(0.);
#770=SURFACE_SIDE_STYLE('',(#771,#768));
#771=SURFACE_STYLE_FILL_AREA(#772);
#772=FILL_AREA_STYLE('',(#773));
#773=FILL_AREA_STYLE_COLOUR('',#774);
#774=COLOUR_RGB('',0.749019607843137,0.749019607843137,0.749019607843137);
ENDSEC;
END-ISO-10303-21;
