ISO-10303-21;
HEADER;
/* Generated by software containing ST-Developer
 * from STEP Tools, Inc. (www.steptools.com) 
 */

FILE_DESCRIPTION(
/* description */ (''),
/* implementation_level */ '2;1');

FILE_NAME(
/* name */ 'FlatSG.stp',
/* time_stamp */ '2026-06-17T18:15:13+01:00',
/* author */ ('Jakub Schmidt'),
/* organization */ (''),
/* preprocessor_version */ 'ST-DEVELOPER v20.1',
/* originating_system */ 'Autodesk Inventor 2026',
/* authorisation */ '');

FILE_SCHEMA (('AUTOMOTIVE_DESIGN { 1 0 10303 214 3 1 1 }'));
ENDSEC;

DATA;
#10=MECHANICAL_DESIGN_GEOMETRIC_PRESENTATION_REPRESENTATION('',(#13),#472);
#11=SHAPE_REPRESENTATION_RELATIONSHIP('SRR','None',#479,#12);
#12=ADVANCED_BREP_SHAPE_REPRESENTATION('',(#14),#471);
#13=STYLED_ITEM('',(#488),#14);
#14=MANIFOLD_SOLID_BREP('Solid3',#275);
#15=CYLINDRICAL_SURFACE('',#309,5.);
#16=CYLINDRICAL_SURFACE('',#310,5.);
#17=CYLINDRICAL_SURFACE('',#311,5.);
#18=FACE_BOUND('',#35,.T.);
#19=FACE_OUTER_BOUND('',#34,.T.);
#20=FACE_OUTER_BOUND('',#36,.T.);
#21=FACE_OUTER_BOUND('',#37,.T.);
#22=FACE_OUTER_BOUND('',#38,.T.);
#23=FACE_OUTER_BOUND('',#39,.T.);
#24=FACE_OUTER_BOUND('',#40,.T.);
#25=FACE_OUTER_BOUND('',#41,.T.);
#26=FACE_OUTER_BOUND('',#42,.T.);
#27=FACE_OUTER_BOUND('',#43,.T.);
#28=FACE_OUTER_BOUND('',#44,.T.);
#29=FACE_OUTER_BOUND('',#45,.T.);
#30=FACE_OUTER_BOUND('',#46,.T.);
#31=FACE_OUTER_BOUND('',#47,.T.);
#32=FACE_OUTER_BOUND('',#48,.T.);
#33=FACE_OUTER_BOUND('',#49,.T.);
#34=EDGE_LOOP('',(#176,#177,#178,#179,#180,#181));
#35=EDGE_LOOP('',(#182,#183,#184,#185,#186,#187));
#36=EDGE_LOOP('',(#188,#189,#190,#191));
#37=EDGE_LOOP('',(#192,#193,#194,#195));
#38=EDGE_LOOP('',(#196,#197,#198,#199));
#39=EDGE_LOOP('',(#200,#201,#202,#203,#204,#205));
#40=EDGE_LOOP('',(#206,#207,#208,#209));
#41=EDGE_LOOP('',(#210,#211,#212,#213));
#42=EDGE_LOOP('',(#214,#215,#216,#217));
#43=EDGE_LOOP('',(#218,#219,#220,#221));
#44=EDGE_LOOP('',(#222,#223,#224,#225));
#45=EDGE_LOOP('',(#226,#227,#228,#229));
#46=EDGE_LOOP('',(#230,#231,#232,#233,#234,#235));
#47=EDGE_LOOP('',(#236,#237,#238,#239));
#48=EDGE_LOOP('',(#240,#241,#242,#243));
#49=EDGE_LOOP('',(#244,#245,#246,#247));
#50=CIRCLE('',#299,5.);
#51=CIRCLE('',#300,5.);
#52=CIRCLE('',#301,5.);
#53=CIRCLE('',#306,5.);
#54=CIRCLE('',#307,5.);
#55=CIRCLE('',#308,5.);
#56=LINE('',#397,#86);
#57=LINE('',#401,#87);
#58=LINE('',#405,#88);
#59=LINE('',#409,#89);
#60=LINE('',#411,#90);
#61=LINE('',#413,#91);
#62=LINE('',#415,#92);
#63=LINE('',#417,#93);
#64=LINE('',#418,#94);
#65=LINE('',#421,#95);
#66=LINE('',#423,#96);
#67=LINE('',#424,#97);
#68=LINE('',#427,#98);
#69=LINE('',#429,#99);
#70=LINE('',#430,#100);
#71=LINE('',#433,#101);
#72=LINE('',#435,#102);
#73=LINE('',#436,#103);
#74=LINE('',#446,#104);
#75=LINE('',#448,#105);
#76=LINE('',#449,#106);
#77=LINE('',#452,#107);
#78=LINE('',#454,#108);
#79=LINE('',#455,#109);
#80=LINE('',#458,#110);
#81=LINE('',#460,#111);
#82=LINE('',#461,#112);
#83=LINE('',#463,#113);
#84=LINE('',#464,#114);
#85=LINE('',#465,#115);
#86=VECTOR('',#323,10.);
#87=VECTOR('',#326,10.);
#88=VECTOR('',#329,10.);
#89=VECTOR('',#332,10.);
#90=VECTOR('',#333,10.);
#91=VECTOR('',#334,10.);
#92=VECTOR('',#335,10.);
#93=VECTOR('',#336,10.);
#94=VECTOR('',#337,10.);
#95=VECTOR('',#340,10.);
#96=VECTOR('',#341,10.);
#97=VECTOR('',#342,10.);
#98=VECTOR('',#345,10.);
#99=VECTOR('',#346,10.);
#100=VECTOR('',#347,10.);
#101=VECTOR('',#350,10.);
#102=VECTOR('',#351,10.);
#103=VECTOR('',#352,10.);
#104=VECTOR('',#369,10.);
#105=VECTOR('',#370,10.);
#106=VECTOR('',#371,10.);
#107=VECTOR('',#374,10.);
#108=VECTOR('',#375,10.);
#109=VECTOR('',#376,10.);
#110=VECTOR('',#379,10.);
#111=VECTOR('',#380,10.);
#112=VECTOR('',#381,10.);
#113=VECTOR('',#384,10.);
#114=VECTOR('',#385,10.);
#115=VECTOR('',#386,10.);
#116=VERTEX_POINT('',#395);
#117=VERTEX_POINT('',#396);
#118=VERTEX_POINT('',#398);
#119=VERTEX_POINT('',#400);
#120=VERTEX_POINT('',#402);
#121=VERTEX_POINT('',#404);
#122=VERTEX_POINT('',#407);
#123=VERTEX_POINT('',#408);
#124=VERTEX_POINT('',#410);
#125=VERTEX_POINT('',#412);
#126=VERTEX_POINT('',#414);
#127=VERTEX_POINT('',#416);
#128=VERTEX_POINT('',#420);
#129=VERTEX_POINT('',#422);
#130=VERTEX_POINT('',#426);
#131=VERTEX_POINT('',#428);
#132=VERTEX_POINT('',#432);
#133=VERTEX_POINT('',#434);
#134=VERTEX_POINT('',#445);
#135=VERTEX_POINT('',#447);
#136=VERTEX_POINT('',#451);
#137=VERTEX_POINT('',#453);
#138=VERTEX_POINT('',#457);
#139=VERTEX_POINT('',#459);
#140=EDGE_CURVE('',#116,#117,#56,.T.);
#141=EDGE_CURVE('',#118,#116,#50,.T.);
#142=EDGE_CURVE('',#119,#118,#57,.T.);
#143=EDGE_CURVE('',#120,#119,#51,.T.);
#144=EDGE_CURVE('',#121,#120,#58,.T.);
#145=EDGE_CURVE('',#117,#121,#52,.T.);
#146=EDGE_CURVE('',#122,#123,#59,.T.);
#147=EDGE_CURVE('',#123,#124,#60,.T.);
#148=EDGE_CURVE('',#124,#125,#61,.T.);
#149=EDGE_CURVE('',#125,#126,#62,.T.);
#150=EDGE_CURVE('',#126,#127,#63,.T.);
#151=EDGE_CURVE('',#127,#122,#64,.T.);
#152=EDGE_CURVE('',#118,#128,#65,.T.);
#153=EDGE_CURVE('',#129,#128,#66,.T.);
#154=EDGE_CURVE('',#119,#129,#67,.T.);
#155=EDGE_CURVE('',#120,#130,#68,.T.);
#156=EDGE_CURVE('',#131,#130,#69,.T.);
#157=EDGE_CURVE('',#121,#131,#70,.T.);
#158=EDGE_CURVE('',#117,#132,#71,.T.);
#159=EDGE_CURVE('',#133,#132,#72,.T.);
#160=EDGE_CURVE('',#116,#133,#73,.T.);
#161=EDGE_CURVE('',#132,#131,#53,.T.);
#162=EDGE_CURVE('',#130,#129,#54,.T.);
#163=EDGE_CURVE('',#128,#133,#55,.T.);
#164=EDGE_CURVE('',#134,#124,#74,.T.);
#165=EDGE_CURVE('',#135,#134,#75,.T.);
#166=EDGE_CURVE('',#125,#135,#76,.F.);
#167=EDGE_CURVE('',#127,#136,#77,.F.);
#168=EDGE_CURVE('',#137,#126,#78,.T.);
#169=EDGE_CURVE('',#136,#137,#79,.T.);
#170=EDGE_CURVE('',#138,#122,#80,.T.);
#171=EDGE_CURVE('',#139,#138,#81,.T.);
#172=EDGE_CURVE('',#123,#139,#82,.F.);
#173=EDGE_CURVE('',#134,#139,#83,.T.);
#174=EDGE_CURVE('',#138,#136,#84,.T.);
#175=EDGE_CURVE('',#137,#135,#85,.T.);
#176=ORIENTED_EDGE('',*,*,#140,.F.);
#177=ORIENTED_EDGE('',*,*,#141,.F.);
#178=ORIENTED_EDGE('',*,*,#142,.F.);
#179=ORIENTED_EDGE('',*,*,#143,.F.);
#180=ORIENTED_EDGE('',*,*,#144,.F.);
#181=ORIENTED_EDGE('',*,*,#145,.F.);
#182=ORIENTED_EDGE('',*,*,#146,.T.);
#183=ORIENTED_EDGE('',*,*,#147,.T.);
#184=ORIENTED_EDGE('',*,*,#148,.T.);
#185=ORIENTED_EDGE('',*,*,#149,.T.);
#186=ORIENTED_EDGE('',*,*,#150,.T.);
#187=ORIENTED_EDGE('',*,*,#151,.T.);
#188=ORIENTED_EDGE('',*,*,#142,.T.);
#189=ORIENTED_EDGE('',*,*,#152,.T.);
#190=ORIENTED_EDGE('',*,*,#153,.F.);
#191=ORIENTED_EDGE('',*,*,#154,.F.);
#192=ORIENTED_EDGE('',*,*,#144,.T.);
#193=ORIENTED_EDGE('',*,*,#155,.T.);
#194=ORIENTED_EDGE('',*,*,#156,.F.);
#195=ORIENTED_EDGE('',*,*,#157,.F.);
#196=ORIENTED_EDGE('',*,*,#140,.T.);
#197=ORIENTED_EDGE('',*,*,#158,.T.);
#198=ORIENTED_EDGE('',*,*,#159,.F.);
#199=ORIENTED_EDGE('',*,*,#160,.F.);
#200=ORIENTED_EDGE('',*,*,#159,.T.);
#201=ORIENTED_EDGE('',*,*,#161,.T.);
#202=ORIENTED_EDGE('',*,*,#156,.T.);
#203=ORIENTED_EDGE('',*,*,#162,.T.);
#204=ORIENTED_EDGE('',*,*,#153,.T.);
#205=ORIENTED_EDGE('',*,*,#163,.T.);
#206=ORIENTED_EDGE('',*,*,#160,.T.);
#207=ORIENTED_EDGE('',*,*,#163,.F.);
#208=ORIENTED_EDGE('',*,*,#152,.F.);
#209=ORIENTED_EDGE('',*,*,#141,.T.);
#210=ORIENTED_EDGE('',*,*,#143,.T.);
#211=ORIENTED_EDGE('',*,*,#154,.T.);
#212=ORIENTED_EDGE('',*,*,#162,.F.);
#213=ORIENTED_EDGE('',*,*,#155,.F.);
#214=ORIENTED_EDGE('',*,*,#145,.T.);
#215=ORIENTED_EDGE('',*,*,#157,.T.);
#216=ORIENTED_EDGE('',*,*,#161,.F.);
#217=ORIENTED_EDGE('',*,*,#158,.F.);
#218=ORIENTED_EDGE('',*,*,#164,.F.);
#219=ORIENTED_EDGE('',*,*,#165,.F.);
#220=ORIENTED_EDGE('',*,*,#166,.F.);
#221=ORIENTED_EDGE('',*,*,#148,.F.);
#222=ORIENTED_EDGE('',*,*,#167,.F.);
#223=ORIENTED_EDGE('',*,*,#150,.F.);
#224=ORIENTED_EDGE('',*,*,#168,.F.);
#225=ORIENTED_EDGE('',*,*,#169,.F.);
#226=ORIENTED_EDGE('',*,*,#170,.F.);
#227=ORIENTED_EDGE('',*,*,#171,.F.);
#228=ORIENTED_EDGE('',*,*,#172,.F.);
#229=ORIENTED_EDGE('',*,*,#146,.F.);
#230=ORIENTED_EDGE('',*,*,#165,.T.);
#231=ORIENTED_EDGE('',*,*,#173,.T.);
#232=ORIENTED_EDGE('',*,*,#171,.T.);
#233=ORIENTED_EDGE('',*,*,#174,.T.);
#234=ORIENTED_EDGE('',*,*,#169,.T.);
#235=ORIENTED_EDGE('',*,*,#175,.T.);
#236=ORIENTED_EDGE('',*,*,#172,.T.);
#237=ORIENTED_EDGE('',*,*,#173,.F.);
#238=ORIENTED_EDGE('',*,*,#164,.T.);
#239=ORIENTED_EDGE('',*,*,#147,.F.);
#240=ORIENTED_EDGE('',*,*,#166,.T.);
#241=ORIENTED_EDGE('',*,*,#175,.F.);
#242=ORIENTED_EDGE('',*,*,#168,.T.);
#243=ORIENTED_EDGE('',*,*,#149,.F.);
#244=ORIENTED_EDGE('',*,*,#170,.T.);
#245=ORIENTED_EDGE('',*,*,#151,.F.);
#246=ORIENTED_EDGE('',*,*,#167,.T.);
#247=ORIENTED_EDGE('',*,*,#174,.F.);
#248=PLANE('',#298);
#249=PLANE('',#302);
#250=PLANE('',#303);
#251=PLANE('',#304);
#252=PLANE('',#305);
#253=PLANE('',#312);
#254=PLANE('',#313);
#255=PLANE('',#314);
#256=PLANE('',#315);
#257=PLANE('',#316);
#258=PLANE('',#317);
#259=PLANE('',#318);
#260=ADVANCED_FACE('',(#19,#18),#248,.F.);
#261=ADVANCED_FACE('',(#20),#249,.T.);
#262=ADVANCED_FACE('',(#21),#250,.T.);
#263=ADVANCED_FACE('',(#22),#251,.T.);
#264=ADVANCED_FACE('',(#23),#252,.T.);
#265=ADVANCED_FACE('',(#24),#15,.T.);
#266=ADVANCED_FACE('',(#25),#16,.T.);
#267=ADVANCED_FACE('',(#26),#17,.T.);
#268=ADVANCED_FACE('',(#27),#253,.T.);
#269=ADVANCED_FACE('',(#28),#254,.T.);
#270=ADVANCED_FACE('',(#29),#255,.T.);
#271=ADVANCED_FACE('',(#30),#256,.T.);
#272=ADVANCED_FACE('',(#31),#257,.F.);
#273=ADVANCED_FACE('',(#32),#258,.F.);
#274=ADVANCED_FACE('',(#33),#259,.F.);
#275=CLOSED_SHELL('',(#260,#261,#262,#263,#264,#265,#266,#267,#268,#269,
#270,#271,#272,#273,#274));
#276=DERIVED_UNIT_ELEMENT(#279,1.);
#277=DERIVED_UNIT_ELEMENT(#474,-3.);
#278=DIMENSIONAL_EXPONENTS(0.,1.,0.,0.,0.,0.,0.);
#279=(
CONVERSION_BASED_UNIT('gram',#281)
MASS_UNIT()
NAMED_UNIT(#278)
);
#280=(
MASS_UNIT()
NAMED_UNIT(*)
SI_UNIT(.KILO.,.GRAM.)
);
#281=MASS_MEASURE_WITH_UNIT(MASS_MEASURE(0.001),#280);
#282=DERIVED_UNIT((#276,#277));
#283=MEASURE_REPRESENTATION_ITEM('density measure',
POSITIVE_RATIO_MEASURE(1.),#282);
#284=PROPERTY_DEFINITION_REPRESENTATION(#289,#286);
#285=PROPERTY_DEFINITION_REPRESENTATION(#290,#287);
#286=REPRESENTATION('material name',(#288),#471);
#287=REPRESENTATION('density',(#283),#471);
#288=DESCRIPTIVE_REPRESENTATION_ITEM('Generic','Generic');
#289=PROPERTY_DEFINITION('material property','material name',#481);
#290=PROPERTY_DEFINITION('material property','density of part',#481);
#291=DATE_TIME_ROLE('creation_date');
#292=APPLIED_DATE_AND_TIME_ASSIGNMENT(#293,#291,(#481));
#293=DATE_AND_TIME(#294,#295);
#294=CALENDAR_DATE(2025,2,11);
#295=LOCAL_TIME(0,0,0.,#296);
#296=COORDINATED_UNIVERSAL_TIME_OFFSET(0,0,.BEHIND.);
#297=AXIS2_PLACEMENT_3D('',#393,#319,#320);
#298=AXIS2_PLACEMENT_3D('',#394,#321,#322);
#299=AXIS2_PLACEMENT_3D('',#399,#324,#325);
#300=AXIS2_PLACEMENT_3D('',#403,#327,#328);
#301=AXIS2_PLACEMENT_3D('',#406,#330,#331);
#302=AXIS2_PLACEMENT_3D('',#419,#338,#339);
#303=AXIS2_PLACEMENT_3D('',#425,#343,#344);
#304=AXIS2_PLACEMENT_3D('',#431,#348,#349);
#305=AXIS2_PLACEMENT_3D('',#437,#353,#354);
#306=AXIS2_PLACEMENT_3D('',#438,#355,#356);
#307=AXIS2_PLACEMENT_3D('',#439,#357,#358);
#308=AXIS2_PLACEMENT_3D('',#440,#359,#360);
#309=AXIS2_PLACEMENT_3D('',#441,#361,#362);
#310=AXIS2_PLACEMENT_3D('',#442,#363,#364);
#311=AXIS2_PLACEMENT_3D('',#443,#365,#366);
#312=AXIS2_PLACEMENT_3D('',#444,#367,#368);
#313=AXIS2_PLACEMENT_3D('',#450,#372,#373);
#314=AXIS2_PLACEMENT_3D('',#456,#377,#378);
#315=AXIS2_PLACEMENT_3D('',#462,#382,#383);
#316=AXIS2_PLACEMENT_3D('',#466,#387,#388);
#317=AXIS2_PLACEMENT_3D('',#467,#389,#390);
#318=AXIS2_PLACEMENT_3D('',#468,#391,#392);
#319=DIRECTION('axis',(0.,0.,1.));
#320=DIRECTION('refdir',(1.,0.,0.));
#321=DIRECTION('center_axis',(0.,0.,1.));
#322=DIRECTION('ref_axis',(1.,0.,0.));
#323=DIRECTION('',(0.5,0.866025403784438,0.));
#324=DIRECTION('center_axis',(0.,0.,1.));
#325=DIRECTION('ref_axis',(-0.499999999999998,-0.86602540378444,0.));
#326=DIRECTION('',(0.5,-0.866025403784439,0.));
#327=DIRECTION('center_axis',(0.,0.,1.));
#328=DIRECTION('ref_axis',(-0.499999999999998,0.86602540378444,0.));
#329=DIRECTION('',(-1.,-4.44089209850063E-16,0.));
#330=DIRECTION('center_axis',(0.,0.,1.));
#331=DIRECTION('ref_axis',(1.,0.,0.));
#332=DIRECTION('',(-0.500000000000002,0.866025403784437,0.));
#333=DIRECTION('',(-1.,-1.11022302462516E-16,0.));
#334=DIRECTION('',(-0.500000000000001,-0.866025403784438,0.));
#335=DIRECTION('',(0.5,-0.866025403784439,0.));
#336=DIRECTION('',(1.,6.86706805469099E-15,0.));
#337=DIRECTION('',(0.5,0.866025403784438,0.));
#338=DIRECTION('center_axis',(-0.866025403784439,-0.5,0.));
#339=DIRECTION('ref_axis',(0.5,-0.866025403784439,0.));
#340=DIRECTION('',(0.,0.,1.));
#341=DIRECTION('',(0.5,-0.866025403784439,0.));
#342=DIRECTION('',(0.,0.,1.));
#343=DIRECTION('center_axis',(-4.44089209850063E-16,1.,0.));
#344=DIRECTION('ref_axis',(-1.,-4.44089209850063E-16,0.));
#345=DIRECTION('',(0.,0.,1.));
#346=DIRECTION('',(-1.,-4.44089209850063E-16,0.));
#347=DIRECTION('',(0.,0.,1.));
#348=DIRECTION('center_axis',(0.866025403784439,-0.5,0.));
#349=DIRECTION('ref_axis',(0.5,0.866025403784438,0.));
#350=DIRECTION('',(0.,0.,1.));
#351=DIRECTION('',(0.5,0.866025403784438,0.));
#352=DIRECTION('',(0.,0.,1.));
#353=DIRECTION('center_axis',(0.,0.,1.));
#354=DIRECTION('ref_axis',(1.,0.,0.));
#355=DIRECTION('center_axis',(0.,0.,1.));
#356=DIRECTION('ref_axis',(1.,0.,0.));
#357=DIRECTION('center_axis',(0.,0.,1.));
#358=DIRECTION('ref_axis',(-0.499999999999998,0.86602540378444,0.));
#359=DIRECTION('center_axis',(0.,0.,1.));
#360=DIRECTION('ref_axis',(-0.499999999999998,-0.86602540378444,0.));
#361=DIRECTION('center_axis',(0.,0.,-1.));
#362=DIRECTION('ref_axis',(-0.499999999999998,-0.86602540378444,0.));
#363=DIRECTION('center_axis',(0.,0.,-1.));
#364=DIRECTION('ref_axis',(-0.499999999999998,0.86602540378444,0.));
#365=DIRECTION('center_axis',(0.,0.,-1.));
#366=DIRECTION('ref_axis',(1.,0.,0.));
#367=DIRECTION('center_axis',(0.866025403784438,-0.500000000000001,0.));
#368=DIRECTION('ref_axis',(-0.500000000000001,-0.866025403784438,0.));
#369=DIRECTION('',(0.,0.,-1.));
#370=DIRECTION('',(0.500000000000001,0.866025403784438,0.));
#371=DIRECTION('',(0.,0.,-1.));
#372=DIRECTION('center_axis',(-6.86706805469099E-15,1.,0.));
#373=DIRECTION('ref_axis',(1.,6.86706805469099E-15,0.));
#374=DIRECTION('',(0.,0.,-1.));
#375=DIRECTION('',(0.,0.,-1.));
#376=DIRECTION('',(-1.,-6.86706805469099E-15,0.));
#377=DIRECTION('center_axis',(-0.866025403784437,-0.500000000000002,0.));
#378=DIRECTION('ref_axis',(-0.500000000000002,0.866025403784437,0.));
#379=DIRECTION('',(0.,0.,-1.));
#380=DIRECTION('',(0.500000000000002,-0.866025403784437,0.));
#381=DIRECTION('',(0.,0.,-1.));
#382=DIRECTION('center_axis',(0.,0.,-1.));
#383=DIRECTION('ref_axis',(-1.,0.,0.));
#384=DIRECTION('',(1.,1.11022302462516E-16,0.));
#385=DIRECTION('',(-0.5,-0.866025403784438,0.));
#386=DIRECTION('',(-0.5,0.866025403784439,0.));
#387=DIRECTION('center_axis',(-1.11022302462516E-16,1.,0.));
#388=DIRECTION('ref_axis',(1.,1.11022302462516E-16,0.));
#389=DIRECTION('center_axis',(-0.866025403784439,-0.5,0.));
#390=DIRECTION('ref_axis',(-0.5,0.866025403784439,0.));
#391=DIRECTION('center_axis',(0.866025403784438,-0.5,0.));
#392=DIRECTION('ref_axis',(-0.5,-0.866025403784438,0.));
#393=CARTESIAN_POINT('',(0.,0.,0.));
#394=CARTESIAN_POINT('Origin',(5.55111512312578E-16,5.55111512312578E-16,
-5.));
#395=CARTESIAN_POINT('',(2.5,-4.33012701892219,-5.));
#396=CARTESIAN_POINT('',(5.,-1.8884470590878E-15,-5.));
#397=CARTESIAN_POINT('',(2.5,-4.33012701892219,-5.));
#398=CARTESIAN_POINT('',(-2.5,-4.33012701892219,-5.));
#399=CARTESIAN_POINT('Origin',(0.,0.,-5.));
#400=CARTESIAN_POINT('',(-5.,-1.71114886412002E-15,-5.));
#401=CARTESIAN_POINT('',(-5.,-5.55111512312578E-16,-5.));
#402=CARTESIAN_POINT('',(-2.5,4.33012701892219,-5.));
#403=CARTESIAN_POINT('Origin',(0.,0.,-5.));
#404=CARTESIAN_POINT('',(2.5,4.3301270189222,-5.));
#405=CARTESIAN_POINT('',(2.5,4.3301270189222,-5.));
#406=CARTESIAN_POINT('Origin',(0.,0.,-5.));
#407=CARTESIAN_POINT('',(3.26794919243112,1.,-5.));
#408=CARTESIAN_POINT('',(2.5,2.33012701892219,-5.));
#409=CARTESIAN_POINT('',(3.26794919243112,1.,-5.));
#410=CARTESIAN_POINT('',(-2.5,2.33012701892219,-5.));
#411=CARTESIAN_POINT('',(2.5,2.33012701892219,-5.));
#412=CARTESIAN_POINT('',(-3.26794919243112,0.999999999999999,-5.));
#413=CARTESIAN_POINT('',(-2.5,2.33012701892219,-5.));
#414=CARTESIAN_POINT('',(-0.767949192431122,-3.3301270189222,-5.));
#415=CARTESIAN_POINT('',(-3.26794919243112,0.999999999999999,-5.));
#416=CARTESIAN_POINT('',(0.767949192431122,-3.33012701892219,-5.));
#417=CARTESIAN_POINT('',(-0.767949192431122,-3.3301270189222,-5.));
#418=CARTESIAN_POINT('',(0.767949192431122,-3.33012701892219,-5.));
#419=CARTESIAN_POINT('Origin',(-5.,-7.4833262439695E-16,0.));
#420=CARTESIAN_POINT('',(-2.5,-4.33012701892219,0.5));
#421=CARTESIAN_POINT('',(-2.5,-4.33012701892219,0.));
#422=CARTESIAN_POINT('',(-5.,-5.55111512312578E-16,0.5));
#423=CARTESIAN_POINT('',(-5.,-5.55111512312578E-16,0.5));
#424=CARTESIAN_POINT('',(-5.,-8.12739661758407E-16,0.));
#425=CARTESIAN_POINT('Origin',(2.5,4.3301270189222,0.));
#426=CARTESIAN_POINT('',(-2.5,4.33012701892219,0.5));
#427=CARTESIAN_POINT('',(-2.5,4.33012701892219,0.));
#428=CARTESIAN_POINT('',(2.5,4.3301270189222,0.5));
#429=CARTESIAN_POINT('',(2.5,4.3301270189222,0.5));
#430=CARTESIAN_POINT('',(2.5,4.3301270189222,0.));
#431=CARTESIAN_POINT('Origin',(2.5,-4.33012701892219,0.));
#432=CARTESIAN_POINT('',(5.,-1.66533453693773E-15,0.5));
#433=CARTESIAN_POINT('',(5.,-1.83400382508157E-15,0.));
#434=CARTESIAN_POINT('',(2.5,-4.33012701892219,0.5));
#435=CARTESIAN_POINT('',(2.5,-4.33012701892219,0.5));
#436=CARTESIAN_POINT('',(2.5,-4.33012701892219,0.));
#437=CARTESIAN_POINT('Origin',(5.55111512312578E-16,5.55111512312578E-16,
0.5));
#438=CARTESIAN_POINT('Origin',(0.,0.,0.5));
#439=CARTESIAN_POINT('Origin',(0.,0.,0.5));
#440=CARTESIAN_POINT('Origin',(0.,0.,0.5));
#441=CARTESIAN_POINT('Origin',(0.,0.,0.));
#442=CARTESIAN_POINT('Origin',(0.,0.,0.));
#443=CARTESIAN_POINT('Origin',(0.,0.,0.));
#444=CARTESIAN_POINT('Origin',(-2.5,2.33012701892219,-0.5));
#445=CARTESIAN_POINT('',(-2.5,2.33012701892219,-0.5));
#446=CARTESIAN_POINT('',(-2.5,2.33012701892219,-0.5));
#447=CARTESIAN_POINT('',(-3.26794919243112,0.999999999999999,-0.5));
#448=CARTESIAN_POINT('',(-2.69198729810778,1.99759526419165,-0.5));
#449=CARTESIAN_POINT('',(-3.26794919243112,0.999999999999999,0.));
#450=CARTESIAN_POINT('Origin',(-0.767949192431122,-3.3301270189222,-0.5));
#451=CARTESIAN_POINT('',(0.767949192431122,-3.33012701892219,-0.5));
#452=CARTESIAN_POINT('',(0.767949192431122,-3.33012701892219,0.));
#453=CARTESIAN_POINT('',(-0.767949192431122,-3.3301270189222,-0.5));
#454=CARTESIAN_POINT('',(-0.767949192431122,-3.3301270189222,-0.5));
#455=CARTESIAN_POINT('',(-0.383974596215549,-3.33012701892219,-0.5));
#456=CARTESIAN_POINT('Origin',(3.26794919243112,1.,-0.5));
#457=CARTESIAN_POINT('',(3.26794919243112,1.,-0.5));
#458=CARTESIAN_POINT('',(3.26794919243112,1.,-0.5));
#459=CARTESIAN_POINT('',(2.5,2.33012701892219,-0.5));
#460=CARTESIAN_POINT('',(3.07596189432334,1.33253175473055,-0.5));
#461=CARTESIAN_POINT('',(2.5,2.33012701892219,0.));
#462=CARTESIAN_POINT('Origin',(5.55111512312578E-16,5.55111512312578E-16,
-0.5));
#463=CARTESIAN_POINT('',(2.5,2.33012701892219,-0.5));
#464=CARTESIAN_POINT('',(0.767949192431122,-3.33012701892219,-0.5));
#465=CARTESIAN_POINT('',(-3.26794919243112,0.999999999999999,-0.5));
#466=CARTESIAN_POINT('Origin',(-2.5,2.33012701892219,0.));
#467=CARTESIAN_POINT('Origin',(-0.767949192431121,-3.3301270189222,0.));
#468=CARTESIAN_POINT('Origin',(3.26794919243113,1.,0.));
#469=UNCERTAINTY_MEASURE_WITH_UNIT(LENGTH_MEASURE(0.01),#473,
'DISTANCE_ACCURACY_VALUE',
'Maximum model space distance between geometric entities at asserted c
onnectivities');
#470=UNCERTAINTY_MEASURE_WITH_UNIT(LENGTH_MEASURE(0.01),#473,
'DISTANCE_ACCURACY_VALUE',
'Maximum model space distance between geometric entities at asserted c
onnectivities');
#471=(
GEOMETRIC_REPRESENTATION_CONTEXT(3)
GLOBAL_UNCERTAINTY_ASSIGNED_CONTEXT((#469))
GLOBAL_UNIT_ASSIGNED_CONTEXT((#473,#475,#476))
REPRESENTATION_CONTEXT('','3D')
);
#472=(
GEOMETRIC_REPRESENTATION_CONTEXT(3)
GLOBAL_UNCERTAINTY_ASSIGNED_CONTEXT((#470))
GLOBAL_UNIT_ASSIGNED_CONTEXT((#473,#475,#476))
REPRESENTATION_CONTEXT('','3D')
);
#473=(
LENGTH_UNIT()
NAMED_UNIT(*)
SI_UNIT(.MILLI.,.METRE.)
);
#474=(
LENGTH_UNIT()
NAMED_UNIT(*)
SI_UNIT(.CENTI.,.METRE.)
);
#475=(
NAMED_UNIT(*)
PLANE_ANGLE_UNIT()
SI_UNIT($,.RADIAN.)
);
#476=(
NAMED_UNIT(*)
SI_UNIT($,.STERADIAN.)
SOLID_ANGLE_UNIT()
);
#477=SHAPE_DEFINITION_REPRESENTATION(#478,#479);
#478=PRODUCT_DEFINITION_SHAPE('',$,#481);
#479=SHAPE_REPRESENTATION('',(#297),#471);
#480=PRODUCT_DEFINITION_CONTEXT('part definition',#485,'design');
#481=PRODUCT_DEFINITION('BodyNew','Body',#482,#480);
#482=PRODUCT_DEFINITION_FORMATION('',$,#487);
#483=PRODUCT_RELATED_PRODUCT_CATEGORY('Body','Body',(#487));
#484=APPLICATION_PROTOCOL_DEFINITION('international standard',
'automotive_design',2009,#485);
#485=APPLICATION_CONTEXT(
'Core Data for Automotive Mechanical Design Process');
#486=PRODUCT_CONTEXT('part definition',#485,'mechanical');
#487=PRODUCT('BodyNew','Body',$,(#486));
#488=PRESENTATION_STYLE_ASSIGNMENT((#489));
#489=SURFACE_STYLE_USAGE(.BOTH.,#492);
#490=SURFACE_STYLE_RENDERING_WITH_PROPERTIES($,#496,(#491));
#491=SURFACE_STYLE_TRANSPARENT(0.);
#492=SURFACE_SIDE_STYLE('',(#493,#490));
#493=SURFACE_STYLE_FILL_AREA(#494);
#494=FILL_AREA_STYLE('',(#495));
#495=FILL_AREA_STYLE_COLOUR('',#496);
#496=COLOUR_RGB('',0.749019607843137,0.749019607843137,0.749019607843137);
ENDSEC;
END-ISO-10303-21;
