ISO-10303-21;
HEADER;
/* Generated by software containing ST-Developer
 * from STEP Tools, Inc. (www.steptools.com) 
 */

FILE_DESCRIPTION(
/* description */ (''),
/* implementation_level */ '2;1');

FILE_NAME(
/* name */ 'FoldedSGV1.stp',
/* time_stamp */ '2026-06-17T18:19:12+01:00',
/* author */ ('Jakub Schmidt'),
/* organization */ (''),
/* preprocessor_version */ 'ST-DEVELOPER v20.1',
/* originating_system */ 'Autodesk Inventor 2026',
/* authorisation */ '');

FILE_SCHEMA (('AUTOMOTIVE_DESIGN { 1 0 10303 214 3 1 1 }'));
ENDSEC;

DATA;
#10=MECHANICAL_DESIGN_GEOMETRIC_PRESENTATION_REPRESENTATION('',(#23,#24),
#910);
#11=ITEM_DEFINED_TRANSFORMATION($,$,#560,#607);
#12=ITEM_DEFINED_TRANSFORMATION($,$,#592,#608);
#13=(
REPRESENTATION_RELATIONSHIP($,$,#924,#923)
REPRESENTATION_RELATIONSHIP_WITH_TRANSFORMATION(#11)
SHAPE_REPRESENTATION_RELATIONSHIP()
);
#14=(
REPRESENTATION_RELATIONSHIP($,$,#925,#923)
REPRESENTATION_RELATIONSHIP_WITH_TRANSFORMATION(#12)
SHAPE_REPRESENTATION_RELATIONSHIP()
);
#15=CONTEXT_DEPENDENT_SHAPE_REPRESENTATION(#13,#921);
#16=CONTEXT_DEPENDENT_SHAPE_REPRESENTATION(#14,#922);
#17=NEXT_ASSEMBLY_USAGE_OCCURRENCE('BodyFoldedSide1:1',
'BodyFoldedSide1:1','BodyFoldedSide1:1',#927,#928,'BodyFoldedSide1:1');
#18=NEXT_ASSEMBLY_USAGE_OCCURRENCE('BodyFoldedSide2:1',
'BodyFoldedSide2:1','BodyFoldedSide2:1',#927,#929,'BodyFoldedSide2:1');
#19=SHAPE_REPRESENTATION_RELATIONSHIP('SRR','None',#924,#21);
#20=SHAPE_REPRESENTATION_RELATIONSHIP('SRR','None',#925,#22);
#21=ADVANCED_BREP_SHAPE_REPRESENTATION('',(#25),#908);
#22=ADVANCED_BREP_SHAPE_REPRESENTATION('',(#26),#909);
#23=STYLED_ITEM('',(#532),#25);
#24=STYLED_ITEM('',(#532),#26);
#25=MANIFOLD_SOLID_BREP('Solid3',#504);
#26=MANIFOLD_SOLID_BREP('Solid3',#505);
#27=PLANE('',#564);
#28=PLANE('',#568);
#29=PLANE('',#572);
#30=PLANE('',#573);
#31=PLANE('',#574);
#32=PLANE('',#578);
#33=PLANE('',#579);
#34=PLANE('',#580);
#35=PLANE('',#581);
#36=PLANE('',#588);
#37=PLANE('',#589);
#38=PLANE('',#590);
#39=PLANE('',#591);
#40=PLANE('',#593);
#41=PLANE('',#594);
#42=PLANE('',#599);
#43=PLANE('',#602);
#44=PLANE('',#603);
#45=PLANE('',#604);
#46=PLANE('',#605);
#47=PLANE('',#606);
#48=FACE_OUTER_BOUND('',#77,.T.);
#49=FACE_OUTER_BOUND('',#78,.T.);
#50=FACE_OUTER_BOUND('',#79,.T.);
#51=FACE_OUTER_BOUND('',#80,.T.);
#52=FACE_OUTER_BOUND('',#81,.T.);
#53=FACE_OUTER_BOUND('',#82,.T.);
#54=FACE_OUTER_BOUND('',#83,.T.);
#55=FACE_OUTER_BOUND('',#84,.T.);
#56=FACE_OUTER_BOUND('',#85,.T.);
#57=FACE_OUTER_BOUND('',#86,.T.);
#58=FACE_OUTER_BOUND('',#87,.T.);
#59=FACE_OUTER_BOUND('',#88,.T.);
#60=FACE_OUTER_BOUND('',#89,.T.);
#61=FACE_OUTER_BOUND('',#90,.T.);
#62=FACE_OUTER_BOUND('',#91,.T.);
#63=FACE_OUTER_BOUND('',#92,.T.);
#64=FACE_OUTER_BOUND('',#93,.T.);
#65=FACE_OUTER_BOUND('',#94,.T.);
#66=FACE_OUTER_BOUND('',#95,.T.);
#67=FACE_OUTER_BOUND('',#96,.T.);
#68=FACE_OUTER_BOUND('',#97,.T.);
#69=FACE_OUTER_BOUND('',#98,.T.);
#70=FACE_OUTER_BOUND('',#99,.T.);
#71=FACE_OUTER_BOUND('',#100,.T.);
#72=FACE_OUTER_BOUND('',#101,.T.);
#73=FACE_OUTER_BOUND('',#102,.T.);
#74=FACE_OUTER_BOUND('',#103,.T.);
#75=FACE_OUTER_BOUND('',#104,.T.);
#76=FACE_OUTER_BOUND('',#105,.T.);
#77=EDGE_LOOP('',(#333,#334,#335,#336));
#78=EDGE_LOOP('',(#337,#338,#339,#340));
#79=EDGE_LOOP('',(#341,#342,#343,#344));
#80=EDGE_LOOP('',(#345,#346,#347,#348));
#81=EDGE_LOOP('',(#349,#350,#351,#352));
#82=EDGE_LOOP('',(#353,#354,#355));
#83=EDGE_LOOP('',(#356,#357,#358));
#84=EDGE_LOOP('',(#359,#360,#361,#362,#363,#364,#365,#366));
#85=EDGE_LOOP('',(#367,#368,#369,#370));
#86=EDGE_LOOP('',(#371,#372,#373,#374));
#87=EDGE_LOOP('',(#375,#376,#377,#378));
#88=EDGE_LOOP('',(#379,#380,#381,#382));
#89=EDGE_LOOP('',(#383,#384,#385,#386,#387,#388));
#90=EDGE_LOOP('',(#389,#390,#391,#392));
#91=EDGE_LOOP('',(#393,#394,#395,#396));
#92=EDGE_LOOP('',(#397,#398,#399,#400));
#93=EDGE_LOOP('',(#401,#402,#403,#404,#405,#406,#407,#408,#409,#410));
#94=EDGE_LOOP('',(#411,#412,#413,#414));
#95=EDGE_LOOP('',(#415,#416,#417,#418));
#96=EDGE_LOOP('',(#419,#420,#421,#422,#423,#424,#425,#426));
#97=EDGE_LOOP('',(#427,#428,#429,#430));
#98=EDGE_LOOP('',(#431,#432,#433,#434));
#99=EDGE_LOOP('',(#435,#436,#437,#438));
#100=EDGE_LOOP('',(#439,#440,#441,#442));
#101=EDGE_LOOP('',(#443,#444,#445,#446));
#102=EDGE_LOOP('',(#447,#448,#449,#450,#451,#452,#453,#454));
#103=EDGE_LOOP('',(#455,#456,#457,#458));
#104=EDGE_LOOP('',(#459,#460,#461,#462));
#105=EDGE_LOOP('',(#463,#464,#465,#466));
#106=CIRCLE('',#562,5.5);
#107=CIRCLE('',#563,5.5);
#108=CIRCLE('',#565,1.);
#109=CIRCLE('',#567,1.);
#110=CIRCLE('',#569,5.5);
#111=CIRCLE('',#571,5.5);
#112=CIRCLE('',#576,5.);
#113=CIRCLE('',#577,5.);
#114=CIRCLE('',#582,5.);
#115=CIRCLE('',#583,5.);
#116=CIRCLE('',#585,5.);
#117=CIRCLE('',#587,5.);
#118=CIRCLE('',#595,5.);
#119=CIRCLE('',#596,5.);
#120=CIRCLE('',#598,5.);
#121=CIRCLE('',#601,5.);
#122=LINE('',#765,#173);
#123=LINE('',#769,#174);
#124=LINE('',#773,#175);
#125=LINE('',#775,#176);
#126=LINE('',#779,#177);
#127=LINE('',#781,#178);
#128=LINE('',#785,#179);
#129=LINE('',#787,#180);
#130=LINE('',#791,#181);
#131=LINE('',#793,#182);
#132=LINE('',#797,#183);
#133=LINE('',#798,#184);
#134=LINE('',#801,#185);
#135=LINE('',#802,#186);
#136=LINE('',#804,#187);
#137=LINE('',#808,#188);
#138=LINE('',#813,#189);
#139=LINE('',#815,#190);
#140=LINE('',#816,#191);
#141=LINE('',#819,#192);
#142=LINE('',#821,#193);
#143=LINE('',#822,#194);
#144=LINE('',#826,#195);
#145=LINE('',#828,#196);
#146=LINE('',#830,#197);
#147=LINE('',#831,#198);
#148=LINE('',#841,#199);
#149=LINE('',#843,#200);
#150=LINE('',#844,#201);
#151=LINE('',#846,#202);
#152=LINE('',#847,#203);
#153=LINE('',#854,#204);
#154=LINE('',#856,#205);
#155=LINE('',#858,#206);
#156=LINE('',#860,#207);
#157=LINE('',#862,#208);
#158=LINE('',#864,#209);
#159=LINE('',#866,#210);
#160=LINE('',#867,#211);
#161=LINE('',#872,#212);
#162=LINE('',#876,#213);
#163=LINE('',#880,#214);
#164=LINE('',#881,#215);
#165=LINE('',#887,#216);
#166=LINE('',#888,#217);
#167=LINE('',#889,#218);
#168=LINE('',#892,#219);
#169=LINE('',#893,#220);
#170=LINE('',#896,#221);
#171=LINE('',#897,#222);
#172=LINE('',#899,#223);
#173=VECTOR('',#615,10.);
#174=VECTOR('',#618,10.);
#175=VECTOR('',#623,10.);
#176=VECTOR('',#624,10.);
#177=VECTOR('',#629,10.);
#178=VECTOR('',#630,10.);
#179=VECTOR('',#635,10.);
#180=VECTOR('',#636,10.);
#181=VECTOR('',#641,10.);
#182=VECTOR('',#642,10.);
#183=VECTOR('',#647,10.);
#184=VECTOR('',#648,10.);
#185=VECTOR('',#651,10.);
#186=VECTOR('',#652,10.);
#187=VECTOR('',#655,10.);
#188=VECTOR('',#658,10.);
#189=VECTOR('',#665,10.);
#190=VECTOR('',#666,10.);
#191=VECTOR('',#667,10.);
#192=VECTOR('',#670,10.);
#193=VECTOR('',#671,10.);
#194=VECTOR('',#672,10.);
#195=VECTOR('',#675,10.);
#196=VECTOR('',#676,10.);
#197=VECTOR('',#677,10.);
#198=VECTOR('',#678,10.);
#199=VECTOR('',#695,10.);
#200=VECTOR('',#696,10.);
#201=VECTOR('',#697,10.);
#202=VECTOR('',#700,10.);
#203=VECTOR('',#701,10.);
#204=VECTOR('',#710,10.);
#205=VECTOR('',#711,10.);
#206=VECTOR('',#712,10.);
#207=VECTOR('',#713,10.);
#208=VECTOR('',#714,10.);
#209=VECTOR('',#715,10.);
#210=VECTOR('',#716,10.);
#211=VECTOR('',#717,10.);
#212=VECTOR('',#722,10.);
#213=VECTOR('',#727,10.);
#214=VECTOR('',#732,10.);
#215=VECTOR('',#733,10.);
#216=VECTOR('',#740,10.);
#217=VECTOR('',#741,10.);
#218=VECTOR('',#742,10.);
#219=VECTOR('',#745,10.);
#220=VECTOR('',#746,10.);
#221=VECTOR('',#749,10.);
#222=VECTOR('',#750,10.);
#223=VECTOR('',#753,10.);
#224=VERTEX_POINT('',#763);
#225=VERTEX_POINT('',#764);
#226=VERTEX_POINT('',#766);
#227=VERTEX_POINT('',#768);
#228=VERTEX_POINT('',#772);
#229=VERTEX_POINT('',#774);
#230=VERTEX_POINT('',#778);
#231=VERTEX_POINT('',#780);
#232=VERTEX_POINT('',#784);
#233=VERTEX_POINT('',#786);
#234=VERTEX_POINT('',#790);
#235=VERTEX_POINT('',#792);
#236=VERTEX_POINT('',#796);
#237=VERTEX_POINT('',#800);
#238=VERTEX_POINT('',#806);
#239=VERTEX_POINT('',#807);
#240=VERTEX_POINT('',#812);
#241=VERTEX_POINT('',#814);
#242=VERTEX_POINT('',#818);
#243=VERTEX_POINT('',#820);
#244=VERTEX_POINT('',#824);
#245=VERTEX_POINT('',#825);
#246=VERTEX_POINT('',#827);
#247=VERTEX_POINT('',#829);
#248=VERTEX_POINT('',#840);
#249=VERTEX_POINT('',#842);
#250=VERTEX_POINT('',#852);
#251=VERTEX_POINT('',#853);
#252=VERTEX_POINT('',#855);
#253=VERTEX_POINT('',#857);
#254=VERTEX_POINT('',#859);
#255=VERTEX_POINT('',#861);
#256=VERTEX_POINT('',#863);
#257=VERTEX_POINT('',#865);
#258=VERTEX_POINT('',#869);
#259=VERTEX_POINT('',#871);
#260=VERTEX_POINT('',#875);
#261=VERTEX_POINT('',#879);
#262=VERTEX_POINT('',#885);
#263=VERTEX_POINT('',#886);
#264=VERTEX_POINT('',#891);
#265=VERTEX_POINT('',#895);
#266=EDGE_CURVE('',#224,#225,#122,.T.);
#267=EDGE_CURVE('',#224,#226,#106,.T.);
#268=EDGE_CURVE('',#227,#226,#123,.T.);
#269=EDGE_CURVE('',#225,#227,#107,.T.);
#270=EDGE_CURVE('',#225,#228,#124,.F.);
#271=EDGE_CURVE('',#229,#227,#125,.T.);
#272=EDGE_CURVE('',#228,#229,#108,.T.);
#273=EDGE_CURVE('',#228,#230,#126,.T.);
#274=EDGE_CURVE('',#231,#229,#127,.T.);
#275=EDGE_CURVE('',#230,#231,#109,.T.);
#276=EDGE_CURVE('',#230,#232,#128,.T.);
#277=EDGE_CURVE('',#233,#231,#129,.T.);
#278=EDGE_CURVE('',#232,#233,#110,.T.);
#279=EDGE_CURVE('',#232,#234,#130,.T.);
#280=EDGE_CURVE('',#235,#233,#131,.T.);
#281=EDGE_CURVE('',#234,#235,#111,.T.);
#282=EDGE_CURVE('',#234,#236,#132,.T.);
#283=EDGE_CURVE('',#236,#235,#133,.T.);
#284=EDGE_CURVE('',#237,#224,#134,.T.);
#285=EDGE_CURVE('',#226,#237,#135,.T.);
#286=EDGE_CURVE('',#236,#237,#136,.T.);
#287=EDGE_CURVE('',#238,#239,#137,.T.);
#288=EDGE_CURVE('',#237,#239,#112,.T.);
#289=EDGE_CURVE('',#238,#224,#113,.T.);
#290=EDGE_CURVE('',#230,#240,#138,.T.);
#291=EDGE_CURVE('',#240,#241,#139,.T.);
#292=EDGE_CURVE('',#241,#228,#140,.T.);
#293=EDGE_CURVE('',#238,#242,#141,.T.);
#294=EDGE_CURVE('',#242,#243,#142,.T.);
#295=EDGE_CURVE('',#239,#243,#143,.T.);
#296=EDGE_CURVE('',#244,#245,#144,.T.);
#297=EDGE_CURVE('',#245,#246,#145,.T.);
#298=EDGE_CURVE('',#247,#246,#146,.T.);
#299=EDGE_CURVE('',#244,#247,#147,.T.);
#300=EDGE_CURVE('',#243,#247,#114,.T.);
#301=EDGE_CURVE('',#246,#236,#115,.T.);
#302=EDGE_CURVE('',#244,#242,#116,.T.);
#303=EDGE_CURVE('',#234,#245,#117,.T.);
#304=EDGE_CURVE('',#241,#248,#148,.T.);
#305=EDGE_CURVE('',#249,#240,#149,.F.);
#306=EDGE_CURVE('',#248,#249,#150,.T.);
#307=EDGE_CURVE('',#225,#248,#151,.T.);
#308=EDGE_CURVE('',#249,#232,#152,.T.);
#309=EDGE_CURVE('',#250,#251,#153,.T.);
#310=EDGE_CURVE('',#252,#251,#154,.T.);
#311=EDGE_CURVE('',#253,#252,#155,.T.);
#312=EDGE_CURVE('',#254,#253,#156,.T.);
#313=EDGE_CURVE('',#255,#254,#157,.T.);
#314=EDGE_CURVE('',#256,#255,#158,.T.);
#315=EDGE_CURVE('',#257,#256,#159,.T.);
#316=EDGE_CURVE('',#250,#257,#160,.T.);
#317=EDGE_CURVE('',#253,#258,#118,.T.);
#318=EDGE_CURVE('',#258,#259,#161,.T.);
#319=EDGE_CURVE('',#259,#254,#119,.T.);
#320=EDGE_CURVE('',#260,#258,#162,.T.);
#321=EDGE_CURVE('',#252,#260,#120,.T.);
#322=EDGE_CURVE('',#260,#261,#163,.T.);
#323=EDGE_CURVE('',#261,#259,#164,.T.);
#324=EDGE_CURVE('',#261,#255,#121,.T.);
#325=EDGE_CURVE('',#262,#263,#165,.T.);
#326=EDGE_CURVE('',#257,#262,#166,.T.);
#327=EDGE_CURVE('',#263,#256,#167,.T.);
#328=EDGE_CURVE('',#251,#264,#168,.T.);
#329=EDGE_CURVE('',#264,#263,#169,.T.);
#330=EDGE_CURVE('',#264,#265,#170,.F.);
#331=EDGE_CURVE('',#265,#250,#171,.T.);
#332=EDGE_CURVE('',#262,#265,#172,.T.);
#333=ORIENTED_EDGE('',*,*,#266,.F.);
#334=ORIENTED_EDGE('',*,*,#267,.T.);
#335=ORIENTED_EDGE('',*,*,#268,.F.);
#336=ORIENTED_EDGE('',*,*,#269,.F.);
#337=ORIENTED_EDGE('',*,*,#270,.F.);
#338=ORIENTED_EDGE('',*,*,#269,.T.);
#339=ORIENTED_EDGE('',*,*,#271,.F.);
#340=ORIENTED_EDGE('',*,*,#272,.F.);
#341=ORIENTED_EDGE('',*,*,#273,.F.);
#342=ORIENTED_EDGE('',*,*,#272,.T.);
#343=ORIENTED_EDGE('',*,*,#274,.F.);
#344=ORIENTED_EDGE('',*,*,#275,.F.);
#345=ORIENTED_EDGE('',*,*,#276,.F.);
#346=ORIENTED_EDGE('',*,*,#275,.T.);
#347=ORIENTED_EDGE('',*,*,#277,.F.);
#348=ORIENTED_EDGE('',*,*,#278,.F.);
#349=ORIENTED_EDGE('',*,*,#279,.F.);
#350=ORIENTED_EDGE('',*,*,#278,.T.);
#351=ORIENTED_EDGE('',*,*,#280,.F.);
#352=ORIENTED_EDGE('',*,*,#281,.F.);
#353=ORIENTED_EDGE('',*,*,#282,.F.);
#354=ORIENTED_EDGE('',*,*,#281,.T.);
#355=ORIENTED_EDGE('',*,*,#283,.F.);
#356=ORIENTED_EDGE('',*,*,#284,.F.);
#357=ORIENTED_EDGE('',*,*,#285,.F.);
#358=ORIENTED_EDGE('',*,*,#267,.F.);
#359=ORIENTED_EDGE('',*,*,#285,.T.);
#360=ORIENTED_EDGE('',*,*,#286,.F.);
#361=ORIENTED_EDGE('',*,*,#283,.T.);
#362=ORIENTED_EDGE('',*,*,#280,.T.);
#363=ORIENTED_EDGE('',*,*,#277,.T.);
#364=ORIENTED_EDGE('',*,*,#274,.T.);
#365=ORIENTED_EDGE('',*,*,#271,.T.);
#366=ORIENTED_EDGE('',*,*,#268,.T.);
#367=ORIENTED_EDGE('',*,*,#287,.T.);
#368=ORIENTED_EDGE('',*,*,#288,.F.);
#369=ORIENTED_EDGE('',*,*,#284,.T.);
#370=ORIENTED_EDGE('',*,*,#289,.F.);
#371=ORIENTED_EDGE('',*,*,#273,.T.);
#372=ORIENTED_EDGE('',*,*,#290,.T.);
#373=ORIENTED_EDGE('',*,*,#291,.T.);
#374=ORIENTED_EDGE('',*,*,#292,.T.);
#375=ORIENTED_EDGE('',*,*,#293,.T.);
#376=ORIENTED_EDGE('',*,*,#294,.T.);
#377=ORIENTED_EDGE('',*,*,#295,.F.);
#378=ORIENTED_EDGE('',*,*,#287,.F.);
#379=ORIENTED_EDGE('',*,*,#296,.T.);
#380=ORIENTED_EDGE('',*,*,#297,.T.);
#381=ORIENTED_EDGE('',*,*,#298,.F.);
#382=ORIENTED_EDGE('',*,*,#299,.F.);
#383=ORIENTED_EDGE('',*,*,#286,.T.);
#384=ORIENTED_EDGE('',*,*,#288,.T.);
#385=ORIENTED_EDGE('',*,*,#295,.T.);
#386=ORIENTED_EDGE('',*,*,#300,.T.);
#387=ORIENTED_EDGE('',*,*,#298,.T.);
#388=ORIENTED_EDGE('',*,*,#301,.T.);
#389=ORIENTED_EDGE('',*,*,#302,.F.);
#390=ORIENTED_EDGE('',*,*,#299,.T.);
#391=ORIENTED_EDGE('',*,*,#300,.F.);
#392=ORIENTED_EDGE('',*,*,#294,.F.);
#393=ORIENTED_EDGE('',*,*,#303,.F.);
#394=ORIENTED_EDGE('',*,*,#282,.T.);
#395=ORIENTED_EDGE('',*,*,#301,.F.);
#396=ORIENTED_EDGE('',*,*,#297,.F.);
#397=ORIENTED_EDGE('',*,*,#304,.F.);
#398=ORIENTED_EDGE('',*,*,#291,.F.);
#399=ORIENTED_EDGE('',*,*,#305,.F.);
#400=ORIENTED_EDGE('',*,*,#306,.F.);
#401=ORIENTED_EDGE('',*,*,#279,.T.);
#402=ORIENTED_EDGE('',*,*,#303,.T.);
#403=ORIENTED_EDGE('',*,*,#296,.F.);
#404=ORIENTED_EDGE('',*,*,#302,.T.);
#405=ORIENTED_EDGE('',*,*,#293,.F.);
#406=ORIENTED_EDGE('',*,*,#289,.T.);
#407=ORIENTED_EDGE('',*,*,#266,.T.);
#408=ORIENTED_EDGE('',*,*,#307,.T.);
#409=ORIENTED_EDGE('',*,*,#306,.T.);
#410=ORIENTED_EDGE('',*,*,#308,.T.);
#411=ORIENTED_EDGE('',*,*,#270,.T.);
#412=ORIENTED_EDGE('',*,*,#292,.F.);
#413=ORIENTED_EDGE('',*,*,#304,.T.);
#414=ORIENTED_EDGE('',*,*,#307,.F.);
#415=ORIENTED_EDGE('',*,*,#276,.T.);
#416=ORIENTED_EDGE('',*,*,#308,.F.);
#417=ORIENTED_EDGE('',*,*,#305,.T.);
#418=ORIENTED_EDGE('',*,*,#290,.F.);
#419=ORIENTED_EDGE('',*,*,#309,.T.);
#420=ORIENTED_EDGE('',*,*,#310,.F.);
#421=ORIENTED_EDGE('',*,*,#311,.F.);
#422=ORIENTED_EDGE('',*,*,#312,.F.);
#423=ORIENTED_EDGE('',*,*,#313,.F.);
#424=ORIENTED_EDGE('',*,*,#314,.F.);
#425=ORIENTED_EDGE('',*,*,#315,.F.);
#426=ORIENTED_EDGE('',*,*,#316,.F.);
#427=ORIENTED_EDGE('',*,*,#312,.T.);
#428=ORIENTED_EDGE('',*,*,#317,.T.);
#429=ORIENTED_EDGE('',*,*,#318,.T.);
#430=ORIENTED_EDGE('',*,*,#319,.T.);
#431=ORIENTED_EDGE('',*,*,#320,.T.);
#432=ORIENTED_EDGE('',*,*,#317,.F.);
#433=ORIENTED_EDGE('',*,*,#311,.T.);
#434=ORIENTED_EDGE('',*,*,#321,.T.);
#435=ORIENTED_EDGE('',*,*,#322,.T.);
#436=ORIENTED_EDGE('',*,*,#323,.T.);
#437=ORIENTED_EDGE('',*,*,#318,.F.);
#438=ORIENTED_EDGE('',*,*,#320,.F.);
#439=ORIENTED_EDGE('',*,*,#324,.T.);
#440=ORIENTED_EDGE('',*,*,#313,.T.);
#441=ORIENTED_EDGE('',*,*,#319,.F.);
#442=ORIENTED_EDGE('',*,*,#323,.F.);
#443=ORIENTED_EDGE('',*,*,#325,.F.);
#444=ORIENTED_EDGE('',*,*,#326,.F.);
#445=ORIENTED_EDGE('',*,*,#315,.T.);
#446=ORIENTED_EDGE('',*,*,#327,.F.);
#447=ORIENTED_EDGE('',*,*,#314,.T.);
#448=ORIENTED_EDGE('',*,*,#324,.F.);
#449=ORIENTED_EDGE('',*,*,#322,.F.);
#450=ORIENTED_EDGE('',*,*,#321,.F.);
#451=ORIENTED_EDGE('',*,*,#310,.T.);
#452=ORIENTED_EDGE('',*,*,#328,.T.);
#453=ORIENTED_EDGE('',*,*,#329,.T.);
#454=ORIENTED_EDGE('',*,*,#327,.T.);
#455=ORIENTED_EDGE('',*,*,#330,.F.);
#456=ORIENTED_EDGE('',*,*,#328,.F.);
#457=ORIENTED_EDGE('',*,*,#309,.F.);
#458=ORIENTED_EDGE('',*,*,#331,.F.);
#459=ORIENTED_EDGE('',*,*,#316,.T.);
#460=ORIENTED_EDGE('',*,*,#326,.T.);
#461=ORIENTED_EDGE('',*,*,#332,.T.);
#462=ORIENTED_EDGE('',*,*,#331,.T.);
#463=ORIENTED_EDGE('',*,*,#330,.T.);
#464=ORIENTED_EDGE('',*,*,#332,.F.);
#465=ORIENTED_EDGE('',*,*,#325,.T.);
#466=ORIENTED_EDGE('',*,*,#329,.F.);
#467=CYLINDRICAL_SURFACE('',#561,5.5);
#468=CYLINDRICAL_SURFACE('',#566,1.);
#469=CYLINDRICAL_SURFACE('',#570,5.5);
#470=CYLINDRICAL_SURFACE('',#575,5.);
#471=CYLINDRICAL_SURFACE('',#584,5.);
#472=CYLINDRICAL_SURFACE('',#586,5.);
#473=CYLINDRICAL_SURFACE('',#597,5.);
#474=CYLINDRICAL_SURFACE('',#600,5.);
#475=ADVANCED_FACE('',(#48),#467,.T.);
#476=ADVANCED_FACE('',(#49),#27,.T.);
#477=ADVANCED_FACE('',(#50),#468,.T.);
#478=ADVANCED_FACE('',(#51),#28,.T.);
#479=ADVANCED_FACE('',(#52),#469,.T.);
#480=ADVANCED_FACE('',(#53),#29,.T.);
#481=ADVANCED_FACE('',(#54),#30,.T.);
#482=ADVANCED_FACE('',(#55),#31,.T.);
#483=ADVANCED_FACE('',(#56),#470,.T.);
#484=ADVANCED_FACE('',(#57),#32,.T.);
#485=ADVANCED_FACE('',(#58),#33,.T.);
#486=ADVANCED_FACE('',(#59),#34,.T.);
#487=ADVANCED_FACE('',(#60),#35,.T.);
#488=ADVANCED_FACE('',(#61),#471,.T.);
#489=ADVANCED_FACE('',(#62),#472,.T.);
#490=ADVANCED_FACE('',(#63),#36,.T.);
#491=ADVANCED_FACE('',(#64),#37,.T.);
#492=ADVANCED_FACE('',(#65),#38,.F.);
#493=ADVANCED_FACE('',(#66),#39,.F.);
#494=ADVANCED_FACE('',(#67),#40,.F.);
#495=ADVANCED_FACE('',(#68),#41,.T.);
#496=ADVANCED_FACE('',(#69),#473,.T.);
#497=ADVANCED_FACE('',(#70),#42,.T.);
#498=ADVANCED_FACE('',(#71),#474,.T.);
#499=ADVANCED_FACE('',(#72),#43,.T.);
#500=ADVANCED_FACE('',(#73),#44,.T.);
#501=ADVANCED_FACE('',(#74),#45,.T.);
#502=ADVANCED_FACE('',(#75),#46,.T.);
#503=ADVANCED_FACE('',(#76),#47,.F.);
#504=CLOSED_SHELL('',(#475,#476,#477,#478,#479,#480,#481,#482,#483,#484,
#485,#486,#487,#488,#489,#490,#491,#492,#493));
#505=CLOSED_SHELL('',(#494,#495,#496,#497,#498,#499,#500,#501,#502,#503));
#506=DERIVED_UNIT_ELEMENT(#511,1.);
#507=DERIVED_UNIT_ELEMENT(#912,-3.);
#508=DERIVED_UNIT_ELEMENT(#511,1.);
#509=DERIVED_UNIT_ELEMENT(#912,-3.);
#510=DIMENSIONAL_EXPONENTS(0.,1.,0.,0.,0.,0.,0.);
#511=(
CONVERSION_BASED_UNIT('gram',#513)
MASS_UNIT()
NAMED_UNIT(#510)
);
#512=(
MASS_UNIT()
NAMED_UNIT(*)
SI_UNIT(.KILO.,.GRAM.)
);
#513=MASS_MEASURE_WITH_UNIT(MASS_MEASURE(0.001),#512);
#514=DERIVED_UNIT((#506,#507));
#515=DERIVED_UNIT((#508,#509));
#516=MEASURE_REPRESENTATION_ITEM('density measure',
POSITIVE_RATIO_MEASURE(1.),#514);
#517=MEASURE_REPRESENTATION_ITEM('density measure',
POSITIVE_RATIO_MEASURE(1.),#515);
#518=PROPERTY_DEFINITION_REPRESENTATION(#528,#522);
#519=PROPERTY_DEFINITION_REPRESENTATION(#529,#523);
#520=PROPERTY_DEFINITION_REPRESENTATION(#530,#524);
#521=PROPERTY_DEFINITION_REPRESENTATION(#531,#525);
#522=REPRESENTATION('material name',(#526),#908);
#523=REPRESENTATION('density',(#516),#908);
#524=REPRESENTATION('material name',(#527),#909);
#525=REPRESENTATION('density',(#517),#909);
#526=DESCRIPTIVE_REPRESENTATION_ITEM('Generic','Generic');
#527=DESCRIPTIVE_REPRESENTATION_ITEM('Generic','Generic');
#528=PROPERTY_DEFINITION('material property','material name',#928);
#529=PROPERTY_DEFINITION('material property','density of part',#928);
#530=PROPERTY_DEFINITION('material property','material name',#929);
#531=PROPERTY_DEFINITION('material property','density of part',#929);
#532=PRESENTATION_STYLE_ASSIGNMENT((#533));
#533=SURFACE_STYLE_USAGE(.BOTH.,#536);
#534=SURFACE_STYLE_RENDERING_WITH_PROPERTIES($,#540,(#535));
#535=SURFACE_STYLE_TRANSPARENT(0.);
#536=SURFACE_SIDE_STYLE('',(#537,#534));
#537=SURFACE_STYLE_FILL_AREA(#538);
#538=FILL_AREA_STYLE('',(#539));
#539=FILL_AREA_STYLE_COLOUR('',#540);
#540=COLOUR_RGB('',0.749019607843137,0.749019607843137,0.749019607843137);
#541=DATE_TIME_ROLE('creation_date');
#542=DATE_TIME_ROLE('creation_date');
#543=DATE_TIME_ROLE('creation_date');
#544=APPLIED_DATE_AND_TIME_ASSIGNMENT(#547,#541,(#927));
#545=APPLIED_DATE_AND_TIME_ASSIGNMENT(#548,#542,(#928));
#546=APPLIED_DATE_AND_TIME_ASSIGNMENT(#549,#543,(#929));
#547=DATE_AND_TIME(#550,#553);
#548=DATE_AND_TIME(#551,#554);
#549=DATE_AND_TIME(#552,#555);
#550=CALENDAR_DATE(2026,17,6);
#551=CALENDAR_DATE(2025,2,11);
#552=CALENDAR_DATE(2025,2,11);
#553=LOCAL_TIME(0,0,0.,#556);
#554=LOCAL_TIME(0,0,0.,#557);
#555=LOCAL_TIME(0,0,0.,#558);
#556=COORDINATED_UNIVERSAL_TIME_OFFSET(0,0,.BEHIND.);
#557=COORDINATED_UNIVERSAL_TIME_OFFSET(0,0,.BEHIND.);
#558=COORDINATED_UNIVERSAL_TIME_OFFSET(0,0,.BEHIND.);
#559=AXIS2_PLACEMENT_3D('',#760,#609,#610);
#560=AXIS2_PLACEMENT_3D('',#761,#611,#612);
#561=AXIS2_PLACEMENT_3D('',#762,#613,#614);
#562=AXIS2_PLACEMENT_3D('',#767,#616,#617);
#563=AXIS2_PLACEMENT_3D('',#770,#619,#620);
#564=AXIS2_PLACEMENT_3D('',#771,#621,#622);
#565=AXIS2_PLACEMENT_3D('',#776,#625,#626);
#566=AXIS2_PLACEMENT_3D('',#777,#627,#628);
#567=AXIS2_PLACEMENT_3D('',#782,#631,#632);
#568=AXIS2_PLACEMENT_3D('',#783,#633,#634);
#569=AXIS2_PLACEMENT_3D('',#788,#637,#638);
#570=AXIS2_PLACEMENT_3D('',#789,#639,#640);
#571=AXIS2_PLACEMENT_3D('',#794,#643,#644);
#572=AXIS2_PLACEMENT_3D('',#795,#645,#646);
#573=AXIS2_PLACEMENT_3D('',#799,#649,#650);
#574=AXIS2_PLACEMENT_3D('',#803,#653,#654);
#575=AXIS2_PLACEMENT_3D('',#805,#656,#657);
#576=AXIS2_PLACEMENT_3D('',#809,#659,#660);
#577=AXIS2_PLACEMENT_3D('',#810,#661,#662);
#578=AXIS2_PLACEMENT_3D('',#811,#663,#664);
#579=AXIS2_PLACEMENT_3D('',#817,#668,#669);
#580=AXIS2_PLACEMENT_3D('',#823,#673,#674);
#581=AXIS2_PLACEMENT_3D('',#832,#679,#680);
#582=AXIS2_PLACEMENT_3D('',#833,#681,#682);
#583=AXIS2_PLACEMENT_3D('',#834,#683,#684);
#584=AXIS2_PLACEMENT_3D('',#835,#685,#686);
#585=AXIS2_PLACEMENT_3D('',#836,#687,#688);
#586=AXIS2_PLACEMENT_3D('',#837,#689,#690);
#587=AXIS2_PLACEMENT_3D('',#838,#691,#692);
#588=AXIS2_PLACEMENT_3D('',#839,#693,#694);
#589=AXIS2_PLACEMENT_3D('',#845,#698,#699);
#590=AXIS2_PLACEMENT_3D('',#848,#702,#703);
#591=AXIS2_PLACEMENT_3D('',#849,#704,#705);
#592=AXIS2_PLACEMENT_3D('',#850,#706,#707);
#593=AXIS2_PLACEMENT_3D('',#851,#708,#709);
#594=AXIS2_PLACEMENT_3D('',#868,#718,#719);
#595=AXIS2_PLACEMENT_3D('',#870,#720,#721);
#596=AXIS2_PLACEMENT_3D('',#873,#723,#724);
#597=AXIS2_PLACEMENT_3D('',#874,#725,#726);
#598=AXIS2_PLACEMENT_3D('',#877,#728,#729);
#599=AXIS2_PLACEMENT_3D('',#878,#730,#731);
#600=AXIS2_PLACEMENT_3D('',#882,#734,#735);
#601=AXIS2_PLACEMENT_3D('',#883,#736,#737);
#602=AXIS2_PLACEMENT_3D('',#884,#738,#739);
#603=AXIS2_PLACEMENT_3D('',#890,#743,#744);
#604=AXIS2_PLACEMENT_3D('',#894,#747,#748);
#605=AXIS2_PLACEMENT_3D('',#898,#751,#752);
#606=AXIS2_PLACEMENT_3D('',#900,#754,#755);
#607=AXIS2_PLACEMENT_3D('',#901,#756,#757);
#608=AXIS2_PLACEMENT_3D('',#902,#758,#759);
#609=DIRECTION('axis',(0.,0.,1.));
#610=DIRECTION('refdir',(1.,0.,0.));
#611=DIRECTION('axis',(0.,0.,1.));
#612=DIRECTION('refdir',(1.,0.,0.));
#613=DIRECTION('center_axis',(1.,0.,0.));
#614=DIRECTION('ref_axis',(0.,0.,-1.));
#615=DIRECTION('',(1.,0.,0.));
#616=DIRECTION('center_axis',(1.,0.,0.));
#617=DIRECTION('ref_axis',(0.,-8.57899609937621E-16,-1.));
#618=DIRECTION('',(-1.,0.,0.));
#619=DIRECTION('center_axis',(1.,0.,0.));
#620=DIRECTION('ref_axis',(0.,-8.57899609937621E-16,-1.));
#621=DIRECTION('center_axis',(1.,0.,0.));
#622=DIRECTION('ref_axis',(0.,0.,-1.));
#623=DIRECTION('',(0.,0.,-1.));
#624=DIRECTION('',(-1.2335811384724E-15,0.707106781186548,-0.707106781186547));
#625=DIRECTION('center_axis',(1.,0.,0.));
#626=DIRECTION('ref_axis',(0.,0.,-1.));
#627=DIRECTION('center_axis',(1.,0.,0.));
#628=DIRECTION('ref_axis',(0.,0.,-1.));
#629=DIRECTION('',(1.,0.,0.));
#630=DIRECTION('',(-1.,0.,0.));
#631=DIRECTION('center_axis',(1.,0.,0.));
#632=DIRECTION('ref_axis',(0.,0.,-1.));
#633=DIRECTION('center_axis',(-1.,0.,0.));
#634=DIRECTION('ref_axis',(0.,0.,1.));
#635=DIRECTION('',(0.,0.,-1.));
#636=DIRECTION('',(0.,-0.707106781186548,0.707106781186547));
#637=DIRECTION('center_axis',(1.,0.,0.));
#638=DIRECTION('ref_axis',(0.,-8.57899609937621E-16,-1.));
#639=DIRECTION('center_axis',(1.,0.,0.));
#640=DIRECTION('ref_axis',(0.,0.,-1.));
#641=DIRECTION('',(1.,0.,0.));
#642=DIRECTION('',(-1.,0.,0.));
#643=DIRECTION('center_axis',(1.,0.,0.));
#644=DIRECTION('ref_axis',(0.,-8.57899609937621E-16,-1.));
#645=DIRECTION('center_axis',(1.,0.,0.));
#646=DIRECTION('ref_axis',(0.,0.,-1.));
#647=DIRECTION('',(0.,0.,1.));
#648=DIRECTION('',(0.,0.707106781186548,-0.707106781186547));
#649=DIRECTION('center_axis',(-1.,0.,0.));
#650=DIRECTION('ref_axis',(0.,0.,1.));
#651=DIRECTION('',(0.,0.,-1.));
#652=DIRECTION('',(0.,-0.707106781186548,0.707106781186547));
#653=DIRECTION('center_axis',(0.,0.707106781186547,0.707106781186548));
#654=DIRECTION('ref_axis',(0.,-0.707106781186548,0.707106781186547));
#655=DIRECTION('',(-1.,0.,0.));
#656=DIRECTION('center_axis',(0.,0.,-1.));
#657=DIRECTION('ref_axis',(-0.499999999999998,0.86602540378444,0.));
#658=DIRECTION('',(0.,0.,1.));
#659=DIRECTION('center_axis',(0.,0.,1.));
#660=DIRECTION('ref_axis',(-0.499999999999998,0.86602540378444,0.));
#661=DIRECTION('center_axis',(0.,0.,-1.));
#662=DIRECTION('ref_axis',(-0.499999999999998,0.86602540378444,0.));
#663=DIRECTION('center_axis',(0.,0.,-1.));
#664=DIRECTION('ref_axis',(-1.,0.,0.));
#665=DIRECTION('',(-0.5,-0.866025403784438,0.));
#666=DIRECTION('',(-1.,-6.86706805469099E-15,0.));
#667=DIRECTION('',(-0.5,0.866025403784439,0.));
#668=DIRECTION('center_axis',(-0.866025403784439,-0.5,0.));
#669=DIRECTION('ref_axis',(0.5,-0.866025403784439,0.));
#670=DIRECTION('',(0.5,-0.866025403784439,0.));
#671=DIRECTION('',(0.,0.,1.));
#672=DIRECTION('',(0.5,-0.866025403784439,0.));
#673=DIRECTION('center_axis',(0.866025403784439,-0.5,0.));
#674=DIRECTION('ref_axis',(0.5,0.866025403784438,0.));
#675=DIRECTION('',(0.5,0.866025403784438,0.));
#676=DIRECTION('',(0.,0.,1.));
#677=DIRECTION('',(0.5,0.866025403784438,0.));
#678=DIRECTION('',(0.,0.,1.));
#679=DIRECTION('center_axis',(0.,0.,1.));
#680=DIRECTION('ref_axis',(1.,0.,0.));
#681=DIRECTION('center_axis',(0.,0.,1.));
#682=DIRECTION('ref_axis',(-0.499999999999998,-0.86602540378444,0.));
#683=DIRECTION('center_axis',(0.,0.,1.));
#684=DIRECTION('ref_axis',(1.,0.,0.));
#685=DIRECTION('center_axis',(0.,0.,-1.));
#686=DIRECTION('ref_axis',(-0.499999999999998,-0.86602540378444,0.));
#687=DIRECTION('center_axis',(0.,0.,-1.));
#688=DIRECTION('ref_axis',(-0.499999999999998,-0.86602540378444,0.));
#689=DIRECTION('center_axis',(0.,0.,-1.));
#690=DIRECTION('ref_axis',(1.,0.,0.));
#691=DIRECTION('center_axis',(0.,0.,-1.));
#692=DIRECTION('ref_axis',(1.,0.,0.));
#693=DIRECTION('center_axis',(-6.86706805469099E-15,1.,0.));
#694=DIRECTION('ref_axis',(1.,6.86706805469099E-15,0.));
#695=DIRECTION('',(0.,0.,-1.));
#696=DIRECTION('',(0.,0.,-1.));
#697=DIRECTION('',(1.,6.86706805469099E-15,0.));
#698=DIRECTION('center_axis',(0.,0.,-1.));
#699=DIRECTION('ref_axis',(-1.,0.,0.));
#700=DIRECTION('',(0.5,-0.866025403784439,0.));
#701=DIRECTION('',(0.5,0.866025403784438,0.));
#702=DIRECTION('center_axis',(-0.866025403784439,-0.5,0.));
#703=DIRECTION('ref_axis',(-0.5,0.866025403784439,0.));
#704=DIRECTION('center_axis',(0.866025403784438,-0.5,0.));
#705=DIRECTION('ref_axis',(-0.5,-0.866025403784438,0.));
#706=DIRECTION('axis',(0.,0.,1.));
#707=DIRECTION('refdir',(1.,0.,0.));
#708=DIRECTION('center_axis',(0.,1.,0.));
#709=DIRECTION('ref_axis',(0.,0.,1.));
#710=DIRECTION('',(0.,0.,-1.));
#711=DIRECTION('',(-1.,0.,0.));
#712=DIRECTION('',(0.,0.,-1.));
#713=DIRECTION('',(1.,0.,0.));
#714=DIRECTION('',(0.,0.,1.));
#715=DIRECTION('',(-1.,0.,0.));
#716=DIRECTION('',(0.,0.,-1.));
#717=DIRECTION('',(-1.,0.,0.));
#718=DIRECTION('center_axis',(0.,0.,1.));
#719=DIRECTION('ref_axis',(1.,0.,0.));
#720=DIRECTION('center_axis',(0.,0.,1.));
#721=DIRECTION('ref_axis',(1.,0.,0.));
#722=DIRECTION('',(-1.,-4.44089209850063E-16,0.));
#723=DIRECTION('center_axis',(0.,0.,1.));
#724=DIRECTION('ref_axis',(-0.499999999999998,0.86602540378444,0.));
#725=DIRECTION('center_axis',(0.,0.,-1.));
#726=DIRECTION('ref_axis',(1.,0.,0.));
#727=DIRECTION('',(0.,0.,1.));
#728=DIRECTION('center_axis',(0.,0.,1.));
#729=DIRECTION('ref_axis',(1.,0.,0.));
#730=DIRECTION('center_axis',(-4.44089209850063E-16,1.,0.));
#731=DIRECTION('ref_axis',(-1.,-4.44089209850063E-16,0.));
#732=DIRECTION('',(-1.,-4.44089209850063E-16,0.));
#733=DIRECTION('',(0.,0.,1.));
#734=DIRECTION('center_axis',(0.,0.,-1.));
#735=DIRECTION('ref_axis',(-0.499999999999998,0.86602540378444,0.));
#736=DIRECTION('center_axis',(0.,0.,1.));
#737=DIRECTION('ref_axis',(-0.499999999999998,0.86602540378444,0.));
#738=DIRECTION('center_axis',(0.866025403784438,-0.500000000000001,0.));
#739=DIRECTION('ref_axis',(-0.500000000000001,-0.866025403784438,0.));
#740=DIRECTION('',(0.,0.,-1.));
#741=DIRECTION('',(0.500000000000001,0.866025403784438,0.));
#742=DIRECTION('',(-0.500000000000001,-0.866025403784438,0.));
#743=DIRECTION('center_axis',(0.,0.,-1.));
#744=DIRECTION('ref_axis',(-1.,0.,0.));
#745=DIRECTION('',(-0.500000000000002,0.866025403784437,0.));
#746=DIRECTION('',(-1.,-1.11022302462516E-16,0.));
#747=DIRECTION('center_axis',(-0.866025403784437,-0.500000000000002,0.));
#748=DIRECTION('ref_axis',(-0.500000000000002,0.866025403784437,0.));
#749=DIRECTION('',(0.,0.,-1.));
#750=DIRECTION('',(0.500000000000002,-0.866025403784437,0.));
#751=DIRECTION('center_axis',(0.,0.,-1.));
#752=DIRECTION('ref_axis',(-1.,0.,0.));
#753=DIRECTION('',(1.,1.11022302462516E-16,0.));
#754=DIRECTION('center_axis',(-1.11022302462516E-16,1.,0.));
#755=DIRECTION('ref_axis',(1.,1.11022302462516E-16,0.));
#756=DIRECTION('',(0.,0.,1.));
#757=DIRECTION('',(1.,0.,0.));
#758=DIRECTION('',(-6.10622663543836E-16,-0.707106781186547,0.707106781186548));
#759=DIRECTION('',(1.,-4.31775426138038E-16,4.31775426138038E-16));
#760=CARTESIAN_POINT('',(0.,0.,0.));
#761=CARTESIAN_POINT('',(0.,0.,0.));
#762=CARTESIAN_POINT('Origin',(-4.08346433899874,1.,0.5));
#763=CARTESIAN_POINT('',(-4.89897948556636,1.,-5.));
#764=CARTESIAN_POINT('',(-3.26794919243112,0.999999999999999,-5.));
#765=CARTESIAN_POINT('',(-0.241025403784438,1.,-5.));
#766=CARTESIAN_POINT('',(-4.89897948556636,4.88908729652601,-3.38908729652601));
#767=CARTESIAN_POINT('Origin',(-4.89897948556636,1.00000000000001,0.499999999999997));
#768=CARTESIAN_POINT('',(-3.26794919243113,4.88908729652601,-3.38908729652601));
#769=CARTESIAN_POINT('',(-3.26794919243113,4.88908729652601,-3.38908729652601));
#770=CARTESIAN_POINT('Origin',(-3.26794919243113,1.00000000000001,0.499999999999997));
#771=CARTESIAN_POINT('Origin',(-3.26794919243112,1.,-0.5));
#772=CARTESIAN_POINT('',(-3.26794919243112,0.999999999999999,-0.5));
#773=CARTESIAN_POINT('',(-3.26794919243112,0.999999999999999,0.));
#774=CARTESIAN_POINT('',(-3.26794919243112,1.70710678118655,-0.207106781186548));
#775=CARTESIAN_POINT('',(-3.26794919243112,1.70710678118655,-0.207106781186548));
#776=CARTESIAN_POINT('Origin',(-3.26794919243112,1.,0.500000000000002));
#777=CARTESIAN_POINT('Origin',(1.66533453693773E-15,1.,0.5));
#778=CARTESIAN_POINT('',(3.26794919243112,1.,-0.5));
#779=CARTESIAN_POINT('',(1.63397459621556,1.,-0.5));
#780=CARTESIAN_POINT('',(3.26794919243112,1.70710678118655,-0.207106781186548));
#781=CARTESIAN_POINT('',(3.26794919243112,1.70710678118655,-0.207106781186548));
#782=CARTESIAN_POINT('Origin',(3.26794919243112,1.,0.500000000000002));
#783=CARTESIAN_POINT('Origin',(3.26794919243112,1.,-5.));
#784=CARTESIAN_POINT('',(3.26794919243112,1.,-5.));
#785=CARTESIAN_POINT('',(3.26794919243112,1.,-0.5));
#786=CARTESIAN_POINT('',(3.26794919243112,4.88908729652601,-3.38908729652601));
#787=CARTESIAN_POINT('',(3.26794919243112,4.88908729652601,-3.38908729652601));
#788=CARTESIAN_POINT('Origin',(3.26794919243112,1.00000000000001,0.499999999999997));
#789=CARTESIAN_POINT('Origin',(4.08346433899874,1.,0.5));
#790=CARTESIAN_POINT('',(4.89897948556636,1.,-5.));
#791=CARTESIAN_POINT('',(3.50897459621556,1.,-5.));
#792=CARTESIAN_POINT('',(4.89897948556636,4.88908729652601,-3.38908729652601));
#793=CARTESIAN_POINT('',(4.89897948556636,4.88908729652601,-3.38908729652601));
#794=CARTESIAN_POINT('Origin',(4.89897948556636,1.00000000000001,0.499999999999997));
#795=CARTESIAN_POINT('Origin',(4.89897948556636,1.,0.5));
#796=CARTESIAN_POINT('',(4.89897948556636,1.,0.5));
#797=CARTESIAN_POINT('',(4.89897948556636,1.,0.));
#798=CARTESIAN_POINT('',(4.89897948556636,1.,0.5));
#799=CARTESIAN_POINT('Origin',(-4.89897948556636,1.,-5.));
#800=CARTESIAN_POINT('',(-4.89897948556636,1.,0.5));
#801=CARTESIAN_POINT('',(-4.89897948556636,1.,0.));
#802=CARTESIAN_POINT('',(-4.89897948556636,4.88908729652601,-3.38908729652601));
#803=CARTESIAN_POINT('Origin',(0.,2.94454364826301,-1.44454364826301));
#804=CARTESIAN_POINT('',(1.63397459621556,1.,0.5));
#805=CARTESIAN_POINT('Origin',(0.,0.,0.));
#806=CARTESIAN_POINT('',(-5.,-1.71114886412002E-15,-5.));
#807=CARTESIAN_POINT('',(-5.,-5.55111512312578E-16,0.5));
#808=CARTESIAN_POINT('',(-5.,-8.12739661758407E-16,0.));
#809=CARTESIAN_POINT('Origin',(0.,0.,0.5));
#810=CARTESIAN_POINT('Origin',(0.,0.,-5.));
#811=CARTESIAN_POINT('Origin',(5.55111512312578E-16,5.55111512312578E-16,
-0.5));
#812=CARTESIAN_POINT('',(0.767949192431122,-3.33012701892219,-0.5));
#813=CARTESIAN_POINT('',(0.767949192431122,-3.33012701892219,-0.5));
#814=CARTESIAN_POINT('',(-0.767949192431122,-3.3301270189222,-0.5));
#815=CARTESIAN_POINT('',(-0.383974596215549,-3.33012701892219,-0.5));
#816=CARTESIAN_POINT('',(-3.26794919243112,0.999999999999999,-0.5));
#817=CARTESIAN_POINT('Origin',(-5.,-7.4833262439695E-16,0.));
#818=CARTESIAN_POINT('',(-2.5,-4.33012701892219,-5.));
#819=CARTESIAN_POINT('',(-5.,-5.55111512312578E-16,-5.));
#820=CARTESIAN_POINT('',(-2.5,-4.33012701892219,0.5));
#821=CARTESIAN_POINT('',(-2.5,-4.33012701892219,0.));
#822=CARTESIAN_POINT('',(-5.,-5.55111512312578E-16,0.5));
#823=CARTESIAN_POINT('Origin',(2.5,-4.33012701892219,0.));
#824=CARTESIAN_POINT('',(2.5,-4.33012701892219,-5.));
#825=CARTESIAN_POINT('',(5.,-1.8884470590878E-15,-5.));
#826=CARTESIAN_POINT('',(2.5,-4.33012701892219,-5.));
#827=CARTESIAN_POINT('',(5.,-1.66533453693773E-15,0.5));
#828=CARTESIAN_POINT('',(5.,-1.83400382508157E-15,0.));
#829=CARTESIAN_POINT('',(2.5,-4.33012701892219,0.5));
#830=CARTESIAN_POINT('',(2.5,-4.33012701892219,0.5));
#831=CARTESIAN_POINT('',(2.5,-4.33012701892219,0.));
#832=CARTESIAN_POINT('Origin',(5.55111512312578E-16,5.55111512312578E-16,
0.5));
#833=CARTESIAN_POINT('Origin',(0.,0.,0.5));
#834=CARTESIAN_POINT('Origin',(0.,0.,0.5));
#835=CARTESIAN_POINT('Origin',(0.,0.,0.));
#836=CARTESIAN_POINT('Origin',(0.,0.,-5.));
#837=CARTESIAN_POINT('Origin',(0.,0.,0.));
#838=CARTESIAN_POINT('Origin',(0.,0.,-5.));
#839=CARTESIAN_POINT('Origin',(-0.767949192431122,-3.3301270189222,-0.5));
#840=CARTESIAN_POINT('',(-0.767949192431122,-3.3301270189222,-5.));
#841=CARTESIAN_POINT('',(-0.767949192431122,-3.3301270189222,-0.5));
#842=CARTESIAN_POINT('',(0.767949192431122,-3.33012701892219,-5.));
#843=CARTESIAN_POINT('',(0.767949192431122,-3.33012701892219,0.));
#844=CARTESIAN_POINT('',(-0.767949192431122,-3.3301270189222,-5.));
#845=CARTESIAN_POINT('Origin',(3.75,2.1650635094611,-5.));
#846=CARTESIAN_POINT('',(-3.26794919243112,0.999999999999999,-5.));
#847=CARTESIAN_POINT('',(0.767949192431122,-3.33012701892219,-5.));
#848=CARTESIAN_POINT('Origin',(-0.767949192431121,-3.3301270189222,0.));
#849=CARTESIAN_POINT('Origin',(3.26794919243113,1.,0.));
#850=CARTESIAN_POINT('',(0.,0.,0.));
#851=CARTESIAN_POINT('Origin',(3.26794919243112,1.,-5.));
#852=CARTESIAN_POINT('',(3.26794919243112,1.,-0.5));
#853=CARTESIAN_POINT('',(3.26794919243112,1.,-5.));
#854=CARTESIAN_POINT('',(3.26794919243112,1.,-0.5));
#855=CARTESIAN_POINT('',(4.89897948556636,1.,-5.));
#856=CARTESIAN_POINT('',(3.50897459621556,1.,-5.));
#857=CARTESIAN_POINT('',(4.89897948556636,1.,0.5));
#858=CARTESIAN_POINT('',(4.89897948556636,1.,0.));
#859=CARTESIAN_POINT('',(-4.89897948556636,1.,0.5));
#860=CARTESIAN_POINT('',(1.63397459621556,1.,0.5));
#861=CARTESIAN_POINT('',(-4.89897948556636,1.,-5.));
#862=CARTESIAN_POINT('',(-4.89897948556636,1.,0.));
#863=CARTESIAN_POINT('',(-3.26794919243113,1.,-5.));
#864=CARTESIAN_POINT('',(-0.241025403784438,1.,-5.));
#865=CARTESIAN_POINT('',(-3.26794919243112,0.999999999999999,-0.5));
#866=CARTESIAN_POINT('',(-3.26794919243113,1.,-0.5));
#867=CARTESIAN_POINT('',(1.63397459621556,1.,-0.5));
#868=CARTESIAN_POINT('Origin',(5.55111512312578E-16,5.55111512312578E-16,
0.5));
#869=CARTESIAN_POINT('',(2.5,4.3301270189222,0.5));
#870=CARTESIAN_POINT('Origin',(0.,0.,0.5));
#871=CARTESIAN_POINT('',(-2.5,4.33012701892219,0.5));
#872=CARTESIAN_POINT('',(2.5,4.3301270189222,0.5));
#873=CARTESIAN_POINT('Origin',(0.,0.,0.5));
#874=CARTESIAN_POINT('Origin',(0.,0.,0.));
#875=CARTESIAN_POINT('',(2.5,4.3301270189222,-5.));
#876=CARTESIAN_POINT('',(2.5,4.3301270189222,0.));
#877=CARTESIAN_POINT('Origin',(0.,0.,-5.));
#878=CARTESIAN_POINT('Origin',(2.5,4.3301270189222,0.));
#879=CARTESIAN_POINT('',(-2.5,4.33012701892219,-5.));
#880=CARTESIAN_POINT('',(2.5,4.3301270189222,-5.));
#881=CARTESIAN_POINT('',(-2.5,4.33012701892219,0.));
#882=CARTESIAN_POINT('Origin',(0.,0.,0.));
#883=CARTESIAN_POINT('Origin',(0.,0.,-5.));
#884=CARTESIAN_POINT('Origin',(-2.5,2.33012701892219,-0.5));
#885=CARTESIAN_POINT('',(-2.5,2.33012701892219,-0.5));
#886=CARTESIAN_POINT('',(-2.5,2.33012701892219,-5.));
#887=CARTESIAN_POINT('',(-2.5,2.33012701892219,-0.5));
#888=CARTESIAN_POINT('',(-2.69198729810778,1.99759526419165,-0.5));
#889=CARTESIAN_POINT('',(-2.5,2.33012701892219,-5.));
#890=CARTESIAN_POINT('Origin',(-3.75,2.1650635094611,-5.));
#891=CARTESIAN_POINT('',(2.5,2.33012701892219,-5.));
#892=CARTESIAN_POINT('',(3.26794919243112,1.,-5.));
#893=CARTESIAN_POINT('',(2.5,2.33012701892219,-5.));
#894=CARTESIAN_POINT('Origin',(3.26794919243112,1.,-0.5));
#895=CARTESIAN_POINT('',(2.5,2.33012701892219,-0.5));
#896=CARTESIAN_POINT('',(2.5,2.33012701892219,0.));
#897=CARTESIAN_POINT('',(3.07596189432334,1.33253175473055,-0.5));
#898=CARTESIAN_POINT('Origin',(5.55111512312578E-16,5.55111512312578E-16,
-0.5));
#899=CARTESIAN_POINT('',(2.5,2.33012701892219,-0.5));
#900=CARTESIAN_POINT('Origin',(-2.5,2.33012701892219,0.));
#901=CARTESIAN_POINT('',(-21.2914063077933,-7.69778428943316,2.25));
#902=CARTESIAN_POINT('',(-21.2914063077933,-7.05133768002643,1.68933982822018));
#903=UNCERTAINTY_MEASURE_WITH_UNIT(LENGTH_MEASURE(0.01),#911,
'DISTANCE_ACCURACY_VALUE',
'Maximum model space distance between geometric entities at asserted c
onnectivities');
#904=UNCERTAINTY_MEASURE_WITH_UNIT(LENGTH_MEASURE(0.01),#911,
'DISTANCE_ACCURACY_VALUE',
'Maximum model space distance between geometric entities at asserted c
onnectivities');
#905=UNCERTAINTY_MEASURE_WITH_UNIT(LENGTH_MEASURE(0.01),#911,
'DISTANCE_ACCURACY_VALUE',
'Maximum model space distance between geometric entities at asserted c
onnectivities');
#906=UNCERTAINTY_MEASURE_WITH_UNIT(LENGTH_MEASURE(0.01),#911,
'DISTANCE_ACCURACY_VALUE',
'Maximum model space distance between geometric entities at asserted c
onnectivities');
#907=(
GEOMETRIC_REPRESENTATION_CONTEXT(3)
GLOBAL_UNCERTAINTY_ASSIGNED_CONTEXT((#903))
GLOBAL_UNIT_ASSIGNED_CONTEXT((#911,#913,#914))
REPRESENTATION_CONTEXT('','3D')
);
#908=(
GEOMETRIC_REPRESENTATION_CONTEXT(3)
GLOBAL_UNCERTAINTY_ASSIGNED_CONTEXT((#904))
GLOBAL_UNIT_ASSIGNED_CONTEXT((#911,#913,#914))
REPRESENTATION_CONTEXT('','3D')
);
#909=(
GEOMETRIC_REPRESENTATION_CONTEXT(3)
GLOBAL_UNCERTAINTY_ASSIGNED_CONTEXT((#905))
GLOBAL_UNIT_ASSIGNED_CONTEXT((#911,#913,#914))
REPRESENTATION_CONTEXT('','3D')
);
#910=(
GEOMETRIC_REPRESENTATION_CONTEXT(3)
GLOBAL_UNCERTAINTY_ASSIGNED_CONTEXT((#906))
GLOBAL_UNIT_ASSIGNED_CONTEXT((#911,#913,#914))
REPRESENTATION_CONTEXT('','3D')
);
#911=(
LENGTH_UNIT()
NAMED_UNIT(*)
SI_UNIT(.MILLI.,.METRE.)
);
#912=(
LENGTH_UNIT()
NAMED_UNIT(*)
SI_UNIT(.CENTI.,.METRE.)
);
#913=(
NAMED_UNIT(*)
PLANE_ANGLE_UNIT()
SI_UNIT($,.RADIAN.)
);
#914=(
NAMED_UNIT(*)
SI_UNIT($,.STERADIAN.)
SOLID_ANGLE_UNIT()
);
#915=SHAPE_DEFINITION_REPRESENTATION(#918,#923);
#916=SHAPE_DEFINITION_REPRESENTATION(#919,#924);
#917=SHAPE_DEFINITION_REPRESENTATION(#920,#925);
#918=PRODUCT_DEFINITION_SHAPE('',$,#927);
#919=PRODUCT_DEFINITION_SHAPE('',$,#928);
#920=PRODUCT_DEFINITION_SHAPE('',$,#929);
#921=PRODUCT_DEFINITION_SHAPE($,$,#17);
#922=PRODUCT_DEFINITION_SHAPE($,$,#18);
#923=SHAPE_REPRESENTATION('',(#559,#607,#608),#907);
#924=SHAPE_REPRESENTATION('',(#560),#908);
#925=SHAPE_REPRESENTATION('',(#592),#909);
#926=PRODUCT_DEFINITION_CONTEXT('part definition',#937,'design');
#927=PRODUCT_DEFINITION('Assembly1','Assembly1',#930,#926);
#928=PRODUCT_DEFINITION('BodyFoldedSide1','BodyFoldedSide1',#931,#926);
#929=PRODUCT_DEFINITION('BodyFoldedSide2','BodyFoldedSide2',#932,#926);
#930=PRODUCT_DEFINITION_FORMATION('',$,#939);
#931=PRODUCT_DEFINITION_FORMATION('',$,#940);
#932=PRODUCT_DEFINITION_FORMATION('',$,#941);
#933=PRODUCT_RELATED_PRODUCT_CATEGORY('Assembly1','Assembly1',(#939));
#934=PRODUCT_RELATED_PRODUCT_CATEGORY('BodyFoldedSide1',
'BodyFoldedSide1',(#940));
#935=PRODUCT_RELATED_PRODUCT_CATEGORY('BodyFoldedSide2',
'BodyFoldedSide2',(#941));
#936=APPLICATION_PROTOCOL_DEFINITION('international standard',
'automotive_design',2009,#937);
#937=APPLICATION_CONTEXT(
'Core Data for Automotive Mechanical Design Process');
#938=PRODUCT_CONTEXT('part definition',#937,'mechanical');
#939=PRODUCT('Assembly1','Assembly1',$,(#938));
#940=PRODUCT('BodyFoldedSide1','BodyFoldedSide1',$,(#938));
#941=PRODUCT('BodyFoldedSide2','BodyFoldedSide2',$,(#938));
ENDSEC;
END-ISO-10303-21;
