ISO-10303-21;
HEADER;
/* Generated by software containing ST-Developer
 * from STEP Tools, Inc. (www.steptools.com) 
 */

FILE_DESCRIPTION(
/* description */ (''),
/* implementation_level */ '2;1');

FILE_NAME(
/* name */ 'FoldedNoSG.stp',
/* time_stamp */ '2026-06-17T18:16:14+01:00',
/* author */ ('Jakub Schmidt'),
/* organization */ (''),
/* preprocessor_version */ 'ST-DEVELOPER v20.1',
/* originating_system */ 'Autodesk Inventor 2026',
/* authorisation */ '');

FILE_SCHEMA (('AUTOMOTIVE_DESIGN { 1 0 10303 214 3 1 1 }'));
ENDSEC;

DATA;
#10=MECHANICAL_DESIGN_GEOMETRIC_PRESENTATION_REPRESENTATION('',(#23,#24),
#1198);
#11=ITEM_DEFINED_TRANSFORMATION($,$,#740,#799);
#12=ITEM_DEFINED_TRANSFORMATION($,$,#780,#800);
#13=(
REPRESENTATION_RELATIONSHIP($,$,#1212,#1211)
REPRESENTATION_RELATIONSHIP_WITH_TRANSFORMATION(#11)
SHAPE_REPRESENTATION_RELATIONSHIP()
);
#14=(
REPRESENTATION_RELATIONSHIP($,$,#1213,#1211)
REPRESENTATION_RELATIONSHIP_WITH_TRANSFORMATION(#12)
SHAPE_REPRESENTATION_RELATIONSHIP()
);
#15=CONTEXT_DEPENDENT_SHAPE_REPRESENTATION(#13,#1209);
#16=CONTEXT_DEPENDENT_SHAPE_REPRESENTATION(#14,#1210);
#17=NEXT_ASSEMBLY_USAGE_OCCURRENCE('BodyFoldedSide1:1',
'BodyFoldedSide1:1','BodyFoldedSide1:1',#1215,#1216,'BodyFoldedSide1:1');
#18=NEXT_ASSEMBLY_USAGE_OCCURRENCE('BodyFoldedSide2:1',
'BodyFoldedSide2:1','BodyFoldedSide2:1',#1215,#1217,'BodyFoldedSide2:1');
#19=SHAPE_REPRESENTATION_RELATIONSHIP('SRR','None',#1212,#21);
#20=SHAPE_REPRESENTATION_RELATIONSHIP('SRR','None',#1213,#22);
#21=ADVANCED_BREP_SHAPE_REPRESENTATION('',(#25),#1196);
#22=ADVANCED_BREP_SHAPE_REPRESENTATION('',(#26),#1197);
#23=STYLED_ITEM('',(#712),#25);
#24=STYLED_ITEM('',(#712),#26);
#25=MANIFOLD_SOLID_BREP('Solid3',#684);
#26=MANIFOLD_SOLID_BREP('Solid3',#685);
#27=PLANE('',#744);
#28=PLANE('',#748);
#29=PLANE('',#752);
#30=PLANE('',#753);
#31=PLANE('',#754);
#32=PLANE('',#758);
#33=PLANE('',#759);
#34=PLANE('',#760);
#35=PLANE('',#761);
#36=PLANE('',#762);
#37=PLANE('',#763);
#38=PLANE('',#766);
#39=PLANE('',#771);
#40=PLANE('',#772);
#41=PLANE('',#773);
#42=PLANE('',#774);
#43=PLANE('',#775);
#44=PLANE('',#776);
#45=PLANE('',#777);
#46=PLANE('',#778);
#47=PLANE('',#779);
#48=PLANE('',#781);
#49=PLANE('',#782);
#50=PLANE('',#787);
#51=PLANE('',#788);
#52=PLANE('',#789);
#53=PLANE('',#792);
#54=PLANE('',#793);
#55=PLANE('',#794);
#56=PLANE('',#795);
#57=PLANE('',#796);
#58=PLANE('',#797);
#59=PLANE('',#798);
#60=FACE_OUTER_BOUND('',#101,.T.);
#61=FACE_OUTER_BOUND('',#102,.T.);
#62=FACE_OUTER_BOUND('',#103,.T.);
#63=FACE_OUTER_BOUND('',#104,.T.);
#64=FACE_OUTER_BOUND('',#105,.T.);
#65=FACE_OUTER_BOUND('',#106,.T.);
#66=FACE_OUTER_BOUND('',#107,.T.);
#67=FACE_OUTER_BOUND('',#108,.T.);
#68=FACE_OUTER_BOUND('',#109,.T.);
#69=FACE_OUTER_BOUND('',#110,.T.);
#70=FACE_OUTER_BOUND('',#111,.T.);
#71=FACE_OUTER_BOUND('',#112,.T.);
#72=FACE_OUTER_BOUND('',#113,.T.);
#73=FACE_OUTER_BOUND('',#114,.T.);
#74=FACE_OUTER_BOUND('',#115,.T.);
#75=FACE_OUTER_BOUND('',#116,.T.);
#76=FACE_OUTER_BOUND('',#117,.T.);
#77=FACE_OUTER_BOUND('',#118,.T.);
#78=FACE_OUTER_BOUND('',#119,.T.);
#79=FACE_OUTER_BOUND('',#120,.T.);
#80=FACE_OUTER_BOUND('',#121,.T.);
#81=FACE_OUTER_BOUND('',#122,.T.);
#82=FACE_OUTER_BOUND('',#123,.T.);
#83=FACE_OUTER_BOUND('',#124,.T.);
#84=FACE_OUTER_BOUND('',#125,.T.);
#85=FACE_OUTER_BOUND('',#126,.T.);
#86=FACE_OUTER_BOUND('',#127,.T.);
#87=FACE_OUTER_BOUND('',#128,.T.);
#88=FACE_OUTER_BOUND('',#129,.T.);
#89=FACE_OUTER_BOUND('',#130,.T.);
#90=FACE_OUTER_BOUND('',#131,.T.);
#91=FACE_OUTER_BOUND('',#132,.T.);
#92=FACE_OUTER_BOUND('',#133,.T.);
#93=FACE_OUTER_BOUND('',#134,.T.);
#94=FACE_OUTER_BOUND('',#135,.T.);
#95=FACE_OUTER_BOUND('',#136,.T.);
#96=FACE_OUTER_BOUND('',#137,.T.);
#97=FACE_OUTER_BOUND('',#138,.T.);
#98=FACE_OUTER_BOUND('',#139,.T.);
#99=FACE_OUTER_BOUND('',#140,.T.);
#100=FACE_OUTER_BOUND('',#141,.T.);
#101=EDGE_LOOP('',(#453,#454,#455,#456));
#102=EDGE_LOOP('',(#457,#458,#459,#460));
#103=EDGE_LOOP('',(#461,#462,#463,#464));
#104=EDGE_LOOP('',(#465,#466,#467,#468));
#105=EDGE_LOOP('',(#469,#470,#471,#472));
#106=EDGE_LOOP('',(#473,#474,#475));
#107=EDGE_LOOP('',(#476,#477,#478));
#108=EDGE_LOOP('',(#479,#480,#481,#482,#483,#484,#485,#486));
#109=EDGE_LOOP('',(#487,#488,#489,#490,#491));
#110=EDGE_LOOP('',(#492,#493,#494));
#111=EDGE_LOOP('',(#495,#496,#497,#498));
#112=EDGE_LOOP('',(#499,#500,#501,#502));
#113=EDGE_LOOP('',(#503,#504,#505,#506));
#114=EDGE_LOOP('',(#507,#508,#509,#510));
#115=EDGE_LOOP('',(#511,#512,#513,#514,#515,#516));
#116=EDGE_LOOP('',(#517,#518,#519,#520));
#117=EDGE_LOOP('',(#521,#522,#523,#524,#525,#526));
#118=EDGE_LOOP('',(#527,#528,#529,#530,#531));
#119=EDGE_LOOP('',(#532,#533,#534,#535));
#120=EDGE_LOOP('',(#536,#537,#538,#539));
#121=EDGE_LOOP('',(#540,#541,#542));
#122=EDGE_LOOP('',(#543,#544,#545,#546,#547));
#123=EDGE_LOOP('',(#548,#549,#550,#551,#552));
#124=EDGE_LOOP('',(#553,#554,#555,#556));
#125=EDGE_LOOP('',(#557,#558,#559,#560,#561));
#126=EDGE_LOOP('',(#562,#563,#564,#565,#566));
#127=EDGE_LOOP('',(#567,#568,#569,#570));
#128=EDGE_LOOP('',(#571,#572,#573,#574,#575,#576,#577,#578));
#129=EDGE_LOOP('',(#579,#580,#581,#582));
#130=EDGE_LOOP('',(#583,#584,#585,#586,#587));
#131=EDGE_LOOP('',(#588,#589,#590,#591));
#132=EDGE_LOOP('',(#592,#593,#594,#595));
#133=EDGE_LOOP('',(#596,#597,#598,#599));
#134=EDGE_LOOP('',(#600,#601,#602,#603,#604));
#135=EDGE_LOOP('',(#605,#606,#607,#608));
#136=EDGE_LOOP('',(#609,#610,#611,#612));
#137=EDGE_LOOP('',(#613,#614,#615,#616));
#138=EDGE_LOOP('',(#617,#618,#619,#620));
#139=EDGE_LOOP('',(#621,#622,#623,#624,#625));
#140=EDGE_LOOP('',(#626,#627,#628,#629));
#141=EDGE_LOOP('',(#630,#631,#632,#633,#634));
#142=CIRCLE('',#742,5.5);
#143=CIRCLE('',#743,5.5);
#144=CIRCLE('',#745,1.);
#145=CIRCLE('',#747,1.);
#146=CIRCLE('',#749,5.5);
#147=CIRCLE('',#751,5.5);
#148=CIRCLE('',#756,5.);
#149=CIRCLE('',#757,5.);
#150=CIRCLE('',#764,5.);
#151=CIRCLE('',#765,5.);
#152=CIRCLE('',#768,5.);
#153=CIRCLE('',#770,5.);
#154=CIRCLE('',#783,5.);
#155=CIRCLE('',#784,5.);
#156=CIRCLE('',#786,5.);
#157=CIRCLE('',#791,5.);
#158=LINE('',#1005,#233);
#159=LINE('',#1009,#234);
#160=LINE('',#1013,#235);
#161=LINE('',#1015,#236);
#162=LINE('',#1019,#237);
#163=LINE('',#1021,#238);
#164=LINE('',#1025,#239);
#165=LINE('',#1027,#240);
#166=LINE('',#1031,#241);
#167=LINE('',#1033,#242);
#168=LINE('',#1037,#243);
#169=LINE('',#1038,#244);
#170=LINE('',#1041,#245);
#171=LINE('',#1042,#246);
#172=LINE('',#1044,#247);
#173=LINE('',#1049,#248);
#174=LINE('',#1051,#249);
#175=LINE('',#1054,#250);
#176=LINE('',#1057,#251);
#177=LINE('',#1059,#252);
#178=LINE('',#1060,#253);
#179=LINE('',#1064,#254);
#180=LINE('',#1066,#255);
#181=LINE('',#1068,#256);
#182=LINE('',#1069,#257);
#183=LINE('',#1072,#258);
#184=LINE('',#1074,#259);
#185=LINE('',#1075,#260);
#186=LINE('',#1078,#261);
#187=LINE('',#1080,#262);
#188=LINE('',#1081,#263);
#189=LINE('',#1087,#264);
#190=LINE('',#1089,#265);
#191=LINE('',#1090,#266);
#192=LINE('',#1093,#267);
#193=LINE('',#1096,#268);
#194=LINE('',#1099,#269);
#195=LINE('',#1103,#270);
#196=LINE('',#1105,#271);
#197=LINE('',#1106,#272);
#198=LINE('',#1108,#273);
#199=LINE('',#1109,#274);
#200=LINE('',#1111,#275);
#201=LINE('',#1113,#276);
#202=LINE('',#1115,#277);
#203=LINE('',#1117,#278);
#204=LINE('',#1120,#279);
#205=LINE('',#1126,#280);
#206=LINE('',#1128,#281);
#207=LINE('',#1130,#282);
#208=LINE('',#1132,#283);
#209=LINE('',#1134,#284);
#210=LINE('',#1136,#285);
#211=LINE('',#1138,#286);
#212=LINE('',#1139,#287);
#213=LINE('',#1144,#288);
#214=LINE('',#1150,#289);
#215=LINE('',#1151,#290);
#216=LINE('',#1154,#291);
#217=LINE('',#1155,#292);
#218=LINE('',#1159,#293);
#219=LINE('',#1160,#294);
#220=LINE('',#1162,#295);
#221=LINE('',#1163,#296);
#222=LINE('',#1165,#297);
#223=LINE('',#1168,#298);
#224=LINE('',#1172,#299);
#225=LINE('',#1174,#300);
#226=LINE('',#1175,#301);
#227=LINE('',#1177,#302);
#228=LINE('',#1180,#303);
#229=LINE('',#1181,#304);
#230=LINE('',#1183,#305);
#231=LINE('',#1185,#306);
#232=LINE('',#1187,#307);
#233=VECTOR('',#807,10.);
#234=VECTOR('',#810,10.);
#235=VECTOR('',#815,10.);
#236=VECTOR('',#816,10.);
#237=VECTOR('',#821,10.);
#238=VECTOR('',#822,10.);
#239=VECTOR('',#827,10.);
#240=VECTOR('',#828,10.);
#241=VECTOR('',#833,10.);
#242=VECTOR('',#834,10.);
#243=VECTOR('',#839,10.);
#244=VECTOR('',#840,10.);
#245=VECTOR('',#843,10.);
#246=VECTOR('',#844,10.);
#247=VECTOR('',#847,10.);
#248=VECTOR('',#852,10.);
#249=VECTOR('',#853,10.);
#250=VECTOR('',#858,10.);
#251=VECTOR('',#861,10.);
#252=VECTOR('',#862,10.);
#253=VECTOR('',#863,10.);
#254=VECTOR('',#866,10.);
#255=VECTOR('',#867,10.);
#256=VECTOR('',#868,10.);
#257=VECTOR('',#869,10.);
#258=VECTOR('',#872,10.);
#259=VECTOR('',#873,10.);
#260=VECTOR('',#874,10.);
#261=VECTOR('',#877,10.);
#262=VECTOR('',#878,10.);
#263=VECTOR('',#879,10.);
#264=VECTOR('',#888,10.);
#265=VECTOR('',#889,10.);
#266=VECTOR('',#890,10.);
#267=VECTOR('',#893,10.);
#268=VECTOR('',#896,10.);
#269=VECTOR('',#899,10.);
#270=VECTOR('',#904,10.);
#271=VECTOR('',#905,10.);
#272=VECTOR('',#906,10.);
#273=VECTOR('',#909,10.);
#274=VECTOR('',#910,10.);
#275=VECTOR('',#913,10.);
#276=VECTOR('',#916,10.);
#277=VECTOR('',#919,10.);
#278=VECTOR('',#922,10.);
#279=VECTOR('',#927,10.);
#280=VECTOR('',#934,10.);
#281=VECTOR('',#935,10.);
#282=VECTOR('',#936,10.);
#283=VECTOR('',#937,10.);
#284=VECTOR('',#938,10.);
#285=VECTOR('',#939,10.);
#286=VECTOR('',#940,10.);
#287=VECTOR('',#941,10.);
#288=VECTOR('',#946,10.);
#289=VECTOR('',#953,10.);
#290=VECTOR('',#954,10.);
#291=VECTOR('',#957,10.);
#292=VECTOR('',#958,10.);
#293=VECTOR('',#961,10.);
#294=VECTOR('',#962,10.);
#295=VECTOR('',#963,10.);
#296=VECTOR('',#964,10.);
#297=VECTOR('',#967,10.);
#298=VECTOR('',#970,10.);
#299=VECTOR('',#975,10.);
#300=VECTOR('',#976,10.);
#301=VECTOR('',#977,10.);
#302=VECTOR('',#980,10.);
#303=VECTOR('',#983,10.);
#304=VECTOR('',#984,10.);
#305=VECTOR('',#987,10.);
#306=VECTOR('',#990,10.);
#307=VECTOR('',#993,10.);
#308=VERTEX_POINT('',#1003);
#309=VERTEX_POINT('',#1004);
#310=VERTEX_POINT('',#1006);
#311=VERTEX_POINT('',#1008);
#312=VERTEX_POINT('',#1012);
#313=VERTEX_POINT('',#1014);
#314=VERTEX_POINT('',#1018);
#315=VERTEX_POINT('',#1020);
#316=VERTEX_POINT('',#1024);
#317=VERTEX_POINT('',#1026);
#318=VERTEX_POINT('',#1030);
#319=VERTEX_POINT('',#1032);
#320=VERTEX_POINT('',#1036);
#321=VERTEX_POINT('',#1040);
#322=VERTEX_POINT('',#1046);
#323=VERTEX_POINT('',#1048);
#324=VERTEX_POINT('',#1050);
#325=VERTEX_POINT('',#1056);
#326=VERTEX_POINT('',#1058);
#327=VERTEX_POINT('',#1062);
#328=VERTEX_POINT('',#1063);
#329=VERTEX_POINT('',#1065);
#330=VERTEX_POINT('',#1067);
#331=VERTEX_POINT('',#1071);
#332=VERTEX_POINT('',#1073);
#333=VERTEX_POINT('',#1077);
#334=VERTEX_POINT('',#1079);
#335=VERTEX_POINT('',#1086);
#336=VERTEX_POINT('',#1088);
#337=VERTEX_POINT('',#1092);
#338=VERTEX_POINT('',#1094);
#339=VERTEX_POINT('',#1098);
#340=VERTEX_POINT('',#1102);
#341=VERTEX_POINT('',#1104);
#342=VERTEX_POINT('',#1124);
#343=VERTEX_POINT('',#1125);
#344=VERTEX_POINT('',#1127);
#345=VERTEX_POINT('',#1129);
#346=VERTEX_POINT('',#1131);
#347=VERTEX_POINT('',#1133);
#348=VERTEX_POINT('',#1135);
#349=VERTEX_POINT('',#1137);
#350=VERTEX_POINT('',#1141);
#351=VERTEX_POINT('',#1143);
#352=VERTEX_POINT('',#1147);
#353=VERTEX_POINT('',#1149);
#354=VERTEX_POINT('',#1153);
#355=VERTEX_POINT('',#1157);
#356=VERTEX_POINT('',#1158);
#357=VERTEX_POINT('',#1161);
#358=VERTEX_POINT('',#1167);
#359=VERTEX_POINT('',#1171);
#360=VERTEX_POINT('',#1173);
#361=VERTEX_POINT('',#1179);
#362=EDGE_CURVE('',#308,#309,#158,.T.);
#363=EDGE_CURVE('',#308,#310,#142,.T.);
#364=EDGE_CURVE('',#311,#310,#159,.T.);
#365=EDGE_CURVE('',#309,#311,#143,.T.);
#366=EDGE_CURVE('',#312,#309,#160,.T.);
#367=EDGE_CURVE('',#313,#311,#161,.T.);
#368=EDGE_CURVE('',#312,#313,#144,.T.);
#369=EDGE_CURVE('',#312,#314,#162,.T.);
#370=EDGE_CURVE('',#315,#313,#163,.T.);
#371=EDGE_CURVE('',#314,#315,#145,.T.);
#372=EDGE_CURVE('',#314,#316,#164,.T.);
#373=EDGE_CURVE('',#317,#315,#165,.T.);
#374=EDGE_CURVE('',#316,#317,#146,.T.);
#375=EDGE_CURVE('',#316,#318,#166,.T.);
#376=EDGE_CURVE('',#319,#317,#167,.T.);
#377=EDGE_CURVE('',#318,#319,#147,.T.);
#378=EDGE_CURVE('',#318,#320,#168,.T.);
#379=EDGE_CURVE('',#320,#319,#169,.T.);
#380=EDGE_CURVE('',#321,#308,#170,.T.);
#381=EDGE_CURVE('',#310,#321,#171,.T.);
#382=EDGE_CURVE('',#320,#321,#172,.T.);
#383=EDGE_CURVE('',#322,#308,#148,.T.);
#384=EDGE_CURVE('',#323,#322,#173,.T.);
#385=EDGE_CURVE('',#323,#324,#174,.T.);
#386=EDGE_CURVE('',#321,#324,#149,.T.);
#387=EDGE_CURVE('',#309,#322,#175,.T.);
#388=EDGE_CURVE('',#314,#325,#176,.T.);
#389=EDGE_CURVE('',#325,#326,#177,.T.);
#390=EDGE_CURVE('',#326,#312,#178,.T.);
#391=EDGE_CURVE('',#327,#328,#179,.T.);
#392=EDGE_CURVE('',#328,#329,#180,.T.);
#393=EDGE_CURVE('',#329,#330,#181,.T.);
#394=EDGE_CURVE('',#327,#330,#182,.T.);
#395=EDGE_CURVE('',#323,#331,#183,.T.);
#396=EDGE_CURVE('',#331,#332,#184,.T.);
#397=EDGE_CURVE('',#324,#332,#185,.T.);
#398=EDGE_CURVE('',#330,#333,#186,.T.);
#399=EDGE_CURVE('',#334,#333,#187,.T.);
#400=EDGE_CURVE('',#327,#334,#188,.T.);
#401=EDGE_CURVE('',#332,#334,#150,.T.);
#402=EDGE_CURVE('',#333,#320,#151,.T.);
#403=EDGE_CURVE('',#335,#331,#189,.T.);
#404=EDGE_CURVE('',#323,#336,#190,.T.);
#405=EDGE_CURVE('',#336,#335,#191,.T.);
#406=EDGE_CURVE('',#331,#337,#192,.T.);
#407=EDGE_CURVE('',#338,#337,#152,.T.);
#408=EDGE_CURVE('',#327,#338,#193,.T.);
#409=EDGE_CURVE('',#330,#339,#194,.T.);
#410=EDGE_CURVE('',#318,#339,#153,.T.);
#411=EDGE_CURVE('',#325,#340,#195,.T.);
#412=EDGE_CURVE('',#341,#340,#196,.T.);
#413=EDGE_CURVE('',#326,#341,#197,.T.);
#414=EDGE_CURVE('',#340,#338,#198,.T.);
#415=EDGE_CURVE('',#337,#341,#199,.T.);
#416=EDGE_CURVE('',#339,#316,#200,.T.);
#417=EDGE_CURVE('',#329,#314,#201,.T.);
#418=EDGE_CURVE('',#336,#312,#202,.T.);
#419=EDGE_CURVE('',#335,#326,#203,.T.);
#420=EDGE_CURVE('',#328,#325,#204,.T.);
#421=EDGE_CURVE('',#342,#343,#205,.T.);
#422=EDGE_CURVE('',#344,#343,#206,.T.);
#423=EDGE_CURVE('',#345,#344,#207,.T.);
#424=EDGE_CURVE('',#346,#345,#208,.T.);
#425=EDGE_CURVE('',#347,#346,#209,.T.);
#426=EDGE_CURVE('',#348,#347,#210,.T.);
#427=EDGE_CURVE('',#349,#348,#211,.T.);
#428=EDGE_CURVE('',#342,#349,#212,.T.);
#429=EDGE_CURVE('',#345,#350,#154,.T.);
#430=EDGE_CURVE('',#350,#351,#213,.T.);
#431=EDGE_CURVE('',#351,#346,#155,.T.);
#432=EDGE_CURVE('',#344,#352,#156,.T.);
#433=EDGE_CURVE('',#353,#352,#214,.T.);
#434=EDGE_CURVE('',#353,#350,#215,.T.);
#435=EDGE_CURVE('',#343,#354,#216,.T.);
#436=EDGE_CURVE('',#354,#352,#217,.T.);
#437=EDGE_CURVE('',#355,#356,#218,.T.);
#438=EDGE_CURVE('',#353,#356,#219,.T.);
#439=EDGE_CURVE('',#353,#357,#220,.T.);
#440=EDGE_CURVE('',#357,#355,#221,.T.);
#441=EDGE_CURVE('',#356,#351,#222,.T.);
#442=EDGE_CURVE('',#356,#358,#223,.T.);
#443=EDGE_CURVE('',#358,#347,#157,.T.);
#444=EDGE_CURVE('',#349,#359,#224,.T.);
#445=EDGE_CURVE('',#360,#348,#225,.T.);
#446=EDGE_CURVE('',#359,#360,#226,.T.);
#447=EDGE_CURVE('',#358,#360,#227,.T.);
#448=EDGE_CURVE('',#361,#342,#228,.T.);
#449=EDGE_CURVE('',#361,#354,#229,.T.);
#450=EDGE_CURVE('',#359,#361,#230,.T.);
#451=EDGE_CURVE('',#357,#361,#231,.T.);
#452=EDGE_CURVE('',#355,#359,#232,.T.);
#453=ORIENTED_EDGE('',*,*,#362,.F.);
#454=ORIENTED_EDGE('',*,*,#363,.T.);
#455=ORIENTED_EDGE('',*,*,#364,.F.);
#456=ORIENTED_EDGE('',*,*,#365,.F.);
#457=ORIENTED_EDGE('',*,*,#366,.T.);
#458=ORIENTED_EDGE('',*,*,#365,.T.);
#459=ORIENTED_EDGE('',*,*,#367,.F.);
#460=ORIENTED_EDGE('',*,*,#368,.F.);
#461=ORIENTED_EDGE('',*,*,#369,.F.);
#462=ORIENTED_EDGE('',*,*,#368,.T.);
#463=ORIENTED_EDGE('',*,*,#370,.F.);
#464=ORIENTED_EDGE('',*,*,#371,.F.);
#465=ORIENTED_EDGE('',*,*,#372,.F.);
#466=ORIENTED_EDGE('',*,*,#371,.T.);
#467=ORIENTED_EDGE('',*,*,#373,.F.);
#468=ORIENTED_EDGE('',*,*,#374,.F.);
#469=ORIENTED_EDGE('',*,*,#375,.F.);
#470=ORIENTED_EDGE('',*,*,#374,.T.);
#471=ORIENTED_EDGE('',*,*,#376,.F.);
#472=ORIENTED_EDGE('',*,*,#377,.F.);
#473=ORIENTED_EDGE('',*,*,#378,.F.);
#474=ORIENTED_EDGE('',*,*,#377,.T.);
#475=ORIENTED_EDGE('',*,*,#379,.F.);
#476=ORIENTED_EDGE('',*,*,#380,.F.);
#477=ORIENTED_EDGE('',*,*,#381,.F.);
#478=ORIENTED_EDGE('',*,*,#363,.F.);
#479=ORIENTED_EDGE('',*,*,#381,.T.);
#480=ORIENTED_EDGE('',*,*,#382,.F.);
#481=ORIENTED_EDGE('',*,*,#379,.T.);
#482=ORIENTED_EDGE('',*,*,#376,.T.);
#483=ORIENTED_EDGE('',*,*,#373,.T.);
#484=ORIENTED_EDGE('',*,*,#370,.T.);
#485=ORIENTED_EDGE('',*,*,#367,.T.);
#486=ORIENTED_EDGE('',*,*,#364,.T.);
#487=ORIENTED_EDGE('',*,*,#380,.T.);
#488=ORIENTED_EDGE('',*,*,#383,.F.);
#489=ORIENTED_EDGE('',*,*,#384,.F.);
#490=ORIENTED_EDGE('',*,*,#385,.T.);
#491=ORIENTED_EDGE('',*,*,#386,.F.);
#492=ORIENTED_EDGE('',*,*,#362,.T.);
#493=ORIENTED_EDGE('',*,*,#387,.T.);
#494=ORIENTED_EDGE('',*,*,#383,.T.);
#495=ORIENTED_EDGE('',*,*,#369,.T.);
#496=ORIENTED_EDGE('',*,*,#388,.T.);
#497=ORIENTED_EDGE('',*,*,#389,.T.);
#498=ORIENTED_EDGE('',*,*,#390,.T.);
#499=ORIENTED_EDGE('',*,*,#391,.T.);
#500=ORIENTED_EDGE('',*,*,#392,.T.);
#501=ORIENTED_EDGE('',*,*,#393,.T.);
#502=ORIENTED_EDGE('',*,*,#394,.F.);
#503=ORIENTED_EDGE('',*,*,#395,.T.);
#504=ORIENTED_EDGE('',*,*,#396,.T.);
#505=ORIENTED_EDGE('',*,*,#397,.F.);
#506=ORIENTED_EDGE('',*,*,#385,.F.);
#507=ORIENTED_EDGE('',*,*,#394,.T.);
#508=ORIENTED_EDGE('',*,*,#398,.T.);
#509=ORIENTED_EDGE('',*,*,#399,.F.);
#510=ORIENTED_EDGE('',*,*,#400,.F.);
#511=ORIENTED_EDGE('',*,*,#382,.T.);
#512=ORIENTED_EDGE('',*,*,#386,.T.);
#513=ORIENTED_EDGE('',*,*,#397,.T.);
#514=ORIENTED_EDGE('',*,*,#401,.T.);
#515=ORIENTED_EDGE('',*,*,#399,.T.);
#516=ORIENTED_EDGE('',*,*,#402,.T.);
#517=ORIENTED_EDGE('',*,*,#403,.T.);
#518=ORIENTED_EDGE('',*,*,#395,.F.);
#519=ORIENTED_EDGE('',*,*,#404,.T.);
#520=ORIENTED_EDGE('',*,*,#405,.T.);
#521=ORIENTED_EDGE('',*,*,#406,.T.);
#522=ORIENTED_EDGE('',*,*,#407,.F.);
#523=ORIENTED_EDGE('',*,*,#408,.F.);
#524=ORIENTED_EDGE('',*,*,#400,.T.);
#525=ORIENTED_EDGE('',*,*,#401,.F.);
#526=ORIENTED_EDGE('',*,*,#396,.F.);
#527=ORIENTED_EDGE('',*,*,#378,.T.);
#528=ORIENTED_EDGE('',*,*,#402,.F.);
#529=ORIENTED_EDGE('',*,*,#398,.F.);
#530=ORIENTED_EDGE('',*,*,#409,.T.);
#531=ORIENTED_EDGE('',*,*,#410,.F.);
#532=ORIENTED_EDGE('',*,*,#389,.F.);
#533=ORIENTED_EDGE('',*,*,#411,.T.);
#534=ORIENTED_EDGE('',*,*,#412,.F.);
#535=ORIENTED_EDGE('',*,*,#413,.F.);
#536=ORIENTED_EDGE('',*,*,#414,.T.);
#537=ORIENTED_EDGE('',*,*,#407,.T.);
#538=ORIENTED_EDGE('',*,*,#415,.T.);
#539=ORIENTED_EDGE('',*,*,#412,.T.);
#540=ORIENTED_EDGE('',*,*,#375,.T.);
#541=ORIENTED_EDGE('',*,*,#410,.T.);
#542=ORIENTED_EDGE('',*,*,#416,.T.);
#543=ORIENTED_EDGE('',*,*,#393,.F.);
#544=ORIENTED_EDGE('',*,*,#417,.T.);
#545=ORIENTED_EDGE('',*,*,#372,.T.);
#546=ORIENTED_EDGE('',*,*,#416,.F.);
#547=ORIENTED_EDGE('',*,*,#409,.F.);
#548=ORIENTED_EDGE('',*,*,#404,.F.);
#549=ORIENTED_EDGE('',*,*,#384,.T.);
#550=ORIENTED_EDGE('',*,*,#387,.F.);
#551=ORIENTED_EDGE('',*,*,#366,.F.);
#552=ORIENTED_EDGE('',*,*,#418,.F.);
#553=ORIENTED_EDGE('',*,*,#405,.F.);
#554=ORIENTED_EDGE('',*,*,#418,.T.);
#555=ORIENTED_EDGE('',*,*,#390,.F.);
#556=ORIENTED_EDGE('',*,*,#419,.F.);
#557=ORIENTED_EDGE('',*,*,#403,.F.);
#558=ORIENTED_EDGE('',*,*,#419,.T.);
#559=ORIENTED_EDGE('',*,*,#413,.T.);
#560=ORIENTED_EDGE('',*,*,#415,.F.);
#561=ORIENTED_EDGE('',*,*,#406,.F.);
#562=ORIENTED_EDGE('',*,*,#391,.F.);
#563=ORIENTED_EDGE('',*,*,#408,.T.);
#564=ORIENTED_EDGE('',*,*,#414,.F.);
#565=ORIENTED_EDGE('',*,*,#411,.F.);
#566=ORIENTED_EDGE('',*,*,#420,.F.);
#567=ORIENTED_EDGE('',*,*,#392,.F.);
#568=ORIENTED_EDGE('',*,*,#420,.T.);
#569=ORIENTED_EDGE('',*,*,#388,.F.);
#570=ORIENTED_EDGE('',*,*,#417,.F.);
#571=ORIENTED_EDGE('',*,*,#421,.T.);
#572=ORIENTED_EDGE('',*,*,#422,.F.);
#573=ORIENTED_EDGE('',*,*,#423,.F.);
#574=ORIENTED_EDGE('',*,*,#424,.F.);
#575=ORIENTED_EDGE('',*,*,#425,.F.);
#576=ORIENTED_EDGE('',*,*,#426,.F.);
#577=ORIENTED_EDGE('',*,*,#427,.F.);
#578=ORIENTED_EDGE('',*,*,#428,.F.);
#579=ORIENTED_EDGE('',*,*,#424,.T.);
#580=ORIENTED_EDGE('',*,*,#429,.T.);
#581=ORIENTED_EDGE('',*,*,#430,.T.);
#582=ORIENTED_EDGE('',*,*,#431,.T.);
#583=ORIENTED_EDGE('',*,*,#423,.T.);
#584=ORIENTED_EDGE('',*,*,#432,.T.);
#585=ORIENTED_EDGE('',*,*,#433,.F.);
#586=ORIENTED_EDGE('',*,*,#434,.T.);
#587=ORIENTED_EDGE('',*,*,#429,.F.);
#588=ORIENTED_EDGE('',*,*,#422,.T.);
#589=ORIENTED_EDGE('',*,*,#435,.T.);
#590=ORIENTED_EDGE('',*,*,#436,.T.);
#591=ORIENTED_EDGE('',*,*,#432,.F.);
#592=ORIENTED_EDGE('',*,*,#437,.T.);
#593=ORIENTED_EDGE('',*,*,#438,.F.);
#594=ORIENTED_EDGE('',*,*,#439,.T.);
#595=ORIENTED_EDGE('',*,*,#440,.T.);
#596=ORIENTED_EDGE('',*,*,#438,.T.);
#597=ORIENTED_EDGE('',*,*,#441,.T.);
#598=ORIENTED_EDGE('',*,*,#430,.F.);
#599=ORIENTED_EDGE('',*,*,#434,.F.);
#600=ORIENTED_EDGE('',*,*,#425,.T.);
#601=ORIENTED_EDGE('',*,*,#431,.F.);
#602=ORIENTED_EDGE('',*,*,#441,.F.);
#603=ORIENTED_EDGE('',*,*,#442,.T.);
#604=ORIENTED_EDGE('',*,*,#443,.T.);
#605=ORIENTED_EDGE('',*,*,#444,.F.);
#606=ORIENTED_EDGE('',*,*,#427,.T.);
#607=ORIENTED_EDGE('',*,*,#445,.F.);
#608=ORIENTED_EDGE('',*,*,#446,.F.);
#609=ORIENTED_EDGE('',*,*,#426,.T.);
#610=ORIENTED_EDGE('',*,*,#443,.F.);
#611=ORIENTED_EDGE('',*,*,#447,.T.);
#612=ORIENTED_EDGE('',*,*,#445,.T.);
#613=ORIENTED_EDGE('',*,*,#448,.F.);
#614=ORIENTED_EDGE('',*,*,#449,.T.);
#615=ORIENTED_EDGE('',*,*,#435,.F.);
#616=ORIENTED_EDGE('',*,*,#421,.F.);
#617=ORIENTED_EDGE('',*,*,#428,.T.);
#618=ORIENTED_EDGE('',*,*,#444,.T.);
#619=ORIENTED_EDGE('',*,*,#450,.T.);
#620=ORIENTED_EDGE('',*,*,#448,.T.);
#621=ORIENTED_EDGE('',*,*,#439,.F.);
#622=ORIENTED_EDGE('',*,*,#433,.T.);
#623=ORIENTED_EDGE('',*,*,#436,.F.);
#624=ORIENTED_EDGE('',*,*,#449,.F.);
#625=ORIENTED_EDGE('',*,*,#451,.F.);
#626=ORIENTED_EDGE('',*,*,#440,.F.);
#627=ORIENTED_EDGE('',*,*,#451,.T.);
#628=ORIENTED_EDGE('',*,*,#450,.F.);
#629=ORIENTED_EDGE('',*,*,#452,.F.);
#630=ORIENTED_EDGE('',*,*,#437,.F.);
#631=ORIENTED_EDGE('',*,*,#452,.T.);
#632=ORIENTED_EDGE('',*,*,#446,.T.);
#633=ORIENTED_EDGE('',*,*,#447,.F.);
#634=ORIENTED_EDGE('',*,*,#442,.F.);
#635=CYLINDRICAL_SURFACE('',#741,5.5);
#636=CYLINDRICAL_SURFACE('',#746,1.);
#637=CYLINDRICAL_SURFACE('',#750,5.5);
#638=CYLINDRICAL_SURFACE('',#755,5.);
#639=CYLINDRICAL_SURFACE('',#767,5.);
#640=CYLINDRICAL_SURFACE('',#769,5.);
#641=CYLINDRICAL_SURFACE('',#785,5.);
#642=CYLINDRICAL_SURFACE('',#790,5.);
#643=ADVANCED_FACE('',(#60),#635,.T.);
#644=ADVANCED_FACE('',(#61),#27,.T.);
#645=ADVANCED_FACE('',(#62),#636,.T.);
#646=ADVANCED_FACE('',(#63),#28,.T.);
#647=ADVANCED_FACE('',(#64),#637,.T.);
#648=ADVANCED_FACE('',(#65),#29,.T.);
#649=ADVANCED_FACE('',(#66),#30,.T.);
#650=ADVANCED_FACE('',(#67),#31,.T.);
#651=ADVANCED_FACE('',(#68),#638,.T.);
#652=ADVANCED_FACE('',(#69),#32,.T.);
#653=ADVANCED_FACE('',(#70),#33,.T.);
#654=ADVANCED_FACE('',(#71),#34,.F.);
#655=ADVANCED_FACE('',(#72),#35,.T.);
#656=ADVANCED_FACE('',(#73),#36,.T.);
#657=ADVANCED_FACE('',(#74),#37,.T.);
#658=ADVANCED_FACE('',(#75),#38,.F.);
#659=ADVANCED_FACE('',(#76),#639,.T.);
#660=ADVANCED_FACE('',(#77),#640,.T.);
#661=ADVANCED_FACE('',(#78),#39,.T.);
#662=ADVANCED_FACE('',(#79),#40,.T.);
#663=ADVANCED_FACE('',(#80),#41,.T.);
#664=ADVANCED_FACE('',(#81),#42,.T.);
#665=ADVANCED_FACE('',(#82),#43,.T.);
#666=ADVANCED_FACE('',(#83),#44,.T.);
#667=ADVANCED_FACE('',(#84),#45,.T.);
#668=ADVANCED_FACE('',(#85),#46,.T.);
#669=ADVANCED_FACE('',(#86),#47,.T.);
#670=ADVANCED_FACE('',(#87),#48,.F.);
#671=ADVANCED_FACE('',(#88),#49,.T.);
#672=ADVANCED_FACE('',(#89),#641,.T.);
#673=ADVANCED_FACE('',(#90),#50,.T.);
#674=ADVANCED_FACE('',(#91),#51,.F.);
#675=ADVANCED_FACE('',(#92),#52,.T.);
#676=ADVANCED_FACE('',(#93),#642,.T.);
#677=ADVANCED_FACE('',(#94),#53,.T.);
#678=ADVANCED_FACE('',(#95),#54,.T.);
#679=ADVANCED_FACE('',(#96),#55,.T.);
#680=ADVANCED_FACE('',(#97),#56,.T.);
#681=ADVANCED_FACE('',(#98),#57,.T.);
#682=ADVANCED_FACE('',(#99),#58,.T.);
#683=ADVANCED_FACE('',(#100),#59,.T.);
#684=CLOSED_SHELL('',(#643,#644,#645,#646,#647,#648,#649,#650,#651,#652,
#653,#654,#655,#656,#657,#658,#659,#660,#661,#662,#663,#664,#665,#666,#667,
#668,#669));
#685=CLOSED_SHELL('',(#670,#671,#672,#673,#674,#675,#676,#677,#678,#679,
#680,#681,#682,#683));
#686=DERIVED_UNIT_ELEMENT(#691,1.);
#687=DERIVED_UNIT_ELEMENT(#1200,-3.);
#688=DERIVED_UNIT_ELEMENT(#691,1.);
#689=DERIVED_UNIT_ELEMENT(#1200,-3.);
#690=DIMENSIONAL_EXPONENTS(0.,1.,0.,0.,0.,0.,0.);
#691=(
CONVERSION_BASED_UNIT('gram',#693)
MASS_UNIT()
NAMED_UNIT(#690)
);
#692=(
MASS_UNIT()
NAMED_UNIT(*)
SI_UNIT(.KILO.,.GRAM.)
);
#693=MASS_MEASURE_WITH_UNIT(MASS_MEASURE(0.001),#692);
#694=DERIVED_UNIT((#686,#687));
#695=DERIVED_UNIT((#688,#689));
#696=MEASURE_REPRESENTATION_ITEM('density measure',
POSITIVE_RATIO_MEASURE(1.),#694);
#697=MEASURE_REPRESENTATION_ITEM('density measure',
POSITIVE_RATIO_MEASURE(1.),#695);
#698=PROPERTY_DEFINITION_REPRESENTATION(#708,#702);
#699=PROPERTY_DEFINITION_REPRESENTATION(#709,#703);
#700=PROPERTY_DEFINITION_REPRESENTATION(#710,#704);
#701=PROPERTY_DEFINITION_REPRESENTATION(#711,#705);
#702=REPRESENTATION('material name',(#706),#1196);
#703=REPRESENTATION('density',(#696),#1196);
#704=REPRESENTATION('material name',(#707),#1197);
#705=REPRESENTATION('density',(#697),#1197);
#706=DESCRIPTIVE_REPRESENTATION_ITEM('Generic','Generic');
#707=DESCRIPTIVE_REPRESENTATION_ITEM('Generic','Generic');
#708=PROPERTY_DEFINITION('material property','material name',#1216);
#709=PROPERTY_DEFINITION('material property','density of part',#1216);
#710=PROPERTY_DEFINITION('material property','material name',#1217);
#711=PROPERTY_DEFINITION('material property','density of part',#1217);
#712=PRESENTATION_STYLE_ASSIGNMENT((#713));
#713=SURFACE_STYLE_USAGE(.BOTH.,#716);
#714=SURFACE_STYLE_RENDERING_WITH_PROPERTIES($,#720,(#715));
#715=SURFACE_STYLE_TRANSPARENT(0.);
#716=SURFACE_SIDE_STYLE('',(#717,#714));
#717=SURFACE_STYLE_FILL_AREA(#718);
#718=FILL_AREA_STYLE('',(#719));
#719=FILL_AREA_STYLE_COLOUR('',#720);
#720=COLOUR_RGB('',0.749019607843137,0.749019607843137,0.749019607843137);
#721=DATE_TIME_ROLE('creation_date');
#722=DATE_TIME_ROLE('creation_date');
#723=DATE_TIME_ROLE('creation_date');
#724=APPLIED_DATE_AND_TIME_ASSIGNMENT(#727,#721,(#1215));
#725=APPLIED_DATE_AND_TIME_ASSIGNMENT(#728,#722,(#1216));
#726=APPLIED_DATE_AND_TIME_ASSIGNMENT(#729,#723,(#1217));
#727=DATE_AND_TIME(#730,#733);
#728=DATE_AND_TIME(#731,#734);
#729=DATE_AND_TIME(#732,#735);
#730=CALENDAR_DATE(2026,17,6);
#731=CALENDAR_DATE(2025,2,11);
#732=CALENDAR_DATE(2025,2,11);
#733=LOCAL_TIME(0,0,0.,#736);
#734=LOCAL_TIME(0,0,0.,#737);
#735=LOCAL_TIME(0,0,0.,#738);
#736=COORDINATED_UNIVERSAL_TIME_OFFSET(0,0,.BEHIND.);
#737=COORDINATED_UNIVERSAL_TIME_OFFSET(0,0,.BEHIND.);
#738=COORDINATED_UNIVERSAL_TIME_OFFSET(0,0,.BEHIND.);
#739=AXIS2_PLACEMENT_3D('',#1000,#801,#802);
#740=AXIS2_PLACEMENT_3D('',#1001,#803,#804);
#741=AXIS2_PLACEMENT_3D('',#1002,#805,#806);
#742=AXIS2_PLACEMENT_3D('',#1007,#808,#809);
#743=AXIS2_PLACEMENT_3D('',#1010,#811,#812);
#744=AXIS2_PLACEMENT_3D('',#1011,#813,#814);
#745=AXIS2_PLACEMENT_3D('',#1016,#817,#818);
#746=AXIS2_PLACEMENT_3D('',#1017,#819,#820);
#747=AXIS2_PLACEMENT_3D('',#1022,#823,#824);
#748=AXIS2_PLACEMENT_3D('',#1023,#825,#826);
#749=AXIS2_PLACEMENT_3D('',#1028,#829,#830);
#750=AXIS2_PLACEMENT_3D('',#1029,#831,#832);
#751=AXIS2_PLACEMENT_3D('',#1034,#835,#836);
#752=AXIS2_PLACEMENT_3D('',#1035,#837,#838);
#753=AXIS2_PLACEMENT_3D('',#1039,#841,#842);
#754=AXIS2_PLACEMENT_3D('',#1043,#845,#846);
#755=AXIS2_PLACEMENT_3D('',#1045,#848,#849);
#756=AXIS2_PLACEMENT_3D('',#1047,#850,#851);
#757=AXIS2_PLACEMENT_3D('',#1052,#854,#855);
#758=AXIS2_PLACEMENT_3D('',#1053,#856,#857);
#759=AXIS2_PLACEMENT_3D('',#1055,#859,#860);
#760=AXIS2_PLACEMENT_3D('',#1061,#864,#865);
#761=AXIS2_PLACEMENT_3D('',#1070,#870,#871);
#762=AXIS2_PLACEMENT_3D('',#1076,#875,#876);
#763=AXIS2_PLACEMENT_3D('',#1082,#880,#881);
#764=AXIS2_PLACEMENT_3D('',#1083,#882,#883);
#765=AXIS2_PLACEMENT_3D('',#1084,#884,#885);
#766=AXIS2_PLACEMENT_3D('',#1085,#886,#887);
#767=AXIS2_PLACEMENT_3D('',#1091,#891,#892);
#768=AXIS2_PLACEMENT_3D('',#1095,#894,#895);
#769=AXIS2_PLACEMENT_3D('',#1097,#897,#898);
#770=AXIS2_PLACEMENT_3D('',#1100,#900,#901);
#771=AXIS2_PLACEMENT_3D('',#1101,#902,#903);
#772=AXIS2_PLACEMENT_3D('',#1107,#907,#908);
#773=AXIS2_PLACEMENT_3D('',#1110,#911,#912);
#774=AXIS2_PLACEMENT_3D('',#1112,#914,#915);
#775=AXIS2_PLACEMENT_3D('',#1114,#917,#918);
#776=AXIS2_PLACEMENT_3D('',#1116,#920,#921);
#777=AXIS2_PLACEMENT_3D('',#1118,#923,#924);
#778=AXIS2_PLACEMENT_3D('',#1119,#925,#926);
#779=AXIS2_PLACEMENT_3D('',#1121,#928,#929);
#780=AXIS2_PLACEMENT_3D('',#1122,#930,#931);
#781=AXIS2_PLACEMENT_3D('',#1123,#932,#933);
#782=AXIS2_PLACEMENT_3D('',#1140,#942,#943);
#783=AXIS2_PLACEMENT_3D('',#1142,#944,#945);
#784=AXIS2_PLACEMENT_3D('',#1145,#947,#948);
#785=AXIS2_PLACEMENT_3D('',#1146,#949,#950);
#786=AXIS2_PLACEMENT_3D('',#1148,#951,#952);
#787=AXIS2_PLACEMENT_3D('',#1152,#955,#956);
#788=AXIS2_PLACEMENT_3D('',#1156,#959,#960);
#789=AXIS2_PLACEMENT_3D('',#1164,#965,#966);
#790=AXIS2_PLACEMENT_3D('',#1166,#968,#969);
#791=AXIS2_PLACEMENT_3D('',#1169,#971,#972);
#792=AXIS2_PLACEMENT_3D('',#1170,#973,#974);
#793=AXIS2_PLACEMENT_3D('',#1176,#978,#979);
#794=AXIS2_PLACEMENT_3D('',#1178,#981,#982);
#795=AXIS2_PLACEMENT_3D('',#1182,#985,#986);
#796=AXIS2_PLACEMENT_3D('',#1184,#988,#989);
#797=AXIS2_PLACEMENT_3D('',#1186,#991,#992);
#798=AXIS2_PLACEMENT_3D('',#1188,#994,#995);
#799=AXIS2_PLACEMENT_3D('',#1189,#996,#997);
#800=AXIS2_PLACEMENT_3D('',#1190,#998,#999);
#801=DIRECTION('axis',(0.,0.,1.));
#802=DIRECTION('refdir',(1.,0.,0.));
#803=DIRECTION('axis',(0.,0.,1.));
#804=DIRECTION('refdir',(1.,0.,0.));
#805=DIRECTION('center_axis',(1.,0.,0.));
#806=DIRECTION('ref_axis',(0.,0.,-1.));
#807=DIRECTION('',(1.,0.,0.));
#808=DIRECTION('center_axis',(1.,0.,0.));
#809=DIRECTION('ref_axis',(0.,-8.57899609937621E-16,-1.));
#810=DIRECTION('',(-1.,0.,0.));
#811=DIRECTION('center_axis',(1.,0.,0.));
#812=DIRECTION('ref_axis',(0.,-8.57899609937621E-16,-1.));
#813=DIRECTION('center_axis',(1.,0.,0.));
#814=DIRECTION('ref_axis',(0.,0.,-1.));
#815=DIRECTION('',(0.,0.,-1.));
#816=DIRECTION('',(-1.2335811384724E-15,0.707106781186548,-0.707106781186547));
#817=DIRECTION('center_axis',(1.,0.,0.));
#818=DIRECTION('ref_axis',(0.,0.,-1.));
#819=DIRECTION('center_axis',(1.,0.,0.));
#820=DIRECTION('ref_axis',(0.,0.,-1.));
#821=DIRECTION('',(1.,0.,0.));
#822=DIRECTION('',(-1.,0.,0.));
#823=DIRECTION('center_axis',(1.,0.,0.));
#824=DIRECTION('ref_axis',(0.,0.,-1.));
#825=DIRECTION('center_axis',(-1.,0.,0.));
#826=DIRECTION('ref_axis',(0.,0.,1.));
#827=DIRECTION('',(0.,0.,-1.));
#828=DIRECTION('',(0.,-0.707106781186548,0.707106781186547));
#829=DIRECTION('center_axis',(1.,0.,0.));
#830=DIRECTION('ref_axis',(0.,-8.57899609937621E-16,-1.));
#831=DIRECTION('center_axis',(1.,0.,0.));
#832=DIRECTION('ref_axis',(0.,0.,-1.));
#833=DIRECTION('',(1.,0.,0.));
#834=DIRECTION('',(-1.,0.,0.));
#835=DIRECTION('center_axis',(1.,0.,0.));
#836=DIRECTION('ref_axis',(0.,-8.57899609937621E-16,-1.));
#837=DIRECTION('center_axis',(1.,0.,0.));
#838=DIRECTION('ref_axis',(0.,0.,-1.));
#839=DIRECTION('',(0.,0.,1.));
#840=DIRECTION('',(0.,0.707106781186548,-0.707106781186547));
#841=DIRECTION('center_axis',(-1.,0.,0.));
#842=DIRECTION('ref_axis',(0.,0.,1.));
#843=DIRECTION('',(0.,0.,-1.));
#844=DIRECTION('',(0.,-0.707106781186548,0.707106781186547));
#845=DIRECTION('center_axis',(0.,0.707106781186547,0.707106781186548));
#846=DIRECTION('ref_axis',(0.,-0.707106781186548,0.707106781186547));
#847=DIRECTION('',(-1.,0.,0.));
#848=DIRECTION('center_axis',(0.,0.,-1.));
#849=DIRECTION('ref_axis',(-0.499999999999998,0.86602540378444,0.));
#850=DIRECTION('center_axis',(0.,0.,-1.));
#851=DIRECTION('ref_axis',(-0.499999999999998,0.86602540378444,0.));
#852=DIRECTION('',(0.,0.,-1.));
#853=DIRECTION('',(0.,0.,1.));
#854=DIRECTION('center_axis',(0.,0.,1.));
#855=DIRECTION('ref_axis',(-0.499999999999998,0.86602540378444,0.));
#856=DIRECTION('center_axis',(0.,0.,-1.));
#857=DIRECTION('ref_axis',(-1.,0.,0.));
#858=DIRECTION('',(-0.866025403784437,-0.500000000000002,0.));
#859=DIRECTION('center_axis',(0.,0.,-1.));
#860=DIRECTION('ref_axis',(-1.,0.,0.));
#861=DIRECTION('',(-0.5,-0.866025403784438,0.));
#862=DIRECTION('',(-1.,-6.86706805469099E-15,0.));
#863=DIRECTION('',(-0.5,0.866025403784439,0.));
#864=DIRECTION('center_axis',(0.,0.,1.));
#865=DIRECTION('ref_axis',(1.,0.,0.));
#866=DIRECTION('',(-0.866025403784438,0.500000000000001,0.));
#867=DIRECTION('',(0.5,0.866025403784438,0.));
#868=DIRECTION('',(0.866025403784438,-0.500000000000001,0.));
#869=DIRECTION('',(0.5,0.866025403784438,0.));
#870=DIRECTION('center_axis',(-0.866025403784439,-0.5,0.));
#871=DIRECTION('ref_axis',(0.5,-0.866025403784439,0.));
#872=DIRECTION('',(0.5,-0.866025403784439,0.));
#873=DIRECTION('',(0.,0.,1.));
#874=DIRECTION('',(0.5,-0.866025403784439,0.));
#875=DIRECTION('center_axis',(0.866025403784439,-0.5,0.));
#876=DIRECTION('ref_axis',(0.5,0.866025403784438,0.));
#877=DIRECTION('',(0.,0.,1.));
#878=DIRECTION('',(0.5,0.866025403784438,0.));
#879=DIRECTION('',(0.,0.,1.));
#880=DIRECTION('center_axis',(0.,0.,1.));
#881=DIRECTION('ref_axis',(1.,0.,0.));
#882=DIRECTION('center_axis',(0.,0.,1.));
#883=DIRECTION('ref_axis',(-0.499999999999998,-0.86602540378444,0.));
#884=DIRECTION('center_axis',(0.,0.,1.));
#885=DIRECTION('ref_axis',(1.,0.,0.));
#886=DIRECTION('center_axis',(0.,0.,1.));
#887=DIRECTION('ref_axis',(1.,0.,0.));
#888=DIRECTION('',(-0.866025403784439,-0.499999999999999,0.));
#889=DIRECTION('',(0.866025403784439,0.5,0.));
#890=DIRECTION('',(0.5,-0.866025403784439,0.));
#891=DIRECTION('center_axis',(0.,0.,-1.));
#892=DIRECTION('ref_axis',(-0.499999999999998,-0.86602540378444,0.));
#893=DIRECTION('',(0.,0.,-1.));
#894=DIRECTION('center_axis',(0.,0.,-1.));
#895=DIRECTION('ref_axis',(-0.499999999999998,-0.86602540378444,0.));
#896=DIRECTION('',(0.,0.,-1.));
#897=DIRECTION('center_axis',(0.,0.,-1.));
#898=DIRECTION('ref_axis',(1.,0.,0.));
#899=DIRECTION('',(0.,0.,-1.));
#900=DIRECTION('center_axis',(0.,0.,-1.));
#901=DIRECTION('ref_axis',(1.,0.,0.));
#902=DIRECTION('center_axis',(-6.86706805469099E-15,1.,0.));
#903=DIRECTION('ref_axis',(1.,6.86706805469099E-15,0.));
#904=DIRECTION('',(0.,0.,-1.));
#905=DIRECTION('',(1.,6.86706805469099E-15,0.));
#906=DIRECTION('',(0.,0.,-1.));
#907=DIRECTION('center_axis',(0.,0.,-1.));
#908=DIRECTION('ref_axis',(-1.,0.,0.));
#909=DIRECTION('',(0.866025403784439,-0.499999999999999,0.));
#910=DIRECTION('',(0.866025403784439,0.499999999999999,0.));
#911=DIRECTION('center_axis',(0.,0.,-1.));
#912=DIRECTION('ref_axis',(-1.,0.,0.));
#913=DIRECTION('',(-0.866025403784438,0.500000000000001,0.));
#914=DIRECTION('center_axis',(-0.500000000000001,-0.866025403784438,0.));
#915=DIRECTION('ref_axis',(-0.866025403784438,0.500000000000001,0.));
#916=DIRECTION('',(0.,0.,-1.));
#917=DIRECTION('center_axis',(0.5,-0.866025403784439,0.));
#918=DIRECTION('ref_axis',(-0.866025403784439,-0.5,0.));
#919=DIRECTION('',(0.,0.,-1.));
#920=DIRECTION('center_axis',(-0.866025403784439,-0.5,0.));
#921=DIRECTION('ref_axis',(-0.5,0.866025403784439,0.));
#922=DIRECTION('',(0.,0.,-1.));
#923=DIRECTION('center_axis',(-0.5,0.866025403784439,0.));
#924=DIRECTION('ref_axis',(0.866025403784439,0.499999999999999,0.));
#925=DIRECTION('center_axis',(0.500000000000001,0.866025403784438,0.));
#926=DIRECTION('ref_axis',(0.866025403784438,-0.500000000000001,0.));
#927=DIRECTION('',(0.,0.,-1.));
#928=DIRECTION('center_axis',(0.866025403784438,-0.5,0.));
#929=DIRECTION('ref_axis',(-0.5,-0.866025403784438,0.));
#930=DIRECTION('axis',(0.,0.,1.));
#931=DIRECTION('refdir',(1.,0.,0.));
#932=DIRECTION('center_axis',(0.,1.,0.));
#933=DIRECTION('ref_axis',(0.,0.,1.));
#934=DIRECTION('',(0.,0.,-1.));
#935=DIRECTION('',(-1.,0.,0.));
#936=DIRECTION('',(0.,0.,-1.));
#937=DIRECTION('',(1.,0.,0.));
#938=DIRECTION('',(0.,0.,1.));
#939=DIRECTION('',(-1.,0.,0.));
#940=DIRECTION('',(0.,0.,-1.));
#941=DIRECTION('',(-1.,0.,0.));
#942=DIRECTION('center_axis',(0.,0.,1.));
#943=DIRECTION('ref_axis',(1.,0.,0.));
#944=DIRECTION('center_axis',(0.,0.,1.));
#945=DIRECTION('ref_axis',(1.,0.,0.));
#946=DIRECTION('',(-1.,-4.44089209850063E-16,0.));
#947=DIRECTION('center_axis',(0.,0.,1.));
#948=DIRECTION('ref_axis',(-0.499999999999998,0.86602540378444,0.));
#949=DIRECTION('center_axis',(0.,0.,-1.));
#950=DIRECTION('ref_axis',(1.,0.,0.));
#951=DIRECTION('center_axis',(0.,0.,1.));
#952=DIRECTION('ref_axis',(1.,0.,0.));
#953=DIRECTION('',(0.,0.,-1.));
#954=DIRECTION('',(0.,0.,1.));
#955=DIRECTION('center_axis',(0.,0.,-1.));
#956=DIRECTION('ref_axis',(-1.,0.,0.));
#957=DIRECTION('',(-0.500000000000002,0.866025403784437,0.));
#958=DIRECTION('',(0.,1.,0.));
#959=DIRECTION('center_axis',(0.,0.,1.));
#960=DIRECTION('ref_axis',(1.,0.,0.));
#961=DIRECTION('',(2.77555756156289E-16,1.,0.));
#962=DIRECTION('',(-1.,-4.44089209850063E-16,0.));
#963=DIRECTION('',(0.,-1.,0.));
#964=DIRECTION('',(-1.,-1.11022302462516E-16,0.));
#965=DIRECTION('center_axis',(-4.44089209850063E-16,1.,0.));
#966=DIRECTION('ref_axis',(-1.,-4.44089209850063E-16,0.));
#967=DIRECTION('',(0.,0.,1.));
#968=DIRECTION('center_axis',(0.,0.,-1.));
#969=DIRECTION('ref_axis',(-0.499999999999998,0.86602540378444,0.));
#970=DIRECTION('',(0.,0.,-1.));
#971=DIRECTION('center_axis',(0.,0.,1.));
#972=DIRECTION('ref_axis',(-0.499999999999998,0.86602540378444,0.));
#973=DIRECTION('center_axis',(0.866025403784438,-0.500000000000001,0.));
#974=DIRECTION('ref_axis',(-0.500000000000001,-0.866025403784438,0.));
#975=DIRECTION('',(0.500000000000001,0.866025403784438,0.));
#976=DIRECTION('',(-0.500000000000001,-0.866025403784438,0.));
#977=DIRECTION('',(0.,0.,-1.));
#978=DIRECTION('center_axis',(0.,0.,-1.));
#979=DIRECTION('ref_axis',(-1.,0.,0.));
#980=DIRECTION('',(-2.77555756156289E-16,-1.,0.));
#981=DIRECTION('center_axis',(-0.866025403784437,-0.500000000000002,0.));
#982=DIRECTION('ref_axis',(-0.500000000000002,0.866025403784437,0.));
#983=DIRECTION('',(0.500000000000002,-0.866025403784437,0.));
#984=DIRECTION('',(0.,0.,-1.));
#985=DIRECTION('center_axis',(0.,0.,-1.));
#986=DIRECTION('ref_axis',(-1.,0.,0.));
#987=DIRECTION('',(1.,1.11022302462516E-16,0.));
#988=DIRECTION('center_axis',(-1.,0.,0.));
#989=DIRECTION('ref_axis',(0.,1.,0.));
#990=DIRECTION('',(0.,0.,-1.));
#991=DIRECTION('center_axis',(-1.11022302462516E-16,1.,0.));
#992=DIRECTION('ref_axis',(1.,1.11022302462516E-16,0.));
#993=DIRECTION('',(0.,0.,-1.));
#994=DIRECTION('center_axis',(1.,-2.77555756156289E-16,0.));
#995=DIRECTION('ref_axis',(-2.77555756156289E-16,-1.,0.));
#996=DIRECTION('',(0.,0.,1.));
#997=DIRECTION('',(1.,0.,0.));
#998=DIRECTION('',(-6.10622663543836E-16,-0.707106781186547,0.707106781186548));
#999=DIRECTION('',(1.,-4.31775426138038E-16,4.31775426138038E-16));
#1000=CARTESIAN_POINT('',(0.,0.,0.));
#1001=CARTESIAN_POINT('',(0.,0.,0.));
#1002=CARTESIAN_POINT('Origin',(-4.08346433899874,1.,0.5));
#1003=CARTESIAN_POINT('',(-4.89897948556636,1.,-5.));
#1004=CARTESIAN_POINT('',(-3.26794919243113,1.,-5.));
#1005=CARTESIAN_POINT('',(-0.241025403784438,1.,-5.));
#1006=CARTESIAN_POINT('',(-4.89897948556636,4.88908729652601,-3.38908729652601));
#1007=CARTESIAN_POINT('Origin',(-4.89897948556636,1.00000000000001,0.499999999999997));
#1008=CARTESIAN_POINT('',(-3.26794919243113,4.88908729652601,-3.38908729652601));
#1009=CARTESIAN_POINT('',(-3.26794919243113,4.88908729652601,-3.38908729652601));
#1010=CARTESIAN_POINT('Origin',(-3.26794919243113,1.00000000000001,0.499999999999997));
#1011=CARTESIAN_POINT('Origin',(-3.26794919243112,1.,-0.5));
#1012=CARTESIAN_POINT('',(-3.26794919243112,0.999999999999999,-0.5));
#1013=CARTESIAN_POINT('',(-3.26794919243113,1.,-0.5));
#1014=CARTESIAN_POINT('',(-3.26794919243112,1.70710678118655,-0.207106781186548));
#1015=CARTESIAN_POINT('',(-3.26794919243112,1.70710678118655,-0.207106781186548));
#1016=CARTESIAN_POINT('Origin',(-3.26794919243112,1.,0.500000000000002));
#1017=CARTESIAN_POINT('Origin',(1.66533453693773E-15,1.,0.5));
#1018=CARTESIAN_POINT('',(3.26794919243112,1.,-0.5));
#1019=CARTESIAN_POINT('',(1.63397459621556,1.,-0.5));
#1020=CARTESIAN_POINT('',(3.26794919243112,1.70710678118655,-0.207106781186548));
#1021=CARTESIAN_POINT('',(3.26794919243112,1.70710678118655,-0.207106781186548));
#1022=CARTESIAN_POINT('Origin',(3.26794919243112,1.,0.500000000000002));
#1023=CARTESIAN_POINT('Origin',(3.26794919243112,1.,-5.));
#1024=CARTESIAN_POINT('',(3.26794919243112,1.,-5.));
#1025=CARTESIAN_POINT('',(3.26794919243112,1.,-0.5));
#1026=CARTESIAN_POINT('',(3.26794919243112,4.88908729652601,-3.38908729652601));
#1027=CARTESIAN_POINT('',(3.26794919243112,4.88908729652601,-3.38908729652601));
#1028=CARTESIAN_POINT('Origin',(3.26794919243112,1.00000000000001,0.499999999999997));
#1029=CARTESIAN_POINT('Origin',(4.08346433899874,1.,0.5));
#1030=CARTESIAN_POINT('',(4.89897948556636,1.,-5.));
#1031=CARTESIAN_POINT('',(3.50897459621556,1.,-5.));
#1032=CARTESIAN_POINT('',(4.89897948556636,4.88908729652601,-3.38908729652601));
#1033=CARTESIAN_POINT('',(4.89897948556636,4.88908729652601,-3.38908729652601));
#1034=CARTESIAN_POINT('Origin',(4.89897948556636,1.00000000000001,0.499999999999997));
#1035=CARTESIAN_POINT('Origin',(4.89897948556636,1.,0.5));
#1036=CARTESIAN_POINT('',(4.89897948556636,1.,0.5));
#1037=CARTESIAN_POINT('',(4.89897948556636,1.,0.));
#1038=CARTESIAN_POINT('',(4.89897948556636,1.,0.5));
#1039=CARTESIAN_POINT('Origin',(-4.89897948556636,1.,-5.));
#1040=CARTESIAN_POINT('',(-4.89897948556636,1.,0.5));
#1041=CARTESIAN_POINT('',(-4.89897948556636,1.,0.));
#1042=CARTESIAN_POINT('',(-4.89897948556636,4.88908729652601,-3.38908729652601));
#1043=CARTESIAN_POINT('Origin',(0.,2.94454364826301,-1.44454364826301));
#1044=CARTESIAN_POINT('',(1.63397459621556,1.,0.5));
#1045=CARTESIAN_POINT('Origin',(0.,0.,0.));
#1046=CARTESIAN_POINT('',(-5.,-1.66533453693773E-15,-5.));
#1047=CARTESIAN_POINT('Origin',(0.,0.,-5.));
#1048=CARTESIAN_POINT('',(-5.,-5.55111512312578E-16,0.));
#1049=CARTESIAN_POINT('',(-5.,-5.55111512312578E-16,0.));
#1050=CARTESIAN_POINT('',(-5.,-5.55111512312578E-16,0.5));
#1051=CARTESIAN_POINT('',(-5.,-8.12739661758407E-16,0.));
#1052=CARTESIAN_POINT('Origin',(0.,0.,0.5));
#1053=CARTESIAN_POINT('Origin',(-3.75,2.1650635094611,-5.));
#1054=CARTESIAN_POINT('',(-3.26794919243113,1.,-5.));
#1055=CARTESIAN_POINT('Origin',(5.55111512312578E-16,5.55111512312578E-16,
-0.5));
#1056=CARTESIAN_POINT('',(0.767949192431122,-3.33012701892219,-0.5));
#1057=CARTESIAN_POINT('',(0.767949192431122,-3.33012701892219,-0.5));
#1058=CARTESIAN_POINT('',(-0.767949192431122,-3.3301270189222,-0.5));
#1059=CARTESIAN_POINT('',(-0.383974596215549,-3.33012701892219,-0.5));
#1060=CARTESIAN_POINT('',(-3.26794919243112,0.999999999999999,-0.5));
#1061=CARTESIAN_POINT('Origin',(5.55111512312578E-16,5.55111512312578E-16,
0.));
#1062=CARTESIAN_POINT('',(2.5,-4.33012701892219,0.));
#1063=CARTESIAN_POINT('',(0.767949192431122,-3.33012701892219,0.));
#1064=CARTESIAN_POINT('',(2.5,-4.33012701892219,0.));
#1065=CARTESIAN_POINT('',(3.26794919243112,1.,0.));
#1066=CARTESIAN_POINT('',(0.767949192431122,-3.33012701892219,0.));
#1067=CARTESIAN_POINT('',(5.,-1.83400382508157E-15,0.));
#1068=CARTESIAN_POINT('',(3.26794919243112,1.,0.));
#1069=CARTESIAN_POINT('',(2.5,-4.33012701892219,0.));
#1070=CARTESIAN_POINT('Origin',(-5.,-7.4833262439695E-16,0.));
#1071=CARTESIAN_POINT('',(-2.5,-4.33012701892219,0.));
#1072=CARTESIAN_POINT('',(-5.,-5.55111512312578E-16,0.));
#1073=CARTESIAN_POINT('',(-2.5,-4.33012701892219,0.5));
#1074=CARTESIAN_POINT('',(-2.5,-4.33012701892219,0.));
#1075=CARTESIAN_POINT('',(-5.,-5.55111512312578E-16,0.5));
#1076=CARTESIAN_POINT('Origin',(2.5,-4.33012701892219,0.));
#1077=CARTESIAN_POINT('',(5.,-1.66533453693773E-15,0.5));
#1078=CARTESIAN_POINT('',(5.,-1.83400382508157E-15,0.));
#1079=CARTESIAN_POINT('',(2.5,-4.33012701892219,0.5));
#1080=CARTESIAN_POINT('',(2.5,-4.33012701892219,0.5));
#1081=CARTESIAN_POINT('',(2.5,-4.33012701892219,0.));
#1082=CARTESIAN_POINT('Origin',(5.55111512312578E-16,5.55111512312578E-16,
0.5));
#1083=CARTESIAN_POINT('Origin',(0.,0.,0.5));
#1084=CARTESIAN_POINT('Origin',(0.,0.,0.5));
#1085=CARTESIAN_POINT('Origin',(5.55111512312578E-16,5.55111512312578E-16,
0.));
#1086=CARTESIAN_POINT('',(-0.767949192431122,-3.3301270189222,0.));
#1087=CARTESIAN_POINT('',(-0.767949192431122,-3.3301270189222,0.));
#1088=CARTESIAN_POINT('',(-3.26794919243112,0.999999999999999,0.));
#1089=CARTESIAN_POINT('',(-5.,-1.11022302462516E-15,0.));
#1090=CARTESIAN_POINT('',(-3.26794919243112,0.999999999999999,0.));
#1091=CARTESIAN_POINT('Origin',(0.,0.,0.));
#1092=CARTESIAN_POINT('',(-2.5,-4.33012701892219,-5.));
#1093=CARTESIAN_POINT('',(-2.5,-4.33012701892219,0.));
#1094=CARTESIAN_POINT('',(2.5,-4.33012701892218,-5.));
#1095=CARTESIAN_POINT('Origin',(0.,0.,-5.));
#1096=CARTESIAN_POINT('',(2.5,-4.33012701892219,0.));
#1097=CARTESIAN_POINT('Origin',(0.,0.,0.));
#1098=CARTESIAN_POINT('',(5.,-1.94289029309402E-15,-5.));
#1099=CARTESIAN_POINT('',(5.,-1.83400382508157E-15,0.));
#1100=CARTESIAN_POINT('Origin',(0.,0.,-5.));
#1101=CARTESIAN_POINT('Origin',(-0.767949192431122,-3.3301270189222,-0.5));
#1102=CARTESIAN_POINT('',(0.767949192431119,-3.33012701892218,-5.));
#1103=CARTESIAN_POINT('',(0.767949192431119,-3.33012701892218,-0.5));
#1104=CARTESIAN_POINT('',(-0.767949192431122,-3.3301270189222,-5.));
#1105=CARTESIAN_POINT('',(-0.767949192431122,-3.3301270189222,-5.));
#1106=CARTESIAN_POINT('',(-0.767949192431122,-3.3301270189222,-0.5));
#1107=CARTESIAN_POINT('Origin',(-1.11022302462516E-15,-3.83012701892219,
-5.));
#1108=CARTESIAN_POINT('',(0.767949192431119,-3.33012701892218,-5.));
#1109=CARTESIAN_POINT('',(-2.5,-4.33012701892219,-5.));
#1110=CARTESIAN_POINT('Origin',(3.75,2.1650635094611,-5.));
#1111=CARTESIAN_POINT('',(5.,-1.83400382508157E-15,-5.));
#1112=CARTESIAN_POINT('Origin',(5.,-8.32667268468867E-16,0.));
#1113=CARTESIAN_POINT('',(3.26794919243112,1.,0.));
#1114=CARTESIAN_POINT('Origin',(-3.26794919243112,1.,0.));
#1115=CARTESIAN_POINT('',(-3.26794919243112,0.999999999999999,0.));
#1116=CARTESIAN_POINT('Origin',(-0.767949192431121,-3.3301270189222,0.));
#1117=CARTESIAN_POINT('',(-0.767949192431122,-3.3301270189222,0.));
#1118=CARTESIAN_POINT('Origin',(-2.5,-4.3301270189222,0.));
#1119=CARTESIAN_POINT('Origin',(0.767949192431122,-3.33012701892219,0.));
#1120=CARTESIAN_POINT('',(0.767949192431122,-3.33012701892219,0.));
#1121=CARTESIAN_POINT('Origin',(3.26794919243113,1.,0.));
#1122=CARTESIAN_POINT('',(0.,0.,0.));
#1123=CARTESIAN_POINT('Origin',(3.26794919243112,1.,-5.));
#1124=CARTESIAN_POINT('',(3.26794919243112,1.,-0.5));
#1125=CARTESIAN_POINT('',(3.26794919243112,1.,-5.));
#1126=CARTESIAN_POINT('',(3.26794919243112,1.,-0.5));
#1127=CARTESIAN_POINT('',(4.89897948556636,1.,-5.));
#1128=CARTESIAN_POINT('',(3.50897459621556,1.,-5.));
#1129=CARTESIAN_POINT('',(4.89897948556636,1.,0.5));
#1130=CARTESIAN_POINT('',(4.89897948556636,1.,0.));
#1131=CARTESIAN_POINT('',(-4.89897948556636,1.,0.5));
#1132=CARTESIAN_POINT('',(1.63397459621556,1.,0.5));
#1133=CARTESIAN_POINT('',(-4.89897948556636,1.,-5.));
#1134=CARTESIAN_POINT('',(-4.89897948556636,1.,0.));
#1135=CARTESIAN_POINT('',(-3.26794919243113,1.,-5.));
#1136=CARTESIAN_POINT('',(-0.241025403784438,1.,-5.));
#1137=CARTESIAN_POINT('',(-3.26794919243112,0.999999999999999,-0.5));
#1138=CARTESIAN_POINT('',(-3.26794919243113,1.,-0.5));
#1139=CARTESIAN_POINT('',(1.63397459621556,1.,-0.5));
#1140=CARTESIAN_POINT('Origin',(5.55111512312578E-16,5.55111512312578E-16,
0.5));
#1141=CARTESIAN_POINT('',(2.5,4.3301270189222,0.5));
#1142=CARTESIAN_POINT('Origin',(0.,0.,0.5));
#1143=CARTESIAN_POINT('',(-2.5,4.33012701892219,0.5));
#1144=CARTESIAN_POINT('',(2.5,4.3301270189222,0.5));
#1145=CARTESIAN_POINT('Origin',(0.,0.,0.5));
#1146=CARTESIAN_POINT('Origin',(0.,0.,0.));
#1147=CARTESIAN_POINT('',(2.5,4.3301270189222,-5.));
#1148=CARTESIAN_POINT('Origin',(0.,0.,-5.));
#1149=CARTESIAN_POINT('',(2.5,4.3301270189222,0.));
#1150=CARTESIAN_POINT('',(2.5,4.3301270189222,0.));
#1151=CARTESIAN_POINT('',(2.5,4.3301270189222,0.));
#1152=CARTESIAN_POINT('Origin',(3.75,2.1650635094611,-5.));
#1153=CARTESIAN_POINT('',(2.5,2.33012701892219,-5.));
#1154=CARTESIAN_POINT('',(3.26794919243112,1.,-5.));
#1155=CARTESIAN_POINT('',(2.5,2.33012701892219,-5.));
#1156=CARTESIAN_POINT('Origin',(5.55111512312578E-16,5.55111512312578E-16,
0.));
#1157=CARTESIAN_POINT('',(-2.5,2.33012701892219,0.));
#1158=CARTESIAN_POINT('',(-2.5,4.33012701892219,0.));
#1159=CARTESIAN_POINT('',(-2.5,2.33012701892219,0.));
#1160=CARTESIAN_POINT('',(2.5,4.3301270189222,0.));
#1161=CARTESIAN_POINT('',(2.5,2.33012701892219,0.));
#1162=CARTESIAN_POINT('',(2.5,4.33012701892219,0.));
#1163=CARTESIAN_POINT('',(2.5,2.33012701892219,0.));
#1164=CARTESIAN_POINT('Origin',(2.5,4.3301270189222,0.));
#1165=CARTESIAN_POINT('',(-2.5,4.33012701892219,0.));
#1166=CARTESIAN_POINT('Origin',(0.,0.,0.));
#1167=CARTESIAN_POINT('',(-2.5,4.33012701892219,-5.));
#1168=CARTESIAN_POINT('',(-2.5,4.33012701892219,0.));
#1169=CARTESIAN_POINT('Origin',(0.,0.,-5.));
#1170=CARTESIAN_POINT('Origin',(-2.5,2.33012701892219,-0.5));
#1171=CARTESIAN_POINT('',(-2.5,2.33012701892219,-0.5));
#1172=CARTESIAN_POINT('',(-2.69198729810778,1.99759526419165,-0.5));
#1173=CARTESIAN_POINT('',(-2.5,2.33012701892219,-5.));
#1174=CARTESIAN_POINT('',(-2.5,2.33012701892219,-5.));
#1175=CARTESIAN_POINT('',(-2.5,2.33012701892219,-0.5));
#1176=CARTESIAN_POINT('Origin',(-3.75,2.1650635094611,-5.));
#1177=CARTESIAN_POINT('',(-2.5,4.33012701892219,-5.));
#1178=CARTESIAN_POINT('Origin',(3.26794919243112,1.,-0.5));
#1179=CARTESIAN_POINT('',(2.5,2.33012701892219,-0.5));
#1180=CARTESIAN_POINT('',(3.07596189432334,1.33253175473055,-0.5));
#1181=CARTESIAN_POINT('',(2.5,2.33012701892219,-0.5));
#1182=CARTESIAN_POINT('Origin',(5.55111512312578E-16,5.55111512312578E-16,
-0.5));
#1183=CARTESIAN_POINT('',(2.5,2.33012701892219,-0.5));
#1184=CARTESIAN_POINT('Origin',(2.5,2.33012701892219,0.));
#1185=CARTESIAN_POINT('',(2.5,2.33012701892219,0.));
#1186=CARTESIAN_POINT('Origin',(-2.5,2.33012701892219,0.));
#1187=CARTESIAN_POINT('',(-2.5,2.33012701892219,0.));
#1188=CARTESIAN_POINT('Origin',(-2.5,4.33012701892219,0.));
#1189=CARTESIAN_POINT('',(-21.2914063077933,-7.69778428943316,2.25));
#1190=CARTESIAN_POINT('',(-21.2914063077933,-7.05133768002643,1.68933982822018));
#1191=UNCERTAINTY_MEASURE_WITH_UNIT(LENGTH_MEASURE(0.01),#1199,
'DISTANCE_ACCURACY_VALUE',
'Maximum model space distance between geometric entities at asserted c
onnectivities');
#1192=UNCERTAINTY_MEASURE_WITH_UNIT(LENGTH_MEASURE(0.01),#1199,
'DISTANCE_ACCURACY_VALUE',
'Maximum model space distance between geometric entities at asserted c
onnectivities');
#1193=UNCERTAINTY_MEASURE_WITH_UNIT(LENGTH_MEASURE(0.01),#1199,
'DISTANCE_ACCURACY_VALUE',
'Maximum model space distance between geometric entities at asserted c
onnectivities');
#1194=UNCERTAINTY_MEASURE_WITH_UNIT(LENGTH_MEASURE(0.01),#1199,
'DISTANCE_ACCURACY_VALUE',
'Maximum model space distance between geometric entities at asserted c
onnectivities');
#1195=(
GEOMETRIC_REPRESENTATION_CONTEXT(3)
GLOBAL_UNCERTAINTY_ASSIGNED_CONTEXT((#1191))
GLOBAL_UNIT_ASSIGNED_CONTEXT((#1199,#1201,#1202))
REPRESENTATION_CONTEXT('','3D')
);
#1196=(
GEOMETRIC_REPRESENTATION_CONTEXT(3)
GLOBAL_UNCERTAINTY_ASSIGNED_CONTEXT((#1192))
GLOBAL_UNIT_ASSIGNED_CONTEXT((#1199,#1201,#1202))
REPRESENTATION_CONTEXT('','3D')
);
#1197=(
GEOMETRIC_REPRESENTATION_CONTEXT(3)
GLOBAL_UNCERTAINTY_ASSIGNED_CONTEXT((#1193))
GLOBAL_UNIT_ASSIGNED_CONTEXT((#1199,#1201,#1202))
REPRESENTATION_CONTEXT('','3D')
);
#1198=(
GEOMETRIC_REPRESENTATION_CONTEXT(3)
GLOBAL_UNCERTAINTY_ASSIGNED_CONTEXT((#1194))
GLOBAL_UNIT_ASSIGNED_CONTEXT((#1199,#1201,#1202))
REPRESENTATION_CONTEXT('','3D')
);
#1199=(
LENGTH_UNIT()
NAMED_UNIT(*)
SI_UNIT(.MILLI.,.METRE.)
);
#1200=(
LENGTH_UNIT()
NAMED_UNIT(*)
SI_UNIT(.CENTI.,.METRE.)
);
#1201=(
NAMED_UNIT(*)
PLANE_ANGLE_UNIT()
SI_UNIT($,.RADIAN.)
);
#1202=(
NAMED_UNIT(*)
SI_UNIT($,.STERADIAN.)
SOLID_ANGLE_UNIT()
);
#1203=SHAPE_DEFINITION_REPRESENTATION(#1206,#1211);
#1204=SHAPE_DEFINITION_REPRESENTATION(#1207,#1212);
#1205=SHAPE_DEFINITION_REPRESENTATION(#1208,#1213);
#1206=PRODUCT_DEFINITION_SHAPE('',$,#1215);
#1207=PRODUCT_DEFINITION_SHAPE('',$,#1216);
#1208=PRODUCT_DEFINITION_SHAPE('',$,#1217);
#1209=PRODUCT_DEFINITION_SHAPE($,$,#17);
#1210=PRODUCT_DEFINITION_SHAPE($,$,#18);
#1211=SHAPE_REPRESENTATION('',(#739,#799,#800),#1195);
#1212=SHAPE_REPRESENTATION('',(#740),#1196);
#1213=SHAPE_REPRESENTATION('',(#780),#1197);
#1214=PRODUCT_DEFINITION_CONTEXT('part definition',#1225,'design');
#1215=PRODUCT_DEFINITION('Assembly1','Assembly1',#1218,#1214);
#1216=PRODUCT_DEFINITION('BodyFoldedSide1','BodyFoldedSide1',#1219,#1214);
#1217=PRODUCT_DEFINITION('BodyFoldedSide2','BodyFoldedSide2',#1220,#1214);
#1218=PRODUCT_DEFINITION_FORMATION('',$,#1227);
#1219=PRODUCT_DEFINITION_FORMATION('',$,#1228);
#1220=PRODUCT_DEFINITION_FORMATION('',$,#1229);
#1221=PRODUCT_RELATED_PRODUCT_CATEGORY('Assembly1','Assembly1',(#1227));
#1222=PRODUCT_RELATED_PRODUCT_CATEGORY('BodyFoldedSide1',
'BodyFoldedSide1',(#1228));
#1223=PRODUCT_RELATED_PRODUCT_CATEGORY('BodyFoldedSide2',
'BodyFoldedSide2',(#1229));
#1224=APPLICATION_PROTOCOL_DEFINITION('international standard',
'automotive_design',2009,#1225);
#1225=APPLICATION_CONTEXT(
'Core Data for Automotive Mechanical Design Process');
#1226=PRODUCT_CONTEXT('part definition',#1225,'mechanical');
#1227=PRODUCT('Assembly1','Assembly1',$,(#1226));
#1228=PRODUCT('BodyFoldedSide1','BodyFoldedSide1',$,(#1226));
#1229=PRODUCT('BodyFoldedSide2','BodyFoldedSide2',$,(#1226));
ENDSEC;
END-ISO-10303-21;
