ISO-10303-21;
HEADER;
/* Generated by software containing ST-Developer
 * from STEP Tools, Inc. (www.steptools.com) 
 */

FILE_DESCRIPTION(
/* description */ (''),
/* implementation_level */ '2;1');

FILE_NAME(
/* name */ 'FoldedNoSGV2.stp',
/* time_stamp */ '2026-06-17T18:17:57+01:00',
/* author */ ('Jakub Schmidt'),
/* organization */ (''),
/* preprocessor_version */ 'ST-DEVELOPER v20.1',
/* originating_system */ 'Autodesk Inventor 2026',
/* authorisation */ '');

FILE_SCHEMA (('AUTOMOTIVE_DESIGN { 1 0 10303 214 3 1 1 }'));
ENDSEC;

DATA;
#10=MECHANICAL_DESIGN_GEOMETRIC_PRESENTATION_REPRESENTATION('',(#23,#24),
#1047);
#11=ITEM_DEFINED_TRANSFORMATION($,$,#657,#703);
#12=ITEM_DEFINED_TRANSFORMATION($,$,#684,#704);
#13=(
REPRESENTATION_RELATIONSHIP($,$,#1061,#1060)
REPRESENTATION_RELATIONSHIP_WITH_TRANSFORMATION(#11)
SHAPE_REPRESENTATION_RELATIONSHIP()
);
#14=(
REPRESENTATION_RELATIONSHIP($,$,#1062,#1060)
REPRESENTATION_RELATIONSHIP_WITH_TRANSFORMATION(#12)
SHAPE_REPRESENTATION_RELATIONSHIP()
);
#15=CONTEXT_DEPENDENT_SHAPE_REPRESENTATION(#13,#1058);
#16=CONTEXT_DEPENDENT_SHAPE_REPRESENTATION(#14,#1059);
#17=NEXT_ASSEMBLY_USAGE_OCCURRENCE('BodyFoldedSide1:1',
'BodyFoldedSide1:1','BodyFoldedSide1:1',#1064,#1065,'BodyFoldedSide1:1');
#18=NEXT_ASSEMBLY_USAGE_OCCURRENCE('BodyFoldedSide2:1',
'BodyFoldedSide2:1','BodyFoldedSide2:1',#1064,#1066,'BodyFoldedSide2:1');
#19=SHAPE_REPRESENTATION_RELATIONSHIP('SRR','None',#1061,#21);
#20=SHAPE_REPRESENTATION_RELATIONSHIP('SRR','None',#1062,#22);
#21=ADVANCED_BREP_SHAPE_REPRESENTATION('',(#25),#1045);
#22=ADVANCED_BREP_SHAPE_REPRESENTATION('',(#26),#1046);
#23=STYLED_ITEM('',(#629),#25);
#24=STYLED_ITEM('',(#629),#26);
#25=MANIFOLD_SOLID_BREP('Solid3',#601);
#26=MANIFOLD_SOLID_BREP('Solid3',#602);
#27=CIRCLE('',#660,5.);
#28=CIRCLE('',#661,5.);
#29=CIRCLE('',#668,5.);
#30=CIRCLE('',#669,5.);
#31=CIRCLE('',#672,5.);
#32=CIRCLE('',#674,5.);
#33=CIRCLE('',#687,5.);
#34=CIRCLE('',#688,5.);
#35=CIRCLE('',#690,5.);
#36=CIRCLE('',#695,5.);
#37=CYLINDRICAL_SURFACE('',#659,5.);
#38=CYLINDRICAL_SURFACE('',#671,5.);
#39=CYLINDRICAL_SURFACE('',#673,5.);
#40=CYLINDRICAL_SURFACE('',#689,5.);
#41=CYLINDRICAL_SURFACE('',#694,5.);
#42=FACE_OUTER_BOUND('',#76,.T.);
#43=FACE_OUTER_BOUND('',#77,.T.);
#44=FACE_OUTER_BOUND('',#78,.T.);
#45=FACE_OUTER_BOUND('',#79,.T.);
#46=FACE_OUTER_BOUND('',#80,.T.);
#47=FACE_OUTER_BOUND('',#81,.T.);
#48=FACE_OUTER_BOUND('',#82,.T.);
#49=FACE_OUTER_BOUND('',#83,.T.);
#50=FACE_OUTER_BOUND('',#84,.T.);
#51=FACE_OUTER_BOUND('',#85,.T.);
#52=FACE_OUTER_BOUND('',#86,.T.);
#53=FACE_OUTER_BOUND('',#87,.T.);
#54=FACE_OUTER_BOUND('',#88,.T.);
#55=FACE_OUTER_BOUND('',#89,.T.);
#56=FACE_OUTER_BOUND('',#90,.T.);
#57=FACE_OUTER_BOUND('',#91,.T.);
#58=FACE_OUTER_BOUND('',#92,.T.);
#59=FACE_OUTER_BOUND('',#93,.T.);
#60=FACE_OUTER_BOUND('',#94,.T.);
#61=FACE_OUTER_BOUND('',#95,.T.);
#62=FACE_OUTER_BOUND('',#96,.T.);
#63=FACE_OUTER_BOUND('',#97,.T.);
#64=FACE_OUTER_BOUND('',#98,.T.);
#65=FACE_OUTER_BOUND('',#99,.T.);
#66=FACE_OUTER_BOUND('',#100,.T.);
#67=FACE_OUTER_BOUND('',#101,.T.);
#68=FACE_OUTER_BOUND('',#102,.T.);
#69=FACE_OUTER_BOUND('',#103,.T.);
#70=FACE_OUTER_BOUND('',#104,.T.);
#71=FACE_OUTER_BOUND('',#105,.T.);
#72=FACE_OUTER_BOUND('',#106,.T.);
#73=FACE_OUTER_BOUND('',#107,.T.);
#74=FACE_OUTER_BOUND('',#108,.T.);
#75=FACE_OUTER_BOUND('',#109,.T.);
#76=EDGE_LOOP('',(#378,#379,#380,#381,#382,#383,#384,#385,#386,#387,#388,
#389));
#77=EDGE_LOOP('',(#390,#391,#392,#393,#394));
#78=EDGE_LOOP('',(#395,#396,#397));
#79=EDGE_LOOP('',(#398,#399,#400,#401));
#80=EDGE_LOOP('',(#402,#403,#404,#405));
#81=EDGE_LOOP('',(#406,#407,#408,#409));
#82=EDGE_LOOP('',(#410,#411,#412,#413));
#83=EDGE_LOOP('',(#414,#415,#416,#417,#418,#419));
#84=EDGE_LOOP('',(#420,#421,#422,#423));
#85=EDGE_LOOP('',(#424,#425,#426,#427,#428,#429));
#86=EDGE_LOOP('',(#430,#431,#432,#433,#434));
#87=EDGE_LOOP('',(#435,#436,#437,#438));
#88=EDGE_LOOP('',(#439,#440,#441,#442));
#89=EDGE_LOOP('',(#443,#444,#445));
#90=EDGE_LOOP('',(#446,#447,#448,#449,#450));
#91=EDGE_LOOP('',(#451,#452,#453,#454,#455));
#92=EDGE_LOOP('',(#456,#457,#458,#459));
#93=EDGE_LOOP('',(#460,#461,#462,#463,#464));
#94=EDGE_LOOP('',(#465,#466,#467,#468,#469));
#95=EDGE_LOOP('',(#470,#471,#472,#473));
#96=EDGE_LOOP('',(#474,#475,#476,#477,#478,#479,#480,#481));
#97=EDGE_LOOP('',(#482,#483,#484,#485));
#98=EDGE_LOOP('',(#486,#487,#488,#489,#490));
#99=EDGE_LOOP('',(#491,#492,#493,#494));
#100=EDGE_LOOP('',(#495,#496,#497,#498));
#101=EDGE_LOOP('',(#499,#500,#501,#502));
#102=EDGE_LOOP('',(#503,#504,#505,#506,#507));
#103=EDGE_LOOP('',(#508,#509,#510,#511));
#104=EDGE_LOOP('',(#512,#513,#514,#515));
#105=EDGE_LOOP('',(#516,#517,#518,#519));
#106=EDGE_LOOP('',(#520,#521,#522,#523));
#107=EDGE_LOOP('',(#524,#525,#526,#527,#528));
#108=EDGE_LOOP('',(#529,#530,#531,#532));
#109=EDGE_LOOP('',(#533,#534,#535,#536,#537));
#110=LINE('',#878,#180);
#111=LINE('',#880,#181);
#112=LINE('',#881,#182);
#113=LINE('',#883,#183);
#114=LINE('',#885,#184);
#115=LINE('',#886,#185);
#116=LINE('',#888,#186);
#117=LINE('',#890,#187);
#118=LINE('',#892,#188);
#119=LINE('',#894,#189);
#120=LINE('',#896,#190);
#121=LINE('',#897,#191);
#122=LINE('',#902,#192);
#123=LINE('',#904,#193);
#124=LINE('',#907,#194);
#125=LINE('',#910,#195);
#126=LINE('',#912,#196);
#127=LINE('',#913,#197);
#128=LINE('',#917,#198);
#129=LINE('',#918,#199);
#130=LINE('',#920,#200);
#131=LINE('',#921,#201);
#132=LINE('',#924,#202);
#133=LINE('',#926,#203);
#134=LINE('',#927,#204);
#135=LINE('',#930,#205);
#136=LINE('',#932,#206);
#137=LINE('',#933,#207);
#138=LINE('',#939,#208);
#139=LINE('',#940,#209);
#140=LINE('',#941,#210);
#141=LINE('',#944,#211);
#142=LINE('',#947,#212);
#143=LINE('',#950,#213);
#144=LINE('',#954,#214);
#145=LINE('',#956,#215);
#146=LINE('',#957,#216);
#147=LINE('',#959,#217);
#148=LINE('',#960,#218);
#149=LINE('',#962,#219);
#150=LINE('',#966,#220);
#151=LINE('',#969,#221);
#152=LINE('',#975,#222);
#153=LINE('',#977,#223);
#154=LINE('',#979,#224);
#155=LINE('',#981,#225);
#156=LINE('',#983,#226);
#157=LINE('',#985,#227);
#158=LINE('',#987,#228);
#159=LINE('',#988,#229);
#160=LINE('',#993,#230);
#161=LINE('',#999,#231);
#162=LINE('',#1000,#232);
#163=LINE('',#1003,#233);
#164=LINE('',#1004,#234);
#165=LINE('',#1008,#235);
#166=LINE('',#1009,#236);
#167=LINE('',#1011,#237);
#168=LINE('',#1012,#238);
#169=LINE('',#1014,#239);
#170=LINE('',#1017,#240);
#171=LINE('',#1021,#241);
#172=LINE('',#1023,#242);
#173=LINE('',#1024,#243);
#174=LINE('',#1026,#244);
#175=LINE('',#1029,#245);
#176=LINE('',#1030,#246);
#177=LINE('',#1032,#247);
#178=LINE('',#1034,#248);
#179=LINE('',#1036,#249);
#180=VECTOR('',#711,10.);
#181=VECTOR('',#712,10.);
#182=VECTOR('',#713,10.);
#183=VECTOR('',#714,10.);
#184=VECTOR('',#715,10.);
#185=VECTOR('',#716,10.);
#186=VECTOR('',#717,10.);
#187=VECTOR('',#718,10.);
#188=VECTOR('',#719,10.);
#189=VECTOR('',#720,10.);
#190=VECTOR('',#721,10.);
#191=VECTOR('',#722,10.);
#192=VECTOR('',#727,10.);
#193=VECTOR('',#728,10.);
#194=VECTOR('',#733,10.);
#195=VECTOR('',#736,10.);
#196=VECTOR('',#737,10.);
#197=VECTOR('',#738,10.);
#198=VECTOR('',#741,10.);
#199=VECTOR('',#742,10.);
#200=VECTOR('',#743,10.);
#201=VECTOR('',#744,10.);
#202=VECTOR('',#747,10.);
#203=VECTOR('',#748,10.);
#204=VECTOR('',#749,10.);
#205=VECTOR('',#752,10.);
#206=VECTOR('',#753,10.);
#207=VECTOR('',#754,10.);
#208=VECTOR('',#763,10.);
#209=VECTOR('',#764,10.);
#210=VECTOR('',#765,10.);
#211=VECTOR('',#768,10.);
#212=VECTOR('',#771,10.);
#213=VECTOR('',#774,10.);
#214=VECTOR('',#779,10.);
#215=VECTOR('',#780,10.);
#216=VECTOR('',#781,10.);
#217=VECTOR('',#784,10.);
#218=VECTOR('',#785,10.);
#219=VECTOR('',#788,10.);
#220=VECTOR('',#795,10.);
#221=VECTOR('',#800,10.);
#222=VECTOR('',#807,10.);
#223=VECTOR('',#808,10.);
#224=VECTOR('',#809,10.);
#225=VECTOR('',#810,10.);
#226=VECTOR('',#811,10.);
#227=VECTOR('',#812,10.);
#228=VECTOR('',#813,10.);
#229=VECTOR('',#814,10.);
#230=VECTOR('',#819,10.);
#231=VECTOR('',#826,10.);
#232=VECTOR('',#827,10.);
#233=VECTOR('',#830,10.);
#234=VECTOR('',#831,10.);
#235=VECTOR('',#834,10.);
#236=VECTOR('',#835,10.);
#237=VECTOR('',#836,10.);
#238=VECTOR('',#837,10.);
#239=VECTOR('',#840,10.);
#240=VECTOR('',#843,10.);
#241=VECTOR('',#848,10.);
#242=VECTOR('',#849,10.);
#243=VECTOR('',#850,10.);
#244=VECTOR('',#853,10.);
#245=VECTOR('',#856,10.);
#246=VECTOR('',#857,10.);
#247=VECTOR('',#860,10.);
#248=VECTOR('',#863,10.);
#249=VECTOR('',#866,10.);
#250=VERTEX_POINT('',#876);
#251=VERTEX_POINT('',#877);
#252=VERTEX_POINT('',#879);
#253=VERTEX_POINT('',#882);
#254=VERTEX_POINT('',#884);
#255=VERTEX_POINT('',#887);
#256=VERTEX_POINT('',#889);
#257=VERTEX_POINT('',#891);
#258=VERTEX_POINT('',#893);
#259=VERTEX_POINT('',#895);
#260=VERTEX_POINT('',#899);
#261=VERTEX_POINT('',#901);
#262=VERTEX_POINT('',#903);
#263=VERTEX_POINT('',#909);
#264=VERTEX_POINT('',#911);
#265=VERTEX_POINT('',#915);
#266=VERTEX_POINT('',#916);
#267=VERTEX_POINT('',#919);
#268=VERTEX_POINT('',#923);
#269=VERTEX_POINT('',#925);
#270=VERTEX_POINT('',#929);
#271=VERTEX_POINT('',#931);
#272=VERTEX_POINT('',#938);
#273=VERTEX_POINT('',#943);
#274=VERTEX_POINT('',#945);
#275=VERTEX_POINT('',#949);
#276=VERTEX_POINT('',#953);
#277=VERTEX_POINT('',#955);
#278=VERTEX_POINT('',#973);
#279=VERTEX_POINT('',#974);
#280=VERTEX_POINT('',#976);
#281=VERTEX_POINT('',#978);
#282=VERTEX_POINT('',#980);
#283=VERTEX_POINT('',#982);
#284=VERTEX_POINT('',#984);
#285=VERTEX_POINT('',#986);
#286=VERTEX_POINT('',#990);
#287=VERTEX_POINT('',#992);
#288=VERTEX_POINT('',#996);
#289=VERTEX_POINT('',#998);
#290=VERTEX_POINT('',#1002);
#291=VERTEX_POINT('',#1006);
#292=VERTEX_POINT('',#1007);
#293=VERTEX_POINT('',#1010);
#294=VERTEX_POINT('',#1016);
#295=VERTEX_POINT('',#1020);
#296=VERTEX_POINT('',#1022);
#297=VERTEX_POINT('',#1028);
#298=EDGE_CURVE('',#250,#251,#110,.T.);
#299=EDGE_CURVE('',#252,#250,#111,.T.);
#300=EDGE_CURVE('',#252,#250,#112,.T.);
#301=EDGE_CURVE('',#253,#250,#113,.T.);
#302=EDGE_CURVE('',#254,#253,#114,.T.);
#303=EDGE_CURVE('',#254,#253,#115,.T.);
#304=EDGE_CURVE('',#253,#255,#116,.T.);
#305=EDGE_CURVE('',#256,#255,#117,.T.);
#306=EDGE_CURVE('',#257,#256,#118,.T.);
#307=EDGE_CURVE('',#258,#257,#119,.T.);
#308=EDGE_CURVE('',#259,#258,#120,.T.);
#309=EDGE_CURVE('',#251,#259,#121,.T.);
#310=EDGE_CURVE('',#260,#256,#27,.T.);
#311=EDGE_CURVE('',#261,#260,#122,.T.);
#312=EDGE_CURVE('',#261,#262,#123,.T.);
#313=EDGE_CURVE('',#257,#262,#28,.T.);
#314=EDGE_CURVE('',#255,#260,#124,.T.);
#315=EDGE_CURVE('',#250,#263,#125,.T.);
#316=EDGE_CURVE('',#263,#264,#126,.T.);
#317=EDGE_CURVE('',#264,#253,#127,.T.);
#318=EDGE_CURVE('',#265,#266,#128,.T.);
#319=EDGE_CURVE('',#266,#252,#129,.T.);
#320=EDGE_CURVE('',#252,#267,#130,.T.);
#321=EDGE_CURVE('',#265,#267,#131,.T.);
#322=EDGE_CURVE('',#261,#268,#132,.T.);
#323=EDGE_CURVE('',#268,#269,#133,.T.);
#324=EDGE_CURVE('',#262,#269,#134,.T.);
#325=EDGE_CURVE('',#267,#270,#135,.T.);
#326=EDGE_CURVE('',#271,#270,#136,.T.);
#327=EDGE_CURVE('',#265,#271,#137,.T.);
#328=EDGE_CURVE('',#269,#271,#29,.T.);
#329=EDGE_CURVE('',#270,#258,#30,.T.);
#330=EDGE_CURVE('',#272,#268,#138,.T.);
#331=EDGE_CURVE('',#261,#254,#139,.T.);
#332=EDGE_CURVE('',#254,#272,#140,.T.);
#333=EDGE_CURVE('',#268,#273,#141,.T.);
#334=EDGE_CURVE('',#274,#273,#31,.T.);
#335=EDGE_CURVE('',#265,#274,#142,.T.);
#336=EDGE_CURVE('',#267,#275,#143,.T.);
#337=EDGE_CURVE('',#259,#275,#32,.T.);
#338=EDGE_CURVE('',#263,#276,#144,.T.);
#339=EDGE_CURVE('',#277,#276,#145,.T.);
#340=EDGE_CURVE('',#264,#277,#146,.T.);
#341=EDGE_CURVE('',#276,#274,#147,.T.);
#342=EDGE_CURVE('',#273,#277,#148,.T.);
#343=EDGE_CURVE('',#275,#251,#149,.T.);
#344=EDGE_CURVE('',#272,#264,#150,.T.);
#345=EDGE_CURVE('',#266,#263,#151,.T.);
#346=EDGE_CURVE('',#278,#279,#152,.T.);
#347=EDGE_CURVE('',#280,#279,#153,.T.);
#348=EDGE_CURVE('',#281,#280,#154,.T.);
#349=EDGE_CURVE('',#282,#281,#155,.T.);
#350=EDGE_CURVE('',#283,#282,#156,.T.);
#351=EDGE_CURVE('',#284,#283,#157,.T.);
#352=EDGE_CURVE('',#285,#284,#158,.T.);
#353=EDGE_CURVE('',#278,#285,#159,.T.);
#354=EDGE_CURVE('',#281,#286,#33,.T.);
#355=EDGE_CURVE('',#286,#287,#160,.T.);
#356=EDGE_CURVE('',#287,#282,#34,.T.);
#357=EDGE_CURVE('',#280,#288,#35,.T.);
#358=EDGE_CURVE('',#289,#288,#161,.T.);
#359=EDGE_CURVE('',#289,#286,#162,.T.);
#360=EDGE_CURVE('',#279,#290,#163,.T.);
#361=EDGE_CURVE('',#290,#288,#164,.T.);
#362=EDGE_CURVE('',#291,#292,#165,.T.);
#363=EDGE_CURVE('',#289,#292,#166,.T.);
#364=EDGE_CURVE('',#289,#293,#167,.T.);
#365=EDGE_CURVE('',#293,#291,#168,.T.);
#366=EDGE_CURVE('',#292,#287,#169,.T.);
#367=EDGE_CURVE('',#292,#294,#170,.T.);
#368=EDGE_CURVE('',#294,#283,#36,.T.);
#369=EDGE_CURVE('',#285,#295,#171,.T.);
#370=EDGE_CURVE('',#296,#284,#172,.T.);
#371=EDGE_CURVE('',#295,#296,#173,.T.);
#372=EDGE_CURVE('',#294,#296,#174,.T.);
#373=EDGE_CURVE('',#297,#278,#175,.T.);
#374=EDGE_CURVE('',#297,#290,#176,.T.);
#375=EDGE_CURVE('',#295,#297,#177,.T.);
#376=EDGE_CURVE('',#293,#297,#178,.T.);
#377=EDGE_CURVE('',#291,#295,#179,.T.);
#378=ORIENTED_EDGE('',*,*,#298,.F.);
#379=ORIENTED_EDGE('',*,*,#299,.F.);
#380=ORIENTED_EDGE('',*,*,#300,.T.);
#381=ORIENTED_EDGE('',*,*,#301,.F.);
#382=ORIENTED_EDGE('',*,*,#302,.F.);
#383=ORIENTED_EDGE('',*,*,#303,.T.);
#384=ORIENTED_EDGE('',*,*,#304,.T.);
#385=ORIENTED_EDGE('',*,*,#305,.F.);
#386=ORIENTED_EDGE('',*,*,#306,.F.);
#387=ORIENTED_EDGE('',*,*,#307,.F.);
#388=ORIENTED_EDGE('',*,*,#308,.F.);
#389=ORIENTED_EDGE('',*,*,#309,.F.);
#390=ORIENTED_EDGE('',*,*,#306,.T.);
#391=ORIENTED_EDGE('',*,*,#310,.F.);
#392=ORIENTED_EDGE('',*,*,#311,.F.);
#393=ORIENTED_EDGE('',*,*,#312,.T.);
#394=ORIENTED_EDGE('',*,*,#313,.F.);
#395=ORIENTED_EDGE('',*,*,#305,.T.);
#396=ORIENTED_EDGE('',*,*,#314,.T.);
#397=ORIENTED_EDGE('',*,*,#310,.T.);
#398=ORIENTED_EDGE('',*,*,#301,.T.);
#399=ORIENTED_EDGE('',*,*,#315,.T.);
#400=ORIENTED_EDGE('',*,*,#316,.T.);
#401=ORIENTED_EDGE('',*,*,#317,.T.);
#402=ORIENTED_EDGE('',*,*,#318,.T.);
#403=ORIENTED_EDGE('',*,*,#319,.T.);
#404=ORIENTED_EDGE('',*,*,#320,.T.);
#405=ORIENTED_EDGE('',*,*,#321,.F.);
#406=ORIENTED_EDGE('',*,*,#322,.T.);
#407=ORIENTED_EDGE('',*,*,#323,.T.);
#408=ORIENTED_EDGE('',*,*,#324,.F.);
#409=ORIENTED_EDGE('',*,*,#312,.F.);
#410=ORIENTED_EDGE('',*,*,#321,.T.);
#411=ORIENTED_EDGE('',*,*,#325,.T.);
#412=ORIENTED_EDGE('',*,*,#326,.F.);
#413=ORIENTED_EDGE('',*,*,#327,.F.);
#414=ORIENTED_EDGE('',*,*,#307,.T.);
#415=ORIENTED_EDGE('',*,*,#313,.T.);
#416=ORIENTED_EDGE('',*,*,#324,.T.);
#417=ORIENTED_EDGE('',*,*,#328,.T.);
#418=ORIENTED_EDGE('',*,*,#326,.T.);
#419=ORIENTED_EDGE('',*,*,#329,.T.);
#420=ORIENTED_EDGE('',*,*,#330,.T.);
#421=ORIENTED_EDGE('',*,*,#322,.F.);
#422=ORIENTED_EDGE('',*,*,#331,.T.);
#423=ORIENTED_EDGE('',*,*,#332,.T.);
#424=ORIENTED_EDGE('',*,*,#333,.T.);
#425=ORIENTED_EDGE('',*,*,#334,.F.);
#426=ORIENTED_EDGE('',*,*,#335,.F.);
#427=ORIENTED_EDGE('',*,*,#327,.T.);
#428=ORIENTED_EDGE('',*,*,#328,.F.);
#429=ORIENTED_EDGE('',*,*,#323,.F.);
#430=ORIENTED_EDGE('',*,*,#308,.T.);
#431=ORIENTED_EDGE('',*,*,#329,.F.);
#432=ORIENTED_EDGE('',*,*,#325,.F.);
#433=ORIENTED_EDGE('',*,*,#336,.T.);
#434=ORIENTED_EDGE('',*,*,#337,.F.);
#435=ORIENTED_EDGE('',*,*,#316,.F.);
#436=ORIENTED_EDGE('',*,*,#338,.T.);
#437=ORIENTED_EDGE('',*,*,#339,.F.);
#438=ORIENTED_EDGE('',*,*,#340,.F.);
#439=ORIENTED_EDGE('',*,*,#341,.T.);
#440=ORIENTED_EDGE('',*,*,#334,.T.);
#441=ORIENTED_EDGE('',*,*,#342,.T.);
#442=ORIENTED_EDGE('',*,*,#339,.T.);
#443=ORIENTED_EDGE('',*,*,#309,.T.);
#444=ORIENTED_EDGE('',*,*,#337,.T.);
#445=ORIENTED_EDGE('',*,*,#343,.T.);
#446=ORIENTED_EDGE('',*,*,#320,.F.);
#447=ORIENTED_EDGE('',*,*,#299,.T.);
#448=ORIENTED_EDGE('',*,*,#298,.T.);
#449=ORIENTED_EDGE('',*,*,#343,.F.);
#450=ORIENTED_EDGE('',*,*,#336,.F.);
#451=ORIENTED_EDGE('',*,*,#331,.F.);
#452=ORIENTED_EDGE('',*,*,#311,.T.);
#453=ORIENTED_EDGE('',*,*,#314,.F.);
#454=ORIENTED_EDGE('',*,*,#304,.F.);
#455=ORIENTED_EDGE('',*,*,#303,.F.);
#456=ORIENTED_EDGE('',*,*,#332,.F.);
#457=ORIENTED_EDGE('',*,*,#302,.T.);
#458=ORIENTED_EDGE('',*,*,#317,.F.);
#459=ORIENTED_EDGE('',*,*,#344,.F.);
#460=ORIENTED_EDGE('',*,*,#330,.F.);
#461=ORIENTED_EDGE('',*,*,#344,.T.);
#462=ORIENTED_EDGE('',*,*,#340,.T.);
#463=ORIENTED_EDGE('',*,*,#342,.F.);
#464=ORIENTED_EDGE('',*,*,#333,.F.);
#465=ORIENTED_EDGE('',*,*,#318,.F.);
#466=ORIENTED_EDGE('',*,*,#335,.T.);
#467=ORIENTED_EDGE('',*,*,#341,.F.);
#468=ORIENTED_EDGE('',*,*,#338,.F.);
#469=ORIENTED_EDGE('',*,*,#345,.F.);
#470=ORIENTED_EDGE('',*,*,#319,.F.);
#471=ORIENTED_EDGE('',*,*,#345,.T.);
#472=ORIENTED_EDGE('',*,*,#315,.F.);
#473=ORIENTED_EDGE('',*,*,#300,.F.);
#474=ORIENTED_EDGE('',*,*,#346,.T.);
#475=ORIENTED_EDGE('',*,*,#347,.F.);
#476=ORIENTED_EDGE('',*,*,#348,.F.);
#477=ORIENTED_EDGE('',*,*,#349,.F.);
#478=ORIENTED_EDGE('',*,*,#350,.F.);
#479=ORIENTED_EDGE('',*,*,#351,.F.);
#480=ORIENTED_EDGE('',*,*,#352,.F.);
#481=ORIENTED_EDGE('',*,*,#353,.F.);
#482=ORIENTED_EDGE('',*,*,#349,.T.);
#483=ORIENTED_EDGE('',*,*,#354,.T.);
#484=ORIENTED_EDGE('',*,*,#355,.T.);
#485=ORIENTED_EDGE('',*,*,#356,.T.);
#486=ORIENTED_EDGE('',*,*,#348,.T.);
#487=ORIENTED_EDGE('',*,*,#357,.T.);
#488=ORIENTED_EDGE('',*,*,#358,.F.);
#489=ORIENTED_EDGE('',*,*,#359,.T.);
#490=ORIENTED_EDGE('',*,*,#354,.F.);
#491=ORIENTED_EDGE('',*,*,#347,.T.);
#492=ORIENTED_EDGE('',*,*,#360,.T.);
#493=ORIENTED_EDGE('',*,*,#361,.T.);
#494=ORIENTED_EDGE('',*,*,#357,.F.);
#495=ORIENTED_EDGE('',*,*,#362,.T.);
#496=ORIENTED_EDGE('',*,*,#363,.F.);
#497=ORIENTED_EDGE('',*,*,#364,.T.);
#498=ORIENTED_EDGE('',*,*,#365,.T.);
#499=ORIENTED_EDGE('',*,*,#363,.T.);
#500=ORIENTED_EDGE('',*,*,#366,.T.);
#501=ORIENTED_EDGE('',*,*,#355,.F.);
#502=ORIENTED_EDGE('',*,*,#359,.F.);
#503=ORIENTED_EDGE('',*,*,#350,.T.);
#504=ORIENTED_EDGE('',*,*,#356,.F.);
#505=ORIENTED_EDGE('',*,*,#366,.F.);
#506=ORIENTED_EDGE('',*,*,#367,.T.);
#507=ORIENTED_EDGE('',*,*,#368,.T.);
#508=ORIENTED_EDGE('',*,*,#369,.F.);
#509=ORIENTED_EDGE('',*,*,#352,.T.);
#510=ORIENTED_EDGE('',*,*,#370,.F.);
#511=ORIENTED_EDGE('',*,*,#371,.F.);
#512=ORIENTED_EDGE('',*,*,#351,.T.);
#513=ORIENTED_EDGE('',*,*,#368,.F.);
#514=ORIENTED_EDGE('',*,*,#372,.T.);
#515=ORIENTED_EDGE('',*,*,#370,.T.);
#516=ORIENTED_EDGE('',*,*,#373,.F.);
#517=ORIENTED_EDGE('',*,*,#374,.T.);
#518=ORIENTED_EDGE('',*,*,#360,.F.);
#519=ORIENTED_EDGE('',*,*,#346,.F.);
#520=ORIENTED_EDGE('',*,*,#353,.T.);
#521=ORIENTED_EDGE('',*,*,#369,.T.);
#522=ORIENTED_EDGE('',*,*,#375,.T.);
#523=ORIENTED_EDGE('',*,*,#373,.T.);
#524=ORIENTED_EDGE('',*,*,#364,.F.);
#525=ORIENTED_EDGE('',*,*,#358,.T.);
#526=ORIENTED_EDGE('',*,*,#361,.F.);
#527=ORIENTED_EDGE('',*,*,#374,.F.);
#528=ORIENTED_EDGE('',*,*,#376,.F.);
#529=ORIENTED_EDGE('',*,*,#365,.F.);
#530=ORIENTED_EDGE('',*,*,#376,.T.);
#531=ORIENTED_EDGE('',*,*,#375,.F.);
#532=ORIENTED_EDGE('',*,*,#377,.F.);
#533=ORIENTED_EDGE('',*,*,#362,.F.);
#534=ORIENTED_EDGE('',*,*,#377,.T.);
#535=ORIENTED_EDGE('',*,*,#371,.T.);
#536=ORIENTED_EDGE('',*,*,#372,.F.);
#537=ORIENTED_EDGE('',*,*,#367,.F.);
#538=PLANE('',#658);
#539=PLANE('',#662);
#540=PLANE('',#663);
#541=PLANE('',#664);
#542=PLANE('',#665);
#543=PLANE('',#666);
#544=PLANE('',#667);
#545=PLANE('',#670);
#546=PLANE('',#675);
#547=PLANE('',#676);
#548=PLANE('',#677);
#549=PLANE('',#678);
#550=PLANE('',#679);
#551=PLANE('',#680);
#552=PLANE('',#681);
#553=PLANE('',#682);
#554=PLANE('',#683);
#555=PLANE('',#685);
#556=PLANE('',#686);
#557=PLANE('',#691);
#558=PLANE('',#692);
#559=PLANE('',#693);
#560=PLANE('',#696);
#561=PLANE('',#697);
#562=PLANE('',#698);
#563=PLANE('',#699);
#564=PLANE('',#700);
#565=PLANE('',#701);
#566=PLANE('',#702);
#567=ADVANCED_FACE('',(#42),#538,.T.);
#568=ADVANCED_FACE('',(#43),#37,.T.);
#569=ADVANCED_FACE('',(#44),#539,.T.);
#570=ADVANCED_FACE('',(#45),#540,.T.);
#571=ADVANCED_FACE('',(#46),#541,.F.);
#572=ADVANCED_FACE('',(#47),#542,.T.);
#573=ADVANCED_FACE('',(#48),#543,.T.);
#574=ADVANCED_FACE('',(#49),#544,.T.);
#575=ADVANCED_FACE('',(#50),#545,.F.);
#576=ADVANCED_FACE('',(#51),#38,.T.);
#577=ADVANCED_FACE('',(#52),#39,.T.);
#578=ADVANCED_FACE('',(#53),#546,.T.);
#579=ADVANCED_FACE('',(#54),#547,.T.);
#580=ADVANCED_FACE('',(#55),#548,.T.);
#581=ADVANCED_FACE('',(#56),#549,.T.);
#582=ADVANCED_FACE('',(#57),#550,.T.);
#583=ADVANCED_FACE('',(#58),#551,.T.);
#584=ADVANCED_FACE('',(#59),#552,.T.);
#585=ADVANCED_FACE('',(#60),#553,.T.);
#586=ADVANCED_FACE('',(#61),#554,.T.);
#587=ADVANCED_FACE('',(#62),#555,.F.);
#588=ADVANCED_FACE('',(#63),#556,.T.);
#589=ADVANCED_FACE('',(#64),#40,.T.);
#590=ADVANCED_FACE('',(#65),#557,.T.);
#591=ADVANCED_FACE('',(#66),#558,.F.);
#592=ADVANCED_FACE('',(#67),#559,.T.);
#593=ADVANCED_FACE('',(#68),#41,.T.);
#594=ADVANCED_FACE('',(#69),#560,.T.);
#595=ADVANCED_FACE('',(#70),#561,.T.);
#596=ADVANCED_FACE('',(#71),#562,.T.);
#597=ADVANCED_FACE('',(#72),#563,.T.);
#598=ADVANCED_FACE('',(#73),#564,.T.);
#599=ADVANCED_FACE('',(#74),#565,.T.);
#600=ADVANCED_FACE('',(#75),#566,.T.);
#601=CLOSED_SHELL('',(#567,#568,#569,#570,#571,#572,#573,#574,#575,#576,
#577,#578,#579,#580,#581,#582,#583,#584,#585,#586));
#602=CLOSED_SHELL('',(#587,#588,#589,#590,#591,#592,#593,#594,#595,#596,
#597,#598,#599,#600));
#603=DERIVED_UNIT_ELEMENT(#608,1.);
#604=DERIVED_UNIT_ELEMENT(#1049,-3.);
#605=DERIVED_UNIT_ELEMENT(#608,1.);
#606=DERIVED_UNIT_ELEMENT(#1049,-3.);
#607=DIMENSIONAL_EXPONENTS(0.,1.,0.,0.,0.,0.,0.);
#608=(
CONVERSION_BASED_UNIT('gram',#610)
MASS_UNIT()
NAMED_UNIT(#607)
);
#609=(
MASS_UNIT()
NAMED_UNIT(*)
SI_UNIT(.KILO.,.GRAM.)
);
#610=MASS_MEASURE_WITH_UNIT(MASS_MEASURE(0.001),#609);
#611=DERIVED_UNIT((#603,#604));
#612=DERIVED_UNIT((#605,#606));
#613=MEASURE_REPRESENTATION_ITEM('density measure',
POSITIVE_RATIO_MEASURE(1.),#611);
#614=MEASURE_REPRESENTATION_ITEM('density measure',
POSITIVE_RATIO_MEASURE(1.),#612);
#615=PROPERTY_DEFINITION_REPRESENTATION(#625,#619);
#616=PROPERTY_DEFINITION_REPRESENTATION(#626,#620);
#617=PROPERTY_DEFINITION_REPRESENTATION(#627,#621);
#618=PROPERTY_DEFINITION_REPRESENTATION(#628,#622);
#619=REPRESENTATION('material name',(#623),#1045);
#620=REPRESENTATION('density',(#613),#1045);
#621=REPRESENTATION('material name',(#624),#1046);
#622=REPRESENTATION('density',(#614),#1046);
#623=DESCRIPTIVE_REPRESENTATION_ITEM('Generic','Generic');
#624=DESCRIPTIVE_REPRESENTATION_ITEM('Generic','Generic');
#625=PROPERTY_DEFINITION('material property','material name',#1065);
#626=PROPERTY_DEFINITION('material property','density of part',#1065);
#627=PROPERTY_DEFINITION('material property','material name',#1066);
#628=PROPERTY_DEFINITION('material property','density of part',#1066);
#629=PRESENTATION_STYLE_ASSIGNMENT((#630));
#630=SURFACE_STYLE_USAGE(.BOTH.,#633);
#631=SURFACE_STYLE_RENDERING_WITH_PROPERTIES($,#637,(#632));
#632=SURFACE_STYLE_TRANSPARENT(0.);
#633=SURFACE_SIDE_STYLE('',(#634,#631));
#634=SURFACE_STYLE_FILL_AREA(#635);
#635=FILL_AREA_STYLE('',(#636));
#636=FILL_AREA_STYLE_COLOUR('',#637);
#637=COLOUR_RGB('',0.749019607843137,0.749019607843137,0.749019607843137);
#638=DATE_TIME_ROLE('creation_date');
#639=DATE_TIME_ROLE('creation_date');
#640=DATE_TIME_ROLE('creation_date');
#641=APPLIED_DATE_AND_TIME_ASSIGNMENT(#644,#638,(#1064));
#642=APPLIED_DATE_AND_TIME_ASSIGNMENT(#645,#639,(#1065));
#643=APPLIED_DATE_AND_TIME_ASSIGNMENT(#646,#640,(#1066));
#644=DATE_AND_TIME(#647,#650);
#645=DATE_AND_TIME(#648,#651);
#646=DATE_AND_TIME(#649,#652);
#647=CALENDAR_DATE(2026,17,6);
#648=CALENDAR_DATE(2025,2,11);
#649=CALENDAR_DATE(2025,2,11);
#650=LOCAL_TIME(0,0,0.,#653);
#651=LOCAL_TIME(0,0,0.,#654);
#652=LOCAL_TIME(0,0,0.,#655);
#653=COORDINATED_UNIVERSAL_TIME_OFFSET(0,0,.BEHIND.);
#654=COORDINATED_UNIVERSAL_TIME_OFFSET(0,0,.BEHIND.);
#655=COORDINATED_UNIVERSAL_TIME_OFFSET(0,0,.BEHIND.);
#656=AXIS2_PLACEMENT_3D('',#873,#705,#706);
#657=AXIS2_PLACEMENT_3D('',#874,#707,#708);
#658=AXIS2_PLACEMENT_3D('',#875,#709,#710);
#659=AXIS2_PLACEMENT_3D('',#898,#723,#724);
#660=AXIS2_PLACEMENT_3D('',#900,#725,#726);
#661=AXIS2_PLACEMENT_3D('',#905,#729,#730);
#662=AXIS2_PLACEMENT_3D('',#906,#731,#732);
#663=AXIS2_PLACEMENT_3D('',#908,#734,#735);
#664=AXIS2_PLACEMENT_3D('',#914,#739,#740);
#665=AXIS2_PLACEMENT_3D('',#922,#745,#746);
#666=AXIS2_PLACEMENT_3D('',#928,#750,#751);
#667=AXIS2_PLACEMENT_3D('',#934,#755,#756);
#668=AXIS2_PLACEMENT_3D('',#935,#757,#758);
#669=AXIS2_PLACEMENT_3D('',#936,#759,#760);
#670=AXIS2_PLACEMENT_3D('',#937,#761,#762);
#671=AXIS2_PLACEMENT_3D('',#942,#766,#767);
#672=AXIS2_PLACEMENT_3D('',#946,#769,#770);
#673=AXIS2_PLACEMENT_3D('',#948,#772,#773);
#674=AXIS2_PLACEMENT_3D('',#951,#775,#776);
#675=AXIS2_PLACEMENT_3D('',#952,#777,#778);
#676=AXIS2_PLACEMENT_3D('',#958,#782,#783);
#677=AXIS2_PLACEMENT_3D('',#961,#786,#787);
#678=AXIS2_PLACEMENT_3D('',#963,#789,#790);
#679=AXIS2_PLACEMENT_3D('',#964,#791,#792);
#680=AXIS2_PLACEMENT_3D('',#965,#793,#794);
#681=AXIS2_PLACEMENT_3D('',#967,#796,#797);
#682=AXIS2_PLACEMENT_3D('',#968,#798,#799);
#683=AXIS2_PLACEMENT_3D('',#970,#801,#802);
#684=AXIS2_PLACEMENT_3D('',#971,#803,#804);
#685=AXIS2_PLACEMENT_3D('',#972,#805,#806);
#686=AXIS2_PLACEMENT_3D('',#989,#815,#816);
#687=AXIS2_PLACEMENT_3D('',#991,#817,#818);
#688=AXIS2_PLACEMENT_3D('',#994,#820,#821);
#689=AXIS2_PLACEMENT_3D('',#995,#822,#823);
#690=AXIS2_PLACEMENT_3D('',#997,#824,#825);
#691=AXIS2_PLACEMENT_3D('',#1001,#828,#829);
#692=AXIS2_PLACEMENT_3D('',#1005,#832,#833);
#693=AXIS2_PLACEMENT_3D('',#1013,#838,#839);
#694=AXIS2_PLACEMENT_3D('',#1015,#841,#842);
#695=AXIS2_PLACEMENT_3D('',#1018,#844,#845);
#696=AXIS2_PLACEMENT_3D('',#1019,#846,#847);
#697=AXIS2_PLACEMENT_3D('',#1025,#851,#852);
#698=AXIS2_PLACEMENT_3D('',#1027,#854,#855);
#699=AXIS2_PLACEMENT_3D('',#1031,#858,#859);
#700=AXIS2_PLACEMENT_3D('',#1033,#861,#862);
#701=AXIS2_PLACEMENT_3D('',#1035,#864,#865);
#702=AXIS2_PLACEMENT_3D('',#1037,#867,#868);
#703=AXIS2_PLACEMENT_3D('',#1038,#869,#870);
#704=AXIS2_PLACEMENT_3D('',#1039,#871,#872);
#705=DIRECTION('axis',(0.,0.,1.));
#706=DIRECTION('refdir',(1.,0.,0.));
#707=DIRECTION('axis',(0.,0.,1.));
#708=DIRECTION('refdir',(1.,0.,0.));
#709=DIRECTION('center_axis',(0.,1.,0.));
#710=DIRECTION('ref_axis',(0.,0.,1.));
#711=DIRECTION('',(0.,0.,-1.));
#712=DIRECTION('',(0.,0.,-1.));
#713=DIRECTION('',(0.,0.,-1.));
#714=DIRECTION('',(1.,0.,0.));
#715=DIRECTION('',(0.,0.,-1.));
#716=DIRECTION('',(0.,0.,-1.));
#717=DIRECTION('',(0.,0.,-1.));
#718=DIRECTION('',(1.,0.,0.));
#719=DIRECTION('',(0.,0.,-1.));
#720=DIRECTION('',(-1.,0.,0.));
#721=DIRECTION('',(0.,0.,1.));
#722=DIRECTION('',(1.,0.,0.));
#723=DIRECTION('center_axis',(0.,0.,-1.));
#724=DIRECTION('ref_axis',(-0.499999999999998,0.86602540378444,0.));
#725=DIRECTION('center_axis',(0.,0.,-1.));
#726=DIRECTION('ref_axis',(-0.499999999999998,0.86602540378444,0.));
#727=DIRECTION('',(0.,0.,-1.));
#728=DIRECTION('',(0.,0.,1.));
#729=DIRECTION('center_axis',(0.,0.,1.));
#730=DIRECTION('ref_axis',(-0.499999999999998,0.86602540378444,0.));
#731=DIRECTION('center_axis',(0.,0.,-1.));
#732=DIRECTION('ref_axis',(-1.,0.,0.));
#733=DIRECTION('',(-0.866025403784437,-0.500000000000002,0.));
#734=DIRECTION('center_axis',(0.,0.,-1.));
#735=DIRECTION('ref_axis',(-1.,0.,0.));
#736=DIRECTION('',(-0.5,-0.866025403784438,0.));
#737=DIRECTION('',(-1.,-6.86706805469099E-15,0.));
#738=DIRECTION('',(-0.5,0.866025403784439,0.));
#739=DIRECTION('center_axis',(0.,0.,1.));
#740=DIRECTION('ref_axis',(1.,0.,0.));
#741=DIRECTION('',(-0.866025403784438,0.500000000000001,0.));
#742=DIRECTION('',(0.5,0.866025403784438,0.));
#743=DIRECTION('',(0.866025403784438,-0.500000000000001,0.));
#744=DIRECTION('',(0.5,0.866025403784438,0.));
#745=DIRECTION('center_axis',(-0.866025403784439,-0.5,0.));
#746=DIRECTION('ref_axis',(0.5,-0.866025403784439,0.));
#747=DIRECTION('',(0.5,-0.866025403784439,0.));
#748=DIRECTION('',(0.,0.,1.));
#749=DIRECTION('',(0.5,-0.866025403784439,0.));
#750=DIRECTION('center_axis',(0.866025403784439,-0.5,0.));
#751=DIRECTION('ref_axis',(0.5,0.866025403784438,0.));
#752=DIRECTION('',(0.,0.,1.));
#753=DIRECTION('',(0.5,0.866025403784438,0.));
#754=DIRECTION('',(0.,0.,1.));
#755=DIRECTION('center_axis',(0.,0.,1.));
#756=DIRECTION('ref_axis',(1.,0.,0.));
#757=DIRECTION('center_axis',(0.,0.,1.));
#758=DIRECTION('ref_axis',(-0.499999999999998,-0.86602540378444,0.));
#759=DIRECTION('center_axis',(0.,0.,1.));
#760=DIRECTION('ref_axis',(1.,0.,0.));
#761=DIRECTION('center_axis',(0.,0.,1.));
#762=DIRECTION('ref_axis',(1.,0.,0.));
#763=DIRECTION('',(-0.866025403784439,-0.499999999999999,0.));
#764=DIRECTION('',(0.866025403784439,0.5,0.));
#765=DIRECTION('',(0.5,-0.866025403784439,0.));
#766=DIRECTION('center_axis',(0.,0.,-1.));
#767=DIRECTION('ref_axis',(-0.499999999999998,-0.86602540378444,0.));
#768=DIRECTION('',(0.,0.,-1.));
#769=DIRECTION('center_axis',(0.,0.,-1.));
#770=DIRECTION('ref_axis',(-0.499999999999998,-0.86602540378444,0.));
#771=DIRECTION('',(0.,0.,-1.));
#772=DIRECTION('center_axis',(0.,0.,-1.));
#773=DIRECTION('ref_axis',(1.,0.,0.));
#774=DIRECTION('',(0.,0.,-1.));
#775=DIRECTION('center_axis',(0.,0.,-1.));
#776=DIRECTION('ref_axis',(1.,0.,0.));
#777=DIRECTION('center_axis',(-6.86706805469099E-15,1.,0.));
#778=DIRECTION('ref_axis',(1.,6.86706805469099E-15,0.));
#779=DIRECTION('',(0.,0.,-1.));
#780=DIRECTION('',(1.,6.86706805469099E-15,0.));
#781=DIRECTION('',(0.,0.,-1.));
#782=DIRECTION('center_axis',(0.,0.,-1.));
#783=DIRECTION('ref_axis',(-1.,0.,0.));
#784=DIRECTION('',(0.866025403784439,-0.499999999999999,0.));
#785=DIRECTION('',(0.866025403784439,0.499999999999999,0.));
#786=DIRECTION('center_axis',(0.,0.,-1.));
#787=DIRECTION('ref_axis',(-1.,0.,0.));
#788=DIRECTION('',(-0.866025403784438,0.500000000000001,0.));
#789=DIRECTION('center_axis',(-0.500000000000001,-0.866025403784438,0.));
#790=DIRECTION('ref_axis',(-0.866025403784438,0.500000000000001,0.));
#791=DIRECTION('center_axis',(0.5,-0.866025403784439,0.));
#792=DIRECTION('ref_axis',(-0.866025403784439,-0.5,0.));
#793=DIRECTION('center_axis',(-0.866025403784439,-0.5,0.));
#794=DIRECTION('ref_axis',(-0.5,0.866025403784439,0.));
#795=DIRECTION('',(0.,0.,-1.));
#796=DIRECTION('center_axis',(-0.5,0.866025403784439,0.));
#797=DIRECTION('ref_axis',(0.866025403784439,0.499999999999999,0.));
#798=DIRECTION('center_axis',(0.500000000000001,0.866025403784438,0.));
#799=DIRECTION('ref_axis',(0.866025403784438,-0.500000000000001,0.));
#800=DIRECTION('',(0.,0.,-1.));
#801=DIRECTION('center_axis',(0.866025403784438,-0.5,0.));
#802=DIRECTION('ref_axis',(-0.5,-0.866025403784438,0.));
#803=DIRECTION('axis',(0.,0.,1.));
#804=DIRECTION('refdir',(1.,0.,0.));
#805=DIRECTION('center_axis',(0.,1.,0.));
#806=DIRECTION('ref_axis',(0.,0.,1.));
#807=DIRECTION('',(0.,0.,-1.));
#808=DIRECTION('',(-1.,0.,0.));
#809=DIRECTION('',(0.,0.,-1.));
#810=DIRECTION('',(1.,0.,0.));
#811=DIRECTION('',(0.,0.,1.));
#812=DIRECTION('',(-1.,0.,0.));
#813=DIRECTION('',(0.,0.,-1.));
#814=DIRECTION('',(-1.,0.,0.));
#815=DIRECTION('center_axis',(0.,0.,1.));
#816=DIRECTION('ref_axis',(1.,0.,0.));
#817=DIRECTION('center_axis',(0.,0.,1.));
#818=DIRECTION('ref_axis',(1.,0.,0.));
#819=DIRECTION('',(-1.,-4.44089209850063E-16,0.));
#820=DIRECTION('center_axis',(0.,0.,1.));
#821=DIRECTION('ref_axis',(-0.499999999999998,0.86602540378444,0.));
#822=DIRECTION('center_axis',(0.,0.,-1.));
#823=DIRECTION('ref_axis',(1.,0.,0.));
#824=DIRECTION('center_axis',(0.,0.,1.));
#825=DIRECTION('ref_axis',(1.,0.,0.));
#826=DIRECTION('',(0.,0.,-1.));
#827=DIRECTION('',(0.,0.,1.));
#828=DIRECTION('center_axis',(0.,0.,-1.));
#829=DIRECTION('ref_axis',(-1.,0.,0.));
#830=DIRECTION('',(-0.500000000000002,0.866025403784437,0.));
#831=DIRECTION('',(0.,1.,0.));
#832=DIRECTION('center_axis',(0.,0.,1.));
#833=DIRECTION('ref_axis',(1.,0.,0.));
#834=DIRECTION('',(2.77555756156289E-16,1.,0.));
#835=DIRECTION('',(-1.,-4.44089209850063E-16,0.));
#836=DIRECTION('',(0.,-1.,0.));
#837=DIRECTION('',(-1.,-1.11022302462516E-16,0.));
#838=DIRECTION('center_axis',(-4.44089209850063E-16,1.,0.));
#839=DIRECTION('ref_axis',(-1.,-4.44089209850063E-16,0.));
#840=DIRECTION('',(0.,0.,1.));
#841=DIRECTION('center_axis',(0.,0.,-1.));
#842=DIRECTION('ref_axis',(-0.499999999999998,0.86602540378444,0.));
#843=DIRECTION('',(0.,0.,-1.));
#844=DIRECTION('center_axis',(0.,0.,1.));
#845=DIRECTION('ref_axis',(-0.499999999999998,0.86602540378444,0.));
#846=DIRECTION('center_axis',(0.866025403784438,-0.500000000000001,0.));
#847=DIRECTION('ref_axis',(-0.500000000000001,-0.866025403784438,0.));
#848=DIRECTION('',(0.500000000000001,0.866025403784438,0.));
#849=DIRECTION('',(-0.500000000000001,-0.866025403784438,0.));
#850=DIRECTION('',(0.,0.,-1.));
#851=DIRECTION('center_axis',(0.,0.,-1.));
#852=DIRECTION('ref_axis',(-1.,0.,0.));
#853=DIRECTION('',(-2.77555756156289E-16,-1.,0.));
#854=DIRECTION('center_axis',(-0.866025403784437,-0.500000000000002,0.));
#855=DIRECTION('ref_axis',(-0.500000000000002,0.866025403784437,0.));
#856=DIRECTION('',(0.500000000000002,-0.866025403784437,0.));
#857=DIRECTION('',(0.,0.,-1.));
#858=DIRECTION('center_axis',(0.,0.,-1.));
#859=DIRECTION('ref_axis',(-1.,0.,0.));
#860=DIRECTION('',(1.,1.11022302462516E-16,0.));
#861=DIRECTION('center_axis',(-1.,0.,0.));
#862=DIRECTION('ref_axis',(0.,1.,0.));
#863=DIRECTION('',(0.,0.,-1.));
#864=DIRECTION('center_axis',(-1.11022302462516E-16,1.,0.));
#865=DIRECTION('ref_axis',(1.,1.11022302462516E-16,0.));
#866=DIRECTION('',(0.,0.,-1.));
#867=DIRECTION('center_axis',(1.,-2.77555756156289E-16,0.));
#868=DIRECTION('ref_axis',(-2.77555756156289E-16,-1.,0.));
#869=DIRECTION('',(-7.63278329429795E-17,-1.38777878078144E-17,1.));
#870=DIRECTION('',(1.,-1.11022302462516E-16,7.63278329429795E-17));
#871=DIRECTION('',(-7.4309921474528E-16,-0.707106781186547,0.707106781186548));
#872=DIRECTION('',(1.,-5.42797728600554E-16,5.08103259081018E-16));
#873=CARTESIAN_POINT('',(0.,0.,0.));
#874=CARTESIAN_POINT('',(0.,0.,0.));
#875=CARTESIAN_POINT('Origin',(3.26794919243112,1.,-5.));
#876=CARTESIAN_POINT('',(3.26794919243112,1.,-0.5));
#877=CARTESIAN_POINT('',(3.26794919243112,1.,-5.));
#878=CARTESIAN_POINT('',(3.26794919243112,1.,-0.5));
#879=CARTESIAN_POINT('',(3.26794919243112,1.,0.));
#880=CARTESIAN_POINT('',(3.26794919243112,1.,0.));
#881=CARTESIAN_POINT('',(3.26794919243112,1.,0.));
#882=CARTESIAN_POINT('',(-3.26794919243112,0.999999999999999,-0.5));
#883=CARTESIAN_POINT('',(1.63397459621556,1.,-0.5));
#884=CARTESIAN_POINT('',(-3.26794919243112,0.999999999999999,0.));
#885=CARTESIAN_POINT('',(-3.26794919243112,0.999999999999999,0.));
#886=CARTESIAN_POINT('',(-3.26794919243112,0.999999999999999,0.));
#887=CARTESIAN_POINT('',(-3.26794919243113,1.,-5.));
#888=CARTESIAN_POINT('',(-3.26794919243113,1.,-0.5));
#889=CARTESIAN_POINT('',(-4.89897948556636,1.,-5.));
#890=CARTESIAN_POINT('',(-0.241025403784438,1.,-5.));
#891=CARTESIAN_POINT('',(-4.89897948556636,1.,0.5));
#892=CARTESIAN_POINT('',(-4.89897948556636,1.,0.));
#893=CARTESIAN_POINT('',(4.89897948556636,1.,0.5));
#894=CARTESIAN_POINT('',(1.63397459621556,1.,0.5));
#895=CARTESIAN_POINT('',(4.89897948556636,1.,-5.));
#896=CARTESIAN_POINT('',(4.89897948556636,1.,0.));
#897=CARTESIAN_POINT('',(3.50897459621556,1.,-5.));
#898=CARTESIAN_POINT('Origin',(0.,0.,0.));
#899=CARTESIAN_POINT('',(-5.,-1.66533453693773E-15,-5.));
#900=CARTESIAN_POINT('Origin',(0.,0.,-5.));
#901=CARTESIAN_POINT('',(-5.,-5.55111512312578E-16,0.));
#902=CARTESIAN_POINT('',(-5.,-5.55111512312578E-16,0.));
#903=CARTESIAN_POINT('',(-5.,-5.55111512312578E-16,0.5));
#904=CARTESIAN_POINT('',(-5.,-8.12739661758407E-16,0.));
#905=CARTESIAN_POINT('Origin',(0.,0.,0.5));
#906=CARTESIAN_POINT('Origin',(-3.75,2.1650635094611,-5.));
#907=CARTESIAN_POINT('',(-3.26794919243113,1.,-5.));
#908=CARTESIAN_POINT('Origin',(5.55111512312578E-16,5.55111512312578E-16,
-0.5));
#909=CARTESIAN_POINT('',(0.767949192431122,-3.33012701892219,-0.5));
#910=CARTESIAN_POINT('',(0.767949192431122,-3.33012701892219,-0.5));
#911=CARTESIAN_POINT('',(-0.767949192431122,-3.3301270189222,-0.5));
#912=CARTESIAN_POINT('',(-0.383974596215549,-3.33012701892219,-0.5));
#913=CARTESIAN_POINT('',(-3.26794919243112,0.999999999999999,-0.5));
#914=CARTESIAN_POINT('Origin',(5.55111512312578E-16,5.55111512312578E-16,
0.));
#915=CARTESIAN_POINT('',(2.5,-4.33012701892219,0.));
#916=CARTESIAN_POINT('',(0.767949192431122,-3.33012701892219,0.));
#917=CARTESIAN_POINT('',(2.5,-4.33012701892219,0.));
#918=CARTESIAN_POINT('',(0.767949192431122,-3.33012701892219,0.));
#919=CARTESIAN_POINT('',(5.,-1.83400382508157E-15,0.));
#920=CARTESIAN_POINT('',(3.26794919243112,1.,0.));
#921=CARTESIAN_POINT('',(2.5,-4.33012701892219,0.));
#922=CARTESIAN_POINT('Origin',(-5.,-7.4833262439695E-16,0.));
#923=CARTESIAN_POINT('',(-2.5,-4.33012701892219,0.));
#924=CARTESIAN_POINT('',(-5.,-5.55111512312578E-16,0.));
#925=CARTESIAN_POINT('',(-2.5,-4.33012701892219,0.5));
#926=CARTESIAN_POINT('',(-2.5,-4.33012701892219,0.));
#927=CARTESIAN_POINT('',(-5.,-5.55111512312578E-16,0.5));
#928=CARTESIAN_POINT('Origin',(2.5,-4.33012701892219,0.));
#929=CARTESIAN_POINT('',(5.,-1.66533453693773E-15,0.5));
#930=CARTESIAN_POINT('',(5.,-1.83400382508157E-15,0.));
#931=CARTESIAN_POINT('',(2.5,-4.33012701892219,0.5));
#932=CARTESIAN_POINT('',(2.5,-4.33012701892219,0.5));
#933=CARTESIAN_POINT('',(2.5,-4.33012701892219,0.));
#934=CARTESIAN_POINT('Origin',(5.55111512312578E-16,5.55111512312578E-16,
0.5));
#935=CARTESIAN_POINT('Origin',(0.,0.,0.5));
#936=CARTESIAN_POINT('Origin',(0.,0.,0.5));
#937=CARTESIAN_POINT('Origin',(5.55111512312578E-16,5.55111512312578E-16,
0.));
#938=CARTESIAN_POINT('',(-0.767949192431122,-3.3301270189222,0.));
#939=CARTESIAN_POINT('',(-0.767949192431122,-3.3301270189222,0.));
#940=CARTESIAN_POINT('',(-5.,-1.11022302462516E-15,0.));
#941=CARTESIAN_POINT('',(-3.26794919243112,0.999999999999999,0.));
#942=CARTESIAN_POINT('Origin',(0.,0.,0.));
#943=CARTESIAN_POINT('',(-2.5,-4.33012701892219,-5.));
#944=CARTESIAN_POINT('',(-2.5,-4.33012701892219,0.));
#945=CARTESIAN_POINT('',(2.5,-4.33012701892218,-5.));
#946=CARTESIAN_POINT('Origin',(0.,0.,-5.));
#947=CARTESIAN_POINT('',(2.5,-4.33012701892219,0.));
#948=CARTESIAN_POINT('Origin',(0.,0.,0.));
#949=CARTESIAN_POINT('',(5.,-1.94289029309402E-15,-5.));
#950=CARTESIAN_POINT('',(5.,-1.83400382508157E-15,0.));
#951=CARTESIAN_POINT('Origin',(0.,0.,-5.));
#952=CARTESIAN_POINT('Origin',(-0.767949192431122,-3.3301270189222,-0.5));
#953=CARTESIAN_POINT('',(0.767949192431119,-3.33012701892218,-5.));
#954=CARTESIAN_POINT('',(0.767949192431119,-3.33012701892218,-0.5));
#955=CARTESIAN_POINT('',(-0.767949192431122,-3.3301270189222,-5.));
#956=CARTESIAN_POINT('',(-0.767949192431122,-3.3301270189222,-5.));
#957=CARTESIAN_POINT('',(-0.767949192431122,-3.3301270189222,-0.5));
#958=CARTESIAN_POINT('Origin',(-1.11022302462516E-15,-3.83012701892219,
-5.));
#959=CARTESIAN_POINT('',(0.767949192431119,-3.33012701892218,-5.));
#960=CARTESIAN_POINT('',(-2.5,-4.33012701892219,-5.));
#961=CARTESIAN_POINT('Origin',(3.75,2.1650635094611,-5.));
#962=CARTESIAN_POINT('',(5.,-1.83400382508157E-15,-5.));
#963=CARTESIAN_POINT('Origin',(5.,-8.32667268468867E-16,0.));
#964=CARTESIAN_POINT('Origin',(-3.26794919243112,1.,0.));
#965=CARTESIAN_POINT('Origin',(-0.767949192431121,-3.3301270189222,0.));
#966=CARTESIAN_POINT('',(-0.767949192431122,-3.3301270189222,0.));
#967=CARTESIAN_POINT('Origin',(-2.5,-4.3301270189222,0.));
#968=CARTESIAN_POINT('Origin',(0.767949192431122,-3.33012701892219,0.));
#969=CARTESIAN_POINT('',(0.767949192431122,-3.33012701892219,0.));
#970=CARTESIAN_POINT('Origin',(3.26794919243113,1.,0.));
#971=CARTESIAN_POINT('',(0.,0.,0.));
#972=CARTESIAN_POINT('Origin',(3.26794919243112,1.,-5.));
#973=CARTESIAN_POINT('',(3.26794919243112,1.,-0.5));
#974=CARTESIAN_POINT('',(3.26794919243112,1.,-5.));
#975=CARTESIAN_POINT('',(3.26794919243112,1.,-0.5));
#976=CARTESIAN_POINT('',(4.89897948556636,1.,-5.));
#977=CARTESIAN_POINT('',(3.50897459621556,1.,-5.));
#978=CARTESIAN_POINT('',(4.89897948556636,1.,0.5));
#979=CARTESIAN_POINT('',(4.89897948556636,1.,0.));
#980=CARTESIAN_POINT('',(-4.89897948556636,1.,0.5));
#981=CARTESIAN_POINT('',(1.63397459621556,1.,0.5));
#982=CARTESIAN_POINT('',(-4.89897948556636,1.,-5.));
#983=CARTESIAN_POINT('',(-4.89897948556636,1.,0.));
#984=CARTESIAN_POINT('',(-3.26794919243113,1.,-5.));
#985=CARTESIAN_POINT('',(-0.241025403784438,1.,-5.));
#986=CARTESIAN_POINT('',(-3.26794919243112,0.999999999999999,-0.5));
#987=CARTESIAN_POINT('',(-3.26794919243113,1.,-0.5));
#988=CARTESIAN_POINT('',(1.63397459621556,1.,-0.5));
#989=CARTESIAN_POINT('Origin',(5.55111512312578E-16,5.55111512312578E-16,
0.5));
#990=CARTESIAN_POINT('',(2.5,4.3301270189222,0.5));
#991=CARTESIAN_POINT('Origin',(0.,0.,0.5));
#992=CARTESIAN_POINT('',(-2.5,4.33012701892219,0.5));
#993=CARTESIAN_POINT('',(2.5,4.3301270189222,0.5));
#994=CARTESIAN_POINT('Origin',(0.,0.,0.5));
#995=CARTESIAN_POINT('Origin',(0.,0.,0.));
#996=CARTESIAN_POINT('',(2.5,4.3301270189222,-5.));
#997=CARTESIAN_POINT('Origin',(0.,0.,-5.));
#998=CARTESIAN_POINT('',(2.5,4.3301270189222,0.));
#999=CARTESIAN_POINT('',(2.5,4.3301270189222,0.));
#1000=CARTESIAN_POINT('',(2.5,4.3301270189222,0.));
#1001=CARTESIAN_POINT('Origin',(3.75,2.1650635094611,-5.));
#1002=CARTESIAN_POINT('',(2.5,2.33012701892219,-5.));
#1003=CARTESIAN_POINT('',(3.26794919243112,1.,-5.));
#1004=CARTESIAN_POINT('',(2.5,2.33012701892219,-5.));
#1005=CARTESIAN_POINT('Origin',(5.55111512312578E-16,5.55111512312578E-16,
0.));
#1006=CARTESIAN_POINT('',(-2.5,2.33012701892219,0.));
#1007=CARTESIAN_POINT('',(-2.5,4.33012701892219,0.));
#1008=CARTESIAN_POINT('',(-2.5,2.33012701892219,0.));
#1009=CARTESIAN_POINT('',(2.5,4.3301270189222,0.));
#1010=CARTESIAN_POINT('',(2.5,2.33012701892219,0.));
#1011=CARTESIAN_POINT('',(2.5,4.33012701892219,0.));
#1012=CARTESIAN_POINT('',(2.5,2.33012701892219,0.));
#1013=CARTESIAN_POINT('Origin',(2.5,4.3301270189222,0.));
#1014=CARTESIAN_POINT('',(-2.5,4.33012701892219,0.));
#1015=CARTESIAN_POINT('Origin',(0.,0.,0.));
#1016=CARTESIAN_POINT('',(-2.5,4.33012701892219,-5.));
#1017=CARTESIAN_POINT('',(-2.5,4.33012701892219,0.));
#1018=CARTESIAN_POINT('Origin',(0.,0.,-5.));
#1019=CARTESIAN_POINT('Origin',(-2.5,2.33012701892219,-0.5));
#1020=CARTESIAN_POINT('',(-2.5,2.33012701892219,-0.5));
#1021=CARTESIAN_POINT('',(-2.69198729810778,1.99759526419165,-0.5));
#1022=CARTESIAN_POINT('',(-2.5,2.33012701892219,-5.));
#1023=CARTESIAN_POINT('',(-2.5,2.33012701892219,-5.));
#1024=CARTESIAN_POINT('',(-2.5,2.33012701892219,-0.5));
#1025=CARTESIAN_POINT('Origin',(-3.75,2.1650635094611,-5.));
#1026=CARTESIAN_POINT('',(-2.5,4.33012701892219,-5.));
#1027=CARTESIAN_POINT('Origin',(3.26794919243112,1.,-0.5));
#1028=CARTESIAN_POINT('',(2.5,2.33012701892219,-0.5));
#1029=CARTESIAN_POINT('',(3.07596189432334,1.33253175473055,-0.5));
#1030=CARTESIAN_POINT('',(2.5,2.33012701892219,-0.5));
#1031=CARTESIAN_POINT('Origin',(5.55111512312578E-16,5.55111512312578E-16,
-0.5));
#1032=CARTESIAN_POINT('',(2.5,2.33012701892219,-0.5));
#1033=CARTESIAN_POINT('Origin',(2.5,2.33012701892219,0.));
#1034=CARTESIAN_POINT('',(2.5,2.33012701892219,0.));
#1035=CARTESIAN_POINT('Origin',(-2.5,2.33012701892219,0.));
#1036=CARTESIAN_POINT('',(-2.5,2.33012701892219,0.));
#1037=CARTESIAN_POINT('Origin',(-2.5,4.33012701892219,0.));
#1038=CARTESIAN_POINT('',(-21.226689575956,-5.54138370025772,3.8436669798797));
#1039=CARTESIAN_POINT('',(-21.226689575956,-4.894937090851,3.28300680809988));
#1040=UNCERTAINTY_MEASURE_WITH_UNIT(LENGTH_MEASURE(0.01),#1048,
'DISTANCE_ACCURACY_VALUE',
'Maximum model space distance between geometric entities at asserted c
onnectivities');
#1041=UNCERTAINTY_MEASURE_WITH_UNIT(LENGTH_MEASURE(0.01),#1048,
'DISTANCE_ACCURACY_VALUE',
'Maximum model space distance between geometric entities at asserted c
onnectivities');
#1042=UNCERTAINTY_MEASURE_WITH_UNIT(LENGTH_MEASURE(0.01),#1048,
'DISTANCE_ACCURACY_VALUE',
'Maximum model space distance between geometric entities at asserted c
onnectivities');
#1043=UNCERTAINTY_MEASURE_WITH_UNIT(LENGTH_MEASURE(0.01),#1048,
'DISTANCE_ACCURACY_VALUE',
'Maximum model space distance between geometric entities at asserted c
onnectivities');
#1044=(
GEOMETRIC_REPRESENTATION_CONTEXT(3)
GLOBAL_UNCERTAINTY_ASSIGNED_CONTEXT((#1040))
GLOBAL_UNIT_ASSIGNED_CONTEXT((#1048,#1050,#1051))
REPRESENTATION_CONTEXT('','3D')
);
#1045=(
GEOMETRIC_REPRESENTATION_CONTEXT(3)
GLOBAL_UNCERTAINTY_ASSIGNED_CONTEXT((#1041))
GLOBAL_UNIT_ASSIGNED_CONTEXT((#1048,#1050,#1051))
REPRESENTATION_CONTEXT('','3D')
);
#1046=(
GEOMETRIC_REPRESENTATION_CONTEXT(3)
GLOBAL_UNCERTAINTY_ASSIGNED_CONTEXT((#1042))
GLOBAL_UNIT_ASSIGNED_CONTEXT((#1048,#1050,#1051))
REPRESENTATION_CONTEXT('','3D')
);
#1047=(
GEOMETRIC_REPRESENTATION_CONTEXT(3)
GLOBAL_UNCERTAINTY_ASSIGNED_CONTEXT((#1043))
GLOBAL_UNIT_ASSIGNED_CONTEXT((#1048,#1050,#1051))
REPRESENTATION_CONTEXT('','3D')
);
#1048=(
LENGTH_UNIT()
NAMED_UNIT(*)
SI_UNIT(.MILLI.,.METRE.)
);
#1049=(
LENGTH_UNIT()
NAMED_UNIT(*)
SI_UNIT(.CENTI.,.METRE.)
);
#1050=(
NAMED_UNIT(*)
PLANE_ANGLE_UNIT()
SI_UNIT($,.RADIAN.)
);
#1051=(
NAMED_UNIT(*)
SI_UNIT($,.STERADIAN.)
SOLID_ANGLE_UNIT()
);
#1052=SHAPE_DEFINITION_REPRESENTATION(#1055,#1060);
#1053=SHAPE_DEFINITION_REPRESENTATION(#1056,#1061);
#1054=SHAPE_DEFINITION_REPRESENTATION(#1057,#1062);
#1055=PRODUCT_DEFINITION_SHAPE('',$,#1064);
#1056=PRODUCT_DEFINITION_SHAPE('',$,#1065);
#1057=PRODUCT_DEFINITION_SHAPE('',$,#1066);
#1058=PRODUCT_DEFINITION_SHAPE($,$,#17);
#1059=PRODUCT_DEFINITION_SHAPE($,$,#18);
#1060=SHAPE_REPRESENTATION('',(#656,#703,#704),#1044);
#1061=SHAPE_REPRESENTATION('',(#657),#1045);
#1062=SHAPE_REPRESENTATION('',(#684),#1046);
#1063=PRODUCT_DEFINITION_CONTEXT('part definition',#1074,'design');
#1064=PRODUCT_DEFINITION('Assembly1','Assembly1',#1067,#1063);
#1065=PRODUCT_DEFINITION('BodyFoldedSide1','BodyFoldedSide1',#1068,#1063);
#1066=PRODUCT_DEFINITION('BodyFoldedSide2','BodyFoldedSide2',#1069,#1063);
#1067=PRODUCT_DEFINITION_FORMATION('',$,#1076);
#1068=PRODUCT_DEFINITION_FORMATION('',$,#1077);
#1069=PRODUCT_DEFINITION_FORMATION('',$,#1078);
#1070=PRODUCT_RELATED_PRODUCT_CATEGORY('Assembly1','Assembly1',(#1076));
#1071=PRODUCT_RELATED_PRODUCT_CATEGORY('BodyFoldedSide1',
'BodyFoldedSide1',(#1077));
#1072=PRODUCT_RELATED_PRODUCT_CATEGORY('BodyFoldedSide2',
'BodyFoldedSide2',(#1078));
#1073=APPLICATION_PROTOCOL_DEFINITION('international standard',
'automotive_design',2009,#1074);
#1074=APPLICATION_CONTEXT(
'Core Data for Automotive Mechanical Design Process');
#1075=PRODUCT_CONTEXT('part definition',#1074,'mechanical');
#1076=PRODUCT('Assembly1','Assembly1',$,(#1075));
#1077=PRODUCT('BodyFoldedSide1','BodyFoldedSide1',$,(#1075));
#1078=PRODUCT('BodyFoldedSide2','BodyFoldedSide2',$,(#1075));
ENDSEC;
END-ISO-10303-21;
