ISO-10303-21;
HEADER;
/* Generated by software containing ST-Developer
 * from STEP Tools, Inc. (www.steptools.com) 
 */

FILE_DESCRIPTION(
/* description */ (''),
/* implementation_level */ '2;1');

FILE_NAME(
/* name */ 'FoldedSGV2.stp',
/* time_stamp */ '2026-06-17T18:22:32+01:00',
/* author */ ('Jakub Schmidt'),
/* organization */ (''),
/* preprocessor_version */ 'ST-DEVELOPER v20.1',
/* originating_system */ 'Autodesk Inventor 2026',
/* authorisation */ '');

FILE_SCHEMA (('AUTOMOTIVE_DESIGN { 1 0 10303 214 3 1 1 }'));
ENDSEC;

DATA;
#10=MECHANICAL_DESIGN_GEOMETRIC_PRESENTATION_REPRESENTATION('',(#23,#24),
#937);
#11=ITEM_DEFINED_TRANSFORMATION($,$,#587,#629);
#12=ITEM_DEFINED_TRANSFORMATION($,$,#614,#630);
#13=(
REPRESENTATION_RELATIONSHIP($,$,#951,#950)
REPRESENTATION_RELATIONSHIP_WITH_TRANSFORMATION(#11)
SHAPE_REPRESENTATION_RELATIONSHIP()
);
#14=(
REPRESENTATION_RELATIONSHIP($,$,#952,#950)
REPRESENTATION_RELATIONSHIP_WITH_TRANSFORMATION(#12)
SHAPE_REPRESENTATION_RELATIONSHIP()
);
#15=CONTEXT_DEPENDENT_SHAPE_REPRESENTATION(#13,#948);
#16=CONTEXT_DEPENDENT_SHAPE_REPRESENTATION(#14,#949);
#17=NEXT_ASSEMBLY_USAGE_OCCURRENCE('BodyFoldedSide1:1',
'BodyFoldedSide1:1','BodyFoldedSide1:1',#954,#955,'BodyFoldedSide1:1');
#18=NEXT_ASSEMBLY_USAGE_OCCURRENCE('BodyFoldedSide2:1',
'BodyFoldedSide2:1','BodyFoldedSide2:1',#954,#956,'BodyFoldedSide2:1');
#19=SHAPE_REPRESENTATION_RELATIONSHIP('SRR','None',#951,#21);
#20=SHAPE_REPRESENTATION_RELATIONSHIP('SRR','None',#952,#22);
#21=ADVANCED_BREP_SHAPE_REPRESENTATION('',(#25),#935);
#22=ADVANCED_BREP_SHAPE_REPRESENTATION('',(#26),#936);
#23=STYLED_ITEM('',(#559),#25);
#24=STYLED_ITEM('',(#559),#26);
#25=MANIFOLD_SOLID_BREP('Solid3',#531);
#26=MANIFOLD_SOLID_BREP('Solid3',#532);
#27=CIRCLE('',#590,5.);
#28=CIRCLE('',#591,5.);
#29=CIRCLE('',#598,5.);
#30=CIRCLE('',#599,5.);
#31=CIRCLE('',#602,5.);
#32=CIRCLE('',#604,5.);
#33=CIRCLE('',#617,5.);
#34=CIRCLE('',#618,5.);
#35=CIRCLE('',#620,5.);
#36=CIRCLE('',#623,5.);
#37=CYLINDRICAL_SURFACE('',#589,5.);
#38=CYLINDRICAL_SURFACE('',#601,5.);
#39=CYLINDRICAL_SURFACE('',#603,5.);
#40=CYLINDRICAL_SURFACE('',#619,5.);
#41=CYLINDRICAL_SURFACE('',#622,5.);
#42=FACE_OUTER_BOUND('',#72,.T.);
#43=FACE_OUTER_BOUND('',#73,.T.);
#44=FACE_OUTER_BOUND('',#74,.T.);
#45=FACE_OUTER_BOUND('',#75,.T.);
#46=FACE_OUTER_BOUND('',#76,.T.);
#47=FACE_OUTER_BOUND('',#77,.T.);
#48=FACE_OUTER_BOUND('',#78,.T.);
#49=FACE_OUTER_BOUND('',#79,.T.);
#50=FACE_OUTER_BOUND('',#80,.T.);
#51=FACE_OUTER_BOUND('',#81,.T.);
#52=FACE_OUTER_BOUND('',#82,.T.);
#53=FACE_OUTER_BOUND('',#83,.T.);
#54=FACE_OUTER_BOUND('',#84,.T.);
#55=FACE_OUTER_BOUND('',#85,.T.);
#56=FACE_OUTER_BOUND('',#86,.T.);
#57=FACE_OUTER_BOUND('',#87,.T.);
#58=FACE_OUTER_BOUND('',#88,.T.);
#59=FACE_OUTER_BOUND('',#89,.T.);
#60=FACE_OUTER_BOUND('',#90,.T.);
#61=FACE_OUTER_BOUND('',#91,.T.);
#62=FACE_OUTER_BOUND('',#92,.T.);
#63=FACE_OUTER_BOUND('',#93,.T.);
#64=FACE_OUTER_BOUND('',#94,.T.);
#65=FACE_OUTER_BOUND('',#95,.T.);
#66=FACE_OUTER_BOUND('',#96,.T.);
#67=FACE_OUTER_BOUND('',#97,.T.);
#68=FACE_OUTER_BOUND('',#98,.T.);
#69=FACE_OUTER_BOUND('',#99,.T.);
#70=FACE_OUTER_BOUND('',#100,.T.);
#71=FACE_OUTER_BOUND('',#101,.T.);
#72=EDGE_LOOP('',(#336,#337,#338,#339,#340,#341,#342,#343,#344,#345));
#73=EDGE_LOOP('',(#346,#347,#348,#349,#350));
#74=EDGE_LOOP('',(#351,#352,#353));
#75=EDGE_LOOP('',(#354,#355,#356,#357));
#76=EDGE_LOOP('',(#358,#359,#360,#361));
#77=EDGE_LOOP('',(#362,#363,#364,#365));
#78=EDGE_LOOP('',(#366,#367,#368,#369));
#79=EDGE_LOOP('',(#370,#371,#372,#373,#374,#375));
#80=EDGE_LOOP('',(#376,#377,#378,#379));
#81=EDGE_LOOP('',(#380,#381,#382,#383,#384,#385));
#82=EDGE_LOOP('',(#386,#387,#388,#389,#390));
#83=EDGE_LOOP('',(#391,#392,#393,#394,#395,#396));
#84=EDGE_LOOP('',(#397,#398,#399,#400));
#85=EDGE_LOOP('',(#401,#402,#403));
#86=EDGE_LOOP('',(#404,#405,#406,#407));
#87=EDGE_LOOP('',(#408,#409,#410,#411));
#88=EDGE_LOOP('',(#412,#413,#414,#415));
#89=EDGE_LOOP('',(#416,#417,#418,#419));
#90=EDGE_LOOP('',(#420,#421,#422,#423));
#91=EDGE_LOOP('',(#424,#425,#426,#427));
#92=EDGE_LOOP('',(#428,#429,#430,#431,#432,#433,#434,#435));
#93=EDGE_LOOP('',(#436,#437,#438,#439));
#94=EDGE_LOOP('',(#440,#441,#442,#443));
#95=EDGE_LOOP('',(#444,#445,#446,#447));
#96=EDGE_LOOP('',(#448,#449,#450,#451));
#97=EDGE_LOOP('',(#452,#453,#454,#455));
#98=EDGE_LOOP('',(#456,#457,#458,#459,#460,#461,#462,#463));
#99=EDGE_LOOP('',(#464,#465,#466,#467));
#100=EDGE_LOOP('',(#468,#469,#470,#471));
#101=EDGE_LOOP('',(#472,#473,#474,#475));
#102=LINE('',#786,#162);
#103=LINE('',#788,#163);
#104=LINE('',#790,#164);
#105=LINE('',#792,#165);
#106=LINE('',#794,#166);
#107=LINE('',#796,#167);
#108=LINE('',#798,#168);
#109=LINE('',#800,#169);
#110=LINE('',#802,#170);
#111=LINE('',#803,#171);
#112=LINE('',#808,#172);
#113=LINE('',#810,#173);
#114=LINE('',#813,#174);
#115=LINE('',#816,#175);
#116=LINE('',#818,#176);
#117=LINE('',#819,#177);
#118=LINE('',#823,#178);
#119=LINE('',#824,#179);
#120=LINE('',#826,#180);
#121=LINE('',#827,#181);
#122=LINE('',#830,#182);
#123=LINE('',#832,#183);
#124=LINE('',#833,#184);
#125=LINE('',#836,#185);
#126=LINE('',#838,#186);
#127=LINE('',#839,#187);
#128=LINE('',#845,#188);
#129=LINE('',#846,#189);
#130=LINE('',#847,#190);
#131=LINE('',#850,#191);
#132=LINE('',#853,#192);
#133=LINE('',#856,#193);
#134=LINE('',#859,#194);
#135=LINE('',#861,#195);
#136=LINE('',#863,#196);
#137=LINE('',#864,#197);
#138=LINE('',#865,#198);
#139=LINE('',#867,#199);
#140=LINE('',#868,#200);
#141=LINE('',#870,#201);
#142=LINE('',#881,#202);
#143=LINE('',#883,#203);
#144=LINE('',#885,#204);
#145=LINE('',#887,#205);
#146=LINE('',#889,#206);
#147=LINE('',#891,#207);
#148=LINE('',#893,#208);
#149=LINE('',#894,#209);
#150=LINE('',#899,#210);
#151=LINE('',#903,#211);
#152=LINE('',#907,#212);
#153=LINE('',#908,#213);
#154=LINE('',#914,#214);
#155=LINE('',#915,#215);
#156=LINE('',#916,#216);
#157=LINE('',#919,#217);
#158=LINE('',#920,#218);
#159=LINE('',#923,#219);
#160=LINE('',#924,#220);
#161=LINE('',#926,#221);
#162=VECTOR('',#637,10.);
#163=VECTOR('',#638,10.);
#164=VECTOR('',#639,10.);
#165=VECTOR('',#640,10.);
#166=VECTOR('',#641,10.);
#167=VECTOR('',#642,10.);
#168=VECTOR('',#643,10.);
#169=VECTOR('',#644,10.);
#170=VECTOR('',#645,10.);
#171=VECTOR('',#646,10.);
#172=VECTOR('',#651,10.);
#173=VECTOR('',#652,10.);
#174=VECTOR('',#657,10.);
#175=VECTOR('',#660,10.);
#176=VECTOR('',#661,10.);
#177=VECTOR('',#662,10.);
#178=VECTOR('',#665,10.);
#179=VECTOR('',#666,10.);
#180=VECTOR('',#667,10.);
#181=VECTOR('',#668,10.);
#182=VECTOR('',#671,10.);
#183=VECTOR('',#672,10.);
#184=VECTOR('',#673,10.);
#185=VECTOR('',#676,10.);
#186=VECTOR('',#677,10.);
#187=VECTOR('',#678,10.);
#188=VECTOR('',#687,10.);
#189=VECTOR('',#688,10.);
#190=VECTOR('',#689,10.);
#191=VECTOR('',#692,10.);
#192=VECTOR('',#695,10.);
#193=VECTOR('',#698,10.);
#194=VECTOR('',#703,10.);
#195=VECTOR('',#704,10.);
#196=VECTOR('',#705,10.);
#197=VECTOR('',#706,10.);
#198=VECTOR('',#707,10.);
#199=VECTOR('',#710,10.);
#200=VECTOR('',#711,10.);
#201=VECTOR('',#714,10.);
#202=VECTOR('',#731,10.);
#203=VECTOR('',#732,10.);
#204=VECTOR('',#733,10.);
#205=VECTOR('',#734,10.);
#206=VECTOR('',#735,10.);
#207=VECTOR('',#736,10.);
#208=VECTOR('',#737,10.);
#209=VECTOR('',#738,10.);
#210=VECTOR('',#743,10.);
#211=VECTOR('',#748,10.);
#212=VECTOR('',#753,10.);
#213=VECTOR('',#754,10.);
#214=VECTOR('',#761,10.);
#215=VECTOR('',#762,10.);
#216=VECTOR('',#763,10.);
#217=VECTOR('',#766,10.);
#218=VECTOR('',#767,10.);
#219=VECTOR('',#770,10.);
#220=VECTOR('',#771,10.);
#221=VECTOR('',#774,10.);
#222=VERTEX_POINT('',#784);
#223=VERTEX_POINT('',#785);
#224=VERTEX_POINT('',#787);
#225=VERTEX_POINT('',#789);
#226=VERTEX_POINT('',#791);
#227=VERTEX_POINT('',#793);
#228=VERTEX_POINT('',#795);
#229=VERTEX_POINT('',#797);
#230=VERTEX_POINT('',#799);
#231=VERTEX_POINT('',#801);
#232=VERTEX_POINT('',#805);
#233=VERTEX_POINT('',#807);
#234=VERTEX_POINT('',#809);
#235=VERTEX_POINT('',#815);
#236=VERTEX_POINT('',#817);
#237=VERTEX_POINT('',#821);
#238=VERTEX_POINT('',#822);
#239=VERTEX_POINT('',#825);
#240=VERTEX_POINT('',#829);
#241=VERTEX_POINT('',#831);
#242=VERTEX_POINT('',#835);
#243=VERTEX_POINT('',#837);
#244=VERTEX_POINT('',#844);
#245=VERTEX_POINT('',#849);
#246=VERTEX_POINT('',#851);
#247=VERTEX_POINT('',#855);
#248=VERTEX_POINT('',#860);
#249=VERTEX_POINT('',#862);
#250=VERTEX_POINT('',#879);
#251=VERTEX_POINT('',#880);
#252=VERTEX_POINT('',#882);
#253=VERTEX_POINT('',#884);
#254=VERTEX_POINT('',#886);
#255=VERTEX_POINT('',#888);
#256=VERTEX_POINT('',#890);
#257=VERTEX_POINT('',#892);
#258=VERTEX_POINT('',#896);
#259=VERTEX_POINT('',#898);
#260=VERTEX_POINT('',#902);
#261=VERTEX_POINT('',#906);
#262=VERTEX_POINT('',#912);
#263=VERTEX_POINT('',#913);
#264=VERTEX_POINT('',#918);
#265=VERTEX_POINT('',#922);
#266=EDGE_CURVE('',#222,#223,#102,.T.);
#267=EDGE_CURVE('',#224,#222,#103,.F.);
#268=EDGE_CURVE('',#224,#225,#104,.T.);
#269=EDGE_CURVE('',#226,#225,#105,.T.);
#270=EDGE_CURVE('',#227,#226,#106,.T.);
#271=EDGE_CURVE('',#228,#227,#107,.T.);
#272=EDGE_CURVE('',#229,#228,#108,.T.);
#273=EDGE_CURVE('',#230,#229,#109,.T.);
#274=EDGE_CURVE('',#231,#230,#110,.T.);
#275=EDGE_CURVE('',#231,#223,#111,.F.);
#276=EDGE_CURVE('',#232,#226,#27,.T.);
#277=EDGE_CURVE('',#233,#232,#112,.T.);
#278=EDGE_CURVE('',#233,#234,#113,.T.);
#279=EDGE_CURVE('',#227,#234,#28,.T.);
#280=EDGE_CURVE('',#225,#232,#114,.T.);
#281=EDGE_CURVE('',#223,#235,#115,.T.);
#282=EDGE_CURVE('',#235,#236,#116,.T.);
#283=EDGE_CURVE('',#236,#222,#117,.T.);
#284=EDGE_CURVE('',#237,#238,#118,.T.);
#285=EDGE_CURVE('',#238,#231,#119,.T.);
#286=EDGE_CURVE('',#231,#239,#120,.T.);
#287=EDGE_CURVE('',#237,#239,#121,.T.);
#288=EDGE_CURVE('',#233,#240,#122,.T.);
#289=EDGE_CURVE('',#240,#241,#123,.T.);
#290=EDGE_CURVE('',#234,#241,#124,.T.);
#291=EDGE_CURVE('',#239,#242,#125,.T.);
#292=EDGE_CURVE('',#243,#242,#126,.T.);
#293=EDGE_CURVE('',#237,#243,#127,.T.);
#294=EDGE_CURVE('',#241,#243,#29,.T.);
#295=EDGE_CURVE('',#242,#228,#30,.T.);
#296=EDGE_CURVE('',#244,#240,#128,.T.);
#297=EDGE_CURVE('',#233,#224,#129,.T.);
#298=EDGE_CURVE('',#224,#244,#130,.T.);
#299=EDGE_CURVE('',#240,#245,#131,.T.);
#300=EDGE_CURVE('',#246,#245,#31,.T.);
#301=EDGE_CURVE('',#237,#246,#132,.T.);
#302=EDGE_CURVE('',#239,#247,#133,.T.);
#303=EDGE_CURVE('',#229,#247,#32,.T.);
#304=EDGE_CURVE('',#238,#235,#134,.F.);
#305=EDGE_CURVE('',#238,#248,#135,.T.);
#306=EDGE_CURVE('',#249,#248,#136,.T.);
#307=EDGE_CURVE('',#244,#249,#137,.T.);
#308=EDGE_CURVE('',#236,#244,#138,.T.);
#309=EDGE_CURVE('',#248,#246,#139,.T.);
#310=EDGE_CURVE('',#245,#249,#140,.T.);
#311=EDGE_CURVE('',#247,#230,#141,.T.);
#312=EDGE_CURVE('',#250,#251,#142,.T.);
#313=EDGE_CURVE('',#252,#251,#143,.T.);
#314=EDGE_CURVE('',#253,#252,#144,.T.);
#315=EDGE_CURVE('',#254,#253,#145,.T.);
#316=EDGE_CURVE('',#255,#254,#146,.T.);
#317=EDGE_CURVE('',#256,#255,#147,.T.);
#318=EDGE_CURVE('',#257,#256,#148,.T.);
#319=EDGE_CURVE('',#250,#257,#149,.T.);
#320=EDGE_CURVE('',#253,#258,#33,.T.);
#321=EDGE_CURVE('',#258,#259,#150,.T.);
#322=EDGE_CURVE('',#259,#254,#34,.T.);
#323=EDGE_CURVE('',#260,#258,#151,.T.);
#324=EDGE_CURVE('',#252,#260,#35,.T.);
#325=EDGE_CURVE('',#260,#261,#152,.T.);
#326=EDGE_CURVE('',#261,#259,#153,.T.);
#327=EDGE_CURVE('',#261,#255,#36,.T.);
#328=EDGE_CURVE('',#262,#263,#154,.T.);
#329=EDGE_CURVE('',#257,#262,#155,.T.);
#330=EDGE_CURVE('',#263,#256,#156,.T.);
#331=EDGE_CURVE('',#251,#264,#157,.T.);
#332=EDGE_CURVE('',#264,#263,#158,.T.);
#333=EDGE_CURVE('',#264,#265,#159,.F.);
#334=EDGE_CURVE('',#265,#250,#160,.T.);
#335=EDGE_CURVE('',#262,#265,#161,.T.);
#336=ORIENTED_EDGE('',*,*,#266,.F.);
#337=ORIENTED_EDGE('',*,*,#267,.F.);
#338=ORIENTED_EDGE('',*,*,#268,.T.);
#339=ORIENTED_EDGE('',*,*,#269,.F.);
#340=ORIENTED_EDGE('',*,*,#270,.F.);
#341=ORIENTED_EDGE('',*,*,#271,.F.);
#342=ORIENTED_EDGE('',*,*,#272,.F.);
#343=ORIENTED_EDGE('',*,*,#273,.F.);
#344=ORIENTED_EDGE('',*,*,#274,.F.);
#345=ORIENTED_EDGE('',*,*,#275,.T.);
#346=ORIENTED_EDGE('',*,*,#270,.T.);
#347=ORIENTED_EDGE('',*,*,#276,.F.);
#348=ORIENTED_EDGE('',*,*,#277,.F.);
#349=ORIENTED_EDGE('',*,*,#278,.T.);
#350=ORIENTED_EDGE('',*,*,#279,.F.);
#351=ORIENTED_EDGE('',*,*,#269,.T.);
#352=ORIENTED_EDGE('',*,*,#280,.T.);
#353=ORIENTED_EDGE('',*,*,#276,.T.);
#354=ORIENTED_EDGE('',*,*,#266,.T.);
#355=ORIENTED_EDGE('',*,*,#281,.T.);
#356=ORIENTED_EDGE('',*,*,#282,.T.);
#357=ORIENTED_EDGE('',*,*,#283,.T.);
#358=ORIENTED_EDGE('',*,*,#284,.T.);
#359=ORIENTED_EDGE('',*,*,#285,.T.);
#360=ORIENTED_EDGE('',*,*,#286,.T.);
#361=ORIENTED_EDGE('',*,*,#287,.F.);
#362=ORIENTED_EDGE('',*,*,#288,.T.);
#363=ORIENTED_EDGE('',*,*,#289,.T.);
#364=ORIENTED_EDGE('',*,*,#290,.F.);
#365=ORIENTED_EDGE('',*,*,#278,.F.);
#366=ORIENTED_EDGE('',*,*,#287,.T.);
#367=ORIENTED_EDGE('',*,*,#291,.T.);
#368=ORIENTED_EDGE('',*,*,#292,.F.);
#369=ORIENTED_EDGE('',*,*,#293,.F.);
#370=ORIENTED_EDGE('',*,*,#271,.T.);
#371=ORIENTED_EDGE('',*,*,#279,.T.);
#372=ORIENTED_EDGE('',*,*,#290,.T.);
#373=ORIENTED_EDGE('',*,*,#294,.T.);
#374=ORIENTED_EDGE('',*,*,#292,.T.);
#375=ORIENTED_EDGE('',*,*,#295,.T.);
#376=ORIENTED_EDGE('',*,*,#296,.T.);
#377=ORIENTED_EDGE('',*,*,#288,.F.);
#378=ORIENTED_EDGE('',*,*,#297,.T.);
#379=ORIENTED_EDGE('',*,*,#298,.T.);
#380=ORIENTED_EDGE('',*,*,#299,.T.);
#381=ORIENTED_EDGE('',*,*,#300,.F.);
#382=ORIENTED_EDGE('',*,*,#301,.F.);
#383=ORIENTED_EDGE('',*,*,#293,.T.);
#384=ORIENTED_EDGE('',*,*,#294,.F.);
#385=ORIENTED_EDGE('',*,*,#289,.F.);
#386=ORIENTED_EDGE('',*,*,#272,.T.);
#387=ORIENTED_EDGE('',*,*,#295,.F.);
#388=ORIENTED_EDGE('',*,*,#291,.F.);
#389=ORIENTED_EDGE('',*,*,#302,.T.);
#390=ORIENTED_EDGE('',*,*,#303,.F.);
#391=ORIENTED_EDGE('',*,*,#282,.F.);
#392=ORIENTED_EDGE('',*,*,#304,.F.);
#393=ORIENTED_EDGE('',*,*,#305,.T.);
#394=ORIENTED_EDGE('',*,*,#306,.F.);
#395=ORIENTED_EDGE('',*,*,#307,.F.);
#396=ORIENTED_EDGE('',*,*,#308,.F.);
#397=ORIENTED_EDGE('',*,*,#309,.T.);
#398=ORIENTED_EDGE('',*,*,#300,.T.);
#399=ORIENTED_EDGE('',*,*,#310,.T.);
#400=ORIENTED_EDGE('',*,*,#306,.T.);
#401=ORIENTED_EDGE('',*,*,#273,.T.);
#402=ORIENTED_EDGE('',*,*,#303,.T.);
#403=ORIENTED_EDGE('',*,*,#311,.T.);
#404=ORIENTED_EDGE('',*,*,#286,.F.);
#405=ORIENTED_EDGE('',*,*,#274,.T.);
#406=ORIENTED_EDGE('',*,*,#311,.F.);
#407=ORIENTED_EDGE('',*,*,#302,.F.);
#408=ORIENTED_EDGE('',*,*,#268,.F.);
#409=ORIENTED_EDGE('',*,*,#297,.F.);
#410=ORIENTED_EDGE('',*,*,#277,.T.);
#411=ORIENTED_EDGE('',*,*,#280,.F.);
#412=ORIENTED_EDGE('',*,*,#298,.F.);
#413=ORIENTED_EDGE('',*,*,#267,.T.);
#414=ORIENTED_EDGE('',*,*,#283,.F.);
#415=ORIENTED_EDGE('',*,*,#308,.T.);
#416=ORIENTED_EDGE('',*,*,#296,.F.);
#417=ORIENTED_EDGE('',*,*,#307,.T.);
#418=ORIENTED_EDGE('',*,*,#310,.F.);
#419=ORIENTED_EDGE('',*,*,#299,.F.);
#420=ORIENTED_EDGE('',*,*,#305,.F.);
#421=ORIENTED_EDGE('',*,*,#284,.F.);
#422=ORIENTED_EDGE('',*,*,#301,.T.);
#423=ORIENTED_EDGE('',*,*,#309,.F.);
#424=ORIENTED_EDGE('',*,*,#285,.F.);
#425=ORIENTED_EDGE('',*,*,#304,.T.);
#426=ORIENTED_EDGE('',*,*,#281,.F.);
#427=ORIENTED_EDGE('',*,*,#275,.F.);
#428=ORIENTED_EDGE('',*,*,#312,.T.);
#429=ORIENTED_EDGE('',*,*,#313,.F.);
#430=ORIENTED_EDGE('',*,*,#314,.F.);
#431=ORIENTED_EDGE('',*,*,#315,.F.);
#432=ORIENTED_EDGE('',*,*,#316,.F.);
#433=ORIENTED_EDGE('',*,*,#317,.F.);
#434=ORIENTED_EDGE('',*,*,#318,.F.);
#435=ORIENTED_EDGE('',*,*,#319,.F.);
#436=ORIENTED_EDGE('',*,*,#315,.T.);
#437=ORIENTED_EDGE('',*,*,#320,.T.);
#438=ORIENTED_EDGE('',*,*,#321,.T.);
#439=ORIENTED_EDGE('',*,*,#322,.T.);
#440=ORIENTED_EDGE('',*,*,#323,.T.);
#441=ORIENTED_EDGE('',*,*,#320,.F.);
#442=ORIENTED_EDGE('',*,*,#314,.T.);
#443=ORIENTED_EDGE('',*,*,#324,.T.);
#444=ORIENTED_EDGE('',*,*,#325,.T.);
#445=ORIENTED_EDGE('',*,*,#326,.T.);
#446=ORIENTED_EDGE('',*,*,#321,.F.);
#447=ORIENTED_EDGE('',*,*,#323,.F.);
#448=ORIENTED_EDGE('',*,*,#327,.T.);
#449=ORIENTED_EDGE('',*,*,#316,.T.);
#450=ORIENTED_EDGE('',*,*,#322,.F.);
#451=ORIENTED_EDGE('',*,*,#326,.F.);
#452=ORIENTED_EDGE('',*,*,#328,.F.);
#453=ORIENTED_EDGE('',*,*,#329,.F.);
#454=ORIENTED_EDGE('',*,*,#318,.T.);
#455=ORIENTED_EDGE('',*,*,#330,.F.);
#456=ORIENTED_EDGE('',*,*,#317,.T.);
#457=ORIENTED_EDGE('',*,*,#327,.F.);
#458=ORIENTED_EDGE('',*,*,#325,.F.);
#459=ORIENTED_EDGE('',*,*,#324,.F.);
#460=ORIENTED_EDGE('',*,*,#313,.T.);
#461=ORIENTED_EDGE('',*,*,#331,.T.);
#462=ORIENTED_EDGE('',*,*,#332,.T.);
#463=ORIENTED_EDGE('',*,*,#330,.T.);
#464=ORIENTED_EDGE('',*,*,#333,.F.);
#465=ORIENTED_EDGE('',*,*,#331,.F.);
#466=ORIENTED_EDGE('',*,*,#312,.F.);
#467=ORIENTED_EDGE('',*,*,#334,.F.);
#468=ORIENTED_EDGE('',*,*,#319,.T.);
#469=ORIENTED_EDGE('',*,*,#329,.T.);
#470=ORIENTED_EDGE('',*,*,#335,.T.);
#471=ORIENTED_EDGE('',*,*,#334,.T.);
#472=ORIENTED_EDGE('',*,*,#333,.T.);
#473=ORIENTED_EDGE('',*,*,#335,.F.);
#474=ORIENTED_EDGE('',*,*,#328,.T.);
#475=ORIENTED_EDGE('',*,*,#332,.F.);
#476=PLANE('',#588);
#477=PLANE('',#592);
#478=PLANE('',#593);
#479=PLANE('',#594);
#480=PLANE('',#595);
#481=PLANE('',#596);
#482=PLANE('',#597);
#483=PLANE('',#600);
#484=PLANE('',#605);
#485=PLANE('',#606);
#486=PLANE('',#607);
#487=PLANE('',#608);
#488=PLANE('',#609);
#489=PLANE('',#610);
#490=PLANE('',#611);
#491=PLANE('',#612);
#492=PLANE('',#613);
#493=PLANE('',#615);
#494=PLANE('',#616);
#495=PLANE('',#621);
#496=PLANE('',#624);
#497=PLANE('',#625);
#498=PLANE('',#626);
#499=PLANE('',#627);
#500=PLANE('',#628);
#501=ADVANCED_FACE('',(#42),#476,.T.);
#502=ADVANCED_FACE('',(#43),#37,.T.);
#503=ADVANCED_FACE('',(#44),#477,.T.);
#504=ADVANCED_FACE('',(#45),#478,.T.);
#505=ADVANCED_FACE('',(#46),#479,.F.);
#506=ADVANCED_FACE('',(#47),#480,.T.);
#507=ADVANCED_FACE('',(#48),#481,.T.);
#508=ADVANCED_FACE('',(#49),#482,.T.);
#509=ADVANCED_FACE('',(#50),#483,.F.);
#510=ADVANCED_FACE('',(#51),#38,.T.);
#511=ADVANCED_FACE('',(#52),#39,.T.);
#512=ADVANCED_FACE('',(#53),#484,.T.);
#513=ADVANCED_FACE('',(#54),#485,.T.);
#514=ADVANCED_FACE('',(#55),#486,.T.);
#515=ADVANCED_FACE('',(#56),#487,.T.);
#516=ADVANCED_FACE('',(#57),#488,.T.);
#517=ADVANCED_FACE('',(#58),#489,.F.);
#518=ADVANCED_FACE('',(#59),#490,.T.);
#519=ADVANCED_FACE('',(#60),#491,.T.);
#520=ADVANCED_FACE('',(#61),#492,.F.);
#521=ADVANCED_FACE('',(#62),#493,.F.);
#522=ADVANCED_FACE('',(#63),#494,.T.);
#523=ADVANCED_FACE('',(#64),#40,.T.);
#524=ADVANCED_FACE('',(#65),#495,.T.);
#525=ADVANCED_FACE('',(#66),#41,.T.);
#526=ADVANCED_FACE('',(#67),#496,.T.);
#527=ADVANCED_FACE('',(#68),#497,.T.);
#528=ADVANCED_FACE('',(#69),#498,.T.);
#529=ADVANCED_FACE('',(#70),#499,.T.);
#530=ADVANCED_FACE('',(#71),#500,.F.);
#531=CLOSED_SHELL('',(#501,#502,#503,#504,#505,#506,#507,#508,#509,#510,
#511,#512,#513,#514,#515,#516,#517,#518,#519,#520));
#532=CLOSED_SHELL('',(#521,#522,#523,#524,#525,#526,#527,#528,#529,#530));
#533=DERIVED_UNIT_ELEMENT(#538,1.);
#534=DERIVED_UNIT_ELEMENT(#939,-3.);
#535=DERIVED_UNIT_ELEMENT(#538,1.);
#536=DERIVED_UNIT_ELEMENT(#939,-3.);
#537=DIMENSIONAL_EXPONENTS(0.,1.,0.,0.,0.,0.,0.);
#538=(
CONVERSION_BASED_UNIT('gram',#540)
MASS_UNIT()
NAMED_UNIT(#537)
);
#539=(
MASS_UNIT()
NAMED_UNIT(*)
SI_UNIT(.KILO.,.GRAM.)
);
#540=MASS_MEASURE_WITH_UNIT(MASS_MEASURE(0.001),#539);
#541=DERIVED_UNIT((#533,#534));
#542=DERIVED_UNIT((#535,#536));
#543=MEASURE_REPRESENTATION_ITEM('density measure',
POSITIVE_RATIO_MEASURE(1.),#541);
#544=MEASURE_REPRESENTATION_ITEM('density measure',
POSITIVE_RATIO_MEASURE(1.),#542);
#545=PROPERTY_DEFINITION_REPRESENTATION(#555,#549);
#546=PROPERTY_DEFINITION_REPRESENTATION(#556,#550);
#547=PROPERTY_DEFINITION_REPRESENTATION(#557,#551);
#548=PROPERTY_DEFINITION_REPRESENTATION(#558,#552);
#549=REPRESENTATION('material name',(#553),#935);
#550=REPRESENTATION('density',(#543),#935);
#551=REPRESENTATION('material name',(#554),#936);
#552=REPRESENTATION('density',(#544),#936);
#553=DESCRIPTIVE_REPRESENTATION_ITEM('Generic','Generic');
#554=DESCRIPTIVE_REPRESENTATION_ITEM('Generic','Generic');
#555=PROPERTY_DEFINITION('material property','material name',#955);
#556=PROPERTY_DEFINITION('material property','density of part',#955);
#557=PROPERTY_DEFINITION('material property','material name',#956);
#558=PROPERTY_DEFINITION('material property','density of part',#956);
#559=PRESENTATION_STYLE_ASSIGNMENT((#560));
#560=SURFACE_STYLE_USAGE(.BOTH.,#563);
#561=SURFACE_STYLE_RENDERING_WITH_PROPERTIES($,#567,(#562));
#562=SURFACE_STYLE_TRANSPARENT(0.);
#563=SURFACE_SIDE_STYLE('',(#564,#561));
#564=SURFACE_STYLE_FILL_AREA(#565);
#565=FILL_AREA_STYLE('',(#566));
#566=FILL_AREA_STYLE_COLOUR('',#567);
#567=COLOUR_RGB('',0.749019607843137,0.749019607843137,0.749019607843137);
#568=DATE_TIME_ROLE('creation_date');
#569=DATE_TIME_ROLE('creation_date');
#570=DATE_TIME_ROLE('creation_date');
#571=APPLIED_DATE_AND_TIME_ASSIGNMENT(#574,#568,(#954));
#572=APPLIED_DATE_AND_TIME_ASSIGNMENT(#575,#569,(#955));
#573=APPLIED_DATE_AND_TIME_ASSIGNMENT(#576,#570,(#956));
#574=DATE_AND_TIME(#577,#580);
#575=DATE_AND_TIME(#578,#581);
#576=DATE_AND_TIME(#579,#582);
#577=CALENDAR_DATE(2026,17,6);
#578=CALENDAR_DATE(2025,2,11);
#579=CALENDAR_DATE(2025,2,11);
#580=LOCAL_TIME(0,0,0.,#583);
#581=LOCAL_TIME(0,0,0.,#584);
#582=LOCAL_TIME(0,0,0.,#585);
#583=COORDINATED_UNIVERSAL_TIME_OFFSET(0,0,.BEHIND.);
#584=COORDINATED_UNIVERSAL_TIME_OFFSET(0,0,.BEHIND.);
#585=COORDINATED_UNIVERSAL_TIME_OFFSET(0,0,.BEHIND.);
#586=AXIS2_PLACEMENT_3D('',#781,#631,#632);
#587=AXIS2_PLACEMENT_3D('',#782,#633,#634);
#588=AXIS2_PLACEMENT_3D('',#783,#635,#636);
#589=AXIS2_PLACEMENT_3D('',#804,#647,#648);
#590=AXIS2_PLACEMENT_3D('',#806,#649,#650);
#591=AXIS2_PLACEMENT_3D('',#811,#653,#654);
#592=AXIS2_PLACEMENT_3D('',#812,#655,#656);
#593=AXIS2_PLACEMENT_3D('',#814,#658,#659);
#594=AXIS2_PLACEMENT_3D('',#820,#663,#664);
#595=AXIS2_PLACEMENT_3D('',#828,#669,#670);
#596=AXIS2_PLACEMENT_3D('',#834,#674,#675);
#597=AXIS2_PLACEMENT_3D('',#840,#679,#680);
#598=AXIS2_PLACEMENT_3D('',#841,#681,#682);
#599=AXIS2_PLACEMENT_3D('',#842,#683,#684);
#600=AXIS2_PLACEMENT_3D('',#843,#685,#686);
#601=AXIS2_PLACEMENT_3D('',#848,#690,#691);
#602=AXIS2_PLACEMENT_3D('',#852,#693,#694);
#603=AXIS2_PLACEMENT_3D('',#854,#696,#697);
#604=AXIS2_PLACEMENT_3D('',#857,#699,#700);
#605=AXIS2_PLACEMENT_3D('',#858,#701,#702);
#606=AXIS2_PLACEMENT_3D('',#866,#708,#709);
#607=AXIS2_PLACEMENT_3D('',#869,#712,#713);
#608=AXIS2_PLACEMENT_3D('',#871,#715,#716);
#609=AXIS2_PLACEMENT_3D('',#872,#717,#718);
#610=AXIS2_PLACEMENT_3D('',#873,#719,#720);
#611=AXIS2_PLACEMENT_3D('',#874,#721,#722);
#612=AXIS2_PLACEMENT_3D('',#875,#723,#724);
#613=AXIS2_PLACEMENT_3D('',#876,#725,#726);
#614=AXIS2_PLACEMENT_3D('',#877,#727,#728);
#615=AXIS2_PLACEMENT_3D('',#878,#729,#730);
#616=AXIS2_PLACEMENT_3D('',#895,#739,#740);
#617=AXIS2_PLACEMENT_3D('',#897,#741,#742);
#618=AXIS2_PLACEMENT_3D('',#900,#744,#745);
#619=AXIS2_PLACEMENT_3D('',#901,#746,#747);
#620=AXIS2_PLACEMENT_3D('',#904,#749,#750);
#621=AXIS2_PLACEMENT_3D('',#905,#751,#752);
#622=AXIS2_PLACEMENT_3D('',#909,#755,#756);
#623=AXIS2_PLACEMENT_3D('',#910,#757,#758);
#624=AXIS2_PLACEMENT_3D('',#911,#759,#760);
#625=AXIS2_PLACEMENT_3D('',#917,#764,#765);
#626=AXIS2_PLACEMENT_3D('',#921,#768,#769);
#627=AXIS2_PLACEMENT_3D('',#925,#772,#773);
#628=AXIS2_PLACEMENT_3D('',#927,#775,#776);
#629=AXIS2_PLACEMENT_3D('',#928,#777,#778);
#630=AXIS2_PLACEMENT_3D('',#929,#779,#780);
#631=DIRECTION('axis',(0.,0.,1.));
#632=DIRECTION('refdir',(1.,0.,0.));
#633=DIRECTION('axis',(0.,0.,1.));
#634=DIRECTION('refdir',(1.,0.,0.));
#635=DIRECTION('center_axis',(0.,1.,0.));
#636=DIRECTION('ref_axis',(0.,0.,1.));
#637=DIRECTION('',(1.,0.,0.));
#638=DIRECTION('',(0.,0.,-1.));
#639=DIRECTION('',(0.,0.,-1.));
#640=DIRECTION('',(1.,0.,0.));
#641=DIRECTION('',(0.,0.,-1.));
#642=DIRECTION('',(-1.,0.,0.));
#643=DIRECTION('',(0.,0.,1.));
#644=DIRECTION('',(1.,0.,0.));
#645=DIRECTION('',(0.,0.,-1.));
#646=DIRECTION('',(0.,0.,-1.));
#647=DIRECTION('center_axis',(0.,0.,-1.));
#648=DIRECTION('ref_axis',(-0.499999999999998,0.86602540378444,0.));
#649=DIRECTION('center_axis',(0.,0.,-1.));
#650=DIRECTION('ref_axis',(-0.499999999999998,0.86602540378444,0.));
#651=DIRECTION('',(0.,0.,-1.));
#652=DIRECTION('',(0.,0.,1.));
#653=DIRECTION('center_axis',(0.,0.,1.));
#654=DIRECTION('ref_axis',(-0.499999999999998,0.86602540378444,0.));
#655=DIRECTION('center_axis',(0.,0.,-1.));
#656=DIRECTION('ref_axis',(-1.,0.,0.));
#657=DIRECTION('',(-0.866025403784437,-0.500000000000002,0.));
#658=DIRECTION('center_axis',(0.,0.,-1.));
#659=DIRECTION('ref_axis',(-1.,0.,0.));
#660=DIRECTION('',(-0.5,-0.866025403784438,0.));
#661=DIRECTION('',(-1.,-6.86706805469099E-15,0.));
#662=DIRECTION('',(-0.5,0.866025403784439,0.));
#663=DIRECTION('center_axis',(0.,0.,1.));
#664=DIRECTION('ref_axis',(1.,0.,0.));
#665=DIRECTION('',(-0.866025403784438,0.500000000000001,0.));
#666=DIRECTION('',(0.5,0.866025403784438,0.));
#667=DIRECTION('',(0.866025403784438,-0.500000000000001,0.));
#668=DIRECTION('',(0.5,0.866025403784438,0.));
#669=DIRECTION('center_axis',(-0.866025403784439,-0.5,0.));
#670=DIRECTION('ref_axis',(0.5,-0.866025403784439,0.));
#671=DIRECTION('',(0.5,-0.866025403784439,0.));
#672=DIRECTION('',(0.,0.,1.));
#673=DIRECTION('',(0.5,-0.866025403784439,0.));
#674=DIRECTION('center_axis',(0.866025403784439,-0.5,0.));
#675=DIRECTION('ref_axis',(0.5,0.866025403784438,0.));
#676=DIRECTION('',(0.,0.,1.));
#677=DIRECTION('',(0.5,0.866025403784438,0.));
#678=DIRECTION('',(0.,0.,1.));
#679=DIRECTION('center_axis',(0.,0.,1.));
#680=DIRECTION('ref_axis',(1.,0.,0.));
#681=DIRECTION('center_axis',(0.,0.,1.));
#682=DIRECTION('ref_axis',(-0.499999999999998,-0.86602540378444,0.));
#683=DIRECTION('center_axis',(0.,0.,1.));
#684=DIRECTION('ref_axis',(1.,0.,0.));
#685=DIRECTION('center_axis',(0.,0.,1.));
#686=DIRECTION('ref_axis',(1.,0.,0.));
#687=DIRECTION('',(-0.866025403784439,-0.499999999999999,0.));
#688=DIRECTION('',(0.866025403784439,0.5,0.));
#689=DIRECTION('',(0.5,-0.866025403784439,0.));
#690=DIRECTION('center_axis',(0.,0.,-1.));
#691=DIRECTION('ref_axis',(-0.499999999999998,-0.86602540378444,0.));
#692=DIRECTION('',(0.,0.,-1.));
#693=DIRECTION('center_axis',(0.,0.,-1.));
#694=DIRECTION('ref_axis',(-0.499999999999998,-0.86602540378444,0.));
#695=DIRECTION('',(0.,0.,-1.));
#696=DIRECTION('center_axis',(0.,0.,-1.));
#697=DIRECTION('ref_axis',(1.,0.,0.));
#698=DIRECTION('',(0.,0.,-1.));
#699=DIRECTION('center_axis',(0.,0.,-1.));
#700=DIRECTION('ref_axis',(1.,0.,0.));
#701=DIRECTION('center_axis',(-6.86706805469099E-15,1.,0.));
#702=DIRECTION('ref_axis',(1.,6.86706805469099E-15,0.));
#703=DIRECTION('',(0.,0.,-1.));
#704=DIRECTION('',(0.,0.,-1.));
#705=DIRECTION('',(1.,6.86706805469099E-15,0.));
#706=DIRECTION('',(0.,0.,-1.));
#707=DIRECTION('',(0.,0.,-1.));
#708=DIRECTION('center_axis',(0.,0.,-1.));
#709=DIRECTION('ref_axis',(-1.,0.,0.));
#710=DIRECTION('',(0.866025403784439,-0.499999999999999,0.));
#711=DIRECTION('',(0.866025403784439,0.499999999999999,0.));
#712=DIRECTION('center_axis',(0.,0.,-1.));
#713=DIRECTION('ref_axis',(-1.,0.,0.));
#714=DIRECTION('',(-0.866025403784438,0.500000000000001,0.));
#715=DIRECTION('center_axis',(-0.500000000000001,-0.866025403784438,0.));
#716=DIRECTION('ref_axis',(-0.866025403784438,0.500000000000001,0.));
#717=DIRECTION('center_axis',(0.5,-0.866025403784439,0.));
#718=DIRECTION('ref_axis',(-0.866025403784439,-0.5,0.));
#719=DIRECTION('center_axis',(-0.866025403784439,-0.5,0.));
#720=DIRECTION('ref_axis',(-0.5,0.866025403784439,0.));
#721=DIRECTION('center_axis',(-0.5,0.866025403784439,0.));
#722=DIRECTION('ref_axis',(0.866025403784439,0.499999999999999,0.));
#723=DIRECTION('center_axis',(0.500000000000001,0.866025403784438,0.));
#724=DIRECTION('ref_axis',(0.866025403784438,-0.500000000000001,0.));
#725=DIRECTION('center_axis',(0.866025403784438,-0.5,0.));
#726=DIRECTION('ref_axis',(-0.5,-0.866025403784438,0.));
#727=DIRECTION('axis',(0.,0.,1.));
#728=DIRECTION('refdir',(1.,0.,0.));
#729=DIRECTION('center_axis',(0.,1.,0.));
#730=DIRECTION('ref_axis',(0.,0.,1.));
#731=DIRECTION('',(0.,0.,-1.));
#732=DIRECTION('',(-1.,0.,0.));
#733=DIRECTION('',(0.,0.,-1.));
#734=DIRECTION('',(1.,0.,0.));
#735=DIRECTION('',(0.,0.,1.));
#736=DIRECTION('',(-1.,0.,0.));
#737=DIRECTION('',(0.,0.,-1.));
#738=DIRECTION('',(-1.,0.,0.));
#739=DIRECTION('center_axis',(0.,0.,1.));
#740=DIRECTION('ref_axis',(1.,0.,0.));
#741=DIRECTION('center_axis',(0.,0.,1.));
#742=DIRECTION('ref_axis',(1.,0.,0.));
#743=DIRECTION('',(-1.,-4.44089209850063E-16,0.));
#744=DIRECTION('center_axis',(0.,0.,1.));
#745=DIRECTION('ref_axis',(-0.499999999999998,0.86602540378444,0.));
#746=DIRECTION('center_axis',(0.,0.,-1.));
#747=DIRECTION('ref_axis',(1.,0.,0.));
#748=DIRECTION('',(0.,0.,1.));
#749=DIRECTION('center_axis',(0.,0.,1.));
#750=DIRECTION('ref_axis',(1.,0.,0.));
#751=DIRECTION('center_axis',(-4.44089209850063E-16,1.,0.));
#752=DIRECTION('ref_axis',(-1.,-4.44089209850063E-16,0.));
#753=DIRECTION('',(-1.,-4.44089209850063E-16,0.));
#754=DIRECTION('',(0.,0.,1.));
#755=DIRECTION('center_axis',(0.,0.,-1.));
#756=DIRECTION('ref_axis',(-0.499999999999998,0.86602540378444,0.));
#757=DIRECTION('center_axis',(0.,0.,1.));
#758=DIRECTION('ref_axis',(-0.499999999999998,0.86602540378444,0.));
#759=DIRECTION('center_axis',(0.866025403784438,-0.500000000000001,0.));
#760=DIRECTION('ref_axis',(-0.500000000000001,-0.866025403784438,0.));
#761=DIRECTION('',(0.,0.,-1.));
#762=DIRECTION('',(0.500000000000001,0.866025403784438,0.));
#763=DIRECTION('',(-0.500000000000001,-0.866025403784438,0.));
#764=DIRECTION('center_axis',(0.,0.,-1.));
#765=DIRECTION('ref_axis',(-1.,0.,0.));
#766=DIRECTION('',(-0.500000000000002,0.866025403784437,0.));
#767=DIRECTION('',(-1.,-1.11022302462516E-16,0.));
#768=DIRECTION('center_axis',(-0.866025403784437,-0.500000000000002,0.));
#769=DIRECTION('ref_axis',(-0.500000000000002,0.866025403784437,0.));
#770=DIRECTION('',(0.,0.,-1.));
#771=DIRECTION('',(0.500000000000002,-0.866025403784437,0.));
#772=DIRECTION('center_axis',(0.,0.,-1.));
#773=DIRECTION('ref_axis',(-1.,0.,0.));
#774=DIRECTION('',(1.,1.11022302462516E-16,0.));
#775=DIRECTION('center_axis',(-1.11022302462516E-16,1.,0.));
#776=DIRECTION('ref_axis',(1.,1.11022302462516E-16,0.));
#777=DIRECTION('',(0.,0.,1.));
#778=DIRECTION('',(1.,0.,0.));
#779=DIRECTION('',(-6.10622663543836E-16,-0.707106781186547,0.707106781186548));
#780=DIRECTION('',(1.,-4.31775426138038E-16,4.31775426138038E-16));
#781=CARTESIAN_POINT('',(0.,0.,0.));
#782=CARTESIAN_POINT('',(0.,0.,0.));
#783=CARTESIAN_POINT('Origin',(3.26794919243112,1.,-5.));
#784=CARTESIAN_POINT('',(-3.26794919243112,0.999999999999999,-0.5));
#785=CARTESIAN_POINT('',(3.26794919243112,1.,-0.5));
#786=CARTESIAN_POINT('',(1.63397459621556,1.,-0.5));
#787=CARTESIAN_POINT('',(-3.26794919243112,0.999999999999999,-4.999));
#788=CARTESIAN_POINT('',(-3.26794919243112,0.999999999999999,0.));
#789=CARTESIAN_POINT('',(-3.26794919243113,1.,-5.));
#790=CARTESIAN_POINT('',(-3.26794919243113,1.,-0.5));
#791=CARTESIAN_POINT('',(-4.89897948556636,1.,-5.));
#792=CARTESIAN_POINT('',(-0.241025403784438,1.,-5.));
#793=CARTESIAN_POINT('',(-4.89897948556636,1.,0.5));
#794=CARTESIAN_POINT('',(-4.89897948556636,1.,0.));
#795=CARTESIAN_POINT('',(4.89897948556636,1.,0.5));
#796=CARTESIAN_POINT('',(1.63397459621556,1.,0.5));
#797=CARTESIAN_POINT('',(4.89897948556636,1.,-5.));
#798=CARTESIAN_POINT('',(4.89897948556636,1.,0.));
#799=CARTESIAN_POINT('',(3.26794919243112,1.,-5.));
#800=CARTESIAN_POINT('',(3.50897459621556,1.,-5.));
#801=CARTESIAN_POINT('',(3.26794919243112,1.,-4.999));
#802=CARTESIAN_POINT('',(3.26794919243112,1.,-0.5));
#803=CARTESIAN_POINT('',(3.26794919243112,1.,0.));
#804=CARTESIAN_POINT('Origin',(0.,0.,0.));
#805=CARTESIAN_POINT('',(-5.,-1.66533453693773E-15,-5.));
#806=CARTESIAN_POINT('Origin',(0.,0.,-5.));
#807=CARTESIAN_POINT('',(-5.,-1.75696319130231E-15,-4.999));
#808=CARTESIAN_POINT('',(-5.,-5.55111512312578E-16,0.));
#809=CARTESIAN_POINT('',(-5.,-5.55111512312578E-16,0.5));
#810=CARTESIAN_POINT('',(-5.,-8.12739661758407E-16,0.));
#811=CARTESIAN_POINT('Origin',(0.,0.,0.5));
#812=CARTESIAN_POINT('Origin',(-3.75,2.1650635094611,-5.));
#813=CARTESIAN_POINT('',(-3.26794919243113,1.,-5.));
#814=CARTESIAN_POINT('Origin',(5.55111512312578E-16,5.55111512312578E-16,
-0.5));
#815=CARTESIAN_POINT('',(0.767949192431122,-3.33012701892219,-0.5));
#816=CARTESIAN_POINT('',(0.767949192431122,-3.33012701892219,-0.5));
#817=CARTESIAN_POINT('',(-0.767949192431122,-3.3301270189222,-0.5));
#818=CARTESIAN_POINT('',(-0.383974596215549,-3.33012701892219,-0.5));
#819=CARTESIAN_POINT('',(-3.26794919243112,0.999999999999999,-0.5));
#820=CARTESIAN_POINT('Origin',(5.55111512312578E-16,5.55111512312578E-16,
-4.999));
#821=CARTESIAN_POINT('',(2.5,-4.33012701892219,-4.999));
#822=CARTESIAN_POINT('',(0.76794919243112,-3.33012701892219,-4.999));
#823=CARTESIAN_POINT('',(2.5,-4.33012701892219,-4.999));
#824=CARTESIAN_POINT('',(0.767949192431122,-3.33012701892219,-4.999));
#825=CARTESIAN_POINT('',(5.,-1.83400382508157E-15,-4.999));
#826=CARTESIAN_POINT('',(3.26794919243112,1.,-4.999));
#827=CARTESIAN_POINT('',(2.5,-4.33012701892219,-4.999));
#828=CARTESIAN_POINT('Origin',(-5.,-7.4833262439695E-16,0.));
#829=CARTESIAN_POINT('',(-2.5,-4.33012701892219,-4.999));
#830=CARTESIAN_POINT('',(-5.,-5.55111512312578E-16,-4.999));
#831=CARTESIAN_POINT('',(-2.5,-4.33012701892219,0.5));
#832=CARTESIAN_POINT('',(-2.5,-4.33012701892219,0.));
#833=CARTESIAN_POINT('',(-5.,-5.55111512312578E-16,0.5));
#834=CARTESIAN_POINT('Origin',(2.5,-4.33012701892219,0.));
#835=CARTESIAN_POINT('',(5.,-1.66533453693773E-15,0.5));
#836=CARTESIAN_POINT('',(5.,-1.83400382508157E-15,0.));
#837=CARTESIAN_POINT('',(2.5,-4.33012701892219,0.5));
#838=CARTESIAN_POINT('',(2.5,-4.33012701892219,0.5));
#839=CARTESIAN_POINT('',(2.5,-4.33012701892219,0.));
#840=CARTESIAN_POINT('Origin',(5.55111512312578E-16,5.55111512312578E-16,
0.5));
#841=CARTESIAN_POINT('Origin',(0.,0.,0.5));
#842=CARTESIAN_POINT('Origin',(0.,0.,0.5));
#843=CARTESIAN_POINT('Origin',(5.55111512312578E-16,5.55111512312578E-16,
-4.999));
#844=CARTESIAN_POINT('',(-0.767949192431122,-3.3301270189222,-4.999));
#845=CARTESIAN_POINT('',(-0.767949192431122,-3.3301270189222,-4.999));
#846=CARTESIAN_POINT('',(-5.,-1.11022302462516E-15,-4.999));
#847=CARTESIAN_POINT('',(-3.26794919243112,0.999999999999999,-4.999));
#848=CARTESIAN_POINT('Origin',(0.,0.,0.));
#849=CARTESIAN_POINT('',(-2.5,-4.33012701892219,-5.));
#850=CARTESIAN_POINT('',(-2.5,-4.33012701892219,0.));
#851=CARTESIAN_POINT('',(2.5,-4.33012701892218,-5.));
#852=CARTESIAN_POINT('Origin',(0.,0.,-5.));
#853=CARTESIAN_POINT('',(2.5,-4.33012701892219,0.));
#854=CARTESIAN_POINT('Origin',(0.,0.,0.));
#855=CARTESIAN_POINT('',(5.,-1.94289029309402E-15,-5.));
#856=CARTESIAN_POINT('',(5.,-1.83400382508157E-15,0.));
#857=CARTESIAN_POINT('Origin',(0.,0.,-5.));
#858=CARTESIAN_POINT('Origin',(-0.767949192431122,-3.3301270189222,-0.5));
#859=CARTESIAN_POINT('',(0.767949192431122,-3.33012701892219,0.));
#860=CARTESIAN_POINT('',(0.767949192431119,-3.33012701892218,-5.));
#861=CARTESIAN_POINT('',(0.767949192431119,-3.33012701892218,-0.5));
#862=CARTESIAN_POINT('',(-0.767949192431122,-3.3301270189222,-5.));
#863=CARTESIAN_POINT('',(-0.767949192431122,-3.3301270189222,-5.));
#864=CARTESIAN_POINT('',(-0.767949192431122,-3.3301270189222,-0.5));
#865=CARTESIAN_POINT('',(-0.767949192431122,-3.3301270189222,-0.5));
#866=CARTESIAN_POINT('Origin',(-1.11022302462516E-15,-3.83012701892219,
-5.));
#867=CARTESIAN_POINT('',(0.767949192431119,-3.33012701892218,-5.));
#868=CARTESIAN_POINT('',(-2.5,-4.33012701892219,-5.));
#869=CARTESIAN_POINT('Origin',(3.75,2.1650635094611,-5.));
#870=CARTESIAN_POINT('',(5.,-1.83400382508157E-15,-5.));
#871=CARTESIAN_POINT('Origin',(5.,-8.32667268468867E-16,0.));
#872=CARTESIAN_POINT('Origin',(-3.26794919243112,1.,0.));
#873=CARTESIAN_POINT('Origin',(-0.767949192431121,-3.3301270189222,0.));
#874=CARTESIAN_POINT('Origin',(-2.5,-4.3301270189222,0.));
#875=CARTESIAN_POINT('Origin',(0.767949192431122,-3.33012701892219,0.));
#876=CARTESIAN_POINT('Origin',(3.26794919243113,1.,0.));
#877=CARTESIAN_POINT('',(0.,0.,0.));
#878=CARTESIAN_POINT('Origin',(3.26794919243112,1.,-5.));
#879=CARTESIAN_POINT('',(3.26794919243112,1.,-0.5));
#880=CARTESIAN_POINT('',(3.26794919243112,1.,-5.));
#881=CARTESIAN_POINT('',(3.26794919243112,1.,-0.5));
#882=CARTESIAN_POINT('',(4.89897948556636,1.,-5.));
#883=CARTESIAN_POINT('',(3.50897459621556,1.,-5.));
#884=CARTESIAN_POINT('',(4.89897948556636,1.,0.5));
#885=CARTESIAN_POINT('',(4.89897948556636,1.,0.));
#886=CARTESIAN_POINT('',(-4.89897948556636,1.,0.5));
#887=CARTESIAN_POINT('',(1.63397459621556,1.,0.5));
#888=CARTESIAN_POINT('',(-4.89897948556636,1.,-5.));
#889=CARTESIAN_POINT('',(-4.89897948556636,1.,0.));
#890=CARTESIAN_POINT('',(-3.26794919243113,1.,-5.));
#891=CARTESIAN_POINT('',(-0.241025403784438,1.,-5.));
#892=CARTESIAN_POINT('',(-3.26794919243112,0.999999999999999,-0.5));
#893=CARTESIAN_POINT('',(-3.26794919243113,1.,-0.5));
#894=CARTESIAN_POINT('',(1.63397459621556,1.,-0.5));
#895=CARTESIAN_POINT('Origin',(5.55111512312578E-16,5.55111512312578E-16,
0.5));
#896=CARTESIAN_POINT('',(2.5,4.3301270189222,0.5));
#897=CARTESIAN_POINT('Origin',(0.,0.,0.5));
#898=CARTESIAN_POINT('',(-2.5,4.33012701892219,0.5));
#899=CARTESIAN_POINT('',(2.5,4.3301270189222,0.5));
#900=CARTESIAN_POINT('Origin',(0.,0.,0.5));
#901=CARTESIAN_POINT('Origin',(0.,0.,0.));
#902=CARTESIAN_POINT('',(2.5,4.3301270189222,-5.));
#903=CARTESIAN_POINT('',(2.5,4.3301270189222,0.));
#904=CARTESIAN_POINT('Origin',(0.,0.,-5.));
#905=CARTESIAN_POINT('Origin',(2.5,4.3301270189222,0.));
#906=CARTESIAN_POINT('',(-2.5,4.33012701892219,-5.));
#907=CARTESIAN_POINT('',(2.5,4.3301270189222,-5.));
#908=CARTESIAN_POINT('',(-2.5,4.33012701892219,0.));
#909=CARTESIAN_POINT('Origin',(0.,0.,0.));
#910=CARTESIAN_POINT('Origin',(0.,0.,-5.));
#911=CARTESIAN_POINT('Origin',(-2.5,2.33012701892219,-0.5));
#912=CARTESIAN_POINT('',(-2.5,2.33012701892219,-0.5));
#913=CARTESIAN_POINT('',(-2.5,2.33012701892219,-5.));
#914=CARTESIAN_POINT('',(-2.5,2.33012701892219,-0.5));
#915=CARTESIAN_POINT('',(-2.69198729810778,1.99759526419165,-0.5));
#916=CARTESIAN_POINT('',(-2.5,2.33012701892219,-5.));
#917=CARTESIAN_POINT('Origin',(-3.75,2.1650635094611,-5.));
#918=CARTESIAN_POINT('',(2.5,2.33012701892219,-5.));
#919=CARTESIAN_POINT('',(3.26794919243112,1.,-5.));
#920=CARTESIAN_POINT('',(2.5,2.33012701892219,-5.));
#921=CARTESIAN_POINT('Origin',(3.26794919243112,1.,-0.5));
#922=CARTESIAN_POINT('',(2.5,2.33012701892219,-0.5));
#923=CARTESIAN_POINT('',(2.5,2.33012701892219,0.));
#924=CARTESIAN_POINT('',(3.07596189432334,1.33253175473055,-0.5));
#925=CARTESIAN_POINT('Origin',(5.55111512312578E-16,5.55111512312578E-16,
-0.5));
#926=CARTESIAN_POINT('',(2.5,2.33012701892219,-0.5));
#927=CARTESIAN_POINT('Origin',(-2.5,2.33012701892219,0.));
#928=CARTESIAN_POINT('',(-21.2914063077933,-7.69778428943316,2.25));
#929=CARTESIAN_POINT('',(-21.2914063077933,-7.05133768002643,1.68933982822018));
#930=UNCERTAINTY_MEASURE_WITH_UNIT(LENGTH_MEASURE(0.01),#938,
'DISTANCE_ACCURACY_VALUE',
'Maximum model space distance between geometric entities at asserted c
onnectivities');
#931=UNCERTAINTY_MEASURE_WITH_UNIT(LENGTH_MEASURE(0.01),#938,
'DISTANCE_ACCURACY_VALUE',
'Maximum model space distance between geometric entities at asserted c
onnectivities');
#932=UNCERTAINTY_MEASURE_WITH_UNIT(LENGTH_MEASURE(0.01),#938,
'DISTANCE_ACCURACY_VALUE',
'Maximum model space distance between geometric entities at asserted c
onnectivities');
#933=UNCERTAINTY_MEASURE_WITH_UNIT(LENGTH_MEASURE(0.01),#938,
'DISTANCE_ACCURACY_VALUE',
'Maximum model space distance between geometric entities at asserted c
onnectivities');
#934=(
GEOMETRIC_REPRESENTATION_CONTEXT(3)
GLOBAL_UNCERTAINTY_ASSIGNED_CONTEXT((#930))
GLOBAL_UNIT_ASSIGNED_CONTEXT((#938,#940,#941))
REPRESENTATION_CONTEXT('','3D')
);
#935=(
GEOMETRIC_REPRESENTATION_CONTEXT(3)
GLOBAL_UNCERTAINTY_ASSIGNED_CONTEXT((#931))
GLOBAL_UNIT_ASSIGNED_CONTEXT((#938,#940,#941))
REPRESENTATION_CONTEXT('','3D')
);
#936=(
GEOMETRIC_REPRESENTATION_CONTEXT(3)
GLOBAL_UNCERTAINTY_ASSIGNED_CONTEXT((#932))
GLOBAL_UNIT_ASSIGNED_CONTEXT((#938,#940,#941))
REPRESENTATION_CONTEXT('','3D')
);
#937=(
GEOMETRIC_REPRESENTATION_CONTEXT(3)
GLOBAL_UNCERTAINTY_ASSIGNED_CONTEXT((#933))
GLOBAL_UNIT_ASSIGNED_CONTEXT((#938,#940,#941))
REPRESENTATION_CONTEXT('','3D')
);
#938=(
LENGTH_UNIT()
NAMED_UNIT(*)
SI_UNIT(.MILLI.,.METRE.)
);
#939=(
LENGTH_UNIT()
NAMED_UNIT(*)
SI_UNIT(.CENTI.,.METRE.)
);
#940=(
NAMED_UNIT(*)
PLANE_ANGLE_UNIT()
SI_UNIT($,.RADIAN.)
);
#941=(
NAMED_UNIT(*)
SI_UNIT($,.STERADIAN.)
SOLID_ANGLE_UNIT()
);
#942=SHAPE_DEFINITION_REPRESENTATION(#945,#950);
#943=SHAPE_DEFINITION_REPRESENTATION(#946,#951);
#944=SHAPE_DEFINITION_REPRESENTATION(#947,#952);
#945=PRODUCT_DEFINITION_SHAPE('',$,#954);
#946=PRODUCT_DEFINITION_SHAPE('',$,#955);
#947=PRODUCT_DEFINITION_SHAPE('',$,#956);
#948=PRODUCT_DEFINITION_SHAPE($,$,#17);
#949=PRODUCT_DEFINITION_SHAPE($,$,#18);
#950=SHAPE_REPRESENTATION('',(#586,#629,#630),#934);
#951=SHAPE_REPRESENTATION('',(#587),#935);
#952=SHAPE_REPRESENTATION('',(#614),#936);
#953=PRODUCT_DEFINITION_CONTEXT('part definition',#964,'design');
#954=PRODUCT_DEFINITION('Assembly1','Assembly1',#957,#953);
#955=PRODUCT_DEFINITION('BodyFoldedSide1','BodyFoldedSide1',#958,#953);
#956=PRODUCT_DEFINITION('BodyFoldedSide2','BodyFoldedSide2',#959,#953);
#957=PRODUCT_DEFINITION_FORMATION('',$,#966);
#958=PRODUCT_DEFINITION_FORMATION('',$,#967);
#959=PRODUCT_DEFINITION_FORMATION('',$,#968);
#960=PRODUCT_RELATED_PRODUCT_CATEGORY('Assembly1','Assembly1',(#966));
#961=PRODUCT_RELATED_PRODUCT_CATEGORY('BodyFoldedSide1',
'BodyFoldedSide1',(#967));
#962=PRODUCT_RELATED_PRODUCT_CATEGORY('BodyFoldedSide2',
'BodyFoldedSide2',(#968));
#963=APPLICATION_PROTOCOL_DEFINITION('international standard',
'automotive_design',2009,#964);
#964=APPLICATION_CONTEXT(
'Core Data for Automotive Mechanical Design Process');
#965=PRODUCT_CONTEXT('part definition',#964,'mechanical');
#966=PRODUCT('Assembly1','Assembly1',$,(#965));
#967=PRODUCT('BodyFoldedSide1','BodyFoldedSide1',$,(#965));
#968=PRODUCT('BodyFoldedSide2','BodyFoldedSide2',$,(#965));
ENDSEC;
END-ISO-10303-21;
